<svg width="27" height="41" viewBox="0 0 27 41" fill="none" xmlns="http://www.w3.org/2000/svg">
<path d="M2.07532 10.1793H18.8893C19.2407 10.1793 19.5262 9.82798 19.5262 9.3961V1.46123C19.5262 1.02935 19.2407 0.677994 18.8893 0.677994H2.07532C1.72396 0.677994 1.43848 1.02935 1.43848 1.46123V9.3961C1.43848 9.82798 1.72396 10.1793 2.07532 10.1793Z" fill="#6666FF"/>
<path d="M22.0515 0.696259L26.2056 4.85035C26.4728 5.11753 26.4728 5.55673 26.2056 5.82391L21.9857 10.0439C21.5501 10.4794 20.8071 10.1683 20.8108 9.55345L20.8767 1.18304C20.8803 0.571819 21.6197 0.2717 22.0515 0.703579V0.696259Z" fill="#6AE5DF"/>
<path d="M10.1602 11.5774H2.22172C1.78914 11.5774 1.43848 11.9281 1.43848 12.3606V20.2992C1.43848 20.7317 1.78914 21.0824 2.22172 21.0824H10.1602C10.5928 21.0824 10.9435 20.7317 10.9435 20.2992V12.3606C10.9435 11.9281 10.5928 11.5774 10.1602 11.5774Z" fill="#6666FF"/>
<path d="M5.47169 40.3999C8.49362 40.3999 10.9434 37.9501 10.9434 34.9282C10.9434 31.9062 8.49362 29.4565 5.47169 29.4565C2.44976 29.4565 0 31.9062 0 34.9282C0 37.9501 2.44976 40.3999 5.47169 40.3999Z" fill="#6AE5DF"/>
<path d="M12.2756 39.7118V31.927C12.2756 31.5317 12.5721 31.206 12.9674 31.1511C15.4342 30.8144 17.3411 28.6916 17.3411 26.1332C17.3411 23.5749 15.4342 21.4521 12.9674 21.1154C12.5758 21.0605 12.2756 20.7347 12.2756 20.3394V12.5546C12.2756 12.1008 12.6599 11.7421 13.1138 11.7677C20.657 12.2033 26.6631 18.4802 26.6631 26.1332C26.6631 33.7863 20.657 40.0632 13.1138 40.4987C12.6599 40.5243 12.2756 40.1656 12.2756 39.7118Z" fill="#6666FF"/>
</svg>
