<svg width="869" height="817" viewBox="0 0 869 817" fill="none" xmlns="http://www.w3.org/2000/svg">
<g clip-path="url(#clip0_34_985)">
<rect width="868" height="817" transform="translate(0.834961)" fill="white"/>
<g clip-path="url(#clip1_34_985)">
<path d="M277.914 739.065C315.888 718.608 330.089 671.24 309.633 633.266C289.176 595.291 241.808 581.09 203.833 601.547C165.859 622.003 151.658 669.371 172.115 707.346C192.571 745.32 239.939 759.522 277.914 739.065Z" fill="#6666FF"/>
<path d="M270.283 731.865C270.283 731.865 270.214 731.902 270.179 731.92C269.694 732.155 269.194 732.38 268.701 732.601C267.522 733.13 266.136 732.599 265.607 731.42C265.079 730.241 265.613 728.862 266.789 728.327C267.247 728.124 267.709 727.911 268.167 727.691C269.331 727.134 270.734 727.63 271.29 728.794C271.827 729.924 271.376 731.276 270.289 731.861L270.283 731.865ZM280.416 725.892C279.391 726.443 278.097 726.165 277.403 725.19C276.651 724.14 276.89 722.672 277.94 721.921C278.35 721.628 278.764 721.326 279.16 721.024C280.188 720.248 281.665 720.455 282.441 721.483C283.22 722.518 283.01 723.988 281.982 724.764C281.551 725.085 281.114 725.409 280.673 725.726C280.591 725.788 280.502 725.837 280.412 725.885L280.416 725.892ZM257.738 736.36C257.566 736.453 257.383 736.525 257.186 736.569C256.662 736.701 256.128 736.829 255.604 736.942C254.344 737.222 253.089 736.425 252.81 735.165C252.527 733.898 253.327 732.651 254.587 732.371C255.08 732.265 255.573 732.142 256.062 732.029C257.314 731.719 258.588 732.487 258.899 733.739C259.158 734.797 258.653 735.868 257.738 736.36ZM290.407 717.068C289.547 717.531 288.461 717.424 287.706 716.731C286.753 715.851 286.694 714.375 287.573 713.422C287.915 713.052 288.253 712.674 288.591 712.297C289.445 711.331 290.928 711.234 291.894 712.088C292.867 712.939 292.957 714.425 292.103 715.391C291.745 715.797 291.383 716.196 291.014 716.598C290.835 716.792 290.627 716.949 290.4 717.071L290.407 717.068ZM244.537 738.22C244.235 738.383 243.888 738.481 243.515 738.496C242.967 738.516 242.426 738.532 241.877 738.535C240.581 738.55 239.519 737.517 239.504 736.221C239.489 734.925 240.522 733.862 241.818 733.847C242.321 733.842 242.827 733.827 243.334 733.812C244.629 733.762 245.715 734.773 245.761 736.061C245.796 736.983 245.29 737.805 244.527 738.217L244.537 738.22ZM298.405 706.407C297.704 706.785 296.824 706.798 296.087 706.352C294.976 705.69 294.618 704.251 295.286 703.137C295.549 702.703 295.801 702.265 296.054 701.828C296.69 700.704 298.129 700.311 299.245 700.951C300.373 701.595 300.762 703.026 300.122 704.143C299.853 704.616 299.581 705.082 299.305 705.541C299.082 705.918 298.766 706.204 298.408 706.396L298.405 706.407ZM231.226 737.371C230.786 737.608 230.261 737.705 229.727 737.619C229.193 737.534 228.659 737.432 228.129 737.336C226.856 737.099 226.026 735.87 226.263 734.598C226.5 733.325 227.729 732.495 229.002 732.732C229.497 732.829 229.996 732.915 230.502 732.997C231.78 733.213 232.642 734.417 232.426 735.696C232.301 736.437 231.838 737.041 231.226 737.371ZM304.087 694.36C303.523 694.663 302.844 694.737 302.194 694.501C300.975 694.067 300.337 692.734 300.768 691.508C300.938 691.035 301.099 690.558 301.255 690.075C301.658 688.846 302.983 688.177 304.207 688.573C305.436 688.976 306.112 690.297 305.709 691.525C305.543 692.041 305.367 692.553 305.183 693.068C304.984 693.637 304.585 694.082 304.09 694.349L304.087 694.36ZM218.368 733.874C217.79 734.185 217.083 734.255 216.415 734.003C215.909 733.805 215.404 733.608 214.905 733.406C213.709 732.915 213.132 731.549 213.63 730.349C214.122 729.153 215.488 728.577 216.688 729.075C217.155 729.267 217.629 729.455 218.099 729.636C219.308 730.103 219.912 731.454 219.446 732.663C219.235 733.211 218.846 733.625 218.365 733.884L218.368 733.874ZM307.253 681.414C306.827 681.644 306.33 681.743 305.821 681.671C304.537 681.494 303.641 680.308 303.822 679.031C303.891 678.533 303.956 678.027 304.014 677.526C304.163 676.239 305.327 675.319 306.61 675.462C307.897 675.611 308.817 676.775 308.674 678.058C308.61 678.598 308.546 679.138 308.472 679.675C308.363 680.444 307.896 681.077 307.264 681.417L307.253 681.414ZM206.468 727.873C205.746 728.262 204.831 728.259 204.096 727.785C203.64 727.498 203.188 727.201 202.738 726.893C201.664 726.168 201.379 724.716 202.104 723.642C202.83 722.568 204.282 722.282 205.356 723.008C205.773 723.289 206.197 723.566 206.618 723.836C207.712 724.533 208.028 725.977 207.331 727.071C207.111 727.42 206.812 727.688 206.468 727.873ZM307.741 668.093C307.453 668.248 307.131 668.342 306.782 668.37C305.488 668.455 304.375 667.475 304.297 666.178C304.264 665.672 304.224 665.17 304.181 664.661C304.065 663.376 305.023 662.239 306.308 662.123C307.594 662.006 308.738 662.96 308.847 664.25C308.892 664.794 308.936 665.338 308.97 665.878C309.027 666.823 308.525 667.67 307.741 668.093ZM196.023 719.599C195.15 720.069 194.028 719.946 193.279 719.214C192.89 718.838 192.504 718.452 192.125 718.061C191.22 717.138 191.238 715.656 192.161 714.751C193.09 713.842 194.566 713.864 195.471 714.786C195.824 715.146 196.185 715.502 196.541 715.851C197.47 716.752 197.487 718.233 196.586 719.162C196.413 719.335 196.225 719.481 196.019 719.592L196.023 719.599ZM305.534 654.937C305.383 655.019 305.213 655.083 305.043 655.13C303.793 655.476 302.509 654.739 302.167 653.495C302.03 653.01 301.892 652.525 301.745 652.037C301.372 650.801 302.069 649.494 303.312 649.117C304.548 648.744 305.859 649.448 306.232 650.684C306.388 651.204 306.537 651.727 306.682 652.243C306.977 653.317 306.479 654.419 305.537 654.927L305.534 654.937ZM187.468 709.383C186.423 709.946 185.103 709.637 184.419 708.631C184.115 708.182 183.819 707.73 183.522 707.278C182.821 706.191 183.14 704.742 184.227 704.041C185.331 703.34 186.763 703.66 187.463 704.747C187.738 705.175 188.017 705.593 188.295 706.011C189.023 707.082 188.742 708.537 187.671 709.265C187.606 709.309 187.534 709.357 187.465 709.394L187.468 709.383ZM300.714 642.515C300.714 642.515 300.679 642.533 300.666 642.541C299.509 643.128 298.101 642.671 297.514 641.515C297.284 641.071 297.05 640.621 296.809 640.174L296.742 640.05C296.127 638.909 296.553 637.491 297.694 636.876C298.835 636.261 300.253 636.686 300.868 637.828L300.935 637.951C301.194 638.433 301.449 638.907 301.691 639.389C302.267 640.524 301.835 641.911 300.714 642.515ZM181.142 697.657C181.074 697.694 181.005 697.731 180.932 697.761C179.738 698.262 178.369 697.696 177.868 696.502C177.66 696.002 177.46 695.498 177.259 694.994C176.786 693.785 177.394 692.428 178.596 691.958C179.798 691.488 181.158 692.086 181.631 693.295C181.813 693.765 182.002 694.231 182.202 694.7C182.673 695.821 182.198 697.097 181.153 697.66L181.142 697.657ZM293.425 631.191C292.449 631.717 291.205 631.483 290.486 630.593C290.166 630.197 289.85 629.808 289.527 629.423C288.694 628.435 288.827 626.953 289.815 626.119C290.803 625.285 292.285 625.418 293.119 626.406C293.467 626.822 293.808 627.242 294.153 627.668C294.963 628.677 294.798 630.15 293.789 630.96C293.676 631.047 293.56 631.128 293.436 631.195L293.425 631.191ZM177.287 684.901C177.081 685.012 176.86 685.096 176.616 685.138C175.348 685.386 174.117 684.55 173.869 683.282C173.765 682.744 173.665 682.212 173.579 681.673C173.362 680.398 174.216 679.183 175.495 678.973C176.771 678.756 177.978 679.614 178.196 680.89C178.281 681.394 178.369 681.887 178.468 682.384C178.667 683.412 178.163 684.42 177.283 684.894L177.287 684.901ZM284.095 621.677C283.277 622.118 282.244 622.045 281.487 621.415C281.1 621.091 280.71 620.778 280.319 620.465C279.302 619.664 279.128 618.188 279.932 617.178C280.733 616.161 282.209 615.987 283.219 616.791C283.642 617.131 284.061 617.464 284.481 617.815C285.477 618.644 285.613 620.115 284.784 621.111C284.585 621.352 284.35 621.54 284.095 621.677ZM176.092 671.617C175.755 671.798 175.367 671.901 174.955 671.893C173.661 671.88 172.626 670.814 172.639 669.521C172.647 668.975 172.658 668.437 172.677 667.894C172.724 666.6 173.805 665.592 175.099 665.64C176.394 665.688 177.402 666.768 177.354 668.063C177.334 668.57 177.322 669.074 177.32 669.58C177.308 670.465 176.811 671.221 176.082 671.614L176.092 671.617ZM273.033 614.25C272.366 614.609 271.538 614.638 270.817 614.255C270.37 614.017 269.926 613.786 269.475 613.558C268.318 612.975 267.852 611.567 268.436 610.41C269.019 609.253 270.427 608.787 271.584 609.371C272.07 609.614 272.549 609.862 273.025 610.12C274.169 610.728 274.597 612.148 273.996 613.288C273.771 613.71 273.431 614.035 273.039 614.246L273.033 614.25ZM177.603 658.365C177.129 658.621 176.559 658.715 175.996 658.592C174.729 658.317 173.933 657.069 174.202 655.806C174.315 655.275 174.439 654.747 174.563 654.219C174.87 652.962 176.133 652.194 177.393 652.491C178.65 652.798 179.418 654.061 179.114 655.325C178.997 655.814 178.882 656.31 178.775 656.802C178.625 657.495 178.181 658.054 177.596 658.369L177.603 658.365ZM260.704 609.199C260.182 609.481 259.545 609.566 258.931 609.382C258.444 609.237 257.961 609.098 257.475 608.969C256.228 608.63 255.49 607.342 255.829 606.094C256.168 604.847 257.453 604.102 258.704 604.448C259.225 604.593 259.747 604.738 260.272 604.89C261.51 605.261 262.221 606.564 261.85 607.801C261.662 608.426 261.244 608.917 260.715 609.202L260.704 609.199ZM181.742 645.694C181.13 646.024 180.37 646.078 179.683 645.774C178.496 645.251 177.965 643.87 178.488 642.683C178.707 642.184 178.933 641.698 179.163 641.202C179.714 640.036 181.111 639.532 182.284 640.08C183.457 640.627 183.954 642.028 183.406 643.201C183.19 643.655 182.983 644.112 182.781 644.576C182.562 645.075 182.189 645.453 181.749 645.69L181.742 645.694ZM247.605 606.719C247.22 606.927 246.769 607.028 246.296 606.99C245.795 606.949 245.287 606.912 244.779 606.875C243.484 606.792 242.503 605.68 242.589 604.391C242.672 603.095 243.785 602.115 245.073 602.201C245.616 602.237 246.159 602.273 246.698 602.319C247.991 602.43 248.941 603.568 248.827 604.854C248.754 605.674 248.279 606.356 247.605 606.719ZM188.329 634.109C187.566 634.52 186.611 634.493 185.861 633.957C184.807 633.203 184.563 631.746 185.307 630.689C185.618 630.246 185.937 629.817 186.259 629.377C187.031 628.34 188.507 628.131 189.537 628.907C190.574 629.679 190.783 631.154 190.007 632.184C189.701 632.589 189.406 632.996 189.118 633.4C188.9 633.703 188.628 633.939 188.318 634.105L188.329 634.109ZM234.273 606.919C234.018 607.056 233.738 607.145 233.439 607.182C232.937 607.24 232.433 607.307 231.928 607.375C230.651 607.557 229.46 606.664 229.278 605.387C229.096 604.11 229.989 602.92 231.266 602.737C231.802 602.662 232.341 602.593 232.884 602.531C234.169 602.38 235.336 603.295 235.487 604.579C235.601 605.565 235.091 606.479 234.273 606.919ZM197.116 624.105C196.202 624.598 195.03 624.431 194.289 623.632C193.408 622.688 193.46 621.205 194.412 620.319C194.809 619.954 195.214 619.586 195.615 619.227C196.589 618.366 198.066 618.457 198.927 619.431C199.785 620.397 199.697 621.881 198.724 622.742C198.347 623.079 197.969 623.415 197.602 623.755C197.456 623.896 197.288 624.013 197.116 624.105ZM221.268 609.818C221.151 609.881 221.023 609.941 220.892 609.976C220.418 610.134 219.94 610.302 219.463 610.47C218.243 610.906 216.903 610.279 216.468 609.059C216.032 607.839 216.659 606.499 217.879 606.063C218.39 605.876 218.906 605.696 219.418 605.527C220.646 605.123 221.969 605.785 222.381 607.009C222.743 608.109 222.254 609.278 221.271 609.807L221.268 609.818ZM207.75 616.079C206.657 616.668 205.29 616.305 204.638 615.227C203.972 614.122 204.323 612.683 205.424 612.01C205.884 611.726 206.351 611.457 206.825 611.184C207.945 610.545 209.382 610.924 210.021 612.044C210.67 613.167 210.28 614.601 209.161 615.24C208.721 615.494 208.281 615.749 207.856 616.013C207.822 616.032 207.787 616.05 207.746 616.073L207.75 616.079Z" fill="#6AE5DF"/>
<path d="M214.179 663.617L242.335 648.449C242.927 648.131 243.083 647.284 242.694 646.562L235.538 633.277C235.149 632.555 234.349 632.223 233.764 632.538L205.608 647.706C205.016 648.025 204.86 648.872 205.249 649.594L212.405 662.878C212.794 663.6 213.594 663.932 214.179 663.617Z" fill="#F1F2F2"/>
<path d="M239.073 629.714L249.78 632.924C250.468 633.13 250.864 633.865 250.658 634.553L247.397 645.429C247.061 646.551 245.535 646.699 244.99 645.67L237.551 631.598C236.999 630.574 237.974 629.401 239.085 629.734L239.077 629.72L239.073 629.714Z" fill="#F1F2F2"/>
<path d="M228.818 658.747L215.844 665.736C215.031 666.174 214.727 667.188 215.165 668L222.154 680.975C222.592 681.788 223.606 682.092 224.418 681.654L237.393 674.664C238.206 674.227 238.51 673.213 238.072 672.4L231.082 659.425C230.645 658.613 229.631 658.309 228.818 658.747Z" fill="#F1F2F2"/>
<path d="M247.126 711.16C252.188 708.433 254.081 702.119 251.355 697.057C248.628 691.995 242.314 690.102 237.252 692.829C232.19 695.556 230.297 701.87 233.023 706.932C235.75 711.994 242.064 713.887 247.126 711.16Z" fill="#F1F2F2"/>
<path d="M257.898 703.868L250.875 690.831C250.519 690.171 250.718 689.354 251.33 688.909C255.159 686.119 256.434 680.846 254.126 676.562C251.819 672.278 246.713 670.442 242.277 672.105C241.576 672.367 240.778 672.087 240.422 671.427L233.399 658.391C232.988 657.627 233.312 656.681 234.091 656.315C247.114 650.239 262.837 655.334 269.742 668.15C276.646 680.967 272.246 696.892 260.011 704.432C259.27 704.885 258.309 704.631 257.898 703.868Z" fill="#F1F2F2"/>
</g>
<g clip-path="url(#clip2_34_985)">
<path d="M55.3832 314.5C53.9543 316.851 56.001 319.783 58.7023 319.246L76.8035 315.671L93.9731 312.676C98.1232 311.954 100.662 307.714 99.339 303.714L93.8711 287.165L88.4743 269.521C87.6692 266.891 84.1209 266.467 82.723 268.837L79.3392 274.568L46.701 255.026C44.2163 253.538 41 254.346 39.5123 256.83L24.0693 282.623C22.5816 285.108 23.3889 288.324 25.8736 289.812L58.508 309.351L55.3809 314.504L55.3832 314.5Z" fill="#6666FF"/>
<path d="M93.2799 306.174C93.1453 306.399 92.9501 306.434 92.8842 306.448L75.7146 309.443C75.6673 309.451 75.6201 309.46 75.5767 309.471L64.3919 311.679C64.8735 310.461 64.9675 309.117 64.6479 307.83C64.2411 306.196 63.2031 304.79 61.7572 303.924L30.0532 284.942L44.3798 261.014L76.0878 279.998C77.5336 280.864 79.2633 281.115 80.8954 280.702C82.3665 280.33 83.648 279.438 84.5115 278.207L87.8177 289.017C87.8325 289.063 87.8433 289.106 87.8581 289.152L93.3259 305.701C93.3477 305.762 93.4083 305.951 93.2714 306.179M98.7067 309.423C99.6954 307.772 100.002 305.712 99.339 303.714L93.8712 287.165L88.4744 269.521C87.6708 266.897 84.1411 266.469 82.7323 268.822C82.7277 268.829 82.7254 268.833 82.7207 268.841L79.337 274.572L46.6987 255.03C44.2141 253.542 40.9977 254.35 39.5101 256.834L24.0671 282.627C22.5794 285.112 23.3866 288.328 25.8713 289.816L58.5057 309.355L55.3787 314.507C55.3787 314.507 55.3717 314.519 55.3671 314.527C53.9606 316.876 56.0027 319.789 58.6955 319.258L76.7966 315.683L93.9663 312.688C96.0424 312.325 97.711 311.086 98.6997 309.435L98.7067 309.423Z" fill="#F1F2F2"/>
<path d="M98.7067 309.423C97.718 311.074 96.0471 312.317 93.9732 312.676L76.8036 315.671L58.7024 319.246C56.0096 319.777 53.9652 316.868 55.374 314.515C55.3787 314.507 55.381 314.503 55.3856 314.496L58.5127 309.343L25.8783 289.804C23.3936 288.316 22.5863 285.1 24.074 282.615L39.5124 256.83C41 254.346 44.2164 253.538 46.701 255.026L79.3393 274.568L82.723 268.837C82.723 268.837 82.73 268.825 82.7346 268.818C84.1411 266.469 87.6731 266.893 88.4767 269.517L93.8735 287.161L99.3414 303.71C100.002 305.712 99.6977 307.768 98.709 309.419M104.118 312.663C106.091 309.368 106.533 305.383 105.327 301.734L99.8828 285.251L94.5093 267.674C93.4174 264.097 90.3102 261.495 86.5961 261.04C82.8819 260.586 79.245 262.368 77.3234 265.578C77.3164 265.589 77.2978 265.62 77.2885 265.636L77.133 265.896L49.941 249.615C44.4793 246.345 37.3712 248.129 34.1011 253.59L18.6581 279.383C15.388 284.845 17.1721 291.953 22.6337 295.223L49.8258 311.504C48.0428 314.675 48.2363 318.609 50.3373 321.599C52.4879 324.656 56.2496 326.166 59.9215 325.442L77.953 321.878L95.0529 318.894C98.8419 318.229 102.145 315.958 104.118 312.663Z" fill="#6666FF"/>
</g>
<g clip-path="url(#clip3_34_985)">
<path d="M88.621 617.808C93.9516 639.486 115.846 652.738 137.524 647.407C159.201 642.077 172.453 620.182 167.123 598.504C161.792 576.827 139.898 563.575 118.22 568.905C96.5425 574.236 83.2905 596.13 88.621 617.808Z" fill="#F1F2F2"/>
<path d="M167.123 598.505C172.454 620.182 159.202 642.077 137.524 647.407C115.846 652.738 93.9516 639.486 88.6211 617.808C83.2905 596.13 96.5425 574.236 118.22 568.905C139.898 563.575 161.792 576.827 167.123 598.505ZM171.772 597.361C165.82 573.155 141.284 558.304 117.077 564.256C92.8707 570.209 78.0198 594.745 83.9721 618.951C89.9244 643.158 114.461 658.009 138.667 652.056C162.873 646.104 177.724 621.568 171.772 597.361Z" fill="#6666FF"/>
<path d="M136.238 611.979L145.775 597.036L153.61 584.765C154.238 583.782 153.12 582.623 152.114 583.206L139.528 590.523L124.205 599.435C123.582 599.798 123.465 600.646 123.961 601.167L129.231 606.658L134.501 612.15C135.001 612.669 135.851 612.586 136.242 611.978L136.238 611.979ZM135.236 604.744L133.314 602.74L131.392 600.736C131.211 600.548 131.296 600.196 131.566 600.023L138.239 595.733L143.718 592.211C144.157 591.931 144.563 592.353 144.263 592.78L140.518 598.11L135.955 604.6C135.768 604.864 135.417 604.932 135.232 604.745L135.236 604.744Z" fill="#6666FF"/>
<path d="M125.961 609.795L131.232 615.286C131.732 615.806 131.61 616.655 130.987 617.018L115.665 625.93L103.079 633.247C102.073 633.834 100.954 632.671 101.582 631.688L109.417 619.417L118.955 604.474C119.341 603.867 120.195 603.782 120.695 604.302L125.966 609.794L125.961 609.795Z" fill="#6AE5DF"/>
<path d="M171.773 597.366L171.772 597.361C171.455 596.074 170.155 595.287 168.868 595.603L163.591 596.901C162.303 597.218 161.516 598.518 161.833 599.805L161.834 599.81C162.151 601.097 163.451 601.884 164.738 601.568L170.015 600.27C171.303 599.953 172.09 598.653 171.773 597.366Z" fill="#6666FF"/>
<path d="M93.9122 616.512L93.9111 616.507C93.5945 615.22 92.2942 614.433 91.0068 614.749L85.73 616.047C84.4426 616.364 83.6556 617.664 83.9722 618.951L83.9732 618.956C84.2898 620.243 85.5901 621.03 86.8775 620.714L92.1543 619.416C93.4417 619.099 94.2288 617.799 93.9122 616.512Z" fill="#6666FF"/>
<path d="M121.279 571.291L119.981 566.014C119.665 564.727 118.365 563.94 117.077 564.256L117.073 564.257C115.785 564.574 114.998 565.874 115.315 567.162L116.612 572.438C116.929 573.726 118.229 574.513 119.517 574.196L119.521 574.195C120.809 573.879 121.596 572.578 121.279 571.291Z" fill="#6666FF"/>
<path d="M140.425 649.152L139.127 643.875C138.811 642.588 137.51 641.801 136.223 642.117L136.218 642.118C134.931 642.435 134.144 643.735 134.461 645.023L135.758 650.299C136.075 651.587 137.375 652.374 138.662 652.057L138.667 652.056C139.954 651.74 140.741 650.439 140.425 649.152Z" fill="#6666FF"/>
<path d="M151.286 569.48L151.282 569.477C150.147 568.791 148.672 569.154 147.985 570.288L145.171 574.937C144.485 576.071 144.848 577.547 145.982 578.233L145.986 578.236C147.12 578.922 148.596 578.559 149.282 577.425L152.096 572.776C152.783 571.642 152.42 570.166 151.286 569.48Z" fill="#6666FF"/>
<path d="M109.761 638.076L109.758 638.074C108.623 637.387 107.147 637.75 106.461 638.884L103.647 643.533C102.961 644.667 103.324 646.143 104.458 646.83L104.462 646.832C105.596 647.518 107.072 647.156 107.758 646.021L110.572 641.373C111.259 640.238 110.896 638.762 109.761 638.076Z" fill="#6666FF"/>
<path d="M97.1404 586.747L92.4916 583.933C91.3574 583.246 89.8815 583.609 89.195 584.744L89.1926 584.747C88.5061 585.882 88.8691 587.358 90.0033 588.044L94.652 590.858C95.7862 591.544 97.2622 591.181 97.9487 590.047L97.951 590.043C98.6375 588.909 98.2746 587.433 97.1404 586.747Z" fill="#6666FF"/>
<path d="M165.74 628.265L161.091 625.452C159.957 624.765 158.481 625.128 157.795 626.262L157.792 626.266C157.106 627.4 157.469 628.876 158.603 629.563L163.252 632.376C164.386 633.063 165.862 632.7 166.548 631.566L166.551 631.562C167.237 630.428 166.874 628.952 165.74 628.265Z" fill="#6666FF"/>
</g>
<g clip-path="url(#clip4_34_985)">
<path d="M86.2803 170.4C82.7504 171.642 78.7531 171.535 75.1125 169.79C67.8399 166.303 64.7692 157.576 68.2537 150.297L76.5037 133.089L36.4737 147.174C30.8989 149.136 24.6894 147.545 20.7453 143.148C16.8013 138.752 15.8902 132.405 18.4494 127.078L44.435 72.8775C47.9218 65.6049 56.6489 62.5342 63.9278 66.0187C71.2004 69.5055 74.2711 78.2326 70.7866 85.5115L60.049 107.908L100.079 93.8226C105.654 91.861 111.863 93.4521 115.807 97.8484C119.751 102.245 120.662 108.592 118.103 113.919L94.6053 162.931C92.8599 166.571 89.8101 169.158 86.2803 170.4Z" fill="#F1F2F2"/>
<path d="M52.7621 65.4151C56.292 64.1731 60.2893 64.2797 63.9299 66.0252C71.2025 69.5119 74.2733 78.239 70.7887 85.5179L60.0511 107.914L100.081 93.8291C105.656 91.8675 111.865 93.4585 115.809 97.8549C119.753 102.251 120.665 108.599 118.105 113.926L94.6074 162.937C92.862 166.578 89.8122 169.164 86.2824 170.406C82.7525 171.648 78.7552 171.541 75.1146 169.796C67.842 166.309 64.7713 157.582 68.2558 150.303L76.5058 133.096L36.4758 147.181C30.9011 149.142 24.6915 147.551 20.7475 143.155C16.8034 138.759 15.8923 132.411 18.4515 127.084L44.4371 72.884C46.1825 69.2434 49.2323 66.6571 52.7621 65.4151ZM48.8899 54.4103C42.2707 56.7394 36.9556 61.5087 33.9215 67.8372L7.93586 122.037C3.32131 131.651 4.94398 142.995 12.0647 150.934C19.1855 158.872 30.2848 161.719 40.3458 158.179L55.4152 152.877C53.8329 163.934 59.4756 175.228 70.0656 180.305C76.3941 183.339 83.5246 183.73 90.1438 181.401C96.7631 179.071 102.078 174.302 105.112 167.974L128.61 118.962C133.223 109.342 131.6 97.998 124.479 90.0596C117.358 82.1212 106.259 79.2738 96.1981 82.8139L82.4878 87.6381C86.7121 75.2269 81.07 61.3023 68.966 55.4992C62.6375 52.4651 55.507 52.0749 48.8877 54.404L48.8899 54.4103Z" fill="#6AE5DF"/>
<path d="M40.0859 118.595C39.6077 118.763 39.0653 118.749 38.5656 118.515C37.5663 118.046 37.1394 116.853 37.608 115.854L56.2963 76.2632C56.7649 75.2639 57.9582 74.8369 58.9575 75.3056C59.9568 75.7742 60.3837 76.9675 59.9151 77.9667L41.2268 117.557C40.9862 118.059 40.5681 118.418 40.0836 118.589L40.0859 118.595Z" fill="#6AE5DF"/>
<path d="M80.1686 164.807C79.6904 164.975 79.148 164.961 78.6484 164.727C77.6491 164.258 77.2222 163.065 77.6908 162.066L96.3791 122.475C96.8477 121.476 98.041 121.049 99.0403 121.517C100.04 121.986 100.466 123.179 99.9978 124.179L81.3096 163.769C81.069 164.271 80.6509 164.63 80.1664 164.801L80.1686 164.807Z" fill="#6AE5DF"/>
<path d="M33.6734 137.709L31.3642 138.521L28.2447 129.656L25.3315 130.681L24.6562 128.762L32.7982 125.897L33.4734 127.816L30.5602 128.841L33.6796 137.706L33.6734 137.709Z" fill="#6666FF"/>
<path d="M37.6705 124.189C38.6143 123.857 39.4429 123.7 40.1477 123.714C40.8547 123.734 41.4421 123.916 41.9142 124.273C42.3864 124.63 42.7411 125.156 42.9846 125.848C43.1551 126.332 43.2175 126.791 43.1783 127.222C43.139 127.653 43.0191 128.056 42.8205 128.416C42.624 128.782 42.3658 129.113 42.0544 129.414L46.7923 133.092L44.1497 134.022L40.2893 130.728L39.0058 131.18L40.4625 135.32L38.1534 136.132L34.3586 125.348L37.6683 124.183L37.6705 124.189ZM38.2574 125.998L37.3073 126.332L38.3855 129.397L39.3356 129.062C39.9522 128.845 40.3798 128.554 40.6248 128.184C40.8697 127.815 40.8872 127.343 40.6857 126.77C40.5728 126.449 40.4084 126.203 40.2032 126.042C39.9895 125.877 39.7265 125.792 39.4035 125.779C39.0805 125.765 38.7041 125.841 38.2574 125.998Z" fill="#6666FF"/>
<path d="M54.7391 130.297L53.0164 128.053L49.2097 129.393L49.2713 132.22L46.7797 133.097L46.7573 120.936L49.595 119.937L57.2245 129.422L54.7328 130.299L54.7391 130.297ZM50.2295 124.232C50.1386 124.095 49.996 123.89 49.8016 123.619C49.6073 123.348 49.417 123.069 49.2223 122.777C49.0276 122.485 48.8739 122.249 48.7527 122.065C48.7969 122.311 48.8269 122.598 48.8577 122.926C48.8885 123.255 48.9148 123.571 48.9452 123.878C48.9756 124.186 48.9946 124.441 49.0129 124.653L49.0689 127.264L51.7996 126.303L50.221 124.228L50.2295 124.232Z" fill="#6666FF"/>
<path d="M65.5084 120.249C65.9446 121.489 66.0749 122.603 65.9056 123.588C65.73 124.577 65.3011 125.428 64.6019 126.133C63.9048 126.845 62.9753 127.398 61.8049 127.81L58.5142 128.968L54.7195 118.184L58.2808 116.93C59.4196 116.53 60.4595 116.39 61.398 116.505C62.3366 116.621 63.1591 116.989 63.8615 117.618C64.5617 118.242 65.1099 119.117 65.5084 120.249ZM63.1233 121.187C62.851 120.414 62.5119 119.812 62.1083 119.388C61.7046 118.964 61.232 118.706 60.6926 118.62C60.1533 118.534 59.549 118.606 58.8883 118.838L57.6928 119.259L60.1525 126.249L61.1215 125.908C62.2289 125.519 62.9428 124.935 63.2673 124.149C63.594 123.369 63.5417 122.377 63.1211 121.181L63.1233 121.187Z" fill="#6666FF"/>
<path d="M75.849 122.869L69.6451 125.052L65.8503 114.267L72.0543 112.084L72.7141 113.959L68.7878 115.341L69.6225 117.713L73.2782 116.426L73.9379 118.301L70.2822 119.588L71.2608 122.369L75.187 120.987L75.8512 122.875L75.849 122.869Z" fill="#6666FF"/>
<path d="M89.8661 111.862C90.1605 112.699 90.3255 113.49 90.357 114.242C90.3885 114.995 90.2861 115.688 90.0394 116.334C89.7968 116.971 89.3948 117.536 88.846 118.027C88.2972 118.517 87.5739 118.913 86.6867 119.225C85.7995 119.537 85.0043 119.668 84.2591 119.64C83.5181 119.604 82.8504 119.415 82.2624 119.07C81.6745 118.726 81.1518 118.245 80.705 117.638C80.2583 117.032 79.8897 116.306 79.5908 115.457C79.1967 114.337 79.0383 113.303 79.1195 112.349C79.1944 111.396 79.5348 110.555 80.1346 109.828C80.7343 109.1 81.6235 108.533 82.8002 108.119C83.9768 107.705 85.0129 107.595 85.9358 107.786C86.8588 107.978 87.6446 108.422 88.3018 109.125C88.9589 109.827 89.4783 110.74 89.8702 111.854L89.8661 111.862ZM82.0262 114.621C82.2874 115.363 82.6099 115.978 82.9827 116.455C83.3619 116.93 83.7974 117.243 84.302 117.391C84.8065 117.539 85.3712 117.496 85.9941 117.276C86.617 117.057 87.1072 116.722 87.404 116.299C87.6985 115.871 87.8418 115.353 87.8339 114.748C87.826 114.143 87.686 113.464 87.4248 112.721C87.0285 111.595 86.5087 110.781 85.8739 110.283C85.2328 109.787 84.4318 109.701 83.4628 110.042C82.8273 110.266 82.3623 110.592 82.0637 111.03C81.7628 111.461 81.6132 111.98 81.6211 112.585C81.6228 113.193 81.7605 113.866 82.0262 114.621Z" fill="#6666FF"/>
<path d="M96.2226 115.7L93.97 116.493L90.1753 105.708L96.3541 103.534L97.0138 105.409L93.0876 106.79L94.0662 109.572L97.7219 108.285L98.3816 110.16L94.7259 111.447L96.2248 115.706L96.2226 115.7Z" fill="#6666FF"/>
<path d="M104.509 112.784L102.257 113.577L98.4619 102.792L104.641 100.618L105.3 102.493L101.374 103.874L102.353 106.656L106.008 105.369L106.668 107.244L103.013 108.531L104.511 112.79L104.509 112.784Z" fill="#6666FF"/>
</g>
<g clip-path="url(#clip5_34_985)">
<path d="M178.104 494.753L167.185 454.737C166.584 452.535 163.728 451.832 162.032 453.466L131.224 483.192L121.786 492.377L107.941 488.934L66.3329 478.757C64.0444 478.199 61.9335 480.245 62.5224 482.45L73.2649 522.513L84.184 562.529C84.7847 564.731 87.6407 565.434 89.3373 563.8L120.145 534.074L129.583 524.889L143.428 528.332L185.029 538.505C187.317 539.063 189.428 537.017 188.839 534.812L178.097 494.749L178.104 494.753Z" fill="#6AE5DF"/>
<path d="M163.427 452.67C164.981 452.26 166.726 453.07 167.184 454.731L178.103 494.747L188.845 534.81C189.294 536.486 188.178 538.076 186.606 538.492C186.112 538.622 185.58 538.636 185.035 538.503L143.434 528.33L129.589 524.887L120.151 534.072L89.3432 563.798C88.9319 564.196 88.4466 564.457 87.9462 564.589C86.3921 564.999 84.6478 564.189 84.1899 562.528L73.2708 522.511L62.5283 482.449C62.0792 480.772 63.1957 479.183 64.7675 478.767C65.262 478.637 65.7936 478.623 66.3388 478.756L107.94 488.929L121.785 492.372L131.223 483.187L162.03 453.461C162.442 453.063 162.927 452.802 163.427 452.67ZM161.837 446.652C160.201 447.084 158.699 447.933 157.484 449.103L126.677 478.829L119.904 485.418L109.699 482.881L68.0637 472.699C66.4618 472.309 64.7653 472.323 63.17 472.745C60.7152 473.393 58.5663 474.985 57.27 477.11C55.9664 479.256 55.5989 481.75 56.234 484.13L66.9765 524.193L77.903 564.237C79.2309 569.096 84.4443 571.952 89.5305 570.609C91.167 570.176 92.6684 569.328 93.8832 568.158L124.691 538.432L131.464 531.842L141.671 534.385L183.298 544.563C184.9 544.953 186.591 544.94 188.192 544.517C190.641 543.87 192.795 542.277 194.092 540.152C195.401 538.005 195.77 535.516 195.128 533.132L184.385 493.069L173.459 453.025C172.131 448.166 166.917 445.31 161.831 446.653L161.837 446.652Z" fill="#6666FF"/>
<path d="M129.59 524.893L142.308 504.12L121.779 492.373L109.001 512.92L129.59 524.893Z" fill="#F1F2F2"/>
<path d="M91.5308 517.47C91.9413 519.024 91.9774 520.4 91.6447 521.596C91.3121 522.792 90.6638 523.795 89.6939 524.605C88.73 525.414 87.4798 526.021 85.9492 526.426L81.6284 527.567L78.054 514.039L82.728 512.804C84.2173 512.41 85.5543 512.322 86.7404 512.545C87.9265 512.767 88.9205 513.288 89.743 514.112C90.5595 514.938 91.1574 516.057 91.5308 517.47ZM88.3891 518.427C88.1318 517.453 87.7734 516.692 87.3066 516.141C86.8456 515.588 86.2733 515.234 85.5969 515.081C84.9205 514.929 84.1504 514.969 83.2733 515.201L81.7074 515.615L84.0249 524.386L85.2906 524.052C86.7446 523.668 87.7237 523.012 88.2264 522.078C88.7305 521.149 88.7804 519.932 88.3832 518.429L88.3891 518.427Z" fill="#6666FF"/>
<path d="M104.369 521.559L96.2275 523.71L92.6531 510.181L100.794 508.03L101.415 510.378L96.2638 511.739L97.0492 514.711L101.841 513.445L102.461 515.793L97.6695 517.059L98.5902 520.544L103.741 519.183L104.367 521.553L104.369 521.559Z" fill="#6666FF"/>
<path d="M110.434 507.856C109.869 508.006 109.385 508.248 108.981 508.578C108.577 508.907 108.275 509.312 108.062 509.796C107.85 510.28 107.735 510.822 107.719 511.429C107.703 512.035 107.79 512.699 107.981 513.419C108.231 514.365 108.586 515.139 109.041 515.741C109.496 516.344 110.051 516.751 110.708 516.951C111.366 517.151 112.114 517.146 112.956 516.923C113.574 516.76 114.156 516.534 114.696 516.241C115.236 515.947 115.767 515.62 116.287 515.254L116.937 517.714C116.406 518.113 115.846 518.448 115.262 518.717C114.678 518.986 114.01 519.222 113.257 519.421C111.75 519.82 110.438 519.859 109.315 519.541C108.192 519.224 107.259 518.603 106.512 517.68C105.764 516.757 105.213 515.602 104.85 514.228C104.58 513.204 104.48 512.23 104.554 511.295C104.628 510.36 104.87 509.513 105.289 508.74C105.709 507.967 106.295 507.3 107.046 506.734C107.803 506.167 108.735 505.74 109.842 505.447C110.542 505.262 111.268 505.149 112.031 505.104C112.788 505.06 113.53 505.105 114.256 505.232L113.879 507.808C113.345 507.72 112.79 507.668 112.219 507.65C111.641 507.634 111.049 507.706 110.443 507.866L110.434 507.856Z" fill="#6666FF"/>
<path d="M125.331 516.02L118.891 517.721L118.461 516.094L119.985 514.879L117.672 506.124L115.747 505.82L115.317 504.193L121.757 502.491L122.187 504.118L120.663 505.334L122.976 514.089L124.901 514.393L125.331 516.02Z" fill="#6666FF"/>
<path d="M135.096 509.429C135.306 510.223 135.284 510.975 135.034 511.674C134.784 512.372 134.311 512.991 133.625 513.516C132.939 514.04 132.04 514.452 130.933 514.745C130.445 514.874 129.959 514.966 129.472 515.029C128.984 515.091 128.513 515.119 128.051 515.109C127.588 515.098 127.143 515.059 126.715 514.986L126.008 512.312C126.752 512.41 127.521 512.484 128.3 512.525C129.081 512.572 129.829 512.495 130.541 512.307C131.03 512.178 131.408 512.011 131.668 511.804C131.929 511.603 132.107 511.369 132.186 511.119C132.271 510.868 132.27 510.603 132.197 510.327C132.106 509.984 131.907 509.729 131.601 509.551C131.29 509.374 130.907 509.235 130.44 509.135C129.973 509.036 129.448 508.933 128.856 508.837C128.486 508.772 128.079 508.687 127.642 508.58C127.204 508.472 126.771 508.31 126.336 508.094C125.907 507.876 125.518 507.575 125.179 507.195C124.837 506.809 124.586 506.309 124.422 505.69C124.208 504.879 124.221 504.141 124.458 503.464C124.694 502.787 125.132 502.202 125.775 501.707C126.413 501.213 127.221 500.837 128.198 500.579C128.94 500.383 129.663 500.282 130.371 500.27C131.079 500.257 131.842 500.309 132.647 500.421L132.266 502.913C131.551 502.831 130.917 502.788 130.369 502.788C129.813 502.784 129.272 502.855 128.73 502.998C128.359 503.096 128.056 503.236 127.821 503.419C127.586 503.601 127.427 503.812 127.34 504.052C127.252 504.292 127.251 504.551 127.324 504.827C127.407 505.142 127.579 505.386 127.831 505.554C128.089 505.721 128.44 505.857 128.888 505.956C129.336 506.054 129.895 506.165 130.562 506.284C131.372 506.419 132.081 506.6 132.687 506.819C133.287 507.04 133.791 507.352 134.195 507.758C134.598 508.163 134.897 508.723 135.083 509.426L135.096 509.429Z" fill="#6666FF"/>
<path d="M143.951 511.101L137.511 512.802L137.081 511.175L138.605 509.959L136.292 501.205L134.367 500.9L133.937 499.273L140.377 497.572L140.807 499.199L139.283 500.415L141.596 509.169L143.521 509.473L143.951 511.101Z" fill="#6666FF"/>
<path d="M157.346 500.304C157.623 501.351 157.739 502.338 157.693 503.26C157.647 504.182 157.429 505.028 157.046 505.792C156.662 506.556 156.092 507.212 155.331 507.763C154.569 508.313 153.613 508.747 152.453 509.053C151.294 509.359 150.262 509.457 149.32 509.351C148.379 509.244 147.555 508.962 146.844 508.487C146.133 508.013 145.526 507.384 145.031 506.605C144.535 505.827 144.147 504.906 143.866 503.842C143.495 502.44 143.414 501.154 143.624 499.996C143.833 498.833 144.357 497.833 145.206 496.995C146.049 496.158 147.244 495.535 148.793 495.126C150.341 494.717 151.665 494.674 152.811 494.985C153.958 495.297 154.908 495.913 155.66 496.829C156.412 497.744 156.97 498.904 157.34 500.305L157.346 500.304ZM147.068 503.019C147.315 503.954 147.653 504.732 148.074 505.35C148.496 505.967 149.022 506.388 149.647 506.608C150.272 506.829 150.991 506.831 151.809 506.615C152.628 506.399 153.292 506.031 153.715 505.534C154.144 505.035 154.384 504.417 154.444 503.667C154.499 502.923 154.409 502.08 154.162 501.145C153.788 499.732 153.223 498.689 152.469 498.027C151.713 497.359 150.701 497.199 149.435 497.534C148.605 497.753 147.971 498.119 147.538 498.625C147.105 499.131 146.861 499.756 146.792 500.497C146.723 501.237 146.82 502.079 147.07 503.025L147.068 503.019Z" fill="#6666FF"/>
<path d="M174.574 503.01L170.771 504.015L161.905 495.414L161.828 495.434C161.965 495.855 162.103 496.283 162.24 496.704C162.37 497.128 162.508 497.555 162.639 497.978C162.77 498.401 162.902 498.83 163.027 499.255L164.709 505.622L162.037 506.328L158.462 492.8L162.247 491.8L171.065 500.311L171.123 500.296C171.002 499.882 170.874 499.47 170.752 499.057C170.63 498.643 170.504 498.237 170.378 497.831C170.251 497.424 170.125 497.018 170.003 496.605L168.312 490.203L171.008 489.491L174.583 503.02L174.574 503.01Z" fill="#6666FF"/>
</g>
<g clip-path="url(#clip6_34_985)">
<path d="M752.613 102.258C750.246 101.437 747.661 102.69 746.84 105.056C746.019 107.423 747.273 110.008 749.64 110.829L769.59 117.749C771.957 118.57 774.542 117.317 775.363 114.951C776.184 112.584 774.93 109.999 772.563 109.178L752.613 102.258Z" fill="#6666FF"/>
<path d="M739.737 117.937C749.927 112.996 754.181 100.731 749.24 90.5412C744.299 80.3517 732.034 76.097 721.844 81.0379C711.655 85.9789 707.4 98.2446 712.341 108.434C717.282 118.624 729.548 122.878 739.737 117.937Z" fill="#F1F2F2"/>
<path d="M714.739 93.9195C717.809 85.0691 727.508 80.366 736.359 83.436C745.209 86.5061 749.912 96.2051 746.842 105.055C743.772 113.906 734.073 118.609 725.223 115.539C716.372 112.469 711.669 102.77 714.739 93.9195ZM711.416 92.7668C707.706 103.464 713.37 115.146 724.069 118.859C734.766 122.57 746.448 116.905 750.161 106.207C753.872 95.5098 748.207 83.8277 737.509 80.1144C726.812 76.4038 715.13 82.0686 711.416 92.7668Z" fill="#6AE5DF"/>
<path d="M711.416 92.7666C715.127 82.0696 726.809 76.4049 737.509 80.1142C748.206 83.8248 753.87 95.5069 750.161 106.207C746.45 116.903 734.768 122.568 724.069 118.859C713.372 115.148 707.707 103.466 711.416 92.7666ZM708.097 91.6153C703.757 104.127 710.406 117.838 722.919 122.181C735.43 126.521 749.141 119.872 753.484 107.359C757.824 94.8479 751.175 81.1366 738.663 76.7939C726.151 72.454 712.44 79.1027 708.097 91.6153Z" fill="#6666FF"/>
</g>
<g clip-path="url(#clip7_34_985)">
<path d="M710.456 612.788C745.055 606.595 768.082 573.526 761.888 538.928C755.695 504.329 722.626 481.302 688.027 487.495C653.428 493.689 630.402 526.758 636.595 561.356C642.789 595.955 675.857 618.982 710.456 612.788Z" fill="#6AE5DF"/>
<path d="M708.972 604.501C679.002 609.866 650.249 589.849 644.883 559.873C639.517 529.897 659.541 501.149 689.511 495.784C719.481 490.419 748.234 510.435 753.6 540.411C758.966 570.388 738.949 599.134 708.972 604.501ZM692.459 512.254C671.566 515.994 657.613 536.032 661.353 556.925C665.093 577.817 685.131 591.771 706.024 588.031C726.917 584.291 740.87 564.252 737.13 543.36C733.39 522.467 713.352 508.514 692.459 512.254Z" fill="#F1F2F2"/>
<path d="M688.779 541.03L692.159 529.143C693.044 526.03 697.155 525.339 699.002 528.002L706.056 538.151L718.407 537.692C721.644 537.572 723.566 541.268 721.604 543.85L714.134 553.696L718.383 565.297C719.496 568.337 716.576 571.31 713.514 570.242L701.84 566.177L692.118 573.807C689.573 575.808 685.846 573.947 685.913 570.709L686.171 558.353L675.912 551.467C673.223 549.66 673.843 545.54 676.94 544.604L688.772 541.032L688.779 541.03Z" fill="#6666FF"/>
<path d="M658.424 517.519C659.483 516.211 660.445 515.411 661.312 515.127C662.18 514.842 663.021 515.028 663.837 515.683C664.237 516.006 664.527 516.362 664.698 516.738C664.87 517.121 664.945 517.502 664.924 517.894C664.904 518.285 664.808 518.652 664.63 518.994L664.697 519.047C665.012 518.783 665.363 518.578 665.755 518.418C666.148 518.263 666.565 518.214 667.011 518.283C667.457 518.352 667.931 518.584 668.43 518.986C669.011 519.451 669.393 519.997 669.575 520.617C669.757 521.238 669.753 521.898 669.548 522.594C669.343 523.29 668.947 524.008 668.361 524.74L665.483 528.313L655.932 520.609L658.424 517.519ZM662.338 520.497C662.815 519.907 663.031 519.416 662.999 519.021C662.967 518.626 662.77 518.286 662.423 518.005C662.059 517.709 661.682 517.627 661.297 517.748C660.911 517.869 660.488 518.216 660.028 518.79L659.177 519.847L661.414 521.652L662.339 520.503L662.338 520.497ZM662.948 522.89L665.516 524.958L666.564 523.658C667.05 523.054 667.267 522.53 667.216 522.1C667.163 521.663 666.942 521.295 666.557 520.983C666.315 520.787 666.061 520.671 665.794 520.622C665.526 520.573 665.232 520.625 664.923 520.778C664.614 520.93 664.285 521.222 663.942 521.652L662.947 522.884L662.948 522.89Z" fill="#6666FF"/>
<path d="M678.135 510.861C678.615 511.557 678.902 512.295 678.981 513.063C679.062 513.837 678.907 514.595 678.518 515.35C678.128 516.099 677.46 516.807 676.515 517.454C675.181 518.379 673.928 518.745 672.753 518.542C671.586 518.343 670.608 517.684 669.832 516.562L665.332 510.062L667.467 508.587L671.74 514.76C672.315 515.588 672.89 516.054 673.458 516.159C674.033 516.263 674.654 516.087 675.32 515.619C675.793 515.295 676.118 514.946 676.299 514.584C676.48 514.222 676.519 513.827 676.422 513.392C676.324 512.956 676.097 512.48 675.739 511.962L671.475 505.801L673.609 504.326L678.127 510.856L678.135 510.861Z" fill="#6666FF"/>
<path d="M690.283 504.361C690.712 505.706 690.822 506.902 690.604 507.956C690.391 509.009 689.899 509.906 689.126 510.645C688.359 511.384 687.343 511.954 686.078 512.361L682.513 513.504L678.772 501.818L682.637 500.583C683.872 500.187 684.989 500.065 685.993 500.221C686.997 500.378 687.867 500.797 688.599 501.488C689.33 502.178 689.896 503.137 690.283 504.361ZM687.696 505.296C687.43 504.458 687.08 503.803 686.66 503.335C686.24 502.867 685.743 502.581 685.167 502.471C684.591 502.36 683.942 502.418 683.221 502.651L681.93 503.063L684.36 510.639L685.405 510.303C686.604 509.92 687.394 509.313 687.763 508.484C688.132 507.655 688.116 506.591 687.696 505.296Z" fill="#6666FF"/>
<path d="M698.439 503.257L703.299 503.175L703.403 509.532C702.765 509.762 702.099 509.94 701.407 510.083C700.713 510.22 699.932 510.295 699.049 510.311C697.836 510.328 696.795 510.107 695.935 509.64C695.076 509.173 694.414 508.477 693.956 507.544C693.498 506.611 693.26 505.458 693.24 504.084C693.217 502.801 693.451 501.686 693.935 500.74C694.418 499.793 695.132 499.051 696.072 498.521C697.011 497.991 698.17 497.712 699.544 497.693C700.195 497.68 700.839 497.739 701.469 497.865C702.1 497.992 702.68 498.166 703.198 498.383L702.37 500.478C701.987 500.288 701.559 500.138 701.072 500.018C700.592 499.897 700.085 499.846 699.556 499.856C698.802 499.868 698.149 500.05 697.599 500.407C697.048 500.758 696.626 501.254 696.337 501.881C696.042 502.509 695.904 503.252 695.919 504.096C695.933 504.895 696.053 505.604 696.28 506.223C696.506 506.835 696.857 507.316 697.339 507.656C697.814 507.998 698.431 508.159 699.186 508.153C699.553 508.145 699.866 508.122 700.125 508.088C700.383 508.049 700.62 508 700.839 507.961L700.795 505.402L698.475 505.442L698.436 503.277L698.439 503.257Z" fill="#6666FF"/>
<path d="M712.427 512.196L705.564 510.515L708.48 498.601L715.337 500.283L714.829 502.353L710.488 501.293L709.845 503.911L713.882 504.901L713.373 506.971L709.336 505.98L708.586 509.05L712.926 510.109L712.414 512.198L712.427 512.196Z" fill="#6666FF"/>
<path d="M718.45 515.036L716.105 513.852L720.648 504.848L717.684 503.354L718.668 501.407L726.94 505.577L725.957 507.524L722.993 506.031L718.45 515.036Z" fill="#6666FF"/>
<path d="M725.433 596.084L720.213 584.547L722.52 582.699L727.844 586.691C727.949 586.77 728.1 586.891 728.298 587.056C728.495 587.221 728.709 587.403 728.95 587.593C729.184 587.783 729.405 587.97 729.606 588.154C729.813 588.337 729.968 588.477 730.077 588.581C729.997 588.459 729.886 588.272 729.758 588.03C729.631 587.787 729.495 587.534 729.358 587.274C729.22 587.008 729.091 586.759 728.978 586.521C728.864 586.283 728.773 586.098 728.718 585.973L725.993 579.924L728.3 578.076L738.406 585.699L736.403 587.299L730.993 583.044C730.835 582.917 730.645 582.763 730.426 582.583C730.206 582.402 729.976 582.204 729.747 582.006C729.51 581.803 729.288 581.61 729.066 581.417C728.844 581.224 728.665 581.055 728.516 580.908C728.633 581.093 728.762 581.309 728.903 581.556C729.044 581.802 729.181 582.062 729.319 582.322C729.457 582.588 729.585 582.837 729.704 583.068C729.823 583.298 729.915 583.489 729.974 583.634L732.873 590.116L730.956 591.649L725.268 587.398C725.148 587.303 724.988 587.17 724.778 587.008C724.574 586.844 724.354 586.663 724.125 586.465C723.896 586.267 723.673 586.074 723.465 585.885C723.257 585.696 723.078 585.527 722.929 585.38C723.082 585.624 723.252 585.923 723.445 586.276C723.637 586.63 723.824 586.984 724.006 587.353C724.188 587.721 724.339 588.024 724.46 588.267L727.428 594.479L725.426 596.079L725.433 596.084Z" fill="#6666FF"/>
<path d="M712.396 587.976L717.53 585.777L718.109 587.135L717.008 588.353L720.137 595.648L721.781 595.69L722.36 597.048L717.226 599.247L716.646 597.89L717.747 596.671L714.618 589.376L712.975 589.334L712.396 587.976Z" fill="#6666FF"/>
<path d="M704.605 593.36C704.454 592.656 704.485 592.004 704.72 591.4C704.948 590.796 705.361 590.283 705.956 589.853C706.545 589.424 707.316 589.105 708.255 588.898C708.671 588.804 709.082 588.75 709.489 588.716C709.897 588.682 710.298 588.681 710.684 588.709C711.071 588.737 711.443 588.793 711.801 588.878L712.321 591.242C711.698 591.12 711.053 591.022 710.4 590.952C709.748 590.881 709.113 590.911 708.51 591.045C708.1 591.137 707.774 591.267 707.551 591.43C707.322 591.6 707.169 591.789 707.097 592.002C707.019 592.217 707.009 592.451 707.066 592.693C707.133 592.998 707.291 593.228 707.547 593.396C707.803 593.563 708.119 593.701 708.507 593.812C708.895 593.917 709.336 594.032 709.828 594.145C710.138 594.218 710.478 594.313 710.841 594.422C711.204 594.538 711.569 594.699 711.923 594.908C712.277 595.116 712.599 595.394 712.875 595.746C713.151 596.097 713.348 596.547 713.472 597.094C713.632 597.808 713.6 598.461 713.381 599.043C713.162 599.625 712.779 600.121 712.229 600.517C711.68 600.919 710.989 601.21 710.163 601.397C709.534 601.536 708.924 601.593 708.325 601.571C707.726 601.549 707.092 601.475 706.416 601.344L706.804 599.179C707.398 599.28 707.933 599.346 708.397 599.373C708.861 599.4 709.32 599.363 709.78 599.261C710.091 599.192 710.349 599.081 710.556 598.935C710.755 598.783 710.898 598.608 710.977 598.4C711.056 598.192 711.068 597.97 711.011 597.722C710.948 597.442 710.811 597.221 710.602 597.064C710.393 596.908 710.098 596.773 709.723 596.666C709.348 596.558 708.881 596.441 708.326 596.302C707.645 596.145 707.056 595.96 706.557 595.739C706.058 595.518 705.644 595.223 705.312 594.85C704.986 594.475 704.748 593.974 704.61 593.352L704.605 593.36Z" fill="#6666FF"/>
<path d="M695.191 590.067L702.254 590.121L702.162 602.39L695.098 602.335L695.111 600.206L699.579 600.24L699.6 597.54L695.443 597.509L695.456 595.379L699.613 595.411L699.636 592.252L695.168 592.217L695.184 590.068L695.191 590.067Z" fill="#6666FF"/>
<path d="M693.371 589.798L690.562 601.738L688.004 601.136L690.317 591.302L685.484 590.163L685.98 588.057L693.371 589.798Z" fill="#6666FF"/>
<path d="M678.516 592.412L673.991 595.918L671.426 594.664L678.363 589.717L680.466 585.429L682.841 586.595L680.777 590.811L681.086 599.4L678.521 598.146L678.511 592.419L678.516 592.412Z" fill="#6666FF"/>
</g>
<g clip-path="url(#clip8_34_985)">
<path d="M739.873 627.02L611.518 551.525C605.41 547.932 597.546 549.972 593.953 556.08L518.458 684.435C514.866 690.543 516.905 698.407 523.013 702L651.368 777.495C657.476 781.087 665.34 779.048 668.933 772.94L744.428 644.585C748.02 638.477 745.981 630.613 739.873 627.02Z" fill="#6666FF"/>
<path d="M647.128 762.667L538.154 698.571C537.748 698.332 537.491 697.908 537.464 697.436C537.445 696.969 537.66 696.518 538.035 696.243C539.072 695.496 539.918 694.555 540.564 693.457C543.144 689.071 541.671 683.414 537.292 680.839C536.63 680.449 536.403 679.597 536.797 678.927L597.843 575.137C598.233 574.475 599.085 574.248 599.755 574.642C604.134 577.217 609.798 575.748 612.373 571.37C612.763 570.708 613.615 570.48 614.285 570.874L721.731 634.071C722.393 634.461 722.621 635.313 722.227 635.983C719.652 640.362 721.12 646.026 725.499 648.601C726.161 648.99 726.389 649.843 725.995 650.513L664.953 754.295C664.563 754.957 663.71 755.185 663.041 754.791C658.662 752.215 652.998 753.684 650.423 758.063C649.777 759.161 649.374 760.362 649.217 761.627C649.166 762.093 648.876 762.5 648.451 762.706C648.034 762.916 647.531 762.894 647.124 762.655L647.128 762.667ZM541.236 697.153L646.869 759.284C647.142 758.371 647.531 757.486 648.023 756.651C651.142 751.347 657.721 749.322 663.216 751.755L722.931 650.23C718.506 646.888 716.955 640.882 719.191 635.807L614.009 573.942C610.668 578.367 604.662 579.918 599.587 577.682L539.877 679.2C544.674 682.821 546.096 689.561 542.981 694.858C542.49 695.693 541.909 696.456 541.24 697.146L541.236 697.153Z" fill="#6AE5DF"/>
<path d="M600.965 568.66C603.229 569.991 606.145 569.235 607.477 566.971C608.809 564.706 608.053 561.791 605.788 560.459C603.524 559.127 600.608 559.883 599.276 562.147C597.944 564.412 598.7 567.328 600.965 568.66Z" fill="#6AE5DF"/>
<path d="M528.036 692.65C530.301 693.982 533.216 693.226 534.548 690.962C535.88 688.697 535.124 685.781 532.86 684.449C530.595 683.117 527.679 683.873 526.348 686.138C525.016 688.403 525.772 691.318 528.036 692.65Z" fill="#6AE5DF"/>
<path d="M730.026 644.571C732.291 645.903 735.207 645.147 736.539 642.882C737.871 640.617 737.115 637.702 734.85 636.37C732.585 635.038 729.67 635.794 728.338 638.058C727.006 640.323 727.762 643.239 730.026 644.571Z" fill="#6AE5DF"/>
<path d="M657.098 768.561C659.363 769.893 662.278 769.137 663.61 766.873C664.942 764.608 664.186 761.692 661.922 760.36C659.657 759.029 656.742 759.785 655.41 762.049C654.078 764.314 654.834 767.229 657.098 768.561Z" fill="#6AE5DF"/>
<path d="M586.362 628.161L597.044 609.999L604.892 614.615L603.294 617.331L599.457 615.074L596.766 619.648L600.107 621.613L598.461 624.412L595.12 622.447L590.372 630.52L586.362 628.161Z" fill="white"/>
<path d="M596.677 634.228L607.359 616.066L611.37 618.425L600.687 636.587L596.677 634.228Z" fill="white"/>
<path d="M603.96 638.512L614.642 620.35L617.464 622.009L616.046 632.942L621.188 624.2L624.506 626.151L613.823 644.313L611.115 642.72L612.927 631.118L607.391 640.53L603.96 638.512Z" fill="white"/>
<path d="M616.223 645.725L630.337 629.581L634.911 632.271L627.614 652.425L623.913 650.248L625.568 646.057L622.897 644.486L620.015 647.956L616.223 645.725ZM624.67 642.298L626.596 643.431L629.801 635.777L624.67 642.298Z" fill="white"/>
<path d="M630.014 653.837L640.697 635.674L643.518 637.334L642.1 648.267L647.243 639.524L650.561 641.476L639.878 659.638L637.169 658.045L638.981 646.442L633.445 655.855L630.014 653.837Z" fill="white"/>
<path d="M648.195 664.884C646.818 664.075 645.881 663.189 645.372 662.211C644.871 661.238 644.718 660.207 644.918 659.109C645.118 658.012 645.581 656.846 646.302 655.619L650.152 649.074C650.891 647.817 651.69 646.839 652.556 646.123C653.418 645.415 654.394 645.047 655.484 645.02C656.573 644.992 657.806 645.393 659.183 646.203C660.56 647.013 661.447 647.828 661.946 648.719C662.437 649.606 662.608 650.537 662.46 651.513C662.311 652.488 661.934 653.492 661.323 654.53L660.398 656.103L656.478 653.797L657.545 651.984C657.757 651.623 657.941 651.275 658.098 650.922C658.255 650.569 658.309 650.236 658.257 649.912C658.205 649.587 657.958 649.3 657.529 649.048C657.101 648.796 656.733 648.732 656.397 648.838C656.061 648.944 655.77 649.147 655.518 649.455C655.266 649.763 655.036 650.103 654.814 650.479L649.792 659.019C649.553 659.425 649.366 659.811 649.235 660.19C649.103 660.568 649.084 660.911 649.167 661.234C649.251 661.556 649.487 661.827 649.878 662.057C650.299 662.305 650.655 662.372 650.964 662.26C651.273 662.148 651.549 661.936 651.798 661.616C652.047 661.297 652.273 660.964 652.485 660.603L653.605 658.699L657.525 661.005L656.6 662.577C655.994 663.608 655.299 664.445 654.512 665.076C653.726 665.707 652.819 666.045 651.784 666.064C650.753 666.096 649.555 665.705 648.193 664.904L648.195 664.884Z" fill="white"/>
<path d="M656.347 669.325L667.03 651.163L671.04 653.522L660.358 671.684L656.347 669.325Z" fill="white"/>
<path d="M662.765 673.1L676.879 656.955L681.453 659.646L674.156 679.8L670.454 677.622L672.109 673.431L669.438 671.86L666.557 675.33L662.765 673.1ZM671.204 669.668L673.13 670.801L676.335 663.147L671.204 669.668Z" fill="white"/>
<path d="M676.549 681.207L687.231 663.044L691.241 665.403L682.156 680.849L686.324 683.301L684.727 686.017L676.541 681.202L676.549 681.207Z" fill="white"/>
<path d="M570.542 655.059L581.22 636.904L585.23 639.263L576.145 654.709L580.313 657.16L578.715 659.876L570.53 655.062L570.542 655.059Z" fill="white"/>
<path d="M581.06 661.245L591.738 643.09L595.748 645.449L585.07 663.604L581.06 661.245Z" fill="white"/>
<path d="M589.983 666.494L598.908 651.318L596.17 649.707L597.922 646.728L607.402 652.304L605.65 655.283L602.934 653.686L594.008 668.861L589.975 666.489L589.983 666.494Z" fill="white"/>
<path d="M598.876 671.724L609.554 653.569L617.717 658.371L616.111 661.102L611.965 658.664L609.315 663.17L612.474 665.029L610.842 667.805L607.682 665.947L604.491 671.371L608.682 673.836L607.084 676.552L598.876 671.724Z" fill="white"/>
<path d="M609.462 677.951L620.14 659.796L625.136 662.734C626.362 663.456 627.343 664.215 628.079 665.012C628.815 665.81 629.232 666.703 629.329 667.692C629.426 668.68 629.094 669.812 628.346 671.083C627.908 671.828 627.454 672.463 626.993 672.971C626.532 673.48 626.017 673.855 625.442 674.094C624.866 674.332 624.199 674.416 623.436 674.352L620.758 684.605L616.612 682.167L619.407 672.853L618.263 672.181L613.475 680.321L609.465 677.963L609.462 677.951ZM619.614 669.866L620.735 670.526C621.299 670.858 621.801 671.021 622.236 671.004C622.672 670.986 623.063 670.821 623.412 670.52C623.765 670.212 624.096 669.788 624.41 669.254C624.865 668.479 625.081 667.786 625.047 667.189C625.014 666.592 624.623 666.068 623.855 665.617L622.554 664.851L619.602 669.869L619.614 669.866Z" fill="white"/>
<path d="M622.598 685.677L636.707 669.54L641.281 672.231L633.989 692.377L630.287 690.2L631.938 686.016L629.267 684.445L626.39 687.908L622.598 685.677ZM631.04 682.258L632.966 683.39L636.171 675.737L631.04 682.258Z" fill="white"/>
<path d="M641.135 696.944C639.758 696.135 638.821 695.249 638.312 694.271C637.811 693.298 637.659 692.267 637.859 691.169C638.059 690.072 638.522 688.906 639.243 687.679L643.093 681.134C643.832 679.877 644.63 678.899 645.497 678.183C646.359 677.475 647.335 677.107 648.424 677.08C649.514 677.052 650.746 677.453 652.123 678.263C653.5 679.073 654.387 679.888 654.886 680.779C655.385 681.67 655.549 682.597 655.4 683.573C655.251 684.549 654.874 685.552 654.263 686.59L653.338 688.163L649.419 685.857L650.485 684.044C650.697 683.683 650.882 683.335 651.039 682.982C651.196 682.629 651.25 682.296 651.197 681.972C651.145 681.647 650.899 681.361 650.47 681.108C650.041 680.856 649.674 680.792 649.338 680.898C649.002 681.004 648.71 681.208 648.458 681.515C648.207 681.823 647.976 682.163 647.755 682.539L642.732 691.079C642.493 691.485 642.306 691.871 642.179 692.242C642.052 692.613 642.029 692.964 642.112 693.286C642.196 693.609 642.432 693.879 642.823 694.109C643.244 694.357 643.6 694.424 643.909 694.312C644.218 694.2 644.494 693.988 644.743 693.669C644.992 693.349 645.218 693.017 645.43 692.655L646.55 690.752L650.47 693.057L649.545 694.63C648.938 695.661 648.244 696.498 647.457 697.129C646.671 697.76 645.764 698.097 644.729 698.117C643.695 698.136 642.5 697.757 641.138 696.956L641.135 696.944Z" fill="white"/>
<path d="M651.474 702.661L655.837 695.243L658.699 682.475L662.491 684.705L660.837 691.459L665.764 686.63L669.397 688.768L659.697 697.513L655.334 704.931L651.481 702.665L651.474 702.661Z" fill="white"/>
<path d="M669.88 699.553L674.134 694.592C674.364 694.322 674.8 694.579 674.676 694.911L672.408 701.04C672.368 701.158 672.39 701.293 672.482 701.377L675.8 704.655C676.039 704.887 675.804 705.285 675.486 705.189L671.009 703.883C670.886 703.851 670.754 703.885 670.677 703.981L666.423 708.942C666.193 709.212 665.757 708.956 665.881 708.624L668.149 702.495C668.189 702.376 668.167 702.241 668.075 702.157L664.757 698.879C664.518 698.648 664.753 698.249 665.071 698.345L669.548 699.652C669.671 699.683 669.803 699.649 669.88 699.553Z" fill="white"/>
</g>
<g clip-path="url(#clip9_34_985)">
<path d="M423.664 600.886L348.712 624.59C338.66 627.769 333.077 638.499 336.242 648.555C339.407 658.611 350.121 664.187 360.173 661.008L435.126 637.304C445.178 634.125 450.761 623.396 447.596 613.339C444.431 603.283 433.716 597.708 423.664 600.886Z" fill="#6666FF"/>
<path d="M354.059 648.408L349.711 649.783L349.348 648.63L350.343 647.727L348.397 641.544L347.065 641.378L346.702 640.225L351.051 638.849L351.414 640.002L350.418 640.905L352.364 647.088L353.696 647.255L354.059 648.408Z" fill="#F1F2F2"/>
<path d="M364.159 645.214L361.592 646.025L355.159 640.116L355.104 640.134C355.215 640.429 355.328 640.73 355.434 641.028C355.54 641.325 355.653 641.626 355.759 641.923C355.865 642.221 355.972 642.523 356.078 642.821L357.493 647.316L355.689 647.886L352.682 638.333L355.238 637.525L361.638 643.371L361.677 643.359C361.573 643.067 361.475 642.774 361.372 642.488C361.268 642.196 361.166 641.91 361.064 641.624C360.962 641.337 360.859 641.051 360.755 640.76L359.332 636.237L361.152 635.661L364.159 645.214Z" fill="#F1F2F2"/>
<path d="M371.358 640.021C371.535 640.584 371.551 641.118 371.409 641.622C371.262 642.128 370.969 642.576 370.517 642.97C370.066 643.364 369.466 643.676 368.72 643.912C368.391 644.016 368.062 644.096 367.73 644.152C367.399 644.207 367.077 644.236 366.761 644.244C366.445 644.252 366.139 644.232 365.839 644.192L365.245 642.304C365.763 642.355 366.288 642.39 366.823 642.399C367.36 642.413 367.871 642.343 368.356 642.19C368.684 642.086 368.937 641.957 369.11 641.804C369.282 641.652 369.388 641.484 369.436 641.303C369.483 641.123 369.473 640.936 369.41 640.736C369.335 640.496 369.186 640.316 368.972 640.2C368.752 640.086 368.484 639.993 368.161 639.936C367.837 639.88 367.468 639.818 367.059 639.764C366.803 639.729 366.524 639.676 366.216 639.614C365.915 639.55 365.606 639.446 365.302 639.297C365 639.154 364.721 638.948 364.473 638.684C364.224 638.419 364.029 638.071 363.89 637.631C363.711 637.062 363.691 636.53 363.824 636.041C363.958 635.551 364.233 635.121 364.656 634.755C365.074 634.39 365.613 634.097 366.275 633.888C366.776 633.729 367.267 633.635 367.755 633.609C368.243 633.584 368.761 633.597 369.319 633.66L369.159 635.444C368.668 635.403 368.229 635.389 367.854 635.403C367.477 635.412 367.101 635.482 366.74 635.596C366.489 635.676 366.29 635.782 366.138 635.921C365.984 636.056 365.886 636.209 365.837 636.384C365.787 636.559 365.796 636.74 365.857 636.935C365.927 637.158 366.053 637.326 366.236 637.44C366.419 637.554 366.667 637.641 366.978 637.695C367.289 637.75 367.677 637.817 368.139 637.885C368.703 637.964 369.196 638.072 369.62 638.213C370.044 638.355 370.399 638.567 370.693 638.842C370.988 639.116 371.21 639.511 371.368 640.012L371.358 640.021Z" fill="#F1F2F2"/>
<path d="M373.852 631.644C375.083 631.255 376.071 631.225 376.822 631.55C377.574 631.876 378.091 632.509 378.386 633.445C378.517 633.862 378.582 634.283 378.575 634.708C378.573 635.131 378.471 635.543 378.277 635.941C378.084 636.339 377.776 636.7 377.364 637.026C376.945 637.348 376.394 637.62 375.709 637.837L374.841 638.112L375.907 641.498L373.863 642.145L370.857 632.592L373.852 631.644ZM374.311 633.337L373.432 633.615L374.315 636.422L374.994 636.207C375.367 636.089 375.676 635.943 375.919 635.762C376.162 635.581 376.325 635.358 376.401 635.095C376.478 634.832 376.464 634.518 376.352 634.161C376.217 633.732 375.98 633.446 375.645 633.295C375.309 633.143 374.862 633.162 374.311 633.337Z" fill="#F1F2F2"/>
<path d="M385.806 638.368L381.458 639.743L381.095 638.59L382.09 637.687L380.144 631.504L378.812 631.338L378.449 630.185L382.798 628.809L383.161 629.962L382.165 630.865L384.111 637.048L385.443 637.215L385.806 638.368Z" fill="#F1F2F2"/>
<path d="M387.293 627.394C388.128 627.13 388.857 627.015 389.479 627.045C390.097 627.083 390.605 627.259 391.008 627.585C391.41 627.911 391.705 628.381 391.898 628.993C392.033 629.422 392.074 629.826 392.027 630.202C391.98 630.578 391.864 630.927 391.679 631.237C391.497 631.552 391.262 631.834 390.975 632.09L395.019 635.448L392.68 636.187L389.4 633.195L388.264 633.554L389.418 637.219L387.374 637.865L384.368 628.312L387.297 627.386L387.293 627.394ZM387.755 628.999L386.914 629.265L387.77 631.983L388.611 631.717C389.156 631.545 389.539 631.301 389.764 630.985C389.989 630.669 390.018 630.256 389.858 629.749C389.769 629.465 389.632 629.244 389.457 629.098C389.275 628.947 389.048 628.866 388.766 628.845C388.484 628.824 388.152 628.88 387.757 629.005L387.755 628.999Z" fill="#F1F2F2"/>
<path d="M402.058 633.228L400.615 631.21L397.246 632.275L397.22 634.758L395.015 635.455L395.353 624.802L397.864 624.007L404.268 632.529L402.064 633.226L402.058 633.228ZM398.283 627.789C398.208 627.665 398.083 627.484 397.927 627.24C397.765 626.997 397.606 626.747 397.445 626.486C397.285 626.23 397.155 626.014 397.055 625.85C397.086 626.066 397.104 626.318 397.121 626.606C397.139 626.895 397.154 627.178 397.17 627.442C397.188 627.712 397.199 627.942 397.207 628.123L397.174 630.412L399.596 629.646L398.276 627.785L398.283 627.789Z" fill="#F1F2F2"/>
<path d="M408.205 631.284L406.161 631.93L403.69 624.076L401.106 624.893L400.572 623.194L407.782 620.914L408.316 622.613L405.733 623.43L408.205 631.284Z" fill="#F1F2F2"/>
<path d="M415.816 628.877L411.468 630.252L411.105 629.099L412.1 628.196L410.154 622.014L408.822 621.847L408.459 620.694L412.808 619.319L413.171 620.472L412.175 621.374L414.121 627.557L415.453 627.724L415.816 628.877Z" fill="#F1F2F2"/>
<path d="M424.564 620.843C424.797 621.584 424.913 622.282 424.924 622.94C424.93 623.6 424.814 624.206 424.585 624.762C424.349 625.315 423.987 625.797 423.492 626.21C422.992 626.626 422.354 626.95 421.569 627.198C420.784 627.447 420.079 627.541 419.433 627.494C418.786 627.441 418.208 627.257 417.698 626.94C417.188 626.624 416.751 626.187 416.378 625.643C416.005 625.1 415.703 624.454 415.467 623.702C415.155 622.71 415.046 621.801 415.143 620.962C415.237 620.131 415.559 619.404 416.105 618.784C416.65 618.165 417.445 617.693 418.486 617.364C419.527 617.034 420.436 616.967 421.238 617.161C422.04 617.354 422.714 617.766 423.268 618.399C423.823 619.032 424.256 619.844 424.568 620.836L424.564 620.843ZM417.627 623.037C417.834 623.694 418.098 624.242 418.41 624.67C418.728 625.096 419.101 625.388 419.542 625.524C419.979 625.668 420.474 625.646 421.025 625.472C421.577 625.297 422.015 625.018 422.292 624.654C422.563 624.287 422.703 623.839 422.714 623.309C422.724 622.778 422.622 622.18 422.415 621.523C422.101 620.526 421.67 619.798 421.122 619.341C420.576 618.889 419.878 618.791 419.02 619.062C418.458 619.24 418.042 619.513 417.768 619.887C417.492 620.256 417.346 620.707 417.33 621.238C417.314 621.77 417.416 622.369 417.627 623.037Z" fill="#F1F2F2"/>
<path d="M436.489 622.339L433.922 623.151L427.489 617.242L427.434 617.259C427.545 617.555 427.658 617.856 427.764 618.153C427.87 618.45 427.983 618.752 428.089 619.049C428.194 619.346 428.302 619.649 428.408 619.946L429.822 624.441L428.018 625.012L425.012 615.459L427.568 614.651L433.968 620.497L434.007 620.484C433.903 620.193 433.805 619.899 433.702 619.613C433.598 619.321 433.496 619.035 433.394 618.749C433.291 618.463 433.189 618.177 433.085 617.885L431.662 613.362L433.482 612.786L436.489 622.339Z" fill="#F1F2F2"/>
</g>
<g clip-path="url(#clip10_34_985)">
<path d="M857.55 342.407L754.3 316.877C751.313 316.139 748.293 317.961 747.555 320.948L738.711 356.712C737.973 359.699 739.795 362.719 742.782 363.457L846.032 388.987C849.019 389.726 852.038 387.903 852.777 384.917L861.62 349.152C862.359 346.166 860.536 343.146 857.55 342.407Z" fill="#6AE5DF"/>
<path d="M845.061 384.263L745.837 359.728C743.541 359.161 742.136 356.832 742.703 354.536L750.071 324.739C750.639 322.443 752.968 321.038 755.263 321.606L854.488 346.14C856.783 346.708 858.189 349.037 857.621 351.333L850.253 381.129C849.686 383.425 847.357 384.831 845.061 384.263ZM754.981 322.748C753.314 322.335 751.626 323.354 751.213 325.021L743.846 354.818C743.433 356.486 744.452 358.174 746.119 358.586L845.344 383.121C847.011 383.533 848.699 382.515 849.111 380.847L856.479 351.05C856.891 349.383 855.873 347.695 854.205 347.282L754.981 322.748Z" fill="#6666FF"/>
<path d="M762.944 334.212L755.492 332.369C755.366 332.338 755.238 332.416 755.207 332.541L754.832 334.06C754.801 334.186 754.878 334.314 755.004 334.345L757.716 335.016L753.827 350.742C753.796 350.868 753.874 350.996 753.999 351.027L755.564 351.414C755.69 351.445 755.818 351.368 755.849 351.242L759.736 335.522L762.449 336.192C762.574 336.223 762.702 336.146 762.733 336.02L763.109 334.501C763.14 334.376 763.063 334.247 762.937 334.216L762.944 334.212Z" fill="#6666FF"/>
<path d="M771.247 336.241L769.682 335.854C769.557 335.823 769.429 335.9 769.398 336.026L767.63 343.175L764.089 342.3L765.857 335.151C765.888 335.025 765.811 334.897 765.685 334.866L764.121 334.479C763.995 334.448 763.867 334.525 763.836 334.651L759.509 352.147C759.478 352.273 759.556 352.401 759.681 352.432L761.246 352.819C761.371 352.85 761.5 352.773 761.531 352.647L763.577 344.373L767.117 345.248L765.071 353.523C765.04 353.648 765.118 353.777 765.243 353.808L766.808 354.195C766.933 354.226 767.062 354.148 767.093 354.023L771.418 336.532C771.449 336.406 771.371 336.278 771.246 336.247L771.247 336.241Z" fill="#6666FF"/>
<path d="M775 354.124L770.54 353.021L772.176 346.402L776.271 347.415C776.396 347.446 776.525 347.369 776.556 347.243L776.931 345.724C776.962 345.598 776.885 345.47 776.759 345.439L772.665 344.427L773.995 339.047L778.409 340.139C778.535 340.17 778.663 340.093 778.694 339.967L779.07 338.448C779.101 338.322 779.023 338.194 778.898 338.163L772.691 336.628C772.565 336.597 772.437 336.675 772.406 336.8L768.085 354.274C768.054 354.4 768.131 354.528 768.257 354.559L774.51 356.105C774.635 356.136 774.764 356.059 774.795 355.933L775.17 354.414C775.201 354.289 775.124 354.16 774.998 354.129L775 354.124Z" fill="#6666FF"/>
<path d="M790.348 340.988L784.187 339.465C784.061 339.434 783.933 339.511 783.902 339.637L779.576 357.133C779.545 357.259 779.622 357.387 779.748 357.418L781.312 357.805C781.438 357.836 781.566 357.759 781.597 357.633L783.673 349.239L787.744 350.246C787.87 350.277 787.998 350.199 788.029 350.074L788.405 348.555C788.436 348.429 788.358 348.301 788.233 348.27L784.161 347.263L785.491 341.884L789.86 342.964C789.986 342.995 790.114 342.918 790.145 342.792L790.52 341.273C790.551 341.147 790.474 341.019 790.348 340.988Z" fill="#6666FF"/>
<path d="M793.472 341.761L792.604 341.546C792.286 341.467 791.963 341.662 791.885 341.98L787.736 358.757C787.658 359.076 787.852 359.398 788.17 359.477L789.038 359.691C789.357 359.77 789.679 359.576 789.758 359.257L793.906 342.48C793.985 342.161 793.791 341.839 793.472 341.761Z" fill="#6666FF"/>
<path d="M801.034 350.951L801.944 347.273C802.259 346 801.751 345.062 801.272 344.501C800.722 343.857 799.889 343.354 799.038 343.143L795.863 342.358C795.738 342.327 795.61 342.405 795.579 342.53L791.258 360.004C791.227 360.13 791.304 360.258 791.43 360.289L792.994 360.676C793.12 360.707 793.248 360.63 793.279 360.504L795.133 353.006L796.075 353.239C796.355 353.308 796.632 353.365 796.909 353.397L796.332 361.295C796.322 361.408 796.399 361.512 796.513 361.54L798.169 361.949C798.238 361.966 798.309 361.948 798.368 361.907C798.426 361.867 798.46 361.803 798.46 361.73L798.89 353.226C799.995 352.899 800.752 352.093 801.036 350.945L801.034 350.951ZM797.169 344.772L798.249 345.039C799.591 345.37 800.208 345.79 799.866 347.172L799.162 350.021C798.868 351.209 798.062 351.628 796.702 351.291L795.623 351.025L797.169 344.772Z" fill="#6666FF"/>
<path d="M805.558 353.463C804.465 350.847 804.095 349.895 804.319 348.987C804.874 346.743 805.876 346.688 806.692 346.89C807.326 347.046 808.096 347.534 807.5 349.944L807.279 350.84C807.248 350.966 807.325 351.094 807.451 351.125L809.015 351.512C809.141 351.543 809.269 351.466 809.3 351.34L809.578 350.215C810.568 346.212 808.231 345.174 807.181 344.914C804.782 344.321 803.022 345.558 802.343 348.305C801.924 350.001 802.485 351.479 803.691 354.395L804.092 355.348C805.193 357.953 805.426 358.823 805.244 359.56C804.889 360.993 804.178 361.593 803.121 361.331C802.328 361.135 801.584 360.636 802.131 358.426L802.42 357.256C802.451 357.13 802.374 357.002 802.248 356.971L800.684 356.584C800.558 356.553 800.43 356.63 800.399 356.756L800.034 358.229C799.272 361.313 800.878 362.879 802.631 363.313C804.893 363.872 806.62 362.669 807.258 360.088C807.651 358.5 807.104 357.184 805.905 354.312L805.551 353.467L805.558 353.463Z" fill="#6666FF"/>
<path d="M818.347 347.911L810.895 346.069C810.769 346.038 810.641 346.115 810.61 346.241L810.234 347.76C810.203 347.885 810.28 348.013 810.406 348.044L813.119 348.715L809.23 364.442C809.199 364.567 809.276 364.696 809.402 364.727L810.967 365.113C811.092 365.145 811.22 365.067 811.251 364.942L815.139 349.221L817.851 349.891C817.977 349.923 818.105 349.845 818.136 349.72L818.512 348.201C818.543 348.075 818.465 347.947 818.34 347.916L818.347 347.911Z" fill="#6666FF"/>
<path d="M829.613 350.697L823.452 349.174C823.326 349.143 823.198 349.22 823.167 349.346L818.841 366.842C818.81 366.968 818.887 367.096 819.013 367.127L820.577 367.514C820.703 367.545 820.831 367.468 820.862 367.342L822.938 358.948L827.009 359.955C827.135 359.986 827.263 359.908 827.294 359.783L827.67 358.264C827.701 358.138 827.623 358.01 827.498 357.979L823.426 356.972L824.756 351.593L829.125 352.673C829.25 352.704 829.379 352.627 829.41 352.501L829.785 350.982C829.816 350.856 829.739 350.728 829.613 350.697Z" fill="#6666FF"/>
<path d="M832.737 351.47L831.869 351.255C831.55 351.176 831.228 351.371 831.15 351.689L827.001 368.466C826.922 368.785 827.117 369.107 827.435 369.186L828.303 369.4C828.622 369.479 828.944 369.285 829.023 368.966L833.171 352.189C833.25 351.87 833.055 351.548 832.737 351.47Z" fill="#6666FF"/>
<path d="M842.211 353.812L840.623 353.419C840.509 353.391 840.391 353.453 840.345 353.563L834.856 367.257L836.342 352.573C836.353 352.454 836.278 352.345 836.163 352.317L834.576 351.924C834.507 351.907 834.437 351.92 834.379 351.96C834.321 352 834.287 352.065 834.281 352.136L832.718 370.292C832.709 370.405 832.785 370.514 832.899 370.542L835.086 371.083C835.2 371.111 835.317 371.056 835.362 370.946L842.368 354.154C842.368 354.154 842.383 354.121 842.387 354.104C842.418 353.978 842.341 353.85 842.215 353.819L842.211 353.812Z" fill="#6666FF"/>
<path d="M845.324 371.512L840.864 370.409L842.5 363.791L846.595 364.804C846.72 364.835 846.848 364.757 846.879 364.632L847.255 363.113C847.286 362.987 847.209 362.859 847.083 362.828L842.989 361.815L844.319 356.436L848.733 357.528C848.859 357.559 848.987 357.481 849.018 357.356L849.393 355.837C849.425 355.711 849.347 355.583 849.222 355.552L843.014 354.017C842.889 353.986 842.76 354.063 842.729 354.189L838.409 371.663C838.378 371.788 838.455 371.917 838.581 371.948L844.834 373.494C844.959 373.525 845.087 373.447 845.118 373.322L845.494 371.803C845.525 371.677 845.448 371.549 845.322 371.518L845.324 371.512Z" fill="#6666FF"/>
</g>
</g>
<defs>
<clipPath id="clip0_34_985">
<rect width="868" height="817" fill="white" transform="translate(0.834961)"/>
</clipPath>
<clipPath id="clip1_34_985">
<rect width="156.202" height="156.202" fill="white" transform="translate(135.074 638.587) rotate(-28.3111)"/>
</clipPath>
<clipPath id="clip2_34_985">
<rect width="72.206" height="90.4133" fill="white" transform="translate(122.664 281.688) rotate(120.91)"/>
</clipPath>
<clipPath id="clip3_34_985">
<rect width="90.4154" height="90.4154" fill="white" transform="translate(160.977 553.461) rotate(76.1852)"/>
</clipPath>
<clipPath id="clip4_34_985">
<rect width="130.282" height="133.484" fill="white" transform="translate(-16 77.2427) rotate(-19.3852)"/>
</clipPath>
<clipPath id="clip5_34_985">
<rect width="121.774" height="101.374" fill="white" transform="translate(53.8689 475.178) rotate(-14.8)"/>
</clipPath>
<clipPath id="clip6_34_985">
<rect width="58.6979" height="58.6979" fill="white" transform="translate(698.712 88.3599) rotate(-25.8692)"/>
</clipPath>
<clipPath id="clip7_34_985">
<rect width="127.285" height="127.285" fill="white" transform="translate(625.381 498.71) rotate(-10.1491)"/>
</clipPath>
<clipPath id="clip8_34_985">
<rect width="174.573" height="174.573" fill="white" transform="translate(600.458 545.02) rotate(30.463)"/>
</clipPath>
<clipPath id="clip9_34_985">
<rect width="116.79" height="38.1786" fill="white" transform="matrix(0.953456 -0.301531 0.300211 0.953873 330.511 630.346)"/>
</clipPath>
<clipPath id="clip10_34_985">
<rect width="117.501" height="47.9827" fill="white" transform="translate(748.892 315.54) rotate(13.8887)"/>
</clipPath>
</defs>
</svg>
