<svg width="869" height="791" viewBox="0 0 869 791" fill="none" xmlns="http://www.w3.org/2000/svg">
<rect width="868" height="791" transform="translate(0.834961)" fill="white"/>
<g clip-path="url(#clip0_34_4227)">
<path d="M279.549 705.007C321.168 682.586 336.732 630.672 314.312 589.053C291.892 547.433 239.978 531.869 198.359 554.29C156.739 576.71 141.175 628.624 163.595 670.243C186.015 711.863 237.93 727.427 279.549 705.007Z" fill="#6666FF"/>
<path d="M271.185 697.116C271.185 697.116 271.11 697.156 271.072 697.176C270.54 697.434 269.992 697.68 269.452 697.923C268.16 698.502 266.641 697.92 266.062 696.628C265.482 695.336 266.068 693.825 267.356 693.238C267.859 693.016 268.365 692.782 268.867 692.541C270.143 691.931 271.68 692.474 272.289 693.75C272.878 694.988 272.384 696.47 271.193 697.111L271.185 697.116ZM282.291 690.569C281.169 691.174 279.75 690.868 278.99 689.8C278.166 688.65 278.427 687.041 279.577 686.217C280.027 685.897 280.481 685.565 280.915 685.234C282.042 684.384 283.661 684.61 284.511 685.737C285.365 686.871 285.135 688.483 284.008 689.333C283.536 689.685 283.057 690.04 282.573 690.388C282.483 690.456 282.385 690.509 282.287 690.561L282.291 690.569ZM257.437 702.042C257.249 702.144 257.048 702.223 256.831 702.271C256.258 702.415 255.672 702.556 255.098 702.68C253.717 702.987 252.342 702.113 252.036 700.733C251.725 699.344 252.603 697.977 253.984 697.671C254.524 697.555 255.064 697.419 255.6 697.296C256.972 696.955 258.369 697.797 258.709 699.169C258.994 700.329 258.44 701.502 257.437 702.042ZM293.241 680.898C292.299 681.405 291.108 681.289 290.281 680.529C289.236 679.565 289.172 677.947 290.136 676.902C290.51 676.497 290.881 676.083 291.251 675.67C292.188 674.611 293.812 674.504 294.871 675.441C295.937 676.373 296.036 678.002 295.1 679.061C294.707 679.505 294.311 679.942 293.907 680.384C293.71 680.596 293.482 680.768 293.233 680.902L293.241 680.898ZM242.969 704.08C242.638 704.259 242.258 704.366 241.849 704.383C241.248 704.405 240.655 704.423 240.054 704.426C238.633 704.442 237.469 703.31 237.453 701.889C237.436 700.469 238.569 699.305 239.989 699.288C240.54 699.283 241.095 699.266 241.65 699.249C243.069 699.194 244.26 700.303 244.31 701.715C244.349 702.725 243.794 703.626 242.958 704.077L242.969 704.08ZM302.007 669.214C301.239 669.628 300.274 669.642 299.466 669.154C298.249 668.429 297.857 666.851 298.589 665.63C298.877 665.154 299.154 664.675 299.43 664.195C300.128 662.964 301.704 662.533 302.928 663.235C304.164 663.94 304.591 665.509 303.889 666.733C303.594 667.251 303.296 667.762 302.993 668.265C302.749 668.678 302.403 668.991 302.011 669.203L302.007 669.214ZM228.38 703.15C227.898 703.41 227.323 703.516 226.738 703.422C226.153 703.329 225.567 703.217 224.986 703.112C223.591 702.852 222.681 701.505 222.941 700.11C223.201 698.716 224.548 697.806 225.942 698.066C226.486 698.172 227.032 698.266 227.587 698.357C228.988 698.593 229.932 699.913 229.695 701.314C229.559 702.126 229.051 702.789 228.38 703.15ZM308.234 656.011C307.616 656.344 306.872 656.424 306.159 656.166C304.824 655.69 304.124 654.229 304.596 652.885C304.784 652.366 304.959 651.844 305.131 651.314C305.572 649.968 307.024 649.234 308.366 649.668C309.713 650.11 310.454 651.558 310.012 652.904C309.83 653.469 309.637 654.03 309.436 654.595C309.217 655.219 308.78 655.707 308.238 655.999L308.234 656.011ZM214.288 699.317C213.655 699.658 212.88 699.735 212.148 699.459C211.593 699.242 211.039 699.026 210.492 698.805C209.182 698.267 208.55 696.769 209.096 695.454C209.634 694.143 211.132 693.512 212.446 694.058C212.958 694.268 213.478 694.474 213.993 694.673C215.319 695.184 215.98 696.665 215.469 697.991C215.239 698.591 214.812 699.045 214.285 699.329L214.288 699.317ZM311.704 641.823C311.237 642.074 310.693 642.183 310.135 642.104C308.727 641.91 307.746 640.611 307.944 639.211C308.019 638.664 308.091 638.111 308.154 637.561C308.318 636.151 309.593 635.143 311 635.299C312.41 635.463 313.418 636.738 313.262 638.145C313.192 638.736 313.122 639.328 313.04 639.917C312.92 640.759 312.409 641.453 311.716 641.826L311.704 641.823ZM201.246 692.741C200.455 693.167 199.452 693.163 198.647 692.644C198.147 692.33 197.651 692.004 197.158 691.667C195.981 690.871 195.668 689.28 196.463 688.103C197.258 686.926 198.85 686.613 200.027 687.409C200.484 687.716 200.949 688.02 201.41 688.316C202.609 689.08 202.956 690.663 202.192 691.862C201.951 692.244 201.623 692.538 201.246 692.741ZM312.24 627.223C311.923 627.393 311.57 627.496 311.188 627.526C309.77 627.619 308.55 626.546 308.465 625.124C308.429 624.57 308.385 624.02 308.337 623.462C308.21 622.053 309.26 620.807 310.669 620.679C312.078 620.552 313.332 621.598 313.452 623.011C313.501 623.607 313.549 624.203 313.587 624.795C313.649 625.831 313.099 626.76 312.24 627.223ZM189.798 683.672C188.841 684.188 187.612 684.053 186.791 683.251C186.364 682.839 185.942 682.415 185.527 681.987C184.534 680.976 184.554 679.351 185.565 678.359C186.584 677.363 188.201 677.386 189.193 678.398C189.581 678.792 189.975 679.182 190.366 679.565C191.385 680.552 191.403 682.176 190.416 683.194C190.226 683.383 190.02 683.543 189.794 683.665L189.798 683.672ZM309.82 612.804C309.654 612.894 309.469 612.964 309.283 613.016C307.912 613.395 306.505 612.587 306.13 611.224C305.98 610.692 305.829 610.161 305.667 609.626C305.259 608.271 306.023 606.838 307.385 606.425C308.74 606.016 310.177 606.788 310.586 608.143C310.756 608.712 310.919 609.286 311.078 609.851C311.401 611.029 310.856 612.237 309.824 612.793L309.82 612.804ZM180.423 672.476C179.277 673.093 177.831 672.754 177.081 671.651C176.748 671.16 176.423 670.664 176.097 670.169C175.329 668.978 175.679 667.389 176.87 666.622C178.08 665.853 179.649 666.204 180.417 667.394C180.719 667.864 181.024 668.322 181.329 668.78C182.127 669.954 181.819 671.549 180.645 672.347C180.573 672.395 180.494 672.447 180.419 672.488L180.423 672.476ZM304.537 599.19C304.537 599.19 304.5 599.21 304.485 599.218C303.217 599.862 301.674 599.361 301.03 598.094C300.778 597.608 300.522 597.114 300.258 596.624L300.185 596.488C299.511 595.237 299.977 593.683 301.228 593.01C302.479 592.336 304.032 592.801 304.706 594.052L304.779 594.188C305.064 594.716 305.344 595.236 305.609 595.764C306.24 597.008 305.766 598.528 304.537 599.19ZM173.489 659.624C173.414 659.665 173.339 659.705 173.259 659.738C171.951 660.288 170.45 659.667 169.901 658.359C169.673 657.81 169.453 657.258 169.234 656.705C168.715 655.381 169.382 653.894 170.699 653.379C172.016 652.864 173.506 653.519 174.025 654.844C174.225 655.358 174.432 655.869 174.651 656.383C175.167 657.612 174.646 659.011 173.501 659.628L173.489 659.624ZM296.549 586.779C295.479 587.356 294.116 587.099 293.328 586.123C292.977 585.69 292.631 585.263 292.277 584.841C291.364 583.759 291.509 582.134 292.592 581.22C293.675 580.307 295.299 580.452 296.213 581.535C296.595 581.991 296.969 582.45 297.347 582.918C298.235 584.024 298.054 585.638 296.948 586.526C296.824 586.622 296.697 586.71 296.561 586.783L296.549 586.779ZM169.264 645.644C169.038 645.766 168.796 645.857 168.529 645.904C167.139 646.176 165.79 645.26 165.518 643.87C165.404 643.28 165.295 642.697 165.2 642.107C164.962 640.708 165.898 639.378 167.301 639.147C168.699 638.909 170.022 639.849 170.26 641.248C170.353 641.8 170.45 642.341 170.559 642.885C170.777 644.012 170.225 645.117 169.26 645.636L169.264 645.644ZM286.324 576.352C285.427 576.835 284.295 576.755 283.466 576.064C283.041 575.709 282.613 575.366 282.185 575.023C281.071 574.146 280.88 572.528 281.761 571.421C282.639 570.306 284.257 570.115 285.364 570.997C285.827 571.37 286.286 571.735 286.746 572.119C287.839 573.028 287.987 574.639 287.078 575.732C286.861 575.995 286.603 576.202 286.324 576.352ZM167.955 631.085C167.585 631.284 167.16 631.396 166.708 631.387C165.29 631.373 164.156 630.205 164.17 628.787C164.178 628.19 164.191 627.599 164.211 627.005C164.264 625.587 165.448 624.482 166.867 624.534C168.285 624.587 169.39 625.771 169.337 627.19C169.316 627.746 169.302 628.298 169.3 628.853C169.287 629.822 168.742 630.651 167.943 631.081L167.955 631.085ZM274.199 568.212C273.468 568.606 272.562 568.637 271.771 568.217C271.281 567.956 270.794 567.703 270.301 567.454C269.033 566.815 268.522 565.272 269.161 564.004C269.801 562.736 271.344 562.225 272.612 562.864C273.144 563.131 273.67 563.403 274.192 563.686C275.445 564.352 275.914 565.908 275.255 567.157C275.009 567.621 274.636 567.977 274.207 568.208L274.199 568.212ZM169.611 616.561C169.091 616.842 168.466 616.945 167.849 616.81C166.461 616.508 165.588 615.141 165.883 613.757C166.007 613.175 166.143 612.596 166.278 612.017C166.615 610.64 167.999 609.797 169.38 610.123C170.758 610.46 171.6 611.844 171.267 613.229C171.138 613.765 171.013 614.309 170.895 614.849C170.731 615.608 170.244 616.22 169.603 616.565L169.611 616.561ZM260.688 562.676C260.115 562.985 259.417 563.079 258.744 562.877C258.211 562.717 257.682 562.565 257.149 562.424C255.782 562.052 254.973 560.641 255.345 559.274C255.717 557.907 257.124 557.09 258.495 557.469C259.067 557.628 259.639 557.787 260.214 557.953C261.571 558.36 262.35 559.788 261.943 561.144C261.738 561.829 261.279 562.367 260.699 562.68L260.688 562.676ZM174.147 602.674C173.476 603.035 172.643 603.095 171.89 602.762C170.59 602.189 170.007 600.675 170.58 599.374C170.82 598.827 171.068 598.295 171.32 597.751C171.924 596.472 173.455 595.92 174.741 596.521C176.027 597.121 176.571 598.656 175.971 599.941C175.733 600.439 175.507 600.94 175.285 601.448C175.045 601.996 174.637 602.41 174.155 602.67L174.147 602.674ZM246.331 559.958C245.909 560.186 245.415 560.296 244.896 560.255C244.347 560.21 243.791 560.17 243.234 560.129C241.814 560.038 240.739 558.819 240.834 557.407C240.925 555.987 242.144 554.912 243.557 555.007C244.152 555.046 244.746 555.085 245.338 555.136C246.755 555.258 247.796 556.505 247.67 557.914C247.591 558.813 247.07 559.56 246.331 559.958ZM181.366 589.977C180.529 590.427 179.483 590.398 178.661 589.81C177.506 588.984 177.239 587.387 178.054 586.229C178.395 585.743 178.745 585.273 179.098 584.791C179.944 583.655 181.561 583.426 182.69 584.276C183.826 585.122 184.055 586.739 183.205 587.868C182.87 588.311 182.547 588.757 182.231 589.2C181.992 589.532 181.693 589.79 181.354 589.973L181.366 589.977ZM231.719 560.178C231.441 560.328 231.133 560.425 230.805 560.466C230.256 560.529 229.703 560.603 229.15 560.677C227.75 560.877 226.445 559.898 226.245 558.499C226.046 557.099 227.024 555.794 228.424 555.594C229.011 555.511 229.603 555.436 230.198 555.368C231.606 555.202 232.885 556.205 233.051 557.613C233.175 558.693 232.616 559.695 231.719 560.178ZM190.997 579.013C189.995 579.553 188.71 579.37 187.898 578.495C186.932 577.46 186.99 575.834 188.032 574.864C188.468 574.464 188.912 574.06 189.352 573.667C190.418 572.723 192.038 572.823 192.982 573.89C193.921 574.949 193.826 576.575 192.759 577.519C192.345 577.888 191.931 578.257 191.529 578.629C191.369 578.784 191.185 578.912 190.997 579.013ZM217.466 563.354C217.338 563.423 217.198 563.489 217.054 563.528C216.534 563.701 216.012 563.885 215.489 564.069C214.151 564.547 212.683 563.86 212.205 562.523C211.728 561.185 212.415 559.717 213.752 559.239C214.313 559.035 214.877 558.837 215.438 558.652C216.784 558.209 218.235 558.934 218.686 560.276C219.083 561.482 218.547 562.762 217.469 563.343L217.466 563.354ZM202.651 570.217C201.453 570.862 199.955 570.464 199.241 569.283C198.511 568.072 198.895 566.494 200.102 565.756C200.606 565.446 201.118 565.151 201.637 564.852C202.864 564.152 204.44 564.567 205.139 565.794C205.851 567.025 205.424 568.597 204.197 569.297C203.715 569.576 203.233 569.855 202.767 570.145C202.73 570.165 202.692 570.185 202.647 570.209L202.651 570.217Z" fill="#6AE5DF"/>
<path d="M209.696 622.317L240.556 605.693C241.204 605.344 241.375 604.416 240.948 603.625L233.105 589.065C232.679 588.274 231.802 587.91 231.162 588.255L200.303 604.879C199.654 605.228 199.484 606.156 199.91 606.948L207.753 621.507C208.179 622.298 209.056 622.662 209.696 622.317Z" fill="#F1F2F2"/>
<path d="M236.981 585.16L248.715 588.678C249.469 588.904 249.903 589.71 249.677 590.464L246.104 602.384C245.735 603.613 244.063 603.775 243.465 602.648L235.313 587.225C234.708 586.102 235.776 584.817 236.993 585.182L236.985 585.167L236.981 585.16Z" fill="#F1F2F2"/>
<path d="M225.742 616.98L211.521 624.64C210.631 625.12 210.298 626.231 210.777 627.121L218.438 641.342C218.918 642.232 220.029 642.565 220.919 642.086L235.139 634.425C236.03 633.945 236.363 632.834 235.883 631.944L228.223 617.724C227.743 616.833 226.632 616.5 225.742 616.98Z" fill="#F1F2F2"/>
<path d="M245.807 674.424C251.355 671.435 253.429 664.515 250.441 658.967C247.452 653.419 240.532 651.345 234.984 654.333C229.436 657.322 227.361 664.242 230.35 669.79C233.339 675.338 240.259 677.412 245.807 674.424Z" fill="#F1F2F2"/>
<path d="M257.612 666.431L249.915 652.143C249.525 651.42 249.743 650.525 250.413 650.037C254.61 646.979 256.007 641.2 253.478 636.505C250.949 631.81 245.354 629.798 240.492 631.619C239.723 631.907 238.848 631.601 238.459 630.877L230.762 616.589C230.311 615.753 230.666 614.716 231.52 614.314C245.793 607.656 263.025 613.239 270.592 627.286C278.159 641.333 273.337 658.786 259.928 667.05C259.116 667.546 258.062 667.268 257.612 666.431Z" fill="#F1F2F2"/>
</g>
<g clip-path="url(#clip1_34_4227)">
<path d="M79.9309 319.859C78.3648 322.436 80.608 325.649 83.5685 325.061L103.407 321.143L122.225 317.86C126.773 317.069 129.556 312.421 128.105 308.038L122.113 289.901L116.198 270.563C115.316 267.68 111.427 267.216 109.895 269.814L106.186 276.094L70.4153 254.677C67.6921 253.047 64.1671 253.931 62.5366 256.654L45.6114 284.923C43.981 287.646 44.8657 291.171 47.5889 292.801L83.3555 314.216L79.9283 319.863L79.9309 319.859Z" fill="#6666FF"/>
<path d="M121.465 310.733C121.317 310.98 121.103 311.019 121.031 311.034L102.214 314.316C102.162 314.326 102.11 314.335 102.062 314.347L89.8041 316.767C90.3319 315.432 90.4349 313.959 90.0846 312.548C89.6388 310.758 88.5012 309.217 86.9165 308.268L52.1695 287.464L67.8713 261.239L102.623 282.046C104.207 282.995 106.103 283.27 107.892 282.817C109.504 282.409 110.908 281.432 111.855 280.082L115.478 291.93C115.494 291.98 115.506 292.028 115.523 292.078L121.515 310.215C121.539 310.282 121.606 310.489 121.455 310.739M127.412 314.295C128.496 312.485 128.832 310.227 128.105 308.038L122.113 289.9L116.198 270.563C115.317 267.687 111.449 267.217 109.905 269.796C109.9 269.805 109.897 269.809 109.892 269.817L106.184 276.098L70.4127 254.681C67.6896 253.05 64.1646 253.935 62.5341 256.658L45.6089 284.927C43.9784 287.65 44.8632 291.175 47.5863 292.805L83.3529 314.22L79.9258 319.867C79.9258 319.867 79.9181 319.88 79.913 319.888C78.3716 322.463 80.6097 325.655 83.5609 325.073L103.399 321.155L122.217 317.873C124.492 317.475 126.321 316.117 127.405 314.307L127.412 314.295Z" fill="#F1F2F2"/>
<path d="M127.413 314.295C126.329 316.105 124.498 317.467 122.225 317.86L103.407 321.143L83.5687 325.061C80.6174 325.643 78.3768 322.455 79.9208 319.876C79.9259 319.867 79.9284 319.863 79.9335 319.855L83.3607 314.208L47.5941 292.793C44.8709 291.163 43.9862 287.638 45.6166 284.914L62.5368 256.655C64.1672 253.931 67.6922 253.047 70.4154 254.677L106.186 276.094L109.895 269.814C109.895 269.814 109.902 269.801 109.908 269.792C111.449 267.218 115.32 267.683 116.201 270.559L122.116 289.897L128.108 308.034C128.832 310.228 128.499 312.481 127.415 314.291M133.343 317.846C135.505 314.235 135.99 309.868 134.669 305.868L128.702 287.803L122.812 268.539C121.616 264.619 118.21 261.767 114.14 261.269C110.069 260.77 106.083 262.724 103.977 266.242C103.969 266.254 103.949 266.288 103.939 266.305L103.768 266.59L73.9663 248.746C67.9804 245.162 60.1901 247.118 56.6061 253.104L39.6809 281.372C36.0969 287.358 38.0522 295.148 44.0381 298.732L73.8401 316.576C71.8859 320.052 72.098 324.363 74.4006 327.64C76.7577 330.991 80.8804 332.645 84.9048 331.852L104.667 327.946L123.408 324.675C127.561 323.947 131.181 321.457 133.343 317.846Z" fill="#6666FF"/>
</g>
<g clip-path="url(#clip2_34_4227)">
<path d="M131.616 219.349C137.458 243.107 161.454 257.631 185.213 251.789C208.971 245.947 223.495 221.951 217.653 198.193C211.811 174.434 187.815 159.91 164.056 165.752C140.298 171.595 125.774 195.591 131.616 219.349Z" fill="#F1F2F2"/>
<path d="M217.653 198.193C223.495 221.951 208.971 245.947 185.213 251.789C161.454 257.631 137.458 243.107 131.616 219.349C125.774 195.59 140.298 171.595 164.056 165.752C187.815 159.91 211.811 174.434 217.653 198.193ZM222.748 196.94C216.224 170.41 189.333 154.134 162.804 160.657C136.274 167.181 119.997 194.072 126.521 220.602C133.045 247.132 159.936 263.408 186.466 256.884C212.995 250.361 229.272 223.469 222.748 196.94Z" fill="#6666FF"/>
<path d="M183.803 212.961L194.256 196.583L202.842 183.135C203.532 182.057 202.306 180.787 201.203 181.426L187.409 189.445L170.616 199.213C169.933 199.61 169.804 200.54 170.348 201.11L176.124 207.129L181.9 213.148C182.448 213.717 183.38 213.626 183.808 212.959L183.803 212.961ZM182.705 205.031L180.599 202.835L178.492 200.638C178.293 200.432 178.387 200.047 178.683 199.857L185.996 195.155L192.002 191.296C192.482 190.989 192.928 191.451 192.599 191.919L188.494 197.76L183.493 204.873C183.289 205.163 182.904 205.237 182.7 205.032L182.705 205.031Z" fill="#6666FF"/>
<path d="M172.54 210.567L178.316 216.585C178.865 217.155 178.731 218.086 178.048 218.483L161.255 228.25L147.461 236.27C146.359 236.914 145.132 235.639 145.822 234.561L154.408 221.112L164.861 204.735C165.284 204.07 166.221 203.977 166.769 204.547L172.545 210.565L172.54 210.567Z" fill="#6AE5DF"/>
<path d="M222.749 196.944L222.748 196.94C222.401 195.529 220.976 194.666 219.565 195.013L213.782 196.435C212.371 196.782 211.508 198.207 211.855 199.618L211.856 199.623C212.203 201.034 213.628 201.897 215.039 201.55L220.823 200.127C222.234 199.78 223.096 198.355 222.749 196.944Z" fill="#6666FF"/>
<path d="M137.415 217.928L137.414 217.923C137.067 216.512 135.642 215.649 134.231 215.996L128.448 217.418C127.037 217.765 126.174 219.191 126.521 220.602L126.522 220.606C126.869 222.017 128.294 222.88 129.705 222.533L135.488 221.111C136.899 220.764 137.762 219.339 137.415 217.928Z" fill="#6666FF"/>
<path d="M167.409 168.367L165.987 162.584C165.64 161.173 164.215 160.31 162.804 160.657L162.799 160.658C161.388 161.005 160.525 162.43 160.872 163.841L162.294 169.625C162.641 171.036 164.066 171.898 165.477 171.551L165.482 171.55C166.893 171.203 167.756 169.778 167.409 168.367Z" fill="#6666FF"/>
<path d="M188.392 253.701L186.97 247.918C186.623 246.507 185.198 245.645 183.787 245.992L183.782 245.993C182.371 246.34 181.509 247.765 181.856 249.176L183.278 254.959C183.625 256.37 185.05 257.233 186.461 256.886L186.466 256.884C187.877 256.537 188.739 255.112 188.392 253.701Z" fill="#6666FF"/>
<path d="M200.295 166.382L200.291 166.379C199.048 165.627 197.43 166.025 196.678 167.268L193.594 172.363C192.842 173.606 193.24 175.223 194.483 175.976L194.487 175.978C195.73 176.731 197.348 176.333 198.1 175.09L201.184 169.995C201.936 168.752 201.538 167.134 200.295 166.382Z" fill="#6666FF"/>
<path d="M154.786 241.562L154.782 241.56C153.538 240.807 151.921 241.205 151.168 242.448L148.085 247.543C147.332 248.786 147.73 250.404 148.973 251.156L148.977 251.159C150.22 251.911 151.838 251.513 152.59 250.27L155.674 245.175C156.427 243.932 156.029 242.315 154.786 241.562Z" fill="#6666FF"/>
<path d="M140.953 185.306L135.858 182.222C134.615 181.47 132.998 181.868 132.245 183.111L132.243 183.115C131.49 184.358 131.888 185.976 133.131 186.728L138.226 189.812C139.469 190.564 141.087 190.166 141.839 188.923L141.842 188.919C142.594 187.676 142.196 186.058 140.953 185.306Z" fill="#6666FF"/>
<path d="M216.137 230.81L211.042 227.726C209.799 226.974 208.181 227.371 207.429 228.615L207.426 228.619C206.674 229.862 207.072 231.479 208.315 232.232L213.41 235.316C214.653 236.068 216.27 235.67 217.023 234.427L217.025 234.423C217.778 233.18 217.38 231.562 216.137 230.81Z" fill="#6666FF"/>
</g>
<g clip-path="url(#clip3_34_4227)">
<path d="M127.097 186.492C123.228 187.853 118.847 187.736 114.857 185.823C106.887 182.002 103.521 172.437 107.34 164.46L116.382 145.601L72.5101 161.038C66.4002 163.187 59.5946 161.444 55.2721 156.625C50.9495 151.807 49.9509 144.85 52.7557 139.012L81.2355 79.6098C85.0569 71.6392 94.6216 68.2737 102.599 72.0927C110.57 75.9141 113.935 85.4788 110.116 93.4564L98.3481 118.002L142.22 102.565C148.33 100.415 155.136 102.159 159.458 106.977C163.781 111.796 164.779 118.752 161.974 124.591L136.221 178.306C134.308 182.296 130.966 185.131 127.097 186.492Z" fill="#F1F2F2"/>
<path d="M90.3619 71.4309C94.2305 70.0696 98.6115 70.1866 102.601 72.0995C110.572 75.9209 113.938 85.4856 110.119 93.4632L98.3504 118.009L142.222 102.572C148.332 100.422 155.138 102.166 159.46 106.984C163.783 111.803 164.782 118.759 161.977 124.597L136.223 178.313C134.31 182.303 130.968 185.138 127.099 186.499C123.231 187.86 118.85 187.743 114.86 185.83C106.889 182.009 103.524 172.444 107.343 164.467L116.384 145.607L72.5124 161.044C66.4026 163.194 59.597 161.451 55.2744 156.632C50.9518 151.814 49.9532 144.857 52.7581 139.019L81.2378 79.6166C83.1508 75.6267 86.4932 72.7921 90.3619 71.4309ZM86.118 59.3698C78.8635 61.9225 73.0382 67.1496 69.7129 74.0854L41.2331 133.488C36.1757 144.025 37.9541 156.457 45.7583 165.157C53.5625 173.858 65.7272 176.978 76.7538 173.099L93.2696 167.287C91.5354 179.406 97.7197 191.784 109.326 197.348C116.262 200.674 124.077 201.101 131.331 198.549C138.586 195.996 144.411 190.769 147.737 183.833L173.49 130.117C178.545 119.574 176.767 107.141 168.962 98.4408C161.158 89.7404 148.994 86.6198 137.967 90.4996L122.941 95.7869C127.57 82.1845 121.387 66.9233 108.121 60.5632C101.185 57.2379 93.3701 56.8103 86.1156 59.3629L86.118 59.3698Z" fill="#6AE5DF"/>
<path d="M76.4689 129.715C75.9448 129.899 75.3504 129.884 74.8028 129.627C73.7076 129.113 73.2396 127.806 73.7533 126.71L94.2352 83.3199C94.7489 82.2248 96.0567 81.7568 97.1519 82.2704C98.247 82.7841 98.715 84.0919 98.2014 85.1871L77.7194 128.577C77.4557 129.128 76.9975 129.521 76.4665 129.708L76.4689 129.715Z" fill="#6AE5DF"/>
<path d="M120.399 180.362C119.875 180.547 119.28 180.531 118.733 180.274C117.637 179.761 117.17 178.453 117.683 177.358L138.165 133.967C138.679 132.872 139.987 132.404 141.082 132.918C142.177 133.432 142.645 134.739 142.131 135.835L121.649 179.225C121.386 179.775 120.927 180.169 120.396 180.356L120.399 180.362Z" fill="#6AE5DF"/>
<path d="M69.4407 150.663L66.9099 151.554L63.491 141.837L60.2982 142.961L59.5581 140.857L68.4815 137.718L69.2215 139.821L66.0287 140.944L69.4476 150.661L69.4407 150.663Z" fill="#6666FF"/>
<path d="M73.8214 135.846C74.8557 135.482 75.7638 135.31 76.5363 135.325C77.3112 135.347 77.955 135.547 78.4724 135.938C78.9899 136.329 79.3786 136.906 79.6455 137.664C79.8324 138.195 79.9008 138.698 79.8578 139.17C79.8148 139.643 79.6834 140.084 79.4656 140.479C79.2503 140.88 78.9674 141.243 78.626 141.572L83.8187 145.604L80.9224 146.623L76.6916 143.012L75.2848 143.507L76.8814 148.045L74.3506 148.935L70.1917 137.116L73.8189 135.839L73.8214 135.846ZM74.4646 137.829L73.4233 138.195L74.605 141.553L75.6463 141.187C76.3221 140.949 76.7908 140.629 77.0592 140.225C77.3276 139.82 77.3468 139.302 77.126 138.675C77.0022 138.323 76.822 138.053 76.5971 137.877C76.3629 137.695 76.0747 137.603 75.7207 137.588C75.3667 137.573 74.9542 137.656 74.4646 137.829Z" fill="#6666FF"/>
<path d="M92.5285 142.54L90.6403 140.081L86.4683 141.549L86.5359 144.648L83.8051 145.609L83.7805 132.28L86.8906 131.186L95.2524 141.581L92.5216 142.542L92.5285 142.54ZM87.586 135.894C87.4864 135.743 87.3301 135.519 87.1171 135.222C86.904 134.925 86.6955 134.618 86.4821 134.298C86.2687 133.978 86.1003 133.719 85.9675 133.518C86.0159 133.788 86.0488 134.102 86.0825 134.462C86.1162 134.822 86.1451 135.168 86.1784 135.505C86.2118 135.842 86.2326 136.122 86.2526 136.355L86.314 139.216L89.3068 138.163L87.5767 135.889L87.586 135.894Z" fill="#6666FF"/>
<path d="M104.332 131.528C104.81 132.887 104.952 134.107 104.767 135.188C104.574 136.271 104.104 137.203 103.338 137.977C102.574 138.757 101.555 139.363 100.273 139.815L96.666 141.084L92.5071 129.264L96.4102 127.891C97.6584 127.452 98.798 127.299 99.8266 127.425C100.855 127.551 101.757 127.955 102.527 128.645C103.294 129.328 103.895 130.287 104.332 131.528ZM101.717 132.556C101.419 131.708 101.047 131.048 100.605 130.584C100.163 130.12 99.6447 129.837 99.0536 129.743C98.4624 129.649 97.8001 129.727 97.0761 129.981L95.7658 130.442L98.4616 138.104L99.5236 137.73C100.737 137.303 101.52 136.664 101.875 135.802C102.233 134.948 102.176 133.86 101.715 132.549L101.717 132.556Z" fill="#6666FF"/>
<path d="M115.664 134.399L108.865 136.791L104.706 124.972L111.505 122.579L112.229 124.634L107.925 126.148L108.84 128.748L112.847 127.338L113.57 129.393L109.563 130.803L110.636 133.851L114.939 132.337L115.667 134.406L115.664 134.399Z" fill="#6666FF"/>
<path d="M131.027 122.336C131.35 123.253 131.53 124.12 131.565 124.944C131.599 125.769 131.487 126.529 131.217 127.237C130.951 127.935 130.51 128.555 129.909 129.092C129.307 129.629 128.515 130.063 127.542 130.405C126.57 130.747 125.698 130.891 124.882 130.861C124.07 130.821 123.338 130.614 122.693 130.236C122.049 129.858 121.476 129.331 120.987 128.667C120.497 128.002 120.093 127.206 119.765 126.275C119.334 125.048 119.16 123.916 119.249 122.869C119.331 121.825 119.704 120.903 120.361 120.106C121.019 119.309 121.993 118.687 123.283 118.233C124.572 117.78 125.708 117.659 126.719 117.869C127.731 118.079 128.592 118.566 129.312 119.336C130.033 120.105 130.602 121.106 131.031 122.327L131.027 122.336ZM122.435 125.359C122.721 126.173 123.074 126.847 123.483 127.37C123.898 127.89 124.376 128.234 124.929 128.395C125.482 128.557 126.101 128.51 126.783 128.27C127.466 128.03 128.003 127.662 128.328 127.199C128.651 126.729 128.808 126.162 128.8 125.499C128.791 124.836 128.638 124.091 128.351 123.278C127.917 122.043 127.347 121.151 126.652 120.605C125.949 120.062 125.071 119.968 124.009 120.342C123.313 120.587 122.803 120.944 122.476 121.424C122.146 121.896 121.982 122.465 121.991 123.129C121.992 123.795 122.143 124.532 122.435 125.359Z" fill="#6666FF"/>
<path d="M137.993 126.542L135.525 127.411L131.366 115.591L138.138 113.208L138.861 115.263L134.558 116.777L135.63 119.825L139.637 118.415L140.36 120.47L136.353 121.88L137.996 126.549L137.993 126.542Z" fill="#6666FF"/>
<path d="M147.075 123.347L144.607 124.215L140.448 112.396L147.22 110.013L147.943 112.068L143.64 113.582L144.712 116.63L148.719 115.22L149.442 117.275L145.435 118.685L147.078 123.353L147.075 123.347Z" fill="#6666FF"/>
</g>
<g clip-path="url(#clip4_34_4227)">
<path d="M170.16 531.542L158.193 487.685C157.534 485.272 154.404 484.501 152.545 486.293L118.781 518.872L108.437 528.939L93.2629 525.165L47.6609 514.011C45.1527 513.4 42.8392 515.642 43.4847 518.059L55.2582 561.967L67.2253 605.824C67.8837 608.237 71.0138 609.008 72.8733 607.216L106.638 574.637L116.981 564.571L132.155 568.344L177.749 579.493C180.257 580.105 182.571 577.863 181.925 575.446L170.152 531.538L170.16 531.542Z" fill="#6AE5DF"/>
<path d="M154.074 485.421C155.778 484.97 157.689 485.858 158.191 487.679L170.158 531.536L181.932 575.444C182.424 577.281 181.2 579.024 179.478 579.479C178.936 579.622 178.353 579.638 177.756 579.492L132.162 568.342L116.988 564.569L106.644 574.636L72.8797 607.214C72.4289 607.65 71.897 607.936 71.3486 608.081C69.6453 608.531 67.7336 607.643 67.2317 605.822L55.2646 561.965L43.4911 518.057C42.9988 516.22 44.2225 514.478 45.9451 514.022C46.4871 513.879 47.0697 513.864 47.6673 514.01L93.2611 525.159L108.435 528.933L118.779 518.866L152.543 486.287C152.994 485.851 153.526 485.565 154.074 485.421ZM152.332 478.825C150.538 479.298 148.892 480.228 147.561 481.511L113.797 514.09L106.373 521.312L95.1887 518.531L49.5577 507.371C47.8021 506.944 45.9427 506.96 44.1943 507.422C41.5039 508.133 39.1488 509.877 37.7281 512.206C36.2994 514.558 35.8966 517.291 36.5926 519.9L48.3661 563.808L60.3414 607.695C61.7967 613.021 67.5106 616.152 73.0849 614.679C74.8784 614.205 76.5239 613.275 77.8554 611.993L111.62 579.414L119.043 572.191L130.229 574.979L175.852 586.134C177.608 586.561 179.461 586.547 181.216 586.083C183.9 585.374 186.261 583.628 187.682 581.299C189.117 578.946 189.521 576.218 188.817 573.605L177.044 529.697L165.069 485.81C163.613 480.484 157.899 477.353 152.325 478.826L152.332 478.825Z" fill="#6666FF"/>
<path d="M116.989 564.575L130.928 541.809L108.429 528.934L94.4244 551.454L116.989 564.575Z" fill="#F1F2F2"/>
<path d="M75.2772 556.44C75.7271 558.143 75.7666 559.651 75.402 560.962C75.0375 562.273 74.327 563.372 73.264 564.26C72.2075 565.146 70.8373 565.812 69.1599 566.255L64.4243 567.506L60.5068 552.679L65.6295 551.326C67.2618 550.894 68.7271 550.798 70.027 551.042C71.327 551.286 72.4164 551.856 73.3178 552.76C74.2127 553.665 74.868 554.892 75.2772 556.44ZM71.8339 557.489C71.5519 556.421 71.1591 555.588 70.6475 554.984C70.1423 554.378 69.5151 553.989 68.7738 553.822C68.0325 553.655 67.1884 553.699 66.2271 553.953L64.511 554.407L67.0509 564.02L68.438 563.654C70.0316 563.233 71.1047 562.513 71.6556 561.49C72.2082 560.473 72.2628 559.138 71.8275 557.491L71.8339 557.489Z" fill="#6666FF"/>
<path d="M89.3473 560.921L80.4246 563.279L76.5071 548.452L85.4298 546.094L86.1096 548.667L80.4644 550.159L81.3251 553.417L86.5768 552.029L87.2566 554.602L82.0049 555.99L83.0141 559.809L88.6593 558.317L89.3457 560.915L89.3473 560.921Z" fill="#6666FF"/>
<path d="M95.995 545.904C95.3756 546.067 94.8453 546.333 94.4024 546.694C93.9595 547.055 93.6281 547.499 93.3955 548.029C93.1629 548.56 93.0369 549.154 93.0193 549.819C93.0017 550.483 93.0972 551.211 93.3059 552C93.5797 553.037 93.9693 553.885 94.4682 554.545C94.9671 555.205 95.5751 555.652 96.2956 555.871C97.016 556.09 97.8359 556.084 98.7585 555.841C99.4359 555.662 100.074 555.414 100.666 555.092C101.257 554.771 101.839 554.413 102.41 554.011L103.122 556.708C102.54 557.145 101.926 557.512 101.286 557.807C100.646 558.101 99.9143 558.36 99.0885 558.579C97.4369 559.015 95.9989 559.058 94.768 558.71C93.5372 558.362 92.5154 557.682 91.696 556.67C90.8766 555.659 90.2729 554.393 89.8751 552.887C89.5784 551.764 89.4691 550.697 89.5503 549.672C89.6315 548.648 89.897 547.719 90.3564 546.872C90.8158 546.024 91.4579 545.294 92.2811 544.674C93.1107 544.052 94.1328 543.584 95.3457 543.263C96.1134 543.06 96.9088 542.936 97.7448 542.887C98.5743 542.839 99.3879 542.888 100.184 543.028L99.7701 545.85C99.1856 545.754 98.5769 545.697 97.9506 545.677C97.3179 545.66 96.6692 545.739 96.0047 545.914L95.995 545.904Z" fill="#6666FF"/>
<path d="M112.322 554.851L105.264 556.716L104.793 554.933L106.463 553.6L103.928 544.005L101.817 543.672L101.346 541.889L108.404 540.024L108.876 541.807L107.205 543.139L109.74 552.734L111.851 553.068L112.322 554.851Z" fill="#6666FF"/>
<path d="M123.023 547.628C123.253 548.498 123.23 549.322 122.956 550.088C122.682 550.853 122.164 551.531 121.412 552.106C120.659 552.681 119.674 553.133 118.461 553.454C117.926 553.595 117.393 553.696 116.859 553.765C116.325 553.833 115.809 553.864 115.302 553.853C114.795 553.841 114.308 553.799 113.838 553.718L113.063 550.787C113.879 550.895 114.722 550.976 115.575 551.021C116.431 551.072 117.251 550.988 118.031 550.782C118.567 550.64 118.981 550.458 119.266 550.231C119.553 550.01 119.748 549.754 119.834 549.48C119.927 549.205 119.926 548.915 119.846 548.612C119.747 548.236 119.528 547.957 119.194 547.761C118.853 547.568 118.433 547.415 117.921 547.306C117.409 547.197 116.834 547.085 116.185 546.979C115.779 546.908 115.334 546.814 114.854 546.697C114.374 546.579 113.899 546.401 113.423 546.164C112.952 545.925 112.527 545.595 112.155 545.179C111.781 544.756 111.505 544.209 111.325 543.53C111.091 542.641 111.105 541.832 111.364 541.09C111.624 540.349 112.103 539.707 112.809 539.164C113.508 538.623 114.393 538.211 115.464 537.928C116.277 537.713 117.069 537.603 117.845 537.589C118.621 537.576 119.458 537.632 120.339 537.755L119.922 540.486C119.139 540.396 118.443 540.349 117.843 540.349C117.234 540.345 116.64 540.422 116.047 540.579C115.64 540.687 115.308 540.84 115.051 541.041C114.793 541.241 114.619 541.471 114.523 541.734C114.427 541.997 114.426 542.282 114.506 542.584C114.597 542.929 114.785 543.197 115.062 543.381C115.344 543.564 115.729 543.713 116.22 543.821C116.711 543.929 117.323 544.051 118.054 544.181C118.943 544.329 119.719 544.527 120.383 544.767C121.041 545.009 121.594 545.352 122.036 545.796C122.478 546.24 122.805 546.853 123.009 547.625L123.023 547.628Z" fill="#6666FF"/>
<path d="M132.729 549.459L125.67 551.324L125.199 549.541L126.87 548.209L124.335 538.614L122.224 538.28L121.753 536.497L128.811 534.632L129.282 536.415L127.612 537.748L130.147 547.343L132.257 547.676L132.729 549.459Z" fill="#6666FF"/>
<path d="M147.41 537.626C147.713 538.774 147.84 539.856 147.789 540.866C147.739 541.876 147.501 542.804 147.08 543.641C146.659 544.478 146.035 545.198 145.201 545.801C144.366 546.404 143.318 546.879 142.047 547.215C140.776 547.551 139.645 547.658 138.613 547.541C137.582 547.424 136.679 547.115 135.899 546.595C135.12 546.075 134.455 545.386 133.912 544.532C133.369 543.679 132.943 542.669 132.635 541.503C132.229 539.967 132.14 538.558 132.371 537.289C132.6 536.014 133.173 534.919 134.104 533.999C135.028 533.082 136.338 532.399 138.035 531.951C139.732 531.503 141.183 531.456 142.439 531.797C143.696 532.138 144.737 532.814 145.561 533.817C146.386 534.821 146.997 536.091 147.403 537.628L147.41 537.626ZM136.145 540.602C136.416 541.627 136.786 542.479 137.248 543.156C137.709 543.833 138.287 544.294 138.972 544.536C139.657 544.777 140.445 544.78 141.341 544.543C142.238 544.306 142.967 543.903 143.43 543.358C143.9 542.811 144.163 542.134 144.228 541.312C144.289 540.497 144.19 539.573 143.919 538.548C143.51 537 142.891 535.856 142.064 535.131C141.236 534.399 140.126 534.223 138.739 534.59C137.829 534.83 137.135 535.232 136.66 535.786C136.186 536.341 135.918 537.025 135.842 537.837C135.767 538.649 135.873 539.572 136.147 540.609L136.145 540.602Z" fill="#6666FF"/>
<path d="M166.291 540.592L162.123 541.693L152.406 532.267L152.322 532.289C152.471 532.751 152.623 533.219 152.773 533.681C152.916 534.145 153.067 534.613 153.21 535.077C153.354 535.541 153.499 536.011 153.635 536.477L155.479 543.455L152.55 544.229L148.633 529.402L152.781 528.306L162.445 537.634L162.509 537.617C162.376 537.164 162.236 536.713 162.102 536.259C161.969 535.806 161.83 535.361 161.692 534.916C161.553 534.47 161.415 534.025 161.282 533.572L159.428 526.556L162.383 525.775L166.3 540.603L166.291 540.592Z" fill="#6666FF"/>
</g>
<g clip-path="url(#clip5_34_4227)">
<path d="M732.075 189.301C729.48 188.401 726.647 189.774 725.747 192.368C724.848 194.962 726.222 197.795 728.816 198.695L750.681 206.279C753.275 207.179 756.108 205.806 757.008 203.212C757.908 200.618 756.534 197.786 753.939 196.886L732.075 189.301Z" fill="#6666FF"/>
<path d="M717.963 206.486C729.13 201.07 733.794 187.627 728.378 176.46C722.963 165.292 709.52 160.629 698.353 166.045C687.185 171.46 682.522 184.903 687.937 196.07C693.353 207.238 706.796 211.901 717.963 206.486Z" fill="#F1F2F2"/>
<path d="M690.566 180.162C693.93 170.463 704.56 165.308 714.26 168.673C723.96 172.038 729.115 182.667 725.75 192.367C722.385 202.067 711.755 207.222 702.055 203.857C692.355 200.492 687.201 189.862 690.566 180.162ZM686.924 178.899C682.857 190.623 689.066 203.426 700.791 207.496C712.514 211.563 725.318 205.354 729.387 193.629C733.454 181.905 727.246 169.102 715.521 165.032C703.797 160.966 690.994 167.174 686.924 178.899Z" fill="#6AE5DF"/>
<path d="M686.924 178.899C690.99 167.176 703.794 160.967 715.52 165.033C727.244 169.099 733.453 181.903 729.387 193.629C725.321 205.353 712.517 211.561 700.791 207.496C689.067 203.429 682.858 190.626 686.924 178.899ZM683.286 177.638C678.53 191.35 685.817 206.377 699.53 211.137C713.242 215.893 728.27 208.606 733.029 194.893C737.786 181.181 730.499 166.153 716.785 161.394C703.073 156.637 688.046 163.924 683.286 177.638Z" fill="#6666FF"/>
</g>
<g clip-path="url(#clip6_34_4227)">
<path d="M753.604 566.609C791.524 559.821 816.761 523.578 809.973 485.659C803.185 447.739 766.942 422.502 729.023 429.29C691.103 436.078 665.866 472.321 672.654 510.24C679.442 548.16 715.685 573.397 753.604 566.609Z" fill="#6AE5DF"/>
<path d="M751.978 557.525C719.132 563.405 687.619 541.468 681.738 508.614C675.857 475.761 697.802 444.254 730.649 438.374C763.495 432.494 795.008 454.431 800.889 487.285C806.77 520.138 784.832 551.644 751.978 557.525ZM733.88 456.424C710.982 460.523 695.689 482.485 699.788 505.383C703.887 528.281 725.849 543.574 748.747 539.475C771.645 535.376 786.938 513.414 782.839 490.516C778.74 467.618 756.778 452.325 733.88 456.424Z" fill="#F1F2F2"/>
<path d="M729.846 487.963L733.551 474.935C734.521 471.523 739.027 470.766 741.051 473.685L748.782 484.808L762.318 484.305C765.866 484.173 767.973 488.224 765.822 491.054L757.635 501.845L762.292 514.559C763.512 517.891 760.312 521.149 756.956 519.979L744.162 515.523L733.506 523.886C730.717 526.079 726.632 524.039 726.705 520.49L726.988 506.948L715.745 499.402C712.797 497.421 713.477 492.906 716.872 491.88L729.84 487.965L729.846 487.963Z" fill="#6666FF"/>
<path d="M696.578 462.195C697.738 460.761 698.793 459.885 699.744 459.573C700.694 459.261 701.616 459.465 702.51 460.183C702.949 460.537 703.267 460.926 703.454 461.339C703.642 461.759 703.724 462.177 703.702 462.606C703.68 463.035 703.574 463.437 703.379 463.812L703.453 463.869C703.799 463.581 704.183 463.356 704.612 463.18C705.043 463.011 705.501 462.957 705.989 463.033C706.477 463.108 706.998 463.362 707.544 463.803C708.181 464.313 708.6 464.911 708.8 465.591C708.999 466.271 708.994 466.994 708.769 467.757C708.545 468.52 708.111 469.306 707.468 470.109L704.315 474.025L693.847 465.582L696.578 462.195ZM700.868 465.459C701.39 464.812 701.627 464.274 701.592 463.841C701.557 463.408 701.341 463.036 700.96 462.728C700.562 462.403 700.149 462.314 699.726 462.446C699.304 462.578 698.84 462.959 698.336 463.588L697.403 464.747L699.855 466.724L700.869 465.466L700.868 465.459ZM701.536 468.081L704.351 470.348L705.499 468.924C706.032 468.261 706.27 467.687 706.214 467.216C706.156 466.737 705.914 466.334 705.491 465.992C705.226 465.777 704.948 465.649 704.655 465.596C704.362 465.542 704.039 465.6 703.701 465.766C703.362 465.933 703.001 466.253 702.625 466.724L701.535 468.074L701.536 468.081Z" fill="#6666FF"/>
<path d="M718.181 454.898C718.707 455.661 719.022 456.469 719.109 457.311C719.197 458.16 719.027 458.991 718.601 459.818C718.174 460.639 717.441 461.415 716.406 462.125C714.943 463.137 713.57 463.539 712.283 463.316C711.004 463.099 709.932 462.376 709.081 461.147L704.15 454.023L706.489 452.406L711.172 459.171C711.802 460.079 712.432 460.59 713.055 460.705C713.685 460.819 714.366 460.626 715.096 460.113C715.614 459.758 715.97 459.375 716.169 458.978C716.367 458.581 716.41 458.149 716.303 457.672C716.197 457.195 715.947 456.672 715.555 456.105L710.881 449.353L713.221 447.736L718.172 454.892L718.181 454.898Z" fill="#6666FF"/>
<path d="M731.495 447.774C731.965 449.249 732.086 450.559 731.846 451.715C731.614 452.869 731.074 453.851 730.227 454.662C729.387 455.471 728.273 456.096 726.886 456.542L722.979 457.795L718.879 444.987L723.115 443.634C724.469 443.2 725.692 443.066 726.793 443.237C727.894 443.409 728.848 443.869 729.649 444.625C730.451 445.382 731.071 446.433 731.495 447.774ZM728.66 448.799C728.368 447.88 727.985 447.162 727.524 446.65C727.064 446.137 726.519 445.823 725.888 445.702C725.257 445.582 724.546 445.645 723.755 445.9L722.341 446.352L725.003 454.654L726.149 454.286C727.463 453.867 728.329 453.202 728.733 452.293C729.137 451.385 729.12 450.219 728.66 448.799Z" fill="#6666FF"/>
<path d="M740.434 446.564L745.76 446.474L745.874 453.441C745.175 453.694 744.444 453.888 743.686 454.045C742.926 454.195 742.07 454.278 741.102 454.295C739.773 454.313 738.631 454.071 737.689 453.56C736.748 453.048 736.023 452.285 735.521 451.262C735.019 450.24 734.757 448.976 734.736 447.47C734.711 446.064 734.967 444.842 735.497 443.805C736.027 442.768 736.81 441.954 737.839 441.373C738.869 440.792 740.139 440.487 741.645 440.465C742.358 440.451 743.064 440.516 743.755 440.655C744.446 440.793 745.082 440.984 745.649 441.222L744.742 443.518C744.322 443.309 743.854 443.145 743.32 443.014C742.793 442.882 742.237 442.825 741.658 442.837C740.832 442.85 740.116 443.049 739.513 443.44C738.909 443.825 738.446 444.368 738.13 445.056C737.807 445.744 737.655 446.558 737.672 447.483C737.687 448.359 737.819 449.136 738.068 449.814C738.315 450.486 738.7 451.012 739.228 451.385C739.748 451.76 740.425 451.936 741.252 451.93C741.655 451.922 741.997 451.896 742.281 451.859C742.564 451.815 742.824 451.762 743.064 451.719L743.016 448.914L740.473 448.959L740.43 446.585L740.434 446.564Z" fill="#6666FF"/>
<path d="M755.764 456.361L748.242 454.519L751.439 441.461L758.954 443.305L758.396 445.573L753.639 444.412L752.934 447.281L757.359 448.366L756.801 450.634L752.376 449.549L751.554 452.913L756.311 454.074L755.751 456.364L755.764 456.361Z" fill="#6666FF"/>
<path d="M762.366 459.474L759.795 458.177L764.774 448.307L761.526 446.671L762.604 444.537L771.67 449.107L770.593 451.241L767.345 449.605L762.366 459.474Z" fill="#6666FF"/>
<path d="M770.019 548.301L764.297 535.656L766.826 533.63L772.661 538.007C772.776 538.092 772.942 538.226 773.158 538.407C773.375 538.587 773.609 538.786 773.873 538.994C774.13 539.203 774.372 539.408 774.592 539.61C774.819 539.81 774.989 539.964 775.108 540.077C775.021 539.944 774.899 539.739 774.759 539.473C774.62 539.208 774.471 538.93 774.32 538.645C774.169 538.353 774.028 538.081 773.903 537.82C773.779 537.558 773.679 537.357 773.619 537.219L770.632 530.589L773.161 528.564L784.237 536.919L782.042 538.673L776.112 534.009C775.939 533.87 775.731 533.701 775.49 533.504C775.249 533.306 774.998 533.089 774.747 532.871C774.487 532.649 774.244 532.437 774 532.226C773.757 532.014 773.561 531.83 773.397 531.667C773.526 531.871 773.667 532.108 773.822 532.378C773.977 532.648 774.127 532.933 774.277 533.218C774.429 533.509 774.569 533.782 774.7 534.035C774.83 534.288 774.931 534.497 774.995 534.655L778.173 541.76L776.072 543.44L769.838 538.781C769.706 538.677 769.531 538.531 769.301 538.353C769.077 538.173 768.837 537.976 768.585 537.758C768.334 537.541 768.09 537.33 767.862 537.123C767.633 536.915 767.437 536.731 767.274 536.569C767.442 536.836 767.628 537.164 767.839 537.552C768.051 537.939 768.255 538.328 768.455 538.731C768.654 539.135 768.82 539.467 768.953 539.733L772.205 546.542L770.011 548.295L770.019 548.301Z" fill="#6666FF"/>
<path d="M755.73 539.415L761.357 537.005L761.992 538.493L760.786 539.828L764.215 547.824L766.016 547.87L766.651 549.358L761.024 551.768L760.389 550.28L761.595 548.944L758.166 540.949L756.365 540.903L755.73 539.415Z" fill="#6666FF"/>
<path d="M747.192 545.315C747.026 544.544 747.061 543.829 747.318 543.167C747.568 542.506 748.02 541.943 748.672 541.472C749.318 541.002 750.162 540.652 751.192 540.426C751.648 540.323 752.098 540.263 752.545 540.226C752.992 540.188 753.431 540.188 753.854 540.218C754.278 540.249 754.686 540.31 755.078 540.403L755.648 542.994C754.965 542.861 754.259 542.753 753.543 542.676C752.828 542.599 752.132 542.631 751.471 542.778C751.022 542.879 750.665 543.021 750.42 543.2C750.17 543.386 750.002 543.594 749.923 543.827C749.838 544.062 749.827 544.319 749.889 544.585C749.962 544.918 750.135 545.171 750.416 545.355C750.697 545.538 751.043 545.689 751.469 545.811C751.893 545.926 752.376 546.052 752.916 546.176C753.256 546.256 753.629 546.36 754.026 546.48C754.424 546.607 754.824 546.783 755.212 547.012C755.6 547.24 755.953 547.545 756.255 547.93C756.558 548.315 756.774 548.808 756.91 549.407C757.085 550.191 757.05 550.906 756.81 551.544C756.57 552.182 756.15 552.725 755.547 553.159C754.946 553.599 754.188 553.919 753.283 554.124C752.594 554.276 751.925 554.339 751.269 554.314C750.613 554.29 749.918 554.209 749.176 554.065L749.602 551.693C750.253 551.804 750.839 551.876 751.348 551.905C751.856 551.935 752.359 551.894 752.864 551.783C753.204 551.708 753.487 551.586 753.714 551.425C753.932 551.258 754.089 551.067 754.176 550.839C754.262 550.611 754.275 550.368 754.213 550.096C754.144 549.789 753.994 549.547 753.765 549.375C753.536 549.204 753.212 549.056 752.801 548.938C752.39 548.821 751.878 548.693 751.27 548.539C750.523 548.368 749.878 548.165 749.331 547.923C748.785 547.68 748.33 547.358 747.966 546.948C747.609 546.537 747.348 545.989 747.198 545.307L747.192 545.315Z" fill="#6666FF"/>
<path d="M736.874 541.707L744.615 541.766L744.514 555.212L736.772 555.153L736.787 552.819L741.683 552.856L741.706 549.897L737.15 549.863L737.165 547.529L741.72 547.563L741.745 544.101L736.849 544.063L736.867 541.708L736.874 541.707Z" fill="#6666FF"/>
<path d="M734.879 541.412L731.801 554.498L728.997 553.838L731.532 543.06L726.235 541.811L726.778 539.503L734.879 541.412Z" fill="#6666FF"/>
<path d="M718.598 544.276L713.639 548.119L710.827 546.744L718.431 541.323L720.736 536.623L723.338 537.901L721.076 542.522L721.415 551.935L718.604 550.56L718.593 544.284L718.598 544.276Z" fill="#6666FF"/>
</g>
<g clip-path="url(#clip7_34_4227)">
<path d="M785.844 582.207L645.17 499.465C638.476 495.528 629.857 497.763 625.919 504.457L543.178 645.132C539.241 651.826 541.476 660.445 548.17 664.382L688.844 747.124C695.539 751.061 704.158 748.826 708.095 742.132L790.836 601.457C794.774 594.763 792.539 586.144 785.844 582.207Z" fill="#6666FF"/>
<path d="M684.197 730.872L564.764 660.625C564.319 660.363 564.038 659.898 564.008 659.381C563.988 658.869 564.223 658.375 564.634 658.073C565.77 657.254 566.698 656.224 567.406 655.02C570.233 650.213 568.619 644.013 563.82 641.191C563.094 640.764 562.845 639.829 563.277 639.095L630.182 525.344C630.609 524.618 631.544 524.369 632.278 524.801C637.077 527.623 643.284 526.014 646.107 521.215C646.534 520.489 647.468 520.24 648.202 520.671L765.961 589.934C766.687 590.361 766.936 591.296 766.505 592.029C763.682 596.829 765.291 603.036 770.091 605.859C770.816 606.285 771.066 607.22 770.634 607.954L703.733 721.697C703.306 722.423 702.372 722.672 701.638 722.241C696.839 719.418 690.631 721.028 687.808 725.827C687.1 727.031 686.659 728.347 686.487 729.733C686.431 730.244 686.113 730.69 685.648 730.915C685.19 731.146 684.639 731.121 684.194 730.859L684.197 730.872ZM568.142 659.071L683.914 727.165C684.213 726.165 684.64 725.195 685.178 724.279C688.597 718.466 695.807 716.247 701.83 718.913L767.276 607.644C762.427 603.981 760.727 597.399 763.177 591.837L647.9 524.034C644.238 528.883 637.656 530.583 632.094 528.133L566.652 639.394C571.909 643.363 573.469 650.75 570.054 656.555C569.516 657.471 568.88 658.306 568.147 659.063L568.142 659.071Z" fill="#6AE5DF"/>
<path d="M633.603 518.244C636.085 519.704 639.281 518.875 640.741 516.393C642.201 513.911 641.372 510.716 638.89 509.256C636.408 507.796 633.213 508.625 631.753 511.107C630.293 513.589 631.122 516.784 633.603 518.244Z" fill="#6AE5DF"/>
<path d="M553.676 654.136C556.157 655.595 559.353 654.767 560.813 652.285C562.273 649.803 561.444 646.607 558.962 645.148C556.48 643.688 553.285 644.516 551.825 646.998C550.365 649.48 551.194 652.676 553.676 654.136Z" fill="#6AE5DF"/>
<path d="M775.053 601.441C777.535 602.901 780.73 602.072 782.19 599.59C783.65 597.108 782.821 593.913 780.339 592.453C777.857 590.993 774.662 591.822 773.202 594.304C771.742 596.786 772.571 599.981 775.053 601.441Z" fill="#6AE5DF"/>
<path d="M695.125 737.333C697.607 738.793 700.802 737.964 702.262 735.482C703.722 733 702.893 729.805 700.411 728.345C697.929 726.885 694.734 727.714 693.274 730.196C691.814 732.678 692.643 735.873 695.125 737.333Z" fill="#6AE5DF"/>
<path d="M617.599 583.457L629.307 563.552L637.907 568.61L636.156 571.587L631.951 569.114L629.002 574.127L632.663 576.28L630.859 579.348L627.198 577.194L621.994 586.042L617.599 583.457Z" fill="white"/>
<path d="M628.904 590.107L640.612 570.201L645.007 572.786L633.299 592.692L628.904 590.107Z" fill="white"/>
<path d="M636.886 594.801L648.594 574.896L651.686 576.715L650.132 588.697L655.768 579.116L659.404 581.254L647.696 601.16L644.728 599.414L646.714 586.698L640.646 597.013L636.886 594.801Z" fill="white"/>
<path d="M650.327 602.707L665.795 585.013L670.808 587.962L662.811 610.05L658.754 607.663L660.568 603.07L657.641 601.348L654.483 605.151L650.327 602.707ZM659.584 598.951L661.694 600.192L665.208 591.804L659.584 598.951Z" fill="white"/>
<path d="M665.442 611.597L677.149 591.691L680.242 593.51L678.688 605.493L684.323 595.911L687.96 598.05L676.252 617.955L673.283 616.209L675.269 603.493L669.202 613.808L665.442 611.597Z" fill="white"/>
<path d="M685.367 623.705C683.858 622.818 682.83 621.847 682.273 620.776C681.724 619.709 681.557 618.578 681.776 617.375C681.995 616.173 682.502 614.895 683.293 613.551L687.512 606.377C688.322 605 689.197 603.927 690.147 603.143C691.092 602.367 692.161 601.964 693.355 601.934C694.55 601.904 695.9 602.343 697.409 603.231C698.918 604.118 699.891 605.012 700.438 605.988C700.976 606.96 701.164 607.98 701.001 609.05C700.838 610.119 700.424 611.219 699.755 612.357L698.741 614.08L694.445 611.553L695.614 609.566C695.847 609.17 696.049 608.79 696.221 608.403C696.393 608.016 696.452 607.651 696.395 607.295C696.338 606.94 696.067 606.625 695.597 606.349C695.127 606.073 694.725 606.002 694.357 606.119C693.989 606.235 693.669 606.458 693.393 606.795C693.117 607.132 692.864 607.505 692.622 607.917L687.117 617.276C686.855 617.722 686.65 618.145 686.506 618.56C686.362 618.974 686.341 619.35 686.433 619.704C686.524 620.058 686.783 620.354 687.212 620.606C687.674 620.878 688.063 620.951 688.402 620.829C688.74 620.706 689.043 620.474 689.316 620.123C689.588 619.773 689.836 619.408 690.069 619.013L691.296 616.926L695.592 619.453L694.579 621.177C693.914 622.306 693.153 623.224 692.291 623.915C691.429 624.607 690.435 624.977 689.301 624.998C688.171 625.032 686.858 624.604 685.365 623.726L685.367 623.705Z" fill="white"/>
<path d="M694.302 628.572L706.01 608.667L710.405 611.252L698.697 631.157L694.302 628.572Z" fill="white"/>
<path d="M701.336 632.709L716.804 615.015L721.817 617.964L713.82 640.052L709.763 637.666L711.577 633.073L708.649 631.351L705.491 635.154L701.336 632.709ZM710.584 628.948L712.695 630.19L716.208 621.801L710.584 628.948Z" fill="white"/>
<path d="M716.442 641.594L728.15 621.689L732.545 624.274L722.588 641.203L727.156 643.89L725.405 646.866L716.434 641.59L716.442 641.594Z" fill="white"/>
<path d="M600.26 612.936L611.963 593.039L616.358 595.624L606.401 612.553L610.97 615.24L609.219 618.216L600.247 612.94L600.26 612.936Z" fill="white"/>
<path d="M611.788 619.717L623.491 599.819L627.886 602.404L616.183 622.302L611.788 619.717Z" fill="white"/>
<path d="M621.567 625.469L631.35 608.837L628.348 607.072L630.269 603.806L640.659 609.917L638.738 613.183L635.761 611.432L625.979 628.064L621.559 625.464L621.567 625.469Z" fill="white"/>
<path d="M631.314 631.201L643.017 611.304L651.964 616.566L650.204 619.56L645.66 616.887L642.755 621.827L646.218 623.864L644.429 626.906L640.965 624.869L637.468 630.815L642.061 633.516L640.311 636.493L631.314 631.201Z" fill="white"/>
<path d="M642.916 638.025L654.619 618.128L660.094 621.348C661.438 622.139 662.514 622.971 663.32 623.845C664.127 624.719 664.584 625.698 664.69 626.782C664.796 627.865 664.433 629.105 663.613 630.499C663.133 631.315 662.635 632.01 662.13 632.568C661.625 633.125 661.061 633.537 660.43 633.798C659.799 634.06 659.068 634.151 658.232 634.082L655.297 645.318L650.753 642.646L653.816 632.439L652.562 631.701L647.315 640.623L642.919 638.038L642.916 638.025ZM654.043 629.165L655.272 629.888C655.89 630.251 656.44 630.43 656.917 630.411C657.394 630.392 657.822 630.212 658.205 629.882C658.593 629.544 658.954 629.079 659.299 628.494C659.798 627.645 660.034 626.885 659.998 626.23C659.961 625.576 659.532 625.002 658.691 624.507L657.265 623.668L654.03 629.168L654.043 629.165Z" fill="white"/>
<path d="M657.313 646.493L672.776 628.808L677.79 631.757L669.798 653.836L665.741 651.45L667.55 646.865L664.622 645.143L661.469 648.938L657.313 646.493ZM666.565 642.746L668.676 643.987L672.189 635.599L666.565 642.746Z" fill="white"/>
<path d="M677.63 658.843C676.121 657.955 675.093 656.985 674.536 655.913C673.987 654.847 673.82 653.716 674.039 652.513C674.258 651.31 674.765 650.033 675.556 648.689L679.775 641.515C680.585 640.138 681.46 639.065 682.41 638.281C683.355 637.505 684.424 637.102 685.618 637.071C686.812 637.041 688.163 637.481 689.672 638.368C691.181 639.256 692.154 640.15 692.701 641.126C693.247 642.102 693.427 643.118 693.264 644.188C693.101 645.257 692.687 646.357 692.018 647.495L691.004 649.218L686.708 646.691L687.877 644.704C688.11 644.308 688.312 643.927 688.484 643.54C688.656 643.153 688.715 642.788 688.658 642.433C688.601 642.077 688.33 641.763 687.86 641.487C687.39 641.21 686.988 641.14 686.62 641.256C686.251 641.373 685.932 641.595 685.656 641.933C685.38 642.27 685.127 642.643 684.885 643.055L679.38 652.414C679.118 652.859 678.913 653.283 678.774 653.689C678.635 654.096 678.609 654.48 678.701 654.833C678.792 655.187 679.051 655.483 679.48 655.736C679.941 656.007 680.331 656.081 680.669 655.958C681.008 655.835 681.311 655.603 681.584 655.253C681.856 654.903 682.104 654.538 682.337 654.142L683.564 652.056L687.86 654.583L686.846 656.306C686.182 657.436 685.42 658.353 684.559 659.045C683.697 659.736 682.702 660.106 681.569 660.127C680.435 660.149 679.126 659.734 677.633 658.856L677.63 658.843Z" fill="white"/>
<path d="M688.961 665.108L693.743 656.977L696.879 642.984L701.035 645.429L699.223 652.831L704.622 647.539L708.605 649.881L697.973 659.465L693.191 667.596L688.969 665.113L688.961 665.108Z" fill="white"/>
<path d="M709.133 661.701L713.796 656.264C714.048 655.968 714.526 656.249 714.39 656.613L711.904 663.331C711.86 663.461 711.885 663.608 711.986 663.701L715.622 667.293C715.883 667.547 715.626 667.984 715.277 667.879L710.371 666.447C710.236 666.412 710.092 666.449 710.007 666.555L705.344 671.992C705.093 672.288 704.614 672.006 704.751 671.643L707.237 664.925C707.28 664.795 707.256 664.648 707.155 664.555L703.519 660.963C703.257 660.709 703.514 660.272 703.863 660.377L708.77 661.809C708.905 661.844 709.049 661.807 709.133 661.701Z" fill="white"/>
</g>
<g clip-path="url(#clip8_34_4227)">
<path d="M439.286 553.565L357.14 579.544C346.123 583.028 340.004 594.787 343.473 605.809C346.942 616.831 358.685 622.941 369.702 619.457L451.848 593.478C462.865 589.994 468.984 578.235 465.515 567.213C462.046 556.192 450.303 550.081 439.286 553.565Z" fill="#6666FF"/>
<path d="M363.001 605.648L358.235 607.155L357.837 605.891L358.928 604.902L356.795 598.126L355.336 597.943L354.938 596.679L359.704 595.172L360.101 596.436L359.011 597.425L361.143 604.201L362.603 604.384L363.001 605.648Z" fill="#F1F2F2"/>
<path d="M374.07 602.147L371.257 603.037L364.206 596.56L364.145 596.58C364.267 596.903 364.391 597.233 364.507 597.559C364.623 597.885 364.747 598.215 364.863 598.541C364.979 598.867 365.097 599.199 365.213 599.524L366.764 604.451L364.787 605.076L361.491 594.606L364.292 593.721L371.307 600.128L371.35 600.114C371.236 599.794 371.128 599.473 371.016 599.159C370.902 598.839 370.79 598.526 370.678 598.212C370.566 597.899 370.453 597.585 370.339 597.265L368.779 592.308L370.775 591.677L374.07 602.147Z" fill="#F1F2F2"/>
<path d="M381.961 596.457C382.155 597.073 382.171 597.659 382.016 598.211C381.855 598.766 381.534 599.257 381.039 599.688C380.544 600.12 379.887 600.462 379.069 600.721C378.709 600.835 378.347 600.922 377.984 600.983C377.621 601.044 377.268 601.075 376.922 601.084C376.576 601.093 376.241 601.072 375.912 601.028L375.26 598.958C375.828 599.014 376.404 599.053 376.99 599.062C377.579 599.078 378.139 599.001 378.67 598.833C379.03 598.72 379.307 598.578 379.496 598.411C379.685 598.244 379.801 598.059 379.853 597.862C379.905 597.664 379.894 597.459 379.825 597.24C379.743 596.977 379.58 596.78 379.345 596.653C379.105 596.528 378.811 596.426 378.456 596.364C378.101 596.301 377.697 596.234 377.249 596.175C376.969 596.136 376.662 596.079 376.325 596.011C375.995 595.941 375.657 595.826 375.323 595.663C374.992 595.506 374.686 595.28 374.414 594.991C374.142 594.701 373.928 594.319 373.776 593.836C373.58 593.214 373.557 592.63 373.704 592.094C373.85 591.558 374.151 591.086 374.615 590.685C375.073 590.285 375.663 589.964 376.39 589.734C376.939 589.561 377.477 589.458 378.011 589.429C378.546 589.401 379.114 589.416 379.726 589.485L379.55 591.44C379.012 591.395 378.531 591.379 378.12 591.395C377.707 591.405 377.295 591.482 376.898 591.607C376.624 591.694 376.405 591.81 376.239 591.963C376.071 592.111 375.963 592.279 375.909 592.471C375.855 592.662 375.864 592.861 375.931 593.074C376.008 593.318 376.147 593.503 376.347 593.628C376.547 593.752 376.819 593.847 377.159 593.907C377.5 593.967 377.926 594.041 378.433 594.116C379.05 594.202 379.591 594.32 380.055 594.475C380.52 594.63 380.909 594.863 381.232 595.164C381.554 595.464 381.798 595.897 381.971 596.447L381.961 596.457Z" fill="#F1F2F2"/>
<path d="M384.694 587.276C386.042 586.849 387.125 586.816 387.949 587.173C388.772 587.53 389.339 588.223 389.662 589.249C389.806 589.706 389.878 590.167 389.87 590.633C389.868 591.096 389.755 591.548 389.544 591.984C389.332 592.421 388.994 592.816 388.543 593.174C388.083 593.527 387.48 593.825 386.729 594.063L385.777 594.364L386.945 598.075L384.706 598.784L381.411 588.314L384.694 587.276ZM385.197 589.13L384.233 589.435L385.201 592.512L385.945 592.277C386.354 592.147 386.693 591.987 386.959 591.788C387.225 591.59 387.404 591.346 387.487 591.057C387.571 590.769 387.557 590.425 387.434 590.034C387.286 589.564 387.026 589.25 386.658 589.084C386.291 588.919 385.801 588.939 385.197 589.13Z" fill="#F1F2F2"/>
<path d="M397.795 594.644L393.029 596.152L392.631 594.888L393.722 593.898L391.589 587.122L390.13 586.939L389.732 585.676L394.498 584.169L394.895 585.432L393.804 586.422L395.937 593.198L397.397 593.381L397.795 594.644Z" fill="#F1F2F2"/>
<path d="M399.424 582.617C400.339 582.328 401.139 582.202 401.82 582.235C402.497 582.276 403.054 582.469 403.495 582.826C403.937 583.183 404.26 583.699 404.471 584.37C404.619 584.84 404.664 585.283 404.613 585.695C404.562 586.107 404.434 586.49 404.232 586.829C404.032 587.174 403.774 587.484 403.46 587.765L407.892 591.444L405.329 592.255L401.734 588.975L400.489 589.369L401.753 593.385L399.514 594.094L396.219 583.624L399.428 582.609L399.424 582.617ZM399.931 584.376L399.009 584.668L399.947 587.647L400.868 587.356C401.466 587.166 401.886 586.9 402.132 586.553C402.379 586.207 402.411 585.754 402.236 585.198C402.138 584.887 401.988 584.645 401.797 584.485C401.597 584.319 401.348 584.23 401.038 584.207C400.729 584.184 400.366 584.246 399.933 584.383L399.931 584.376Z" fill="#F1F2F2"/>
<path d="M415.607 589.011L414.025 586.8L410.333 587.967L410.304 590.688L407.888 591.452L408.259 579.776L411.011 578.906L418.029 588.245L415.613 589.009L415.607 589.011ZM411.47 583.05C411.387 582.915 411.251 582.717 411.079 582.449C410.901 582.183 410.728 581.909 410.551 581.622C410.375 581.342 410.233 581.105 410.123 580.925C410.158 581.163 410.177 581.438 410.196 581.754C410.215 582.071 410.232 582.381 410.25 582.671C410.269 582.967 410.281 583.218 410.29 583.416L410.254 585.925L412.909 585.085L411.462 583.046L411.47 583.05Z" fill="#F1F2F2"/>
<path d="M422.343 586.881L420.104 587.589L417.395 578.981L414.564 579.877L413.978 578.015L421.88 575.516L422.466 577.378L419.634 578.273L422.343 586.881Z" fill="#F1F2F2"/>
<path d="M430.685 584.243L425.919 585.75L425.522 584.486L426.613 583.497L424.48 576.72L423.02 576.538L422.622 575.274L427.388 573.767L427.786 575.03L426.695 576.02L428.828 582.796L430.287 582.979L430.685 584.243Z" fill="#F1F2F2"/>
<path d="M440.273 575.438C440.528 576.25 440.655 577.015 440.667 577.736C440.674 578.459 440.547 579.123 440.296 579.733C440.037 580.338 439.64 580.867 439.098 581.32C438.55 581.775 437.85 582.131 436.99 582.403C436.13 582.675 435.357 582.778 434.65 582.727C433.941 582.669 433.307 582.467 432.748 582.12C432.189 581.773 431.71 581.294 431.301 580.698C430.892 580.103 430.562 579.395 430.302 578.571C429.96 577.484 429.841 576.488 429.948 575.568C430.05 574.657 430.403 573.86 431.001 573.181C431.599 572.502 432.47 571.985 433.611 571.624C434.752 571.263 435.749 571.19 436.628 571.402C437.506 571.614 438.245 572.065 438.853 572.759C439.46 573.453 439.935 574.343 440.277 575.43L440.273 575.438ZM432.67 577.842C432.896 578.563 433.186 579.162 433.528 579.631C433.876 580.099 434.286 580.419 434.769 580.568C435.248 580.725 435.79 580.701 436.394 580.51C436.999 580.319 437.479 580.013 437.783 579.615C438.079 579.212 438.233 578.721 438.245 578.14C438.257 577.559 438.144 576.903 437.917 576.183C437.574 575.09 437.101 574.293 436.501 573.791C435.902 573.296 435.137 573.189 434.197 573.486C433.581 573.681 433.125 573.98 432.824 574.39C432.522 574.794 432.362 575.288 432.344 575.871C432.327 576.454 432.439 577.11 432.67 577.842Z" fill="#F1F2F2"/>
<path d="M453.342 577.077L450.529 577.967L443.479 571.49L443.418 571.51C443.54 571.834 443.664 572.164 443.78 572.489C443.896 572.815 444.02 573.145 444.136 573.471C444.252 573.797 444.37 574.129 444.486 574.454L446.036 579.381L444.059 580.006L440.764 569.537L443.565 568.651L450.58 575.058L450.622 575.044C450.508 574.725 450.401 574.403 450.288 574.089C450.174 573.77 450.062 573.456 449.95 573.142C449.838 572.829 449.726 572.515 449.612 572.196L448.052 567.239L450.047 566.608L453.342 577.077Z" fill="#F1F2F2"/>
</g>
<g clip-path="url(#clip9_34_4227)">
<path d="M849.724 270.446L736.564 242.465C733.291 241.656 729.981 243.654 729.172 246.927L719.48 286.124C718.67 289.397 720.668 292.707 723.941 293.516L837.101 321.497C840.374 322.306 843.684 320.309 844.493 317.035L854.185 277.838C854.995 274.565 852.997 271.256 849.724 270.446Z" fill="#6AE5DF"/>
<path d="M836.037 316.319L727.289 289.429C724.773 288.807 723.233 286.255 723.855 283.739L731.93 251.082C732.552 248.566 735.104 247.026 737.62 247.648L846.368 274.537C848.884 275.159 850.424 277.712 849.802 280.228L841.727 312.885C841.105 315.401 838.553 316.941 836.037 316.319ZM737.311 248.899C735.483 248.447 733.633 249.564 733.181 251.391L725.106 284.048C724.655 285.876 725.771 287.726 727.599 288.178L836.346 315.067C838.174 315.519 840.024 314.403 840.476 312.575L848.551 279.918C849.003 278.091 847.886 276.241 846.059 275.789L737.311 248.899Z" fill="#6666FF"/>
<path d="M746.039 261.464L737.871 259.445C737.734 259.411 737.593 259.495 737.559 259.633L737.147 261.298C737.113 261.436 737.198 261.576 737.336 261.61L740.309 262.345L736.047 279.581C736.013 279.719 736.097 279.859 736.235 279.893L737.95 280.317C738.088 280.351 738.228 280.267 738.262 280.129L742.523 262.899L745.495 263.634C745.633 263.668 745.773 263.584 745.808 263.446L746.219 261.781C746.253 261.643 746.168 261.503 746.031 261.469L746.039 261.464Z" fill="#6666FF"/>
<path d="M755.138 263.688L753.424 263.264C753.286 263.229 753.145 263.314 753.111 263.452L751.174 271.288L747.294 270.328L749.231 262.492C749.265 262.355 749.18 262.214 749.043 262.18L747.328 261.756C747.19 261.722 747.05 261.807 747.015 261.945L742.274 281.121C742.24 281.258 742.325 281.399 742.462 281.433L744.177 281.857C744.315 281.891 744.455 281.806 744.489 281.669L746.732 272.6L750.612 273.559L748.37 282.628C748.336 282.766 748.42 282.906 748.558 282.94L750.273 283.364C750.411 283.398 750.551 283.314 750.585 283.176L755.325 264.006C755.359 263.868 755.274 263.728 755.137 263.694L755.138 263.688Z" fill="#6666FF"/>
<path d="M759.251 283.287L754.363 282.078L756.157 274.825L760.644 275.934C760.782 275.968 760.922 275.883 760.956 275.746L761.368 274.081C761.402 273.943 761.317 273.803 761.18 273.769L756.692 272.659L758.15 266.764L762.988 267.96C763.126 267.994 763.266 267.909 763.3 267.771L763.712 266.107C763.746 265.969 763.661 265.828 763.523 265.794L756.72 264.112C756.583 264.078 756.442 264.163 756.408 264.301L751.673 283.452C751.639 283.589 751.723 283.73 751.861 283.764L758.714 285.458C758.852 285.492 758.992 285.408 759.026 285.27L759.438 283.605C759.472 283.468 759.387 283.327 759.25 283.293L759.251 283.287Z" fill="#6666FF"/>
<path d="M776.073 268.891L769.32 267.221C769.182 267.187 769.042 267.272 769.008 267.41L764.266 286.586C764.232 286.723 764.317 286.864 764.455 286.898L766.17 287.322C766.307 287.356 766.448 287.271 766.482 287.133L768.757 277.933L773.219 279.037C773.357 279.071 773.497 278.986 773.531 278.848L773.943 277.184C773.977 277.046 773.892 276.905 773.754 276.871L769.292 275.768L770.75 269.872L775.538 271.056C775.675 271.09 775.816 271.006 775.85 270.868L776.262 269.203C776.296 269.065 776.211 268.925 776.073 268.891Z" fill="#6666FF"/>
<path d="M779.496 269.737L778.545 269.502C778.196 269.416 777.843 269.629 777.757 269.978L773.21 288.365C773.124 288.714 773.337 289.067 773.686 289.154L774.637 289.389C774.986 289.475 775.339 289.262 775.426 288.913L779.972 270.526C780.059 270.177 779.846 269.824 779.496 269.737Z" fill="#6666FF"/>
<path d="M787.785 279.809L788.781 275.779C789.126 274.383 788.57 273.356 788.045 272.741C787.443 272.034 786.53 271.483 785.597 271.252L782.117 270.392C781.98 270.358 781.839 270.443 781.805 270.58L777.07 289.731C777.036 289.869 777.12 290.01 777.258 290.044L778.973 290.468C779.111 290.502 779.251 290.417 779.285 290.279L781.317 282.062L782.35 282.317C782.656 282.393 782.96 282.455 783.263 282.49L782.63 291.146C782.62 291.27 782.705 291.384 782.83 291.415L784.645 291.863C784.72 291.882 784.798 291.862 784.862 291.818C784.926 291.774 784.963 291.703 784.963 291.623L785.435 282.303C786.646 281.945 787.475 281.061 787.786 279.803L787.785 279.809ZM783.549 273.037L784.731 273.33C786.202 273.693 786.879 274.153 786.504 275.667L785.732 278.79C785.41 280.092 784.526 280.551 783.037 280.183L781.854 279.89L783.549 273.037Z" fill="#6666FF"/>
<path d="M792.742 282.562C791.545 279.696 791.139 278.653 791.385 277.658C791.993 275.198 793.09 275.137 793.985 275.359C794.68 275.53 795.524 276.065 794.871 278.706L794.628 279.688C794.594 279.826 794.679 279.966 794.817 280.001L796.531 280.425C796.669 280.459 796.81 280.374 796.844 280.236L797.149 279.003C798.233 274.616 795.672 273.478 794.521 273.193C791.892 272.543 789.963 273.899 789.219 276.91C788.759 278.768 789.375 280.388 790.696 283.584L791.135 284.629C792.342 287.484 792.598 288.437 792.398 289.245C792.01 290.816 791.229 291.473 790.072 291.186C789.202 290.971 788.387 290.425 788.986 288.003L789.303 286.72C789.337 286.582 789.253 286.441 789.115 286.407L787.4 285.983C787.262 285.949 787.122 286.034 787.088 286.172L786.689 287.786C785.853 291.166 787.613 292.883 789.535 293.358C792.013 293.971 793.906 292.653 794.606 289.824C795.036 288.084 794.437 286.641 793.123 283.493L792.734 282.567L792.742 282.562Z" fill="#6666FF"/>
<path d="M806.759 276.478L798.591 274.459C798.453 274.425 798.313 274.51 798.279 274.647L797.867 276.312C797.833 276.45 797.918 276.59 798.056 276.624L801.029 277.359L796.767 294.595C796.733 294.733 796.817 294.873 796.955 294.908L798.67 295.332C798.808 295.366 798.948 295.281 798.982 295.143L803.242 277.913L806.215 278.649C806.353 278.683 806.493 278.598 806.527 278.46L806.939 276.795C806.973 276.658 806.888 276.517 806.751 276.483L806.759 276.478Z" fill="#6666FF"/>
<path d="M819.107 279.531L812.354 277.862C812.216 277.828 812.075 277.912 812.041 278.05L807.3 297.226C807.266 297.364 807.351 297.504 807.488 297.538L809.203 297.962C809.341 297.996 809.481 297.912 809.515 297.774L811.79 288.574L816.252 289.677C816.39 289.711 816.531 289.627 816.565 289.489L816.976 287.824C817.01 287.687 816.926 287.546 816.788 287.512L812.326 286.409L813.783 280.513L818.571 281.697C818.709 281.731 818.849 281.646 818.883 281.508L819.295 279.844C819.329 279.706 819.244 279.566 819.107 279.531Z" fill="#6666FF"/>
<path d="M822.53 280.378L821.579 280.143C821.23 280.056 820.877 280.269 820.79 280.618L816.244 299.006C816.157 299.355 816.37 299.708 816.719 299.794L817.671 300.03C818.02 300.116 818.373 299.903 818.459 299.554L823.006 281.166C823.092 280.817 822.879 280.464 822.53 280.378Z" fill="#6666FF"/>
<path d="M832.913 282.945L831.173 282.515C831.048 282.484 830.918 282.552 830.868 282.672L824.853 297.681L826.481 281.587C826.493 281.458 826.41 281.337 826.285 281.307L824.545 280.876C824.47 280.858 824.393 280.872 824.329 280.916C824.265 280.96 824.228 281.03 824.222 281.109L822.509 301.007C822.499 301.131 822.582 301.251 822.707 301.282L825.104 301.874C825.229 301.905 825.357 301.844 825.407 301.724L833.086 283.32C833.086 283.32 833.101 283.284 833.106 283.265C833.14 283.128 833.055 282.987 832.917 282.953L832.913 282.945Z" fill="#6666FF"/>
<path d="M836.324 302.344L831.437 301.136L833.23 293.882L837.717 294.992C837.855 295.026 837.996 294.941 838.03 294.803L838.441 293.138C838.475 293.001 838.391 292.86 838.253 292.826L833.766 291.717L835.223 285.821L840.061 287.017C840.199 287.051 840.339 286.967 840.373 286.829L840.785 285.164C840.819 285.027 840.734 284.886 840.597 284.852L833.794 283.17C833.656 283.136 833.515 283.221 833.481 283.358L828.746 302.509C828.712 302.647 828.797 302.787 828.934 302.822L835.787 304.516C835.925 304.55 836.066 304.465 836.1 304.328L836.511 302.663C836.545 302.525 836.461 302.385 836.323 302.351L836.324 302.344Z" fill="#6666FF"/>
</g>
<defs>
<clipPath id="clip0_34_4227">
<rect width="171.194" height="171.194" fill="white" transform="translate(123 594.885) rotate(-28.3111)"/>
</clipPath>
<clipPath id="clip1_34_4227">
<rect width="79.1363" height="99.0912" fill="white" transform="translate(153.669 283.897) rotate(120.91)"/>
</clipPath>
<clipPath id="clip2_34_4227">
<rect width="99.0935" height="99.0935" fill="white" transform="translate(210.917 148.826) rotate(76.1852)"/>
</clipPath>
<clipPath id="clip3_34_4227">
<rect width="142.787" height="146.296" fill="white" transform="translate(15 84.3936) rotate(-19.3852)"/>
</clipPath>
<clipPath id="clip4_34_4227">
<rect width="133.462" height="111.104" fill="white" transform="translate(34.0005 510.089) rotate(-14.8)"/>
</clipPath>
<clipPath id="clip5_34_4227">
<rect width="64.3317" height="64.3318" fill="white" transform="translate(673 174.069) rotate(-25.8692)"/>
</clipPath>
<clipPath id="clip6_34_4227">
<rect width="139.501" height="139.502" fill="white" transform="translate(660.363 441.581) rotate(-10.1491)"/>
</clipPath>
<clipPath id="clip7_34_4227">
<rect width="191.329" height="191.329" fill="white" transform="translate(633.049 492.336) rotate(30.463)"/>
</clipPath>
<clipPath id="clip8_34_4227">
<rect width="127.999" height="41.843" fill="white" transform="matrix(0.953456 -0.301531 0.300211 0.953873 337.192 585.853)"/>
</clipPath>
<clipPath id="clip9_34_4227">
<rect width="128.779" height="52.5881" fill="white" transform="translate(730.637 241) rotate(13.8887)"/>
</clipPath>
</defs>
</svg>
