<svg width="193" height="40" viewBox="0 0 193 40" fill="none" xmlns="http://www.w3.org/2000/svg">
<path d="M53.1052 6.42932H41.1004C40.8954 6.42932 40.7307 6.59402 40.7307 6.79898V9.24386C40.7307 9.44882 40.8954 9.61352 41.1004 9.61352H45.4704V34.9553C45.4704 35.1603 45.6351 35.325 45.8401 35.325H48.3581C48.5631 35.325 48.7278 35.1603 48.7278 34.9553V9.61718H53.0978C53.3028 9.61718 53.4675 9.45248 53.4675 9.24752V6.80264C53.4675 6.59768 53.3028 6.43298 53.0978 6.43298L53.1052 6.42932Z" fill="#414042"/>
<path d="M66.479 6.39268H63.9609C63.756 6.39268 63.5913 6.55738 63.5913 6.76234V18.284H57.8853V6.76234C57.8853 6.55738 57.7206 6.39268 57.5157 6.39268H54.9976C54.7926 6.39268 54.6279 6.55738 54.6279 6.76234V34.9553C54.6279 35.1602 54.7926 35.3249 54.9976 35.3249H57.5157C57.7206 35.3249 57.8853 35.1602 57.8853 34.9553V21.6183H63.5913V34.9553C63.5913 35.1602 63.756 35.3249 63.9609 35.3249H66.479C66.684 35.3249 66.8486 35.1602 66.8486 34.9553V6.766C66.8486 6.56104 66.684 6.39635 66.479 6.39635V6.39268Z" fill="#414042"/>
<path d="M78.89 32.1444H71.7017V21.4756H78.297C78.502 21.4756 78.6667 21.3109 78.6667 21.1059V18.661C78.6667 18.4561 78.502 18.2914 78.297 18.2914H71.7017V9.62084H78.8168C79.0217 9.62084 79.1864 9.45614 79.1864 9.25118V6.80631C79.1864 6.60135 79.0217 6.43665 78.8168 6.43665H68.814C68.609 6.43665 68.4443 6.60135 68.4443 6.80631V34.9626C68.4443 35.1676 68.609 35.3323 68.814 35.3323H78.89C79.0949 35.3323 79.2596 35.1676 79.2596 34.9626V32.5178C79.2596 32.3128 79.0949 32.1481 78.89 32.1481V32.1444Z" fill="#414042"/>
<path d="M97.2628 6.42932H87.3333C87.1283 6.42932 86.9636 6.59402 86.9636 6.79898V34.9919C86.9636 35.1969 87.1283 35.3616 87.3333 35.3616H89.8514C90.0563 35.3616 90.221 35.1969 90.221 34.9919V21.4682H96.7797C96.9847 21.4682 97.1494 21.3035 97.1494 21.0986V18.6537C97.1494 18.4487 96.9847 18.284 96.7797 18.284H90.221V9.61352H97.2592C97.4641 9.61352 97.6288 9.44882 97.6288 9.24386V6.79898C97.6288 6.59402 97.4641 6.42932 97.2592 6.42932H97.2628Z" fill="#414042"/>
<path d="M102.859 6.42932H100.337C100.133 6.42932 99.9678 6.59482 99.9678 6.79898V34.959C99.9678 35.1631 100.133 35.3286 100.337 35.3286H102.859C103.063 35.3286 103.229 35.1631 103.229 34.959V6.79898C103.229 6.59482 103.063 6.42932 102.859 6.42932Z" fill="#414042"/>
<path d="M117.232 17.5447V11.6155C117.232 9.56228 116.109 8.32886 115.168 7.65542C114.092 6.88682 112.635 6.42932 111.266 6.42932H106.153C105.948 6.42932 105.784 6.59402 105.784 6.79898V34.9553C105.784 35.1603 105.948 35.325 106.153 35.325H108.671C108.876 35.325 109.041 35.1603 109.041 34.9553V22.8773H110.56C111.014 22.8773 111.457 22.8554 111.885 22.8078L113.975 35.0175C114.004 35.1969 114.158 35.325 114.341 35.325H117.009C117.119 35.325 117.225 35.2737 117.294 35.1896C117.364 35.1054 117.393 34.9919 117.371 34.8821L114.828 21.8086C116.379 20.8973 117.228 19.3894 117.228 17.5411L117.232 17.5447ZM109.045 9.61718H110.787C112.95 9.61718 114.048 10.0234 114.048 12.2487V16.842C114.048 18.7598 112.983 19.6931 110.787 19.6931H109.045V9.61718Z" fill="#414042"/>
<path d="M125.05 19.6602C122.407 16.0954 121.492 14.7888 121.492 13.3248C121.492 9.71234 122.997 9.25118 124.307 9.25118C125.324 9.25118 126.678 9.70136 126.678 13.5846V15.0303C126.678 15.2353 126.843 15.4 127.048 15.4H129.566C129.771 15.4 129.936 15.2353 129.936 15.0303V13.215C129.936 6.76238 125.998 6.06332 124.303 6.06332C120.442 6.06332 118.228 8.60336 118.228 13.0283C118.228 15.7587 119.633 17.7936 122.561 21.7684L123.527 23.0677C126.177 26.6142 126.861 27.8403 126.861 29.0335C126.861 31.3429 126.001 32.5178 124.307 32.5178C123.026 32.5178 121.712 32.0383 121.712 28.4808V26.5922C121.712 26.3873 121.547 26.2226 121.342 26.2226H118.824C118.619 26.2226 118.454 26.3873 118.454 26.5922V28.9639C118.454 33.9342 121.478 35.7056 124.307 35.7056C127.948 35.7056 130.123 33.2278 130.123 29.0737C130.123 26.5117 128.798 24.7256 125.899 20.8131L125.046 19.6639L125.05 19.6602Z" fill="#414042"/>
<path d="M142.387 6.42932H130.382C130.177 6.42932 130.013 6.59402 130.013 6.79898V9.24386C130.013 9.44882 130.177 9.61352 130.382 9.61352H134.752V34.9553C134.752 35.1603 134.917 35.325 135.122 35.325H137.64C137.845 35.325 138.01 35.1603 138.01 34.9553V9.61718H142.38C142.585 9.61718 142.749 9.45248 142.749 9.24752V6.80264C142.749 6.59768 142.585 6.43298 142.38 6.43298L142.387 6.42932Z" fill="#414042"/>
<path d="M160.541 6.42932H150.611C150.406 6.42932 150.241 6.59402 150.241 6.79898V34.9919C150.241 35.1969 150.406 35.3616 150.611 35.3616H153.129C153.334 35.3616 153.499 35.1969 153.499 34.9919V21.4682H160.058C160.263 21.4682 160.427 21.3035 160.427 21.0986V18.6537C160.427 18.4487 160.263 18.284 160.058 18.284H153.499V9.61352H160.537C160.742 9.61352 160.907 9.44882 160.907 9.24386V6.79898C160.907 6.59402 160.742 6.42932 160.537 6.42932H160.541Z" fill="#414042"/>
<path d="M166.133 6.42932H163.611C163.407 6.42932 163.242 6.59482 163.242 6.79898V34.959C163.242 35.1631 163.407 35.3286 163.611 35.3286H166.133C166.337 35.3286 166.503 35.1631 166.503 34.959V6.79898C166.503 6.59482 166.337 6.42932 166.133 6.42932Z" fill="#414042"/>
<path d="M180.843 6.42932H178.284C178.101 6.42932 177.944 6.56474 177.918 6.74774L174.727 29.6044L171.466 6.74774C171.44 6.56474 171.283 6.42932 171.1 6.42932H168.545C168.435 6.42932 168.333 6.4769 168.263 6.55742C168.194 6.63794 168.161 6.74774 168.179 6.85754L172.626 35.0139C172.655 35.1932 172.809 35.325 172.992 35.325H176.513C176.696 35.325 176.85 35.1932 176.879 35.0102L181.209 6.8795C181.216 6.85388 181.22 6.8246 181.22 6.79532C181.22 6.59036 181.055 6.42566 180.85 6.42566L180.843 6.42932Z" fill="#414042"/>
<path d="M192.214 32.1444H185.026V21.4756H191.621C191.826 21.4756 191.991 21.3109 191.991 21.1059V18.661C191.991 18.4561 191.826 18.2914 191.621 18.2914H185.026V9.62084H192.141C192.346 9.62084 192.511 9.45614 192.511 9.25118V6.80631C192.511 6.60135 192.346 6.43665 192.141 6.43665H182.138C181.933 6.43665 181.769 6.60135 181.769 6.80631V34.9626C181.769 35.1676 181.933 35.3323 182.138 35.3323H192.214C192.419 35.3323 192.584 35.1676 192.584 34.9626V32.5178C192.584 32.3128 192.419 32.1481 192.214 32.1481V32.1444Z" fill="#414042"/>
<path d="M2.49133 9.67934H19.3053C19.6567 9.67934 19.9422 9.32798 19.9422 8.8961V0.961233C19.9422 0.529353 19.6567 0.177994 19.3053 0.177994H2.49133C2.13997 0.177994 1.85449 0.529353 1.85449 0.961233V8.8961C1.85449 9.32798 2.13997 9.67934 2.49133 9.67934Z" fill="#6666FF"/>
<path d="M22.4676 0.196259L26.6217 4.35035C26.8888 4.61753 26.8888 5.05673 26.6217 5.32391L22.4017 9.54389C21.9661 9.97943 21.2232 9.66833 21.2268 9.05345L21.2927 0.683039C21.2964 0.0718195 22.0357 -0.2283 22.4676 0.203579V0.196259Z" fill="#6AE5DF"/>
<path d="M10.5763 11.0774H2.63773C2.20516 11.0774 1.85449 11.4281 1.85449 11.8606V19.7992C1.85449 20.2317 2.20516 20.5824 2.63773 20.5824H10.5763C11.0088 20.5824 11.3595 20.2317 11.3595 19.7992V11.8606C11.3595 11.4281 11.0088 11.0774 10.5763 11.0774Z" fill="#6666FF"/>
<path d="M5.88771 39.8999C8.90964 39.8999 11.3594 37.4501 11.3594 34.4282C11.3594 31.4063 8.90964 28.9565 5.88771 28.9565C2.86578 28.9565 0.416016 31.4063 0.416016 34.4282C0.416016 37.4501 2.86578 39.8999 5.88771 39.8999Z" fill="#6AE5DF"/>
<path d="M12.6917 39.2118V31.427C12.6917 31.0317 12.9881 30.706 13.3834 30.6511C15.8502 30.3144 17.7571 28.1916 17.7571 25.6332C17.7571 23.0749 15.8502 20.9521 13.3834 20.6154C12.9918 20.5605 12.6917 20.2347 12.6917 19.8394V12.0546C12.6917 11.6008 13.076 11.2421 13.5298 11.2677C21.073 11.7033 27.0791 17.9802 27.0791 25.6332C27.0791 33.2863 21.073 39.5632 13.5298 39.9987C13.076 40.0243 12.6917 39.6656 12.6917 39.2118Z" fill="#6666FF"/>
</svg>
