<svg width="200" height="200" viewBox="0 0 200 200" fill="none" xmlns="http://www.w3.org/2000/svg">
<g clip-path="url(#clip0_16_673)">
<path d="M100 200C155.228 200 200 155.228 200 100C200 44.7715 155.228 0 100 0C44.7715 0 0 44.7715 0 100C0 155.228 44.7715 200 100 200Z" fill="#6AE5DF"/>
<path d="M100 186.77C52.16 186.77 13.23 147.85 13.23 100C13.23 52.15 52.16 13.23 100 13.23C147.84 13.23 186.77 52.15 186.77 100C186.77 147.85 147.85 186.77 100 186.77ZM100 39.52C66.65 39.52 39.52 66.65 39.52 100C39.52 133.35 66.65 160.48 100 160.48C133.35 160.48 160.48 133.35 160.48 100C160.48 66.65 133.35 39.52 100 39.52Z" fill="#F1F2F2"/>
<path d="M86.3399 83.01L94.8599 65.56C97.0899 60.99 103.64 61.06 105.76 65.69L113.86 83.34L133.09 86.05C138.13 86.76 140.08 93.01 136.33 96.46L122.05 109.62L125.41 128.74C126.29 133.75 120.95 137.54 116.51 135.04L99.5799 125.52L82.4299 134.63C77.9399 137.02 72.6899 133.11 73.6899 128.12L77.5099 109.08L63.5499 95.59C59.8899 92.05 61.9899 85.85 67.0399 85.26L86.3299 83.01H86.3399Z" fill="#6666FF"/>
<path d="M45.8999 38.24C47.8999 36.51 49.6099 35.54 51.0299 35.34C52.4499 35.14 53.6999 35.66 54.7799 36.9C55.3099 37.51 55.6599 38.14 55.8199 38.77C55.9799 39.41 55.9899 40.02 55.8499 40.62C55.7099 41.22 55.4599 41.76 55.0899 42.24L55.1799 42.34C55.7399 42.02 56.3399 41.8 56.9899 41.66C57.6399 41.53 58.2999 41.57 58.9699 41.8C59.6399 42.03 60.3099 42.52 60.9699 43.28C61.7399 44.16 62.1799 45.11 62.2899 46.12C62.3999 47.13 62.2099 48.15 61.6999 49.17C61.1899 50.19 60.3799 51.19 59.2699 52.16L53.8299 56.89L41.1899 42.33L45.8999 38.24ZM51.1299 43.93C52.0299 43.15 52.4999 42.45 52.5599 41.83C52.6199 41.21 52.4099 40.63 51.9499 40.1C51.4699 39.54 50.9099 39.31 50.2799 39.39C49.6499 39.47 48.8999 39.89 48.0299 40.65L46.4199 42.05L49.3799 45.46L51.1299 43.94V43.93ZM51.4099 47.8L54.8099 51.71L56.7899 49.99C57.7099 49.19 58.1899 48.44 58.2299 47.76C58.2699 47.07 58.0299 46.44 57.5199 45.85C57.1999 45.48 56.8399 45.23 56.4399 45.08C56.0399 44.93 55.5699 44.93 55.0499 45.08C54.5299 45.23 53.9399 45.59 53.2899 46.16L51.4099 47.79V47.8Z" fill="#6666FF"/>
<path d="M78.2299 33.4C78.7799 34.61 79.0199 35.83 78.9299 37.04C78.8399 38.26 78.3899 39.39 77.5799 40.45C76.7699 41.5 75.5399 42.41 73.8999 43.15C71.5799 44.21 69.5399 44.43 67.7799 43.79C66.0299 43.16 64.6999 41.87 63.8099 39.92L58.6499 28.62L62.3599 26.93L67.2599 37.66C67.9199 39.1 68.6799 39.98 69.5299 40.3C70.3899 40.62 71.3999 40.52 72.5599 39.98C73.3799 39.61 73.9799 39.16 74.3599 38.65C74.7399 38.14 74.9099 37.54 74.8799 36.84C74.8499 36.14 74.6299 35.34 74.2199 34.44L69.3299 23.73L73.0399 22.04L78.2199 33.39L78.2299 33.4Z" fill="#6666FF"/>
<path d="M98.82 26.71C99.11 28.91 98.95 30.79 98.32 32.36C97.7 33.93 96.69 35.18 95.29 36.11C93.9 37.04 92.17 37.64 90.1 37.92L84.27 38.7L81.72 19.59L88.04 18.75C90.06 18.48 91.82 18.6 93.33 19.12C94.84 19.64 96.07 20.53 97.01 21.8C97.95 23.07 98.56 24.71 98.82 26.71ZM94.56 27.44C94.38 26.07 94.02 24.96 93.5 24.12C92.98 23.28 92.29 22.7 91.43 22.37C90.57 22.04 89.55 21.95 88.37 22.11L86.26 22.39L87.92 34.78L89.63 34.55C91.59 34.29 92.98 33.57 93.78 32.39C94.58 31.21 94.85 29.56 94.56 27.44Z" fill="#6666FF"/>
<path d="M111.74 27.26L119.28 28.48L117.68 38.34C116.63 38.52 115.55 38.61 114.44 38.64C113.33 38.66 112.1 38.56 110.73 38.34C108.85 38.03 107.3 37.4 106.1 36.44C104.9 35.48 104.07 34.22 103.62 32.6501C103.17 31.0801 103.12 29.23 103.47 27.1C103.79 25.11 104.46 23.45 105.47 22.12C106.48 20.79 107.79 19.84 109.39 19.28C110.99 18.72 112.86 18.61 114.99 18.96C116 19.12 116.98 19.39 117.92 19.76C118.86 20.13 119.71 20.56 120.45 21.04L118.59 24.05C118.05 23.65 117.43 23.3 116.71 22.98C116 22.66 115.23 22.44 114.41 22.31C113.24 22.12 112.18 22.22 111.23 22.62C110.28 23.01 109.49 23.66 108.87 24.55C108.24 25.44 107.82 26.55 107.61 27.86C107.41 29.1 107.4 30.23 107.58 31.25C107.76 32.26 108.17 33.1 108.82 33.76C109.46 34.42 110.37 34.84 111.54 35.04C112.11 35.13 112.6 35.18 113.01 35.2C113.42 35.21 113.8 35.2 114.15 35.2L114.79 31.23L111.19 30.65L111.73 27.29L111.74 27.26Z" fill="#6666FF"/>
<path d="M130.9 44.96L120.75 40.46L128.56 22.84L138.7 27.34L137.34 30.4L130.92 27.56L129.2 31.43L135.17 34.08L133.81 37.14L127.84 34.49L125.83 39.03L132.25 41.87L130.88 44.96H130.9Z" fill="#6666FF"/>
<path d="M139.43 51.02L136.13 48.54L145.65 35.87L141.48 32.74L143.54 30L155.18 38.74L153.12 41.48L148.95 38.35L139.43 51.02Z" fill="#6666FF"/>
<path d="M127.79 178.31L122.91 159.02L126.99 156.8L134.12 164.45C134.26 164.6 134.46 164.83 134.72 165.14C134.98 165.45 135.26 165.79 135.58 166.15C135.89 166.51 136.18 166.86 136.44 167.2C136.71 167.54 136.91 167.8 137.05 167.99C136.96 167.78 136.84 167.46 136.71 167.05C136.58 166.64 136.44 166.21 136.3 165.77C136.16 165.32 136.03 164.9 135.92 164.5C135.81 164.1 135.72 163.79 135.67 163.58L133.13 153.47L137.21 151.25L150.73 165.84L147.19 167.76L140 159.68C139.79 159.44 139.54 159.15 139.25 158.81C138.96 158.47 138.66 158.1 138.36 157.73C138.05 157.35 137.76 156.99 137.47 156.63C137.18 156.27 136.95 155.96 136.76 155.69C136.89 156.01 137.03 156.38 137.18 156.8C137.33 157.22 137.47 157.66 137.61 158.1C137.75 158.55 137.88 158.97 138 159.36C138.12 159.75 138.21 160.07 138.26 160.31L140.95 171.14L137.56 172.98L129.94 164.83C129.78 164.65 129.57 164.4 129.29 164.09C129.02 163.78 128.73 163.44 128.43 163.07C128.13 162.7 127.84 162.34 127.57 161.99C127.3 161.64 127.07 161.33 126.88 161.06C127.05 161.48 127.23 161.99 127.43 162.59C127.63 163.19 127.82 163.79 128 164.41C128.18 165.03 128.33 165.54 128.45 165.95L131.32 176.38L127.78 178.3L127.79 178.31Z" fill="#6666FF"/>
<path d="M109.87 162.16L118.42 160.18L118.94 162.44L116.9 164.02L119.72 176.17L122.25 176.69L122.77 178.95L114.22 180.93L113.7 178.67L115.74 177.09L112.92 164.94L110.39 164.42L109.87 162.16Z" fill="#6666FF"/>
<path d="M96.3299 168.33C96.2899 167.2 96.5199 166.2 97.0499 165.33C97.5699 164.46 98.3499 163.78 99.3899 163.28C100.42 162.78 101.7 162.5 103.21 162.44C103.88 162.41 104.53 162.44 105.17 162.5C105.81 162.56 106.43 162.67 107.02 162.82C107.61 162.97 108.17 163.16 108.7 163.39L108.85 167.19C107.92 166.83 106.95 166.5 105.96 166.21C104.97 165.92 103.98 165.79 103.01 165.83C102.35 165.86 101.81 165.97 101.42 166.16C101.02 166.36 100.73 166.61 100.56 166.92C100.38 167.23 100.3 167.59 100.32 167.98C100.34 168.47 100.52 168.87 100.87 169.2C101.22 169.53 101.67 169.83 102.24 170.11C102.81 170.38 103.46 170.68 104.19 170.99C104.65 171.19 105.15 171.43 105.68 171.7C106.21 171.98 106.73 172.33 107.22 172.75C107.71 173.17 108.13 173.69 108.46 174.31C108.79 174.93 108.97 175.68 109.01 176.56C109.06 177.71 108.83 178.71 108.33 179.55C107.83 180.39 107.1 181.05 106.14 181.51C105.18 181.98 104.03 182.24 102.7 182.3C101.69 182.34 100.73 182.26 99.8099 182.06C98.8899 181.86 97.9299 181.57 96.9199 181.18L98.1199 177.94C99.0099 178.26 99.8199 178.51 100.53 178.68C101.24 178.85 101.96 178.92 102.7 178.89C103.2 178.87 103.63 178.77 103.99 178.6C104.34 178.42 104.61 178.19 104.79 177.89C104.97 177.59 105.05 177.25 105.03 176.85C105.01 176.4 104.86 176.02 104.58 175.72C104.3 175.42 103.88 175.13 103.33 174.86C102.78 174.59 102.09 174.28 101.27 173.91C100.26 173.48 99.3999 173.03 98.6899 172.55C97.9799 172.07 97.4199 171.5 97.0099 170.83C96.6099 170.16 96.3799 169.32 96.3399 168.32L96.3299 168.33Z" fill="#6666FF"/>
<path d="M82.6799 160.63L93.5899 162.67L90.0499 181.62L79.1399 179.58L79.7499 176.29L86.6499 177.58L87.4299 173.41L81.0099 172.21L81.6199 168.92L88.0399 170.12L88.9499 165.24L82.0499 163.95L82.6699 160.63H82.6799Z" fill="#6666FF"/>
<path d="M79.9399 159.71L72.2899 177.4L68.4999 175.76L74.7999 161.19L67.6399 158.09L68.9899 154.97L79.9399 159.71Z" fill="#6666FF"/>
<path d="M56.2399 159.64L48.2699 163.81L44.6499 161.16L56.7499 155.43L61.1899 149.38L64.5399 151.84L60.1799 157.79L58.2799 171.16L54.6599 168.51L56.2299 159.65L56.2399 159.64Z" fill="#6666FF"/>
</g>
<defs>
<clipPath id="clip0_16_673">
<rect width="200" height="200" fill="white"/>
</clipPath>
</defs>
</svg>
