<svg width="200" height="200" viewBox="0 0 200 200" fill="none" xmlns="http://www.w3.org/2000/svg">
<g clip-path="url(#clip0_16_670)">
<path d="M100 200C155.228 200 200 155.228 200 100C200 44.7715 155.228 0 100 0C44.7715 0 0 44.7715 0 100C0 155.228 44.7715 200 100 200Z" fill="#6666FF"/>
<path d="M95.77 187.25C95.77 187.25 95.67 187.25 95.62 187.25C94.93 187.22 94.23 187.17 93.54 187.12C91.89 187 90.65 185.56 90.77 183.91C90.89 182.26 92.33 181.03 93.98 181.14C94.62 181.19 95.27 181.23 95.92 181.26C97.57 181.34 98.85 182.75 98.77 184.4C98.69 186 97.36 187.25 95.78 187.25H95.77ZM110.82 186.67C109.33 186.67 108.04 185.57 107.85 184.05C107.64 182.41 108.8 180.9 110.44 180.69C111.08 180.61 111.73 180.52 112.36 180.42C113.99 180.17 115.53 181.3 115.78 182.93C116.03 184.57 114.9 186.1 113.27 186.35C112.59 186.45 111.9 186.55 111.21 186.64C111.08 186.66 110.95 186.66 110.82 186.66V186.67ZM78.9 184.7C78.65 184.7 78.4 184.67 78.15 184.6C77.48 184.43 76.8 184.25 76.14 184.06C74.55 183.61 73.62 181.95 74.07 180.36C74.52 178.76 76.18 177.84 77.77 178.29C78.39 178.47 79.02 178.63 79.64 178.8C81.24 179.21 82.21 180.85 81.8 182.45C81.45 183.8 80.23 184.7 78.9 184.7ZM127.44 182.79C126.19 182.79 125.03 182.01 124.6 180.77C124.06 179.2 124.89 177.5 126.46 176.96C127.07 176.75 127.68 176.53 128.29 176.31C129.84 175.74 131.57 176.53 132.14 178.08C132.72 179.63 131.92 181.36 130.37 181.93C129.72 182.17 129.07 182.4 128.41 182.63C128.09 182.74 127.76 182.79 127.43 182.79H127.44ZM62.89 178.78C62.45 178.78 62 178.68 61.57 178.47C60.94 178.16 60.32 177.85 59.7 177.52C58.23 176.75 57.66 174.94 58.43 173.47C59.2 172 61.01 171.43 62.48 172.2C63.05 172.5 63.63 172.79 64.21 173.08C65.7 173.81 66.31 175.61 65.58 177.09C65.06 178.15 63.99 178.77 62.88 178.77L62.89 178.78ZM142.93 175.63C141.91 175.63 140.91 175.11 140.35 174.16C139.5 172.74 139.97 170.9 141.4 170.05C141.96 169.72 142.51 169.38 143.06 169.04C144.46 168.16 146.32 168.59 147.19 169.99C148.07 171.4 147.64 173.25 146.24 174.12C145.65 174.49 145.06 174.85 144.47 175.2C143.99 175.49 143.46 175.62 142.94 175.62L142.93 175.63ZM48.4 169.74C47.76 169.74 47.11 169.53 46.56 169.11C46.01 168.69 45.47 168.25 44.93 167.82C43.64 166.78 43.45 164.89 44.49 163.6C45.53 162.31 47.42 162.12 48.71 163.16C49.21 163.57 49.72 163.97 50.24 164.37C51.55 165.39 51.79 167.27 50.77 168.58C50.18 169.34 49.29 169.74 48.4 169.74ZM156.65 165.5C155.83 165.5 155.02 165.17 154.43 164.51C153.32 163.28 153.41 161.39 154.64 160.27C155.12 159.84 155.59 159.4 156.06 158.95C157.26 157.81 159.16 157.86 160.3 159.05C161.44 160.25 161.4 162.15 160.2 163.29C159.7 163.77 159.19 164.24 158.67 164.71C158.1 165.23 157.38 165.49 156.66 165.49L156.65 165.5ZM36.03 157.99C35.19 157.99 34.35 157.64 33.75 156.95C33.3 156.42 32.85 155.89 32.41 155.36C31.36 154.08 31.54 152.19 32.83 151.14C34.11 150.09 36 150.27 37.05 151.56C37.46 152.06 37.88 152.56 38.3 153.05C39.38 154.31 39.24 156.2 37.98 157.28C37.41 157.77 36.72 158 36.02 158L36.03 157.99ZM168.08 152.83C167.46 152.83 166.84 152.64 166.31 152.25C164.97 151.27 164.68 149.39 165.66 148.06C166.04 147.54 166.42 147.01 166.79 146.48C167.74 145.12 169.61 144.79 170.97 145.73C172.33 146.68 172.66 148.55 171.72 149.91C171.32 150.48 170.92 151.05 170.51 151.61C169.92 152.41 169.01 152.84 168.09 152.84L168.08 152.83ZM26.26 144C25.21 144 24.18 143.44 23.64 142.46C23.3 141.86 22.97 141.25 22.65 140.63C21.88 139.16 22.44 137.35 23.91 136.58C25.38 135.81 27.19 136.37 27.96 137.84C28.26 138.41 28.57 138.98 28.88 139.54C29.69 140.99 29.17 142.81 27.72 143.62C27.26 143.88 26.76 144 26.26 144ZM176.72 138.11C176.3 138.11 175.88 138.02 175.47 137.84C173.96 137.15 173.3 135.37 174 133.86C174.27 133.27 174.53 132.68 174.79 132.08C175.44 130.56 177.21 129.86 178.73 130.51C180.25 131.16 180.96 132.93 180.3 134.45C180.02 135.09 179.74 135.73 179.45 136.36C178.94 137.46 177.86 138.11 176.72 138.11ZM19.51 128.33C18.24 128.33 17.05 127.51 16.65 126.23C16.44 125.57 16.24 124.9 16.05 124.23C15.59 122.64 16.51 120.98 18.1 120.52C19.7 120.06 21.35 120.98 21.81 122.57C21.99 123.19 22.18 123.81 22.37 124.42C22.87 126 21.99 127.68 20.41 128.18C20.11 128.27 19.81 128.32 19.51 128.32V128.33ZM182.22 121.94C182 121.94 181.77 121.91 181.55 121.86C179.93 121.49 178.93 119.88 179.3 118.27C179.44 117.64 179.58 117.01 179.71 116.37C180.04 114.75 181.62 113.7 183.25 114.03C184.87 114.36 185.92 115.95 185.59 117.57C185.45 118.25 185.3 118.93 185.15 119.6C184.83 120.99 183.6 121.93 182.23 121.93L182.22 121.94ZM16.07 111.62C14.55 111.62 13.25 110.47 13.09 108.92C13.02 108.23 12.96 107.54 12.9 106.85C12.77 105.2 14.01 103.76 15.66 103.63C17.33 103.51 18.75 104.74 18.88 106.39C18.93 107.04 18.99 107.68 19.05 108.32C19.22 109.97 18.02 111.44 16.37 111.61C16.27 111.62 16.16 111.63 16.06 111.63L16.07 111.62ZM184.33 105.01C184.33 105.01 184.28 105.01 184.26 105.01C182.6 104.97 181.29 103.6 181.33 101.94C181.34 101.3 181.35 100.65 181.35 100V99.82C181.35 98.16 182.69 96.82 184.35 96.82C186.01 96.82 187.35 98.16 187.35 99.82V100C187.35 100.7 187.35 101.39 187.33 102.08C187.29 103.71 185.96 105.01 184.33 105.01ZM16.06 94.56C15.96 94.56 15.86 94.56 15.76 94.55C14.11 94.39 12.91 92.92 13.07 91.27C13.14 90.58 13.22 89.89 13.3 89.2C13.5 87.55 15.01 86.39 16.65 86.59C18.29 86.79 19.46 88.29 19.26 89.94C19.18 90.58 19.11 91.22 19.05 91.87C18.9 93.42 17.59 94.57 16.07 94.57L16.06 94.56ZM182.99 87.82C181.57 87.82 180.31 86.8 180.04 85.36C179.92 84.72 179.8 84.09 179.67 83.46C179.33 81.84 180.38 80.25 182 79.91C183.62 79.57 185.21 80.62 185.55 82.24C185.69 82.92 185.82 83.6 185.95 84.29C186.25 85.92 185.17 87.48 183.54 87.78C183.36 87.81 183.18 87.83 183 87.83L182.99 87.82ZM19.46 77.84C19.16 77.84 18.86 77.8 18.56 77.7C16.98 77.21 16.1 75.52 16.59 73.94C16.8 73.27 17.01 72.61 17.24 71.95C17.77 70.38 19.47 69.53 21.04 70.07C22.61 70.6 23.45 72.3 22.92 73.87C22.71 74.49 22.51 75.1 22.32 75.72C21.92 77 20.74 77.83 19.46 77.83V77.84ZM178.25 71.43C177.06 71.43 175.94 70.72 175.47 69.55C175.23 68.95 174.98 68.36 174.73 67.77C174.07 66.25 174.77 64.48 176.29 63.83C177.81 63.17 179.58 63.87 180.23 65.39C180.5 66.03 180.77 66.66 181.03 67.31C181.65 68.85 180.91 70.59 179.37 71.21C179 71.36 178.62 71.43 178.25 71.43ZM26.18 62.14C25.69 62.14 25.19 62.02 24.73 61.76C23.28 60.96 22.76 59.13 23.56 57.68C23.9 57.07 24.24 56.47 24.59 55.87C25.43 54.44 27.26 53.96 28.69 54.8C30.12 55.64 30.6 57.47 29.76 58.9C29.43 59.46 29.11 60.02 28.8 60.59C28.25 61.58 27.23 62.13 26.17 62.13L26.18 62.14ZM170.29 56.34C169.32 56.34 168.37 55.87 167.79 55C167.43 54.46 167.07 53.93 166.7 53.4C165.75 52.04 166.08 50.17 167.44 49.22C168.8 48.27 170.67 48.6 171.62 49.96C172.02 50.53 172.41 51.1 172.79 51.68C173.71 53.06 173.33 54.92 171.96 55.84C171.45 56.18 170.87 56.34 170.3 56.34H170.29ZM35.93 48.12C35.24 48.12 34.54 47.88 33.98 47.4C32.72 46.32 32.58 44.43 33.65 43.17C34.1 42.64 34.56 42.12 35.02 41.6C36.13 40.37 38.02 40.27 39.26 41.37C40.49 42.48 40.59 44.37 39.48 45.61C39.05 46.09 38.62 46.58 38.2 47.07C37.61 47.76 36.77 48.12 35.92 48.12H35.93ZM159.46 43.16C158.7 43.16 157.93 42.87 157.35 42.29C156.89 41.83 156.43 41.38 155.96 40.94C154.76 39.8 154.71 37.9 155.85 36.7C156.99 35.5 158.89 35.44 160.09 36.59C160.59 37.07 161.09 37.55 161.59 38.04C162.76 39.21 162.77 41.11 161.6 42.28C161.01 42.87 160.24 43.17 159.47 43.17L159.46 43.16ZM48.29 36.35C47.4 36.35 46.51 35.95 45.92 35.19C44.9 33.88 45.14 32 46.45 30.98C47 30.55 47.55 30.14 48.11 29.72C49.44 28.74 51.32 29.02 52.31 30.35C53.3 31.68 53.01 33.56 51.68 34.55C51.16 34.93 50.65 35.32 50.14 35.72C49.59 36.15 48.94 36.35 48.3 36.35H48.29ZM146.2 32.41C145.64 32.41 145.07 32.25 144.56 31.92C144.02 31.57 143.47 31.22 142.92 30.87C141.51 29.99 141.08 28.14 141.96 26.74C142.84 25.33 144.69 24.9 146.09 25.78C146.68 26.15 147.27 26.52 147.85 26.9C149.24 27.81 149.62 29.67 148.71 31.05C148.13 31.93 147.18 32.41 146.2 32.41ZM62.75 27.29C61.64 27.29 60.58 26.68 60.06 25.62C59.33 24.13 59.94 22.34 61.42 21.6C62.04 21.29 62.66 21 63.29 20.7C64.79 20 66.58 20.66 67.27 22.16C67.97 23.66 67.31 25.45 65.81 26.14C65.22 26.41 64.64 26.69 64.07 26.97C63.64 27.18 63.19 27.28 62.74 27.28L62.75 27.29ZM131.05 24.54C130.68 24.54 130.31 24.47 129.95 24.33C129.35 24.09 128.74 23.86 128.13 23.63C126.58 23.06 125.78 21.33 126.35 19.78C126.92 18.23 128.65 17.43 130.2 18C130.85 18.24 131.5 18.49 132.15 18.75C133.69 19.36 134.45 21.1 133.84 22.64C133.37 23.82 132.24 24.54 131.05 24.54ZM78.73 21.35C77.4 21.35 76.18 20.45 75.83 19.1C75.41 17.5 76.37 15.86 77.98 15.44C78.65 15.27 79.33 15.1 80 14.94C81.62 14.56 83.23 15.56 83.61 17.18C83.99 18.79 82.99 20.41 81.37 20.79C80.74 20.94 80.11 21.09 79.49 21.25C79.24 21.32 78.98 21.35 78.73 21.35ZM114.63 19.91C114.46 19.91 114.28 19.9 114.11 19.86C113.48 19.75 112.84 19.65 112.2 19.55C110.56 19.3 109.43 17.78 109.68 16.14C109.93 14.5 111.45 13.37 113.09 13.62C113.78 13.72 114.47 13.83 115.15 13.95C116.78 14.24 117.87 15.79 117.59 17.42C117.33 18.88 116.07 19.9 114.64 19.9L114.63 19.91ZM95.59 18.76C94 18.76 92.68 17.52 92.6 15.91C92.52 14.26 93.79 12.85 95.44 12.76C96.13 12.72 96.82 12.7 97.52 12.68C99.17 12.64 100.56 13.94 100.6 15.59C100.65 17.25 99.34 18.63 97.69 18.67C97.04 18.69 96.39 18.71 95.75 18.75C95.7 18.75 95.65 18.75 95.59 18.75V18.76Z" fill="#6AE5DF"/>
<path d="M73.9699 76.25H114.92C115.78 76.25 116.47 75.39 116.47 74.34V55.02C116.47 53.97 115.77 53.11 114.92 53.11H73.9699C73.1099 53.11 72.4199 53.97 72.4199 55.02V74.34C72.4199 75.39 73.1199 76.25 73.9699 76.25Z" fill="#F1F2F2"/>
<path d="M122.62 53.15L132.74 63.27C133.39 63.92 133.39 64.99 132.74 65.64L122.46 75.92C121.4 76.98 119.59 76.22 119.6 74.73L119.76 54.35C119.76 52.86 121.57 52.13 122.62 53.18V53.16V53.15Z" fill="#F1F2F2"/>
<path d="M93.4299 79.65H74.5599C73.378 79.65 72.4199 80.6081 72.4199 81.79V100.66C72.4199 101.842 73.378 102.8 74.5599 102.8H93.4299C94.6118 102.8 95.5699 101.842 95.5699 100.66V81.79C95.5699 80.6081 94.6118 79.65 93.4299 79.65Z" fill="#F1F2F2"/>
<path d="M82.2399 149.85C89.6019 149.85 95.5699 143.882 95.5699 136.52C95.5699 129.158 89.6019 123.19 82.2399 123.19C74.878 123.19 68.9099 129.158 68.9099 136.52C68.9099 143.882 74.878 149.85 82.2399 149.85Z" fill="#F1F2F2"/>
<path d="M98.8098 148.17V129.21C98.8098 128.25 99.5298 127.45 100.49 127.32C106.5 126.5 111.14 121.33 111.14 115.1C111.14 108.87 106.5 103.7 100.49 102.88C99.5398 102.75 98.8098 101.95 98.8098 100.99V82.03C98.8098 80.92 99.7498 80.05 100.85 80.11C119.22 81.17 133.85 96.46 133.85 115.1C133.85 133.74 119.22 149.02 100.85 150.09C99.7398 150.15 98.8098 149.28 98.8098 148.17Z" fill="#F1F2F2"/>
</g>
<defs>
<clipPath id="clip0_16_670">
<rect width="200" height="200" fill="white"/>
</clipPath>
</defs>
</svg>
