<svg width="200" height="200" viewBox="0 0 200 200" fill="none" xmlns="http://www.w3.org/2000/svg">
<g clip-path="url(#clip0_16_675)">
<path d="M185.3 0H14.7C6.58141 0 0 6.58141 0 14.7V185.3C0 193.419 6.58141 200 14.7 200H185.3C193.419 200 200 193.419 200 185.3V14.7C200 6.58141 193.419 0 185.3 0Z" fill="#6666FF"/>
<path d="M172.5 187.82H27.6599C27.1199 187.82 26.6199 187.55 26.3199 187.1C26.0299 186.65 25.9799 186.08 26.1899 185.59C26.7799 184.25 27.0699 182.83 27.0699 181.37C27.0699 175.54 22.3299 170.81 16.5099 170.81C15.6299 170.81 14.9099 170.1 14.9099 169.21V31.26C14.9099 30.38 15.6199 29.66 16.5099 29.66C22.3299 29.66 27.0699 24.92 27.0699 19.1C27.0699 18.22 27.7799 17.5 28.6699 17.5H171.48C172.36 17.5 173.08 18.21 173.08 19.1C173.08 24.92 177.82 29.66 183.64 29.66C184.52 29.66 185.24 30.37 185.24 31.26V169.2C185.24 170.08 184.53 170.8 183.64 170.8C177.82 170.8 173.08 175.54 173.08 181.36C173.08 182.82 173.38 184.24 173.96 185.58C174.18 186.07 174.13 186.64 173.83 187.09C173.54 187.54 173.03 187.81 172.49 187.81L172.5 187.82ZM29.8799 184.63H170.28C170.02 183.57 169.89 182.47 169.89 181.36C169.89 174.31 175.21 168.49 182.05 167.7V32.76C175.74 32.03 170.72 27 169.98 20.69H30.1799C29.4499 27 24.4199 32.02 18.1099 32.76V167.69C24.9499 168.48 30.2699 174.31 30.2699 181.35C30.2699 182.46 30.1399 183.55 29.8799 184.62V184.63Z" fill="#6AE5DF"/>
<path d="M14.23 23.05C17.24 23.05 19.68 20.61 19.68 17.6C19.68 14.5901 17.24 12.15 14.23 12.15C11.2201 12.15 8.78003 14.5901 8.78003 17.6C8.78003 20.61 11.2201 23.05 14.23 23.05Z" fill="#6AE5DF"/>
<path d="M14.23 187.85C17.24 187.85 19.68 185.41 19.68 182.4C19.68 179.39 17.24 176.95 14.23 176.95C11.2201 176.95 8.78003 179.39 8.78003 182.4C8.78003 185.41 11.2201 187.85 14.23 187.85Z" fill="#6AE5DF"/>
<path d="M185.77 23.05C188.78 23.05 191.22 20.61 191.22 17.6C191.22 14.5901 188.78 12.15 185.77 12.15C182.76 12.15 180.32 14.5901 180.32 17.6C180.32 20.61 182.76 23.05 185.77 23.05Z" fill="#6AE5DF"/>
<path d="M185.77 187.85C188.78 187.85 191.22 185.41 191.22 182.4C191.22 179.39 188.78 176.95 185.77 176.95C182.76 176.95 180.32 179.39 180.32 182.4C180.32 185.41 182.76 187.85 185.77 187.85Z" fill="#6AE5DF"/>
<path d="M34.3701 90.29V66.15H44.8001V69.76H39.7001V75.84H44.1401V79.56H39.7001V90.29H34.3701Z" fill="white"/>
<path d="M48.0801 90.29V66.15H53.4101V90.29H48.0801Z" fill="white"/>
<path d="M57.76 90.29V66.15H61.51L66.46 77.77V66.15H70.87V90.29H67.27L62.32 77.78V90.29H57.76Z" fill="white"/>
<path d="M74.0601 90.29L78.6201 66.15H84.7001L89.2001 90.29H84.2801L83.4801 85.19H79.9301L79.1001 90.29H74.0601ZM80.4101 82H82.9701L81.6901 72.58L80.4101 82Z" fill="white"/>
<path d="M92.3901 90.29V66.15H96.1401L101.09 77.77V66.15H105.5V90.29H101.9L96.9501 77.78V90.29H92.3901Z" fill="white"/>
<path d="M116.76 90.6401C114.93 90.6401 113.49 90.3101 112.42 89.6401C111.36 88.9701 110.61 88.0401 110.17 86.8401C109.73 85.6401 109.51 84.2201 109.51 82.5901V73.8901C109.51 72.2201 109.73 70.7901 110.17 69.5801C110.61 68.3801 111.36 67.4501 112.42 66.7901C113.48 66.1301 114.93 65.8101 116.76 65.8101C118.59 65.8101 119.94 66.1001 120.95 66.6901C121.95 67.2801 122.66 68.1001 123.08 69.1501C123.5 70.2001 123.71 71.4101 123.71 72.7901V74.8801H118.5V72.4701C118.5 71.9901 118.48 71.5401 118.43 71.1001C118.38 70.6601 118.24 70.3001 118 70.0101C117.76 69.7201 117.35 69.5801 116.78 69.5801C116.21 69.5801 115.81 69.7301 115.54 70.0301C115.27 70.3301 115.1 70.7001 115.03 71.1501C114.96 71.6001 114.93 72.0701 114.93 72.5701V83.9201C114.93 84.4601 114.97 84.9501 115.06 85.4001C115.15 85.8501 115.33 86.2001 115.6 86.4701C115.87 86.7401 116.26 86.8701 116.78 86.8701C117.34 86.8701 117.73 86.7301 117.97 86.4401C118.21 86.1501 118.36 85.7801 118.42 85.3201C118.48 84.8601 118.51 84.4001 118.51 83.9201V81.3901H123.72V83.4801C123.72 84.8501 123.52 86.0801 123.11 87.1601C122.7 88.2401 122 89.1001 120.99 89.7201C119.99 90.3501 118.58 90.6601 116.77 90.6601L116.76 90.6401Z" fill="white"/>
<path d="M127.39 90.29V66.15H132.72V90.29H127.39Z" fill="white"/>
<path d="M135.92 90.29L140.48 66.15H146.56L151.06 90.29H146.14L145.34 85.19H141.79L140.96 90.29H135.92ZM142.26 82H144.82L143.54 72.58L142.26 82Z" fill="white"/>
<path d="M154.24 90.29V66.15H159.57V86.68H165.11V90.29H154.23H154.24Z" fill="white"/>
<path d="M34.3701 126.04V101.91H39.7001V122.44H45.2401V126.05H34.3601L34.3701 126.04Z" fill="white"/>
<path d="M48.3501 126.04V101.91H53.6801V126.04H48.3501Z" fill="white"/>
<path d="M60.2101 126.04V105.87H56.5701V101.91H69.1701V105.87H65.5601V126.04H60.2001H60.2101Z" fill="white"/>
<path d="M72.03 126.04V101.91H82.88V105.54H77.37V111.53H81.57V115.22H77.37V122.43H82.94V126.04H72.03Z" fill="white"/>
<path d="M86.1001 126.04V101.91H92.7401C94.3701 101.91 95.7801 102.09 96.9701 102.45C98.1601 102.81 99.0901 103.45 99.7601 104.37C100.43 105.29 100.76 106.6 100.76 108.29C100.76 109.28 100.68 110.17 100.52 110.94C100.36 111.71 100.07 112.38 99.6401 112.95C99.2101 113.52 98.6001 113.99 97.8101 114.37L101.12 126.05H95.6101L92.9601 115.23H91.4401V126.05H86.1101L86.1001 126.04ZM91.4301 112.16H92.9201C93.6701 112.16 94.2601 112.03 94.6801 111.76C95.1001 111.49 95.3901 111.1 95.5601 110.6C95.7301 110.09 95.8101 109.48 95.8101 108.77C95.8101 107.74 95.6201 106.93 95.2401 106.36C94.8601 105.79 94.1701 105.5 93.1501 105.5H91.4201V112.17L91.4301 112.16Z" fill="white"/>
<path d="M103.56 126.04L108.12 101.91H114.2L118.7 126.04H113.78L112.98 120.95H109.43L108.6 126.04H103.56ZM109.91 117.76H112.47L111.19 108.34L109.91 117.76Z" fill="white"/>
<path d="M128.41 126.4C126.58 126.4 125.14 126.07 124.07 125.4C123.01 124.73 122.26 123.8 121.82 122.6C121.38 121.4 121.16 119.98 121.16 118.35V109.65C121.16 107.98 121.38 106.55 121.82 105.34C122.26 104.14 123.01 103.21 124.07 102.55C125.13 101.89 126.58 101.57 128.41 101.57C130.24 101.57 131.59 101.86 132.6 102.45C133.61 103.04 134.31 103.86 134.73 104.91C135.15 105.96 135.36 107.17 135.36 108.55V110.64H130.15V108.23C130.15 107.75 130.13 107.3 130.08 106.86C130.03 106.42 129.89 106.06 129.65 105.77C129.41 105.48 129 105.34 128.43 105.34C127.86 105.34 127.46 105.49 127.19 105.79C126.92 106.09 126.75 106.46 126.68 106.91C126.61 107.36 126.58 107.83 126.58 108.33V119.68C126.58 120.22 126.62 120.71 126.71 121.15C126.8 121.59 126.98 121.95 127.25 122.22C127.52 122.49 127.91 122.62 128.43 122.62C128.99 122.62 129.38 122.48 129.62 122.19C129.86 121.9 130.01 121.53 130.07 121.07C130.13 120.61 130.16 120.15 130.16 119.67V117.14H135.37V119.23C135.37 120.6 135.17 121.83 134.76 122.91C134.35 123.99 133.65 124.85 132.64 125.47C131.63 126.09 130.23 126.41 128.42 126.41L128.41 126.4Z" fill="white"/>
<path d="M141.94 126.04V116.18L137.35 101.91H142.39L144.68 109.54L146.74 101.91H151.57L147.07 116.18V126.04H141.95H141.94Z" fill="white"/>
<path d="M158.31 112.28L159.63 104.91C159.7 104.51 160.28 104.51 160.35 104.91L161.67 112.28C161.7 112.42 161.8 112.54 161.94 112.57L167.12 113.88C167.49 113.97 167.49 114.5 167.12 114.59L161.94 115.9C161.8 115.94 161.69 116.05 161.67 116.19L160.35 123.56C160.28 123.96 159.7 123.96 159.63 123.56L158.31 116.19C158.28 116.05 158.18 115.93 158.04 115.9L152.86 114.59C152.49 114.5 152.49 113.97 152.86 113.88L158.04 112.57C158.18 112.53 158.29 112.42 158.31 112.28Z" fill="white"/>
</g>
<defs>
<clipPath id="clip0_16_675">
<rect width="200" height="200" fill="white"/>
</clipPath>
</defs>
</svg>
