<svg width="160" height="201" viewBox="0 0 160 201" fill="none" xmlns="http://www.w3.org/2000/svg">
<g clip-path="url(#clip0_16_672)">
<path d="M138.81 90.46C144.9 90.5 148.14 83.28 144.05 78.76L116.68 48.45L91.47 19.25C85.38 12.19 74.44 12.19 68.35 19.25L43.14 48.45L15.77 78.76C11.69 83.28 14.92 90.5 21.01 90.46L35.74 90.37V174.57C35.74 180.98 40.93 186.17 47.34 186.17H113.88C120.29 186.17 125.48 180.98 125.48 174.57V90.38L138.82 90.46H138.81Z" fill="#6666FF"/>
<path d="M79.91 27.96C80.49 27.96 80.78 28.29 80.88 28.4L106.09 57.6C106.16 57.68 106.23 57.76 106.3 57.83L123.21 76.56C120.35 77.03 117.69 78.38 115.61 80.45C112.97 83.08 111.48 86.65 111.48 90.38V172.17H49.75V90.37C49.75 86.64 48.26 83.07 45.62 80.44C43.24 78.07 40.09 76.65 36.77 76.41L53.54 57.84C53.61 57.76 53.68 57.69 53.75 57.61L78.96 28.41C79.05 28.3 79.34 27.97 79.93 27.97M79.91 13.96C75.65 13.96 71.39 15.72 68.35 19.25L43.14 48.45L15.77 78.76C11.7 83.27 14.9 90.46 20.97 90.46C20.99 90.46 21 90.46 21.02 90.46L35.75 90.37V174.57C35.75 180.98 40.94 186.17 47.35 186.17H113.89C120.3 186.17 125.49 180.98 125.49 174.57V90.38L138.83 90.46C138.83 90.46 138.86 90.46 138.88 90.46C144.94 90.46 148.15 83.27 144.08 78.76L116.71 48.45L91.5 19.25C88.45 15.72 84.2 13.96 79.94 13.96H79.91Z" fill="#F1F2F2"/>
<path d="M79.91 13.96C84.17 13.96 88.43 15.72 91.47 19.25L116.68 48.45L144.05 78.76C148.12 83.27 144.92 90.46 138.85 90.46C138.83 90.46 138.82 90.46 138.8 90.46L125.46 90.38V174.57C125.46 180.98 120.27 186.17 113.86 186.17H47.34C40.93 186.17 35.74 180.98 35.74 174.57V90.37L21.01 90.46C21.01 90.46 20.98 90.46 20.96 90.46C14.9 90.46 11.69 83.27 15.76 78.76L43.13 48.45L68.34 19.25C71.39 15.72 75.64 13.96 79.9 13.96M79.91 0C71.41 0 63.34 3.69 57.78 10.13L32.67 39.21L5.39996 69.4C-0.150036 75.54 -1.56004 84.4 1.79996 91.97C5.15996 99.54 12.68 104.42 20.96 104.42C20.99 104.42 21.07 104.42 21.11 104.42H21.78V174.57C21.78 188.66 33.25 200.13 47.34 200.13H113.88C127.97 200.13 139.44 188.66 139.44 174.57V104.42C147.49 104.2 154.74 99.36 158.03 91.97C161.39 84.41 159.98 75.55 154.43 69.4L127.16 39.21L102.05 10.13C96.48 3.69 88.41 0 79.91 0Z" fill="#6666FF"/>
</g>
<defs>
<clipPath id="clip0_16_672">
<rect width="159.82" height="200.12" fill="white"/>
</clipPath>
</defs>
</svg>
