<svg width="200" height="200" viewBox="0 0 200 200" fill="none" xmlns="http://www.w3.org/2000/svg">
<g clip-path="url(#clip0_16_677)">
<path d="M100 189.41C149.38 189.41 189.41 149.38 189.41 100C189.41 50.6202 149.38 10.59 100 10.59C50.6203 10.59 10.5901 50.6202 10.5901 100C10.5901 149.38 50.6203 189.41 100 189.41Z" fill="#F1F2F2"/>
<path d="M100 10.59C149.38 10.59 189.41 50.62 189.41 100C189.41 149.38 149.38 189.41 100 189.41C50.62 189.41 10.59 149.38 10.59 100C10.59 50.62 50.62 10.59 100 10.59ZM100 0C44.86 0 0 44.86 0 100C0 155.14 44.86 200 100 200C155.14 200 200 155.14 200 100C200 44.86 155.14 0 100 0Z" fill="#6666FF"/>
<path d="M112.63 84.05L85.5699 55.67L63.3499 32.36C61.5699 30.49 58.4899 32.28 59.2099 34.75L68.2799 65.65L79.3299 103.27C79.7799 104.8 81.5399 105.5 82.9199 104.71L97.4999 96.29L112.08 87.87C113.46 87.07 113.73 85.2 112.63 84.04V84.05ZM96.5599 82.38L91.2399 85.45L85.9199 88.52C85.4199 88.81 84.7099 88.44 84.4799 87.77L78.7899 71.17L74.1199 57.54C73.7499 56.45 74.8699 55.8 75.6299 56.67L85.0999 67.53L96.6299 80.76C97.0999 81.3 97.0599 82.09 96.5599 82.39V82.38Z" fill="#6666FF"/>
<path d="M102.51 104.97L117.09 96.5501C118.47 95.7501 120.23 96.46 120.68 97.99L131.73 135.61L140.8 166.51C141.53 168.98 138.44 170.77 136.66 168.9L114.44 145.59L87.38 117.21C86.28 116.06 86.55 114.18 87.93 113.38L102.51 104.96V104.97Z" fill="#6AE5DF"/>
<path d="M100.01 0H99.9999C97.0673 0 94.6899 2.37737 94.6899 5.31V17.33C94.6899 20.2626 97.0673 22.64 99.9999 22.64H100.01C102.943 22.64 105.32 20.2626 105.32 17.33V5.31C105.32 2.37737 102.943 0 100.01 0Z" fill="#6666FF"/>
<path d="M100.01 177.36H99.9999C97.0673 177.36 94.6899 179.737 94.6899 182.67V194.69C94.6899 197.623 97.0673 200 99.9999 200H100.01C102.943 200 105.32 197.623 105.32 194.69V182.67C105.32 179.737 102.943 177.36 100.01 177.36Z" fill="#6666FF"/>
<path d="M17.33 94.6899H5.31C2.37737 94.6899 0 97.0673 0 99.9999V100.01C0 102.943 2.37737 105.32 5.31 105.32H17.33C20.2626 105.32 22.64 102.943 22.64 100.01V99.9999C22.64 97.0673 20.2626 94.6899 17.33 94.6899Z" fill="#6666FF"/>
<path d="M194.69 94.6899H182.67C179.737 94.6899 177.36 97.0673 177.36 99.9999V100.01C177.36 102.943 179.737 105.32 182.67 105.32H194.69C197.623 105.32 200 102.943 200 100.01V99.9999C200 97.0673 197.623 94.6899 194.69 94.6899Z" fill="#6666FF"/>
<path d="M29.2887 29.2785L29.2816 29.2855C27.2079 31.3592 27.2079 34.7213 29.2816 36.795L37.781 45.2944C39.8547 47.3681 43.2168 47.3681 45.2905 45.2944L45.2976 45.2874C47.3712 43.2137 47.3712 39.8516 45.2976 37.7779L36.7981 29.2785C34.7245 27.2048 31.3623 27.2048 29.2887 29.2785Z" fill="#6666FF"/>
<path d="M154.702 154.706L154.695 154.713C152.621 156.786 152.621 160.148 154.695 162.222L163.195 170.722C165.268 172.795 168.63 172.795 170.704 170.722L170.711 170.714C172.785 168.641 172.785 165.279 170.711 163.205L162.212 154.706C160.138 152.632 156.776 152.632 154.702 154.706Z" fill="#6666FF"/>
<path d="M37.7793 154.704L29.2799 163.203C27.2062 165.277 27.2062 168.639 29.2799 170.713L29.287 170.72C31.3606 172.794 34.7227 172.794 36.7964 170.72L45.2959 162.22C47.3695 160.147 47.3695 156.785 45.2959 154.711L45.2888 154.704C43.2151 152.63 39.853 152.63 37.7793 154.704Z" fill="#6666FF"/>
<path d="M163.196 29.2803L154.697 37.7797C152.623 39.8534 152.623 43.2155 154.697 45.2892L154.704 45.2962C156.778 47.3699 160.14 47.3699 162.213 45.2962L170.713 36.7968C172.787 34.7231 172.787 31.361 170.713 29.2873L170.706 29.2803C168.632 27.2066 165.27 27.2066 163.196 29.2803Z" fill="#6666FF"/>
</g>
<defs>
<clipPath id="clip0_16_677">
<rect width="200" height="200" fill="white"/>
</clipPath>
</defs>
</svg>
