<svg width="200" height="66" viewBox="0 0 200 66" fill="none" xmlns="http://www.w3.org/2000/svg">
<g clip-path="url(#clip0_16_674)">
<path d="M167.31 0H32.69C14.6358 0 0 14.6358 0 32.69C0 50.7442 14.6358 65.38 32.69 65.38H167.31C185.364 65.38 200 50.7442 200 32.69C200 14.6358 185.364 0 167.31 0Z" fill="#6666FF"/>
<path d="M29.18 41.65H21.37V39.58L23.46 38.62V27.52L21.37 26.56V24.49H29.18V26.56L27.09 27.52V38.62L29.18 39.58V41.65Z" fill="#F1F2F2"/>
<path d="M47.32 41.65H42.71L35.24 28.68H35.14C35.17 29.22 35.2 29.77 35.22 30.31C35.24 30.85 35.27 31.4 35.29 31.94C35.31 32.48 35.33 33.03 35.35 33.57V41.64H32.11V24.49H36.7L44.15 37.34H44.22C44.2 36.81 44.19 36.28 44.17 35.76C44.15 35.23 44.13 34.71 44.11 34.19C44.09 33.67 44.07 33.15 44.05 32.62V24.5H47.32V41.65Z" fill="#F1F2F2"/>
<path d="M61.75 36.89C61.75 37.9 61.5 38.78 61.01 39.53C60.51 40.28 59.8 40.86 58.86 41.27C57.92 41.68 56.78 41.88 55.44 41.88C54.85 41.88 54.27 41.84 53.7 41.76C53.13 41.68 52.59 41.56 52.07 41.41C51.55 41.26 51.06 41.07 50.59 40.85V37.46C51.41 37.81 52.25 38.14 53.12 38.43C53.99 38.73 54.86 38.88 55.73 38.88C56.32 38.88 56.8 38.8 57.16 38.64C57.52 38.48 57.78 38.26 57.95 37.99C58.12 37.72 58.2 37.41 58.2 37.05C58.2 36.62 58.05 36.25 57.76 35.95C57.46 35.65 57.07 35.36 56.57 35.1C56.07 34.84 55.5 34.55 54.86 34.25C54.46 34.06 54.03 33.83 53.56 33.57C53.1 33.31 52.65 32.98 52.23 32.58C51.81 32.19 51.46 31.71 51.19 31.15C50.92 30.59 50.78 29.92 50.78 29.13C50.78 28.11 51.02 27.23 51.49 26.5C51.96 25.77 52.63 25.21 53.51 24.83C54.38 24.45 55.41 24.25 56.6 24.25C57.5 24.25 58.35 24.35 59.16 24.56C59.97 24.77 60.81 25.06 61.69 25.45L60.51 28.28C59.73 27.96 59.02 27.71 58.4 27.54C57.78 27.36 57.13 27.28 56.48 27.28C56.03 27.28 55.65 27.35 55.33 27.5C55.01 27.64 54.77 27.84 54.6 28.1C54.43 28.36 54.35 28.66 54.35 29.01C54.35 29.41 54.47 29.75 54.71 30.03C54.95 30.31 55.31 30.58 55.79 30.83C56.27 31.08 56.87 31.39 57.59 31.74C58.47 32.16 59.22 32.59 59.84 33.04C60.46 33.49 60.93 34.02 61.27 34.62C61.61 35.22 61.77 35.98 61.77 36.88L61.75 36.89Z" fill="#F1F2F2"/>
<path d="M70.13 24.5C72.34 24.5 73.97 24.96 75.03 25.88C76.09 26.8 76.61 28.1 76.61 29.78C76.61 30.53 76.5 31.25 76.27 31.94C76.05 32.63 75.67 33.25 75.15 33.8C74.63 34.35 73.94 34.78 73.1 35.1C72.25 35.41 71.21 35.57 69.98 35.57H68.42V41.65H64.75V24.5H70.13ZM70.01 27.5H68.43V32.54H69.65C70.32 32.54 70.9 32.46 71.39 32.29C71.88 32.12 72.26 31.84 72.52 31.45C72.78 31.06 72.92 30.54 72.92 29.9C72.92 29.13 72.68 28.54 72.21 28.12C71.74 27.7 71 27.5 70.01 27.5Z" fill="#F1F2F2"/>
<path d="M86.2 41.65H78.39V39.58L80.48 38.62V27.52L78.39 26.56V24.49H86.2V26.56L84.11 27.52V38.62L86.2 39.58V41.65Z" fill="#F1F2F2"/>
<path d="M94.27 24.5C95.77 24.5 97.02 24.69 98.02 25.06C99.01 25.44 99.75 25.99 100.24 26.73C100.73 27.47 100.97 28.39 100.97 29.49C100.97 30.26 100.83 30.94 100.56 31.53C100.29 32.12 99.92 32.63 99.46 33.04C99 33.46 98.47 33.8 97.87 34.07L102.75 41.64H98.55L94.73 35.06H92.69V41.64H89.02V24.49H94.28L94.27 24.5ZM94.2 27.36H92.69V32.24H94.2C95.18 32.24 95.93 32.04 96.46 31.64C96.99 31.24 97.25 30.58 97.25 29.67C97.25 29.16 97.14 28.73 96.93 28.4C96.71 28.06 96.38 27.81 95.93 27.63C95.48 27.45 94.91 27.37 94.2 27.37V27.36Z" fill="#F1F2F2"/>
<path d="M115.39 41.6499L114.07 37.6099H108.02L106.7 41.6499H102.74L108.77 24.4299H113.28L119.36 41.6499H115.4H115.39ZM112.02 30.8199C111.96 30.5799 111.85 30.2199 111.72 29.7399C111.58 29.2599 111.45 28.7699 111.32 28.2599C111.19 27.7599 111.09 27.3399 111.01 27.0199C110.95 27.3899 110.85 27.8099 110.73 28.2899C110.61 28.7699 110.49 29.2399 110.38 29.6799C110.27 30.1299 110.17 30.5099 110.09 30.8099L108.86 34.5299H113.21L112.01 30.8099L112.02 30.8199Z" fill="#F1F2F2"/>
<path d="M126.43 41.65H122.76V27.55H118.12V24.5H131.07V27.55H126.43V41.65Z" fill="#F1F2F2"/>
<path d="M140.1 41.65H132.29V39.58L134.38 38.62V27.52L132.29 26.56V24.49H140.1V26.56L138.01 27.52V38.62L140.1 39.58V41.65Z" fill="#F1F2F2"/>
<path d="M158.52 33.05C158.52 34.38 158.35 35.58 158.03 36.66C157.7 37.74 157.2 38.67 156.54 39.46C155.87 40.24 155.03 40.84 154.01 41.26C152.98 41.68 151.77 41.88 150.36 41.88C148.95 41.88 147.75 41.67 146.72 41.26C145.69 40.84 144.84 40.24 144.17 39.46C143.5 38.68 143.01 37.74 142.68 36.66C142.35 35.58 142.19 34.37 142.19 33.02C142.19 31.24 142.48 29.7 143.07 28.38C143.65 27.07 144.55 26.05 145.76 25.32C146.97 24.59 148.51 24.23 150.38 24.23C152.25 24.23 153.77 24.59 154.98 25.32C156.19 26.05 157.08 27.07 157.66 28.39C158.24 29.71 158.53 31.26 158.53 33.04L158.52 33.05ZM146.06 33.05C146.06 34.23 146.21 35.26 146.5 36.12C146.8 36.98 147.26 37.65 147.91 38.1C148.55 38.56 149.37 38.78 150.36 38.78C151.35 38.78 152.21 38.55 152.85 38.1C153.48 37.64 153.94 36.98 154.23 36.12C154.52 35.26 154.66 34.23 154.66 33.05C154.66 31.26 154.33 29.85 153.67 28.82C153.01 27.8 151.92 27.28 150.38 27.28C149.37 27.28 148.55 27.51 147.91 27.98C147.27 28.44 146.8 29.1 146.5 29.96C146.2 30.82 146.06 31.85 146.06 33.05Z" fill="#F1F2F2"/>
<path d="M177.23 41.65H172.62L165.15 28.68H165.05C165.08 29.22 165.11 29.77 165.13 30.31C165.15 30.85 165.18 31.4 165.2 31.94C165.22 32.48 165.24 33.03 165.26 33.57V41.64H162.02V24.49H166.61L174.06 37.34H174.13C174.11 36.81 174.1 36.28 174.08 35.76C174.06 35.23 174.04 34.71 174.02 34.19C174 33.67 173.98 33.15 173.96 32.62V24.5H177.23V41.65Z" fill="#F1F2F2"/>
</g>
<defs>
<clipPath id="clip0_16_674">
<rect width="200" height="65.38" fill="white"/>
</clipPath>
</defs>
</svg>
