<svg width="196" height="201" viewBox="0 0 196 201" fill="none" xmlns="http://www.w3.org/2000/svg">
<g clip-path="url(#clip0_16_679)">
<path d="M98.2901 182.64C92.6801 182.64 87.0801 180.5 82.8001 176.22C74.2501 167.67 74.2501 153.8 82.8001 145.24L103.03 125.01H39.41C30.55 125.01 22.5601 119.67 19.1701 111.49C15.7801 103.31 17.6501 93.8801 23.9201 87.62L87.6401 23.9C96.1901 15.35 110.06 15.35 118.62 23.9C127.17 32.45 127.17 46.32 118.62 54.8801L92.2901 81.21H155.91C164.77 81.21 172.76 86.55 176.15 94.73C179.54 102.91 177.67 112.34 171.4 118.6L113.78 176.22C109.5 180.5 103.9 182.64 98.2901 182.64Z" fill="#F1F2F2"/>
<path d="M103.13 17.49C108.74 17.49 114.34 19.63 118.62 23.91C127.17 32.46 127.17 46.33 118.62 54.89L92.29 81.22H155.91C164.77 81.22 172.76 86.56 176.15 94.74C179.54 102.92 177.67 112.35 171.4 118.61L113.78 176.23C109.5 180.51 103.9 182.65 98.29 182.65C92.68 182.65 87.08 180.51 82.8 176.23C74.25 167.68 74.25 153.81 82.8 145.25L103.03 125.02H39.41C30.55 125.02 22.56 119.68 19.17 111.5C15.78 103.32 17.65 93.89 23.92 87.63L87.64 23.91C91.92 19.63 97.52 17.49 103.13 17.49ZM103.13 -9.76585e-06C92.61 -9.76585e-06 82.72 4.09999 75.28 11.54L11.56 75.26C0.250046 86.56 -3.09995 103.41 3.02005 118.18C9.14005 132.95 23.42 142.5 39.41 142.5H63.36C55.62 157.35 57.98 176.13 70.43 188.58C77.87 196.02 87.76 200.12 98.28 200.12C108.8 200.12 118.69 196.02 126.13 188.58L183.75 130.96C195.06 119.65 198.41 102.8 192.29 88.03C186.17 73.26 171.89 63.71 155.9 63.71H134.11C146.26 48.26 145.21 25.76 130.98 11.53C123.54 4.08999 113.65 -0.0100098 103.13 -0.0100098V-9.76585e-06Z" fill="#6AE5DF"/>
<path d="M58.74 86.3899C57.98 86.3899 57.22 86.0999 56.63 85.5199C55.45 84.3599 55.44 82.4599 56.6 81.2799L102.73 34.59C103.89 33.41 105.79 33.4 106.97 34.56C108.15 35.72 108.16 37.62 107 38.8L60.87 85.4899C60.28 86.0799 59.51 86.3799 58.74 86.3799V86.3899Z" fill="#6AE5DF"/>
<path d="M92.4301 171.69C91.6701 171.69 90.9101 171.4 90.3201 170.82C89.1401 169.66 89.1301 167.76 90.2901 166.58L136.42 119.89C137.58 118.71 139.48 118.7 140.66 119.86C141.84 121.02 141.85 122.92 140.69 124.1L94.5601 170.79C93.9701 171.38 93.2001 171.68 92.4301 171.68V171.69Z" fill="#6AE5DF"/>
<path d="M40.16 110.23H36.49V96.14H31.86V93.09H44.8V96.14H40.17V110.23H40.16Z" fill="#6666FF"/>
<path d="M52.54 93.1C54.04 93.1 55.29 93.29 56.28 93.66C57.27 94.04 58.01 94.59 58.5 95.33C58.99 96.07 59.23 96.99 59.23 98.09C59.23 98.86 59.09 99.54 58.82 100.13C58.55 100.72 58.18 101.23 57.72 101.64C57.26 102.06 56.73 102.4 56.14 102.67L61.01 110.23H56.81L52.99 103.65H50.95V110.23H47.28V93.09H52.54V93.1ZM52.47 95.95H50.96V100.82H52.47C53.45 100.82 54.2 100.62 54.73 100.22C55.26 99.82 55.52 99.16 55.52 98.25C55.52 97.74 55.41 97.31 55.2 96.98C54.98 96.64 54.65 96.39 54.2 96.21C53.75 96.03 53.18 95.95 52.47 95.95Z" fill="#6666FF"/>
<path d="M73.64 110.23L72.32 106.2H66.27L64.95 110.23H60.99L67.01 93.0199H71.52L77.59 110.23H73.63H73.64ZM70.28 99.4099C70.22 99.1699 70.12 98.8099 69.98 98.3299C69.84 97.8499 69.71 97.3599 69.58 96.8499C69.45 96.3399 69.35 95.9299 69.27 95.6099C69.21 95.9799 69.11 96.3999 68.99 96.8799C68.87 97.3599 68.75 97.8199 68.64 98.2699C68.53 98.7199 68.43 99.0899 68.35 99.3999L67.13 103.12H71.47L70.27 99.3999L70.28 99.4099Z" fill="#6666FF"/>
<path d="M93.87 101.38C93.87 103.35 93.5 104.99 92.77 106.3C92.03 107.61 91 108.6 89.66 109.25C88.32 109.91 86.73 110.23 84.87 110.23H79.64V93.09H85.3C87.11 93.09 88.65 93.41 89.92 94.04C91.19 94.67 92.17 95.6 92.85 96.84C93.53 98.07 93.87 99.58 93.87 101.38ZM90.03 101.52C90.03 100.29 89.85 99.27 89.49 98.47C89.13 97.67 88.59 97.07 87.87 96.68C87.15 96.29 86.26 96.09 85.21 96.09H83.31V107.2H84.85C86.61 107.2 87.91 106.73 88.76 105.78C89.61 104.84 90.03 103.41 90.03 101.51V101.52Z" fill="#6666FF"/>
<path d="M107.19 110.23H97.33V93.09H107.19V96.07H100.95V99.84H106.76V102.82H100.95V107.24H107.19V110.24V110.23Z" fill="#6666FF"/>
<path d="M132.49 101.64C132.49 102.97 132.33 104.17 132 105.25C131.67 106.33 131.18 107.26 130.51 108.05C129.85 108.83 129 109.43 127.98 109.85C126.96 110.27 125.74 110.47 124.33 110.47C122.92 110.47 121.73 110.26 120.69 109.85C119.66 109.43 118.81 108.83 118.15 108.05C117.49 107.27 116.99 106.33 116.66 105.25C116.33 104.17 116.17 102.96 116.17 101.61C116.17 99.83 116.46 98.29 117.05 96.98C117.63 95.67 118.53 94.65 119.74 93.92C120.95 93.19 122.49 92.83 124.36 92.83C126.23 92.83 127.75 93.19 128.96 93.92C130.17 94.65 131.06 95.67 131.64 96.99C132.22 98.31 132.5 99.86 132.5 101.63L132.49 101.64ZM120.03 101.64C120.03 102.82 120.18 103.85 120.47 104.71C120.77 105.57 121.23 106.23 121.87 106.69C122.51 107.15 123.33 107.37 124.32 107.37C125.31 107.37 126.17 107.14 126.8 106.69C127.43 106.23 127.89 105.57 128.18 104.71C128.47 103.85 128.61 102.82 128.61 101.64C128.61 99.85 128.28 98.44 127.63 97.42C126.97 96.4 125.88 95.88 124.34 95.88C123.33 95.88 122.51 96.11 121.87 96.58C121.23 97.04 120.76 97.7 120.47 98.56C120.17 99.42 120.03 100.44 120.03 101.64Z" fill="#6666FF"/>
<path d="M139.57 110.23H135.99V93.09H145.81V96.07H139.57V100.49H145.38V103.47H139.57V110.24V110.23Z" fill="#6666FF"/>
<path d="M152.74 110.23H149.16V93.09H158.98V96.07H152.74V100.49H158.55V103.47H152.74V110.24V110.23Z" fill="#6666FF"/>
</g>
<defs>
<clipPath id="clip0_16_679">
<rect width="195.32" height="200.12" fill="white"/>
</clipPath>
</defs>
</svg>
