<svg width="459" height="345" viewBox="0 0 459 345" fill="none" xmlns="http://www.w3.org/2000/svg">
<rect width="459" height="345" transform="translate(0.00488281)" fill="white"/>
<g clip-path="url(#clip0_34_4216)">
<path d="M281.885 305.7C304.894 301.581 320.207 279.589 316.089 256.58C311.97 233.571 289.978 218.257 266.969 222.376C243.96 226.495 228.646 248.487 232.765 271.496C236.884 294.505 258.876 309.818 281.885 305.7Z" fill="#6AE5DF"/>
<path d="M280.898 300.188C260.967 303.756 241.846 290.444 238.277 270.509C234.708 250.574 248.025 231.456 267.956 227.888C287.887 224.32 307.008 237.632 310.577 257.567C314.145 277.502 300.833 296.619 280.898 300.188ZM269.916 238.841C256.022 241.328 246.743 254.654 249.23 268.549C251.717 282.443 265.043 291.722 278.937 289.235C292.832 286.748 302.111 273.422 299.624 259.527C297.137 245.633 283.81 236.354 269.916 238.841Z" fill="#F1F2F2"/>
<path d="M267.469 257.978L269.717 250.073C270.305 248.003 273.039 247.543 274.268 249.314L278.959 256.063L287.172 255.758C289.325 255.678 290.603 258.137 289.298 259.854L284.331 266.401L287.156 274.116C287.897 276.138 285.955 278.115 283.918 277.405L276.155 274.701L269.689 279.776C267.997 281.106 265.518 279.869 265.563 277.715L265.734 269.498L258.912 264.919C257.123 263.717 257.536 260.977 259.596 260.355L267.464 257.979L267.469 257.978Z" fill="#6666FF"/>
<path d="M247.282 242.343C247.986 241.473 248.626 240.941 249.203 240.752C249.779 240.563 250.339 240.686 250.881 241.122C251.148 241.337 251.34 241.573 251.454 241.824C251.569 242.078 251.618 242.332 251.605 242.592C251.591 242.852 251.527 243.096 251.409 243.324L251.454 243.359C251.663 243.183 251.897 243.047 252.157 242.94C252.418 242.838 252.696 242.805 252.992 242.851C253.289 242.897 253.604 243.051 253.936 243.318C254.322 243.628 254.577 243.991 254.698 244.403C254.819 244.816 254.816 245.255 254.679 245.718C254.543 246.181 254.28 246.658 253.89 247.145L251.976 249.521L245.625 244.398L247.282 242.343ZM249.885 244.323C250.202 243.931 250.345 243.604 250.324 243.342C250.303 243.079 250.172 242.853 249.941 242.666C249.699 242.469 249.449 242.415 249.192 242.495C248.936 242.575 248.655 242.806 248.349 243.188L247.783 243.891L249.27 245.091L249.886 244.327L249.885 244.323ZM250.29 245.914L251.998 247.29L252.695 246.426C253.019 246.024 253.163 245.675 253.129 245.389C253.094 245.099 252.947 244.854 252.69 244.646C252.529 244.516 252.361 244.439 252.183 244.406C252.005 244.373 251.809 244.409 251.604 244.51C251.398 244.611 251.18 244.805 250.951 245.091L250.29 245.91L250.29 245.914Z" fill="#6666FF"/>
<path d="M260.39 237.915C260.709 238.378 260.9 238.869 260.953 239.379C261.007 239.894 260.903 240.399 260.645 240.901C260.386 241.399 259.941 241.869 259.313 242.3C258.426 242.915 257.592 243.158 256.811 243.023C256.035 242.891 255.385 242.453 254.869 241.707L251.876 237.384L253.296 236.403L256.138 240.508C256.52 241.059 256.902 241.369 257.28 241.439C257.662 241.508 258.076 241.391 258.519 241.079C258.833 240.864 259.049 240.632 259.169 240.391C259.29 240.15 259.316 239.887 259.251 239.598C259.186 239.309 259.035 238.992 258.797 238.647L255.961 234.55L257.381 233.569L260.385 237.912L260.39 237.915Z" fill="#6666FF"/>
<path d="M268.469 233.592C268.754 234.487 268.828 235.282 268.682 235.983C268.541 236.683 268.213 237.279 267.7 237.771C267.19 238.262 266.514 238.641 265.672 238.912L263.302 239.672L260.814 231.901L263.384 231.08C264.206 230.816 264.948 230.735 265.616 230.839C266.284 230.943 266.863 231.222 267.349 231.681C267.835 232.14 268.212 232.778 268.469 233.592ZM266.749 234.214C266.572 233.656 266.339 233.221 266.06 232.91C265.78 232.598 265.45 232.408 265.067 232.335C264.684 232.262 264.252 232.3 263.772 232.455L262.914 232.729L264.53 237.767L265.225 237.544C266.022 237.289 266.548 236.885 266.793 236.334C267.038 235.783 267.028 235.075 266.749 234.214Z" fill="#6666FF"/>
<path d="M273.893 232.858L277.125 232.804L277.194 237.031C276.77 237.184 276.327 237.302 275.866 237.397C275.405 237.489 274.886 237.539 274.298 237.549C273.492 237.56 272.799 237.413 272.228 237.103C271.656 236.792 271.216 236.329 270.912 235.709C270.607 235.088 270.449 234.321 270.435 233.408C270.42 232.555 270.576 231.813 270.897 231.184C271.219 230.554 271.694 230.061 272.319 229.708C272.943 229.356 273.714 229.17 274.628 229.157C275.061 229.149 275.489 229.188 275.908 229.272C276.327 229.356 276.714 229.472 277.058 229.617L276.507 231.009C276.252 230.883 275.968 230.783 275.644 230.704C275.325 230.624 274.987 230.589 274.636 230.596C274.134 230.604 273.7 230.725 273.334 230.963C272.968 231.196 272.687 231.526 272.495 231.943C272.299 232.36 272.207 232.854 272.217 233.416C272.226 233.947 272.306 234.419 272.457 234.83C272.608 235.238 272.841 235.557 273.161 235.783C273.477 236.011 273.887 236.118 274.39 236.114C274.634 236.109 274.842 236.093 275.014 236.071C275.186 236.044 275.343 236.012 275.489 235.986L275.46 234.284L273.917 234.311L273.891 232.871L273.893 232.858Z" fill="#6666FF"/>
<path d="M283.195 238.803L278.631 237.685L280.571 229.762L285.131 230.88L284.792 232.257L281.906 231.552L281.478 233.293L284.163 233.952L283.824 235.328L281.14 234.669L280.641 236.71L283.527 237.415L283.187 238.804L283.195 238.803Z" fill="#6666FF"/>
<path d="M287.201 240.691L285.641 239.904L288.663 233.916L286.692 232.923L287.346 231.628L292.847 234.401L292.193 235.696L290.222 234.703L287.201 240.691Z" fill="#6666FF"/>
<path d="M291.845 294.591L288.373 286.918L289.907 285.689L293.448 288.344C293.518 288.397 293.618 288.477 293.75 288.587C293.881 288.697 294.023 288.818 294.183 288.944C294.339 289.071 294.486 289.195 294.62 289.317C294.758 289.439 294.861 289.532 294.933 289.601C294.88 289.52 294.806 289.396 294.721 289.235C294.637 289.073 294.546 288.905 294.455 288.732C294.363 288.555 294.278 288.39 294.202 288.231C294.126 288.073 294.066 287.95 294.029 287.866L292.217 283.844L293.751 282.615L300.472 287.685L299.14 288.749L295.542 285.919C295.437 285.834 295.311 285.732 295.165 285.612C295.019 285.492 294.866 285.36 294.714 285.229C294.556 285.093 294.409 284.965 294.261 284.837C294.113 284.708 293.994 284.596 293.895 284.498C293.973 284.622 294.059 284.765 294.153 284.929C294.247 285.093 294.338 285.266 294.429 285.439C294.521 285.616 294.606 285.781 294.685 285.935C294.764 286.088 294.826 286.215 294.864 286.311L296.793 290.622L295.518 291.642L291.735 288.815C291.655 288.751 291.549 288.663 291.409 288.555C291.274 288.446 291.128 288.326 290.975 288.194C290.822 288.062 290.675 287.934 290.536 287.808C290.398 287.682 290.279 287.57 290.179 287.472C290.281 287.634 290.394 287.833 290.523 288.068C290.651 288.304 290.775 288.539 290.896 288.784C291.017 289.029 291.118 289.23 291.198 289.392L293.172 293.524L291.84 294.587L291.845 294.591Z" fill="#6666FF"/>
<path d="M283.175 289.199L286.589 287.736L286.974 288.639L286.242 289.45L288.323 294.301L289.416 294.329L289.801 295.232L286.387 296.694L286.001 295.792L286.734 294.981L284.653 290.13L283.56 290.102L283.175 289.199Z" fill="#6666FF"/>
<path d="M277.994 292.779C277.893 292.311 277.914 291.878 278.07 291.476C278.222 291.074 278.496 290.733 278.892 290.447C279.284 290.162 279.796 289.95 280.421 289.812C280.698 289.75 280.971 289.714 281.242 289.691C281.513 289.668 281.779 289.668 282.036 289.686C282.293 289.705 282.541 289.742 282.779 289.799L283.125 291.371C282.71 291.29 282.282 291.225 281.848 291.178C281.414 291.131 280.991 291.151 280.59 291.24C280.318 291.301 280.101 291.387 279.952 291.496C279.801 291.609 279.699 291.735 279.651 291.876C279.599 292.019 279.593 292.175 279.63 292.336C279.675 292.539 279.78 292.692 279.95 292.803C280.121 292.914 280.33 293.006 280.589 293.08C280.846 293.15 281.14 293.227 281.467 293.301C281.673 293.35 281.9 293.413 282.14 293.486C282.382 293.563 282.625 293.67 282.86 293.809C283.096 293.947 283.31 294.132 283.493 294.366C283.677 294.6 283.808 294.899 283.89 295.262C283.997 295.738 283.976 296.171 283.83 296.559C283.684 296.946 283.429 297.275 283.064 297.539C282.699 297.806 282.239 298 281.689 298.124C281.272 298.216 280.866 298.255 280.468 298.24C280.069 298.225 279.648 298.176 279.198 298.089L279.456 296.649C279.851 296.716 280.207 296.76 280.515 296.778C280.824 296.796 281.129 296.771 281.435 296.704C281.642 296.658 281.814 296.584 281.951 296.487C282.083 296.386 282.179 296.27 282.231 296.131C282.284 295.993 282.292 295.845 282.254 295.68C282.212 295.494 282.121 295.347 281.982 295.243C281.843 295.139 281.646 295.049 281.397 294.978C281.148 294.906 280.837 294.829 280.468 294.736C280.015 294.632 279.623 294.508 279.292 294.361C278.96 294.214 278.684 294.019 278.464 293.77C278.247 293.521 278.088 293.188 277.997 292.774L277.994 292.779Z" fill="#6666FF"/>
<path d="M271.733 290.589L276.43 290.625L276.369 298.784L271.671 298.748L271.68 297.332L274.651 297.355L274.665 295.559L271.901 295.538L271.909 294.122L274.673 294.143L274.689 292.042L271.718 292.019L271.728 290.59L271.733 290.589Z" fill="#6666FF"/>
<path d="M270.523 290.41L268.655 298.351L266.953 297.95L268.492 291.41L265.277 290.653L265.607 289.252L270.523 290.41Z" fill="#6666FF"/>
<path d="M260.644 292.149L257.634 294.481L255.928 293.647L260.542 290.357L261.941 287.505L263.52 288.28L262.147 291.084L262.353 296.796L260.647 295.962L260.64 292.154L260.644 292.149Z" fill="#6666FF"/>
</g>
<g clip-path="url(#clip1_34_4216)">
<path d="M438.126 204.695L346.705 168.449C342.354 166.724 337.429 168.853 335.704 173.204L299.459 264.625C297.734 268.976 299.863 273.901 304.213 275.626L395.635 311.871C399.985 313.596 404.911 311.467 406.635 307.117L442.881 215.695C444.606 211.345 442.477 206.42 438.126 204.695Z" fill="#6666FF"/>
<path d="M391.363 302.625L313.746 271.852C313.457 271.738 313.246 271.487 313.181 271.182C313.121 270.879 313.216 270.563 313.432 270.345C314.033 269.752 314.49 269.053 314.8 268.27C316.039 265.146 314.504 261.605 311.385 260.368C310.913 260.181 310.678 259.648 310.868 259.171L340.176 185.246C340.363 184.774 340.897 184.539 341.374 184.728C344.492 185.965 348.039 184.432 349.276 181.313C349.463 180.841 349.996 180.606 350.473 180.795L427.003 211.137C427.474 211.324 427.709 211.857 427.52 212.334C426.284 215.453 427.817 219 430.935 220.236C431.407 220.423 431.642 220.957 431.453 221.434L402.146 295.353C401.959 295.825 401.426 296.06 400.949 295.871C397.83 294.634 394.283 296.167 393.047 299.286C392.736 300.069 392.595 300.893 392.622 301.735C392.635 302.044 392.487 302.339 392.231 302.516C391.98 302.696 391.649 302.732 391.36 302.617L391.363 302.625ZM315.614 270.614L390.851 300.444C390.937 299.82 391.101 299.203 391.337 298.608C392.835 294.83 396.922 292.842 400.756 293.872L429.425 221.56C426.198 219.828 424.577 216.066 425.521 212.527L350.605 182.826C348.873 186.052 345.111 187.674 341.572 186.729L312.905 259.036C316.403 260.913 318.015 265.167 316.519 268.94C316.284 269.534 315.982 270.091 315.616 270.609L315.614 270.614Z" fill="#6AE5DF"/>
<path d="M341.556 180.702C343.169 181.341 344.995 180.552 345.635 178.939C346.274 177.326 345.485 175.5 343.872 174.861C342.259 174.221 340.433 175.01 339.794 176.623C339.154 178.236 339.943 180.062 341.556 180.702Z" fill="#6AE5DF"/>
<path d="M306.543 269.015C308.156 269.655 309.982 268.865 310.621 267.252C311.261 265.639 310.472 263.814 308.859 263.174C307.246 262.535 305.42 263.324 304.78 264.937C304.141 266.55 304.93 268.376 306.543 269.015Z" fill="#6AE5DF"/>
<path d="M433.481 217.147C435.094 217.786 436.92 216.997 437.56 215.384C438.199 213.771 437.41 211.945 435.797 211.306C434.184 210.666 432.358 211.456 431.719 213.069C431.079 214.681 431.868 216.507 433.481 217.147Z" fill="#6AE5DF"/>
<path d="M398.468 305.46C400.081 306.099 401.907 305.31 402.546 303.697C403.186 302.084 402.397 300.258 400.784 299.619C399.171 298.979 397.345 299.769 396.705 301.381C396.066 302.994 396.855 304.82 398.468 305.46Z" fill="#6AE5DF"/>
<path d="M338.063 221.013L343.192 208.077L348.781 210.293L348.014 212.227L345.281 211.144L343.989 214.402L346.368 215.345L345.578 217.339L343.199 216.395L340.919 222.145L338.063 221.013Z" fill="white"/>
<path d="M345.41 223.926L350.539 210.99L353.395 212.122L348.266 225.058L345.41 223.926Z" fill="white"/>
<path d="M350.597 225.982L355.726 213.046L357.735 213.843L357.919 221.121L360.388 214.894L362.751 215.831L357.622 228.767L355.693 228.003L355.699 220.247L353.041 226.951L350.597 225.982Z" fill="white"/>
<path d="M359.332 229.445L366.904 217.478L370.162 218.77L367.445 232.662L364.809 231.617L365.463 228.714L363.561 227.96L362.033 230.516L359.332 229.445ZM364.496 226.352L365.868 226.896L367.183 221.576L364.496 226.352Z" fill="white"/>
<path d="M369.155 233.34L374.283 220.403L376.293 221.2L376.477 228.479L378.946 222.252L381.309 223.189L376.18 236.125L374.251 235.36L374.256 227.604L371.598 234.308L369.155 233.34Z" fill="white"/>
<path d="M382.14 238.705C381.159 238.316 380.458 237.833 380.027 237.247C379.601 236.662 379.397 236.005 379.416 235.268C379.435 234.532 379.619 233.724 379.965 232.85L381.813 228.188C382.168 227.293 382.59 226.574 383.083 226.019C383.573 225.469 384.173 225.13 384.881 225.002C385.589 224.873 386.435 225.01 387.415 225.399C388.396 225.788 389.058 226.23 389.474 226.761C389.884 227.289 390.09 227.879 390.092 228.531C390.094 229.183 389.95 229.876 389.657 230.616L389.213 231.736L386.421 230.629L386.933 229.337C387.035 229.08 387.12 228.835 387.186 228.588C387.253 228.342 387.254 228.119 387.187 227.913C387.12 227.706 386.93 227.544 386.625 227.423C386.319 227.302 386.073 227.298 385.865 227.401C385.656 227.504 385.487 227.667 385.354 227.893C385.22 228.119 385.105 228.365 384.998 228.632L382.587 234.715C382.472 235.004 382.389 235.275 382.342 235.535C382.295 235.796 382.317 236.022 382.404 236.224C382.491 236.426 382.673 236.578 382.952 236.689C383.252 236.808 383.49 236.815 383.681 236.711C383.871 236.607 384.03 236.44 384.16 236.206C384.29 235.973 384.403 235.733 384.505 235.475L385.043 234.12L387.835 235.226L387.391 236.346C387.1 237.081 386.731 237.697 386.282 238.189C385.833 238.681 385.275 238.993 384.602 239.11C383.932 239.235 383.111 239.102 382.141 238.718L382.14 238.705Z" fill="white"/>
<path d="M387.911 240.776L393.039 227.839L395.896 228.972L390.767 241.908L387.911 240.776Z" fill="white"/>
<path d="M392.482 242.588L400.054 230.621L403.312 231.912L400.595 245.805L397.958 244.759L398.613 241.856L396.711 241.102L395.182 243.659L392.482 242.588ZM397.64 239.493L399.012 240.036L400.328 234.717L397.64 239.493Z" fill="white"/>
<path d="M402.299 246.48L407.428 233.544L410.284 234.677L405.922 245.678L408.891 246.855L408.124 248.79L402.294 246.478L402.299 246.48Z" fill="white"/>
<path d="M330.467 240.171L335.594 227.24L338.45 228.372L334.088 239.374L337.057 240.551L336.29 242.486L330.46 240.174L330.467 240.171Z" fill="white"/>
<path d="M337.959 243.141L343.086 230.21L345.942 231.342L340.815 244.273L337.959 243.141Z" fill="white"/>
<path d="M344.315 245.661L348.6 234.852L346.649 234.079L347.491 231.957L354.243 234.634L353.401 236.756L351.467 235.989L347.182 246.797L344.309 245.659L344.315 245.661Z" fill="white"/>
<path d="M350.649 248.172L355.775 235.241L361.59 237.546L360.818 239.492L357.866 238.321L356.593 241.531L358.844 242.423L358.06 244.401L355.809 243.508L354.277 247.372L357.262 248.555L356.495 250.49L350.649 248.172Z" fill="white"/>
<path d="M358.189 251.161L363.315 238.23L366.873 239.641C367.747 239.987 368.464 240.384 369.025 240.829C369.587 241.275 369.949 241.816 370.113 242.451C370.276 243.086 370.175 243.858 369.816 244.764C369.605 245.295 369.373 245.754 369.124 246.133C368.875 246.512 368.577 246.809 368.225 247.023C367.874 247.237 367.447 247.36 366.943 247.395L366.235 254.358L363.283 253.187L364.161 246.826L363.347 246.503L361.048 252.301L358.192 251.169L358.189 251.161ZM363.994 244.856L364.792 245.172C365.194 245.332 365.538 245.387 365.82 245.332C366.103 245.276 366.341 245.129 366.538 244.897C366.738 244.66 366.91 244.35 367.061 243.97C367.28 243.418 367.35 242.943 367.268 242.557C367.185 242.171 366.877 241.869 366.33 241.652L365.403 241.285L363.986 244.859L363.994 244.856Z" fill="white"/>
<path d="M367.545 254.871L375.115 242.909L378.373 244.2L375.658 258.087L373.022 257.042L373.674 254.144L371.772 253.39L370.246 255.942L367.545 254.871ZM372.707 251.783L374.079 252.327L375.394 247.007L372.707 251.783Z" fill="white"/>
<path d="M380.785 260.343C379.805 259.955 379.103 259.472 378.672 258.885C378.246 258.301 378.042 257.643 378.061 256.907C378.08 256.17 378.264 255.363 378.61 254.489L380.459 249.827C380.814 248.932 381.235 248.212 381.728 247.658C382.219 247.108 382.818 246.769 383.527 246.64C384.235 246.512 385.08 246.649 386.061 247.037C387.041 247.426 387.703 247.868 388.119 248.399C388.535 248.93 388.736 249.518 388.738 250.17C388.74 250.822 388.595 251.515 388.302 252.254L387.858 253.374L385.066 252.268L385.578 250.976C385.68 250.719 385.765 250.473 385.832 250.227C385.898 249.981 385.9 249.758 385.833 249.552C385.766 249.345 385.576 249.183 385.27 249.062C384.965 248.941 384.719 248.936 384.51 249.04C384.302 249.143 384.132 249.305 383.999 249.531C383.866 249.758 383.75 250.003 383.644 250.271L381.232 256.353C381.118 256.643 381.035 256.914 380.99 257.169C380.944 257.424 380.964 257.655 381.052 257.857C381.139 258.059 381.32 258.211 381.599 258.322C381.899 258.441 382.138 258.449 382.328 258.344C382.518 258.24 382.677 258.074 382.807 257.84C382.937 257.606 383.051 257.366 383.153 257.109L383.69 255.753L386.482 256.86L386.038 257.98C385.747 258.714 385.379 259.331 384.93 259.822C384.48 260.314 383.923 260.626 383.25 260.744C382.577 260.861 381.759 260.735 380.789 260.351L380.785 260.343Z" fill="white"/>
<path d="M388.112 263.025L390.207 257.741L390.779 249.119L393.48 250.189L393.086 254.765L395.811 251.114L398.399 252.14L392.956 258.831L390.861 264.115L388.117 263.027L388.112 263.025Z" fill="white"/>
<path d="M399.808 259.129L402.081 255.46C402.204 255.261 402.515 255.384 402.467 255.613L401.609 259.843C401.595 259.925 401.623 260.01 401.692 260.056L404.189 261.858C404.368 261.985 404.256 262.269 404.038 262.239L400.984 261.84C400.901 261.832 400.818 261.868 400.778 261.938L398.505 265.607C398.382 265.807 398.071 265.684 398.119 265.454L398.977 261.225C398.991 261.143 398.963 261.058 398.894 261.012L396.397 259.209C396.218 259.082 396.33 258.798 396.548 258.829L399.602 259.227C399.685 259.236 399.768 259.2 399.808 259.129Z" fill="white"/>
</g>
<g clip-path="url(#clip2_34_4216)">
<path d="M350.405 130.486L314.686 141.755C309.896 143.266 307.238 148.374 308.749 153.165C310.261 157.955 315.369 160.613 320.159 159.102L355.877 147.833C360.668 146.322 363.326 141.214 361.814 136.423C360.303 131.633 355.195 128.975 350.405 130.486Z" fill="#6666FF"/>
<path d="M317.242 153.099L315.169 153.753L314.996 153.204L315.47 152.774L314.541 149.829L313.906 149.749L313.733 149.2L315.805 148.546L315.978 149.096L315.504 149.525L316.433 152.47L317.068 152.55L317.242 153.099Z" fill="#F1F2F2"/>
<path d="M322.055 151.581L320.831 151.967L317.764 149.151L317.737 149.159C317.79 149.3 317.844 149.444 317.895 149.585C317.945 149.727 317.999 149.87 318.05 150.012C318.1 150.153 318.152 150.298 318.202 150.439L318.878 152.58L318.018 152.852L316.583 148.301L317.8 147.917L320.853 150.703L320.871 150.697C320.822 150.558 320.775 150.418 320.726 150.282C320.676 150.143 320.627 150.007 320.578 149.87C320.53 149.734 320.481 149.598 320.431 149.459L319.751 147.304L320.619 147.031L322.055 151.581Z" fill="#F1F2F2"/>
<path d="M325.485 149.11C325.569 149.378 325.577 149.633 325.509 149.873C325.439 150.114 325.3 150.327 325.085 150.514C324.869 150.702 324.584 150.85 324.228 150.963C324.072 151.012 323.914 151.05 323.756 151.076C323.599 151.103 323.445 151.116 323.295 151.12C323.144 151.124 322.998 151.114 322.855 151.095L322.571 150.196C322.818 150.22 323.069 150.237 323.324 150.241C323.58 150.248 323.823 150.215 324.054 150.142C324.211 150.093 324.331 150.032 324.413 149.959C324.495 149.886 324.546 149.806 324.569 149.72C324.591 149.635 324.586 149.546 324.556 149.45C324.52 149.336 324.449 149.25 324.347 149.195C324.243 149.141 324.115 149.096 323.96 149.069C323.806 149.042 323.631 149.013 323.436 148.987C323.314 148.97 323.18 148.945 323.034 148.915C322.89 148.885 322.743 148.835 322.598 148.764C322.454 148.695 322.321 148.597 322.202 148.471C322.084 148.345 321.991 148.179 321.924 147.97C321.839 147.699 321.829 147.446 321.893 147.213C321.956 146.98 322.087 146.775 322.289 146.6C322.488 146.427 322.744 146.287 323.06 146.188C323.299 146.113 323.533 146.068 323.765 146.056C323.998 146.044 324.245 146.05 324.511 146.08L324.435 146.93C324.201 146.91 323.992 146.903 323.813 146.91C323.634 146.914 323.454 146.947 323.282 147.002C323.163 147.039 323.068 147.09 322.995 147.156C322.922 147.22 322.875 147.294 322.852 147.377C322.828 147.46 322.832 147.546 322.862 147.639C322.895 147.745 322.955 147.825 323.043 147.88C323.13 147.934 323.248 147.975 323.396 148.001C323.544 148.028 323.729 148.06 323.95 148.092C324.218 148.13 324.453 148.181 324.656 148.249C324.858 148.316 325.027 148.418 325.167 148.548C325.308 148.679 325.414 148.867 325.489 149.106L325.485 149.11Z" fill="#F1F2F2"/>
<path d="M326.671 145.121C327.257 144.936 327.728 144.922 328.087 145.077C328.445 145.233 328.692 145.534 328.832 145.98C328.895 146.179 328.926 146.379 328.923 146.581C328.922 146.783 328.873 146.979 328.782 147.169C328.69 147.358 328.542 147.53 328.346 147.685C328.147 147.839 327.884 147.968 327.558 148.071L327.144 148.202L327.653 149.815L326.679 150.122L325.244 145.572L326.671 145.121ZM326.89 145.927L326.471 146.06L326.893 147.397L327.217 147.295C327.395 147.239 327.542 147.169 327.657 147.083C327.773 146.997 327.851 146.891 327.887 146.765C327.923 146.64 327.917 146.49 327.863 146.321C327.799 146.116 327.686 145.98 327.526 145.908C327.366 145.836 327.153 145.845 326.89 145.927Z" fill="#F1F2F2"/>
<path d="M332.37 148.326L330.298 148.98L330.125 148.431L330.599 148.001L329.67 145.056L329.035 144.976L328.862 144.427L330.934 143.773L331.107 144.323L330.633 144.752L331.562 147.697L332.197 147.777L332.37 148.326Z" fill="#F1F2F2"/>
<path d="M333.076 143.101C333.474 142.975 333.821 142.921 334.118 142.935C334.412 142.953 334.655 143.037 334.847 143.193C335.039 143.348 335.179 143.572 335.271 143.864C335.336 144.068 335.356 144.26 335.333 144.44C335.311 144.619 335.256 144.785 335.168 144.932C335.081 145.082 334.969 145.217 334.832 145.339L336.761 146.939L335.646 147.29L334.082 145.864L333.541 146.035L334.091 147.781L333.118 148.088L331.682 143.538L333.078 143.097L333.076 143.101ZM333.297 143.865L332.896 143.992L333.305 145.287L333.705 145.16C333.965 145.078 334.148 144.962 334.255 144.812C334.362 144.661 334.376 144.465 334.299 144.223C334.257 144.088 334.191 143.983 334.108 143.913C334.021 143.841 333.913 143.802 333.778 143.792C333.644 143.782 333.486 143.809 333.298 143.868L333.297 143.865Z" fill="#F1F2F2"/>
<path d="M340.115 145.883L339.427 144.922L337.822 145.428L337.81 146.61L336.759 146.942L336.917 141.868L338.114 141.491L341.169 145.551L340.118 145.882L340.115 145.883ZM338.314 143.292C338.278 143.233 338.219 143.147 338.144 143.03C338.067 142.915 337.992 142.795 337.914 142.671C337.838 142.549 337.776 142.446 337.728 142.368C337.743 142.471 337.752 142.591 337.76 142.728C337.769 142.866 337.776 143.001 337.784 143.126C337.792 143.255 337.798 143.364 337.802 143.451L337.787 144.541L338.941 144.176L338.311 143.29L338.314 143.292Z" fill="#F1F2F2"/>
<path d="M343.044 144.959L342.071 145.266L340.89 141.525L339.659 141.914L339.404 141.104L342.84 140.02L343.095 140.83L341.864 141.218L343.044 144.959Z" fill="#F1F2F2"/>
<path d="M346.671 143.815L344.599 144.469L344.426 143.919L344.9 143.49L343.971 140.545L343.336 140.465L343.163 139.916L345.235 139.262L345.408 139.811L344.934 140.241L345.863 143.186L346.498 143.266L346.671 143.815Z" fill="#F1F2F2"/>
<path d="M350.839 139.991C350.95 140.344 351.006 140.677 351.011 140.99C351.014 141.304 350.959 141.593 350.85 141.858C350.738 142.121 350.565 142.35 350.329 142.547C350.091 142.745 349.787 142.899 349.413 143.017C349.039 143.135 348.703 143.18 348.395 143.157C348.087 143.132 347.811 143.044 347.568 142.893C347.325 142.742 347.116 142.534 346.938 142.275C346.76 142.016 346.617 141.708 346.504 141.35C346.355 140.878 346.303 140.445 346.349 140.046C346.393 139.649 346.546 139.303 346.806 139.008C347.066 138.713 347.445 138.489 347.941 138.333C348.437 138.176 348.87 138.144 349.253 138.237C349.635 138.329 349.956 138.525 350.221 138.827C350.485 139.129 350.692 139.516 350.841 139.988L350.839 139.991ZM347.533 141.034C347.632 141.347 347.758 141.608 347.907 141.812C348.058 142.015 348.236 142.154 348.446 142.219C348.655 142.288 348.891 142.278 349.153 142.195C349.416 142.112 349.625 141.979 349.757 141.806C349.886 141.631 349.953 141.417 349.958 141.165C349.963 140.912 349.913 140.627 349.815 140.314C349.665 139.839 349.459 139.493 349.198 139.275C348.937 139.06 348.605 139.013 348.196 139.142C347.928 139.226 347.73 139.356 347.599 139.534C347.468 139.71 347.399 139.924 347.391 140.178C347.383 140.431 347.432 140.716 347.533 141.034Z" fill="#F1F2F2"/>
<path d="M356.523 140.707L355.3 141.092L352.232 138.276L352.206 138.285C352.259 138.426 352.313 138.569 352.363 138.711C352.414 138.852 352.468 138.996 352.518 139.137C352.569 139.279 352.62 139.423 352.671 139.565L353.346 141.706L352.487 141.977L351.051 137.427L352.269 137.043L355.321 139.828L355.34 139.822C355.29 139.684 355.243 139.544 355.194 139.407C355.145 139.269 355.096 139.132 355.047 138.996C354.998 138.86 354.949 138.723 354.9 138.584L354.22 136.43L355.087 136.156L356.523 140.707Z" fill="#F1F2F2"/>
</g>
<g clip-path="url(#clip3_34_4216)">
<path d="M397.876 15.9131L350.4 33.3453C349.027 33.8495 348.323 35.3716 348.827 36.7448L354.865 53.1896C355.369 54.5629 356.891 55.2674 358.265 54.7632L405.74 37.3309C407.113 36.8267 407.818 35.3046 407.314 33.9314L401.275 17.4866C400.771 16.1133 399.249 15.4088 397.876 15.9131Z" fill="#6AE5DF"/>
<path d="M404.1 35.7281L358.476 52.4807C357.42 52.8682 356.246 52.3249 355.859 51.2694L350.828 37.5684C350.44 36.5129 350.984 35.339 352.039 34.9515L397.663 18.1989C398.719 17.8114 399.893 18.3547 400.28 19.4102L405.311 33.1112C405.699 34.1667 405.155 35.3406 404.1 35.7281ZM352.232 35.4766C351.465 35.7581 351.071 36.6089 351.353 37.3756L356.384 51.0765C356.665 51.8432 357.516 52.237 358.283 51.9555L403.907 35.203C404.674 34.9215 405.068 34.0707 404.786 33.304L399.755 19.6031C399.474 18.8363 398.623 18.4426 397.856 18.7241L352.232 35.4766Z" fill="#6666FF"/>
<path d="M358.422 37.8732L354.995 39.1314C354.937 39.1526 354.907 39.2172 354.929 39.2749L355.185 39.9734C355.206 40.0312 355.271 40.0611 355.329 40.0399L356.576 39.5819L359.231 46.8131C359.252 46.8709 359.317 46.9008 359.375 46.8795L360.094 46.6154C360.152 46.5942 360.182 46.5296 360.161 46.4718L357.506 39.2432L358.754 38.7853C358.811 38.7641 358.841 38.6994 358.82 38.6417L358.564 37.9432C358.542 37.8855 358.478 37.8556 358.42 37.8768L358.422 37.8732Z" fill="#6666FF"/>
<path d="M362.233 36.4618L361.514 36.726C361.456 36.7472 361.426 36.8118 361.447 36.8696L362.654 40.157L361.026 40.7547L359.819 37.4673C359.798 37.4096 359.733 37.3797 359.676 37.4009L358.956 37.665C358.898 37.6863 358.868 37.7509 358.89 37.8086L361.844 45.8538C361.865 45.9116 361.93 45.9415 361.987 45.9203L362.707 45.6561C362.764 45.6349 362.794 45.5703 362.773 45.5125L361.376 41.7079L363.004 41.1101L364.401 44.9147C364.422 44.9725 364.487 45.0024 364.545 44.9812L365.264 44.717C365.322 44.6958 365.352 44.6312 365.331 44.5735L362.378 36.5309C362.356 36.4732 362.292 36.4432 362.234 36.4645L362.233 36.4618Z" fill="#6666FF"/>
<path d="M368.473 42.5079L366.422 43.2608L365.304 40.2177L367.187 39.5264C367.245 39.5052 367.275 39.4406 367.254 39.3828L366.997 38.6844C366.976 38.6266 366.911 38.5967 366.853 38.6179L364.971 39.3092L364.063 36.8358L366.092 36.0905C366.15 36.0693 366.18 36.0047 366.159 35.9469L365.902 35.2485C365.881 35.1907 365.816 35.1608 365.759 35.182L362.905 36.23C362.847 36.2512 362.817 36.3158 362.838 36.3736L365.788 44.4082C365.81 44.466 365.874 44.4959 365.932 44.4747L368.807 43.419C368.865 43.3978 368.895 43.3332 368.874 43.2754L368.617 42.577C368.596 42.5192 368.531 42.4893 368.473 42.5105L368.473 42.5079Z" fill="#6666FF"/>
<path d="M371.022 33.2463L368.189 34.2866C368.131 34.3078 368.102 34.3725 368.123 34.4302L371.077 42.4754C371.098 42.5331 371.163 42.5631 371.22 42.5418L371.94 42.2777C371.998 42.2565 372.028 42.1918 372.006 42.1341L370.589 38.2743L372.461 37.5869C372.519 37.5657 372.549 37.5011 372.528 37.4433L372.271 36.7449C372.25 36.6871 372.185 36.6572 372.128 36.6784L370.256 37.3658L369.347 34.8924L371.356 34.1548C371.414 34.1336 371.444 34.069 371.422 34.0112L371.166 33.3128C371.145 33.255 371.08 33.2251 371.022 33.2463Z" fill="#6666FF"/>
<path d="M372.459 32.719L372.06 32.8655C371.913 32.9193 371.838 33.0816 371.892 33.2281L374.724 40.9424C374.778 41.0889 374.94 41.164 375.087 41.1102L375.486 40.9637C375.633 40.9099 375.708 40.7476 375.654 40.6011L372.821 32.8868C372.768 32.7403 372.605 32.6652 372.459 32.719Z" fill="#6666FF"/>
<path d="M377.885 34.3263L377.264 32.6354C377.049 32.0498 376.599 31.8156 376.261 31.7223C375.873 31.6145 375.411 31.6382 375.02 31.7818L373.56 32.3179C373.502 32.3391 373.472 32.4037 373.493 32.4615L376.444 40.4961C376.465 40.5539 376.529 40.5838 376.587 40.5626L377.307 40.2984C377.364 40.2772 377.394 40.2126 377.373 40.1548L376.107 36.7073L376.54 36.5482C376.669 36.501 376.793 36.4494 376.911 36.3884L378.786 39.6538C378.812 39.7008 378.871 39.7212 378.923 39.7019L379.685 39.4223C379.716 39.4107 379.739 39.3844 379.751 39.353C379.764 39.3217 379.76 39.2873 379.741 39.2587L377.646 35.7936C377.994 35.3708 378.078 34.8514 377.884 34.3237L377.885 34.3263ZM374.717 32.921L375.213 32.7388C375.83 32.5122 376.185 32.513 376.418 33.1485L376.9 34.4587C377.1 35.0048 376.894 35.3845 376.269 35.6139L375.773 35.7962L374.717 32.921Z" fill="#6666FF"/>
<path d="M380.336 34.1115C379.209 33.3721 378.81 33.0956 378.656 32.6781C378.277 31.6462 378.657 31.3578 379.033 31.2199C379.324 31.1129 379.757 31.0998 380.164 32.2079L380.316 32.6201C380.337 32.6779 380.401 32.7078 380.459 32.6866L381.179 32.4224C381.236 32.4012 381.266 32.3366 381.245 32.2788L381.055 31.7616C380.379 29.9209 379.182 30.134 378.699 30.3114C377.596 30.7164 377.232 31.6724 377.696 32.9354C377.982 33.7152 378.597 34.148 379.849 34.9757L380.26 35.2447C381.388 35.978 381.711 36.2585 381.835 36.5972C382.077 37.2562 381.957 37.682 381.471 37.8603C381.106 37.9943 380.68 37.9957 380.307 36.9795L380.11 36.4413C380.088 36.3835 380.024 36.3536 379.966 36.3748L379.246 36.639C379.189 36.6602 379.159 36.7248 379.18 36.7826L379.429 37.46C379.949 38.8779 380.999 39.0674 381.805 38.7715C382.845 38.3897 383.206 37.4558 382.77 36.269C382.502 35.5391 381.936 35.1659 380.699 34.3536L380.334 34.1151L380.336 34.1115Z" fill="#6666FF"/>
<path d="M383.896 28.5192L380.47 29.7774C380.412 29.7986 380.382 29.8632 380.403 29.9209L380.66 30.6194C380.681 30.6771 380.745 30.7071 380.803 30.6858L382.05 30.2279L384.706 37.4591C384.727 37.5168 384.791 37.5468 384.849 37.5255L385.569 37.2614C385.626 37.2402 385.656 37.1755 385.635 37.1178L382.981 29.8892L384.228 29.4313C384.286 29.4101 384.316 29.3454 384.294 29.2877L384.038 28.5892C384.017 28.5315 383.952 28.5016 383.894 28.5228L383.896 28.5192Z" fill="#6666FF"/>
<path d="M389.077 26.617L386.243 27.6572C386.186 27.6784 386.156 27.7431 386.177 27.8008L389.131 35.846C389.152 35.9038 389.217 35.9337 389.275 35.9124L389.994 35.6483C390.052 35.6271 390.082 35.5625 390.061 35.5047L388.643 31.6449L390.515 30.9575C390.573 30.9363 390.603 30.8717 390.582 30.8139L390.325 30.1155C390.304 30.0577 390.24 30.0278 390.182 30.049L388.31 30.7364L387.402 28.263L389.41 27.5254C389.468 27.5042 389.498 27.4396 389.477 27.3819L389.22 26.6834C389.199 26.6256 389.134 26.5957 389.077 26.617Z" fill="#6666FF"/>
<path d="M390.513 26.0901L390.114 26.2366C389.967 26.2904 389.892 26.4527 389.946 26.5992L392.779 34.3135C392.832 34.46 392.995 34.5351 393.141 34.4813L393.54 34.3348C393.687 34.281 393.762 34.1187 393.708 33.9722L390.876 26.2579C390.822 26.1114 390.659 26.0363 390.513 26.0901Z" fill="#6666FF"/>
<path d="M394.869 24.4902L394.139 24.7582C394.087 24.7775 394.056 24.8333 394.068 24.8887L395.552 31.7455L392.227 25.5645C392.2 25.5149 392.141 25.4919 392.089 25.5112L391.359 25.7792C391.327 25.7908 391.303 25.8145 391.291 25.8459C391.278 25.8772 391.282 25.9116 391.299 25.9412L395.517 33.5102C395.543 33.5572 395.603 33.5802 395.655 33.5609L396.661 33.1916C396.713 33.1723 396.744 33.1192 396.733 33.0638L395.022 24.5829C395.022 24.5829 395.019 24.5662 395.016 24.5583C394.995 24.5006 394.93 24.4706 394.873 24.4919L394.869 24.4902Z" fill="#6666FF"/>
<path d="M400.808 30.6348L398.758 31.3878L397.64 28.3446L399.523 27.6533C399.581 27.6321 399.61 27.5675 399.589 27.5097L399.333 26.8113C399.312 26.7535 399.247 26.7236 399.189 26.7448L397.307 27.4361L396.398 24.9627L398.428 24.2174C398.486 24.1962 398.516 24.1316 398.494 24.0738L398.238 23.3754C398.217 23.3176 398.152 23.2877 398.094 23.3089L395.24 24.3569C395.183 24.3782 395.153 24.4428 395.174 24.5005L398.124 32.5352C398.145 32.593 398.21 32.6229 398.268 32.6017L401.143 31.5459C401.201 31.5247 401.23 31.4601 401.209 31.4024L400.953 30.7039C400.932 30.6461 400.867 30.6162 400.809 30.6375L400.808 30.6348Z" fill="#6666FF"/>
</g>
<g clip-path="url(#clip4_34_4216)">
<path d="M116.262 313.083C144.955 322.155 175.57 306.249 184.641 277.555C193.713 248.862 177.807 218.248 149.114 209.176C120.421 200.104 89.8062 216.01 80.7344 244.703C71.6626 273.397 87.5688 304.011 116.262 313.083Z" fill="#6666FF"/>
<path d="M116.159 305.764C116.159 305.764 116.107 305.748 116.081 305.739C115.727 305.61 115.372 305.469 115.021 305.33C114.184 304.997 113.776 304.045 114.11 303.207C114.443 302.37 115.393 301.967 116.232 302.296C116.557 302.427 116.888 302.554 117.221 302.677C118.065 302.989 118.498 303.932 118.185 304.776C117.881 305.594 116.985 306.025 116.164 305.766L116.159 305.764ZM124.073 307.935C123.299 307.69 122.809 306.907 122.96 306.086C123.121 305.199 123.971 304.605 124.858 304.766C125.203 304.829 125.556 304.889 125.9 304.941C126.788 305.078 127.402 305.919 127.264 306.806C127.125 307.7 126.286 308.309 125.398 308.171C125.029 308.111 124.654 308.05 124.28 307.983C124.21 307.972 124.142 307.951 124.075 307.93L124.073 307.935ZM107.813 301.668C107.683 301.627 107.558 301.57 107.44 301.493C107.12 301.295 106.796 301.089 106.484 300.882C105.732 300.387 105.522 299.372 106.017 298.62C106.513 297.863 107.527 297.657 108.279 298.152C108.571 298.348 108.872 298.534 109.167 298.724C109.93 299.2 110.165 300.212 109.689 300.976C109.286 301.619 108.504 301.887 107.813 301.668ZM133.345 308.649C132.696 308.444 132.221 307.848 132.201 307.133C132.179 306.229 132.889 305.482 133.793 305.459C134.145 305.45 134.498 305.436 134.851 305.422C135.75 305.38 136.519 306.075 136.56 306.974C136.607 307.875 135.907 308.642 135.008 308.683C134.631 308.701 134.256 308.714 133.875 308.725C133.691 308.73 133.511 308.702 133.34 308.647L133.345 308.649ZM100.468 295.963C100.239 295.89 100.022 295.765 99.8328 295.585C99.5564 295.32 99.2852 295.057 99.0173 294.784C98.3801 294.143 98.3812 293.109 99.0227 292.471C99.6642 291.834 100.698 291.835 101.335 292.477C101.582 292.726 101.836 292.972 102.09 293.218C102.744 293.842 102.765 294.878 102.143 295.527C101.699 295.992 101.041 296.138 100.464 295.956L100.468 295.963ZM142.569 307.473C142.039 307.306 141.605 306.872 141.47 306.286C141.261 305.409 141.808 304.53 142.69 304.323C143.035 304.244 143.377 304.157 143.719 304.071C144.591 303.844 145.486 304.373 145.708 305.243C145.934 306.12 145.407 307.011 144.536 307.233C144.169 307.328 143.803 307.418 143.439 307.503C143.142 307.575 142.846 307.555 142.575 307.47L142.569 307.473ZM94.4245 288.886C94.092 288.781 93.7888 288.565 93.572 288.256C93.3553 287.948 93.147 287.631 92.9371 287.318C92.4377 286.566 92.6495 285.553 93.4017 285.054C94.1539 284.554 95.167 284.766 95.6664 285.518C95.8588 285.813 96.0581 286.105 96.2625 286.398C96.7756 287.143 96.5914 288.16 95.8463 288.673C95.415 288.971 94.8869 289.032 94.4245 288.886ZM151.361 304.464C150.935 304.33 150.568 304.025 150.37 303.585C149.995 302.764 150.352 301.797 151.175 301.417C151.495 301.272 151.812 301.121 152.13 300.964C152.941 300.569 153.92 300.907 154.316 301.713C154.712 302.523 154.379 303.504 153.568 303.899C153.229 304.066 152.887 304.227 152.54 304.386C152.158 304.562 151.742 304.579 151.367 304.461L151.361 304.464ZM89.9279 280.75C89.4915 280.612 89.1126 280.292 88.9142 279.835C88.7675 279.485 88.6207 279.136 88.4792 278.789C88.1439 277.951 88.5479 276.999 89.3906 276.665C90.228 276.33 91.1804 276.734 91.514 277.576C91.6449 277.904 91.781 278.232 91.9187 278.556C92.2728 279.388 91.8896 280.347 91.0576 280.701C90.681 280.862 90.2847 280.868 89.9211 280.753L89.9279 280.75ZM159.38 299.759C159.058 299.657 158.767 299.457 158.556 299.167C158.021 298.438 158.179 297.414 158.906 296.884C159.189 296.676 159.474 296.463 159.753 296.248C160.47 295.698 161.496 295.833 162.048 296.545C162.598 297.262 162.463 298.288 161.751 298.84C161.449 299.071 161.148 299.301 160.843 299.525C160.405 299.843 159.862 299.917 159.384 299.766L159.38 299.759ZM87.15 271.876C86.6045 271.704 86.1614 271.244 86.0418 270.646C85.9637 270.278 85.8925 269.907 85.8281 269.533C85.6695 268.642 86.2577 267.794 87.1479 267.635C88.0381 267.477 88.8865 268.065 89.0451 268.955C89.1073 269.301 89.1747 269.648 89.2438 269.99C89.4265 270.876 88.8573 271.736 87.971 271.919C87.6893 271.978 87.4098 271.959 87.15 271.876ZM166.287 293.531C166.069 293.462 165.865 293.346 165.682 293.185C165.011 292.579 164.96 291.546 165.572 290.876C165.809 290.614 166.041 290.35 166.275 290.081C166.862 289.398 167.896 289.325 168.579 289.913C169.262 290.5 169.34 291.536 168.748 292.217C168.497 292.504 168.247 292.79 167.993 293.07C167.547 293.558 166.879 293.718 166.287 293.531ZM86.2171 262.627C85.5573 262.418 85.0738 261.796 85.0762 261.066C85.0755 260.688 85.0816 260.307 85.093 259.928C85.1152 259.027 85.8658 258.315 86.7674 258.337C87.6743 258.361 88.3804 259.11 88.3582 260.012C88.3499 260.364 88.3467 260.717 88.3452 261.065C88.3455 261.968 87.6123 262.696 86.7093 262.696C86.5387 262.694 86.3746 262.671 86.2188 262.621L86.2171 262.627ZM171.8 286.033C171.686 285.997 171.571 285.944 171.465 285.882C170.684 285.423 170.429 284.423 170.886 283.647C171.062 283.343 171.238 283.038 171.411 282.727C171.849 281.94 172.842 281.654 173.635 282.093C174.422 282.531 174.706 283.529 174.269 284.317C174.084 284.647 173.895 284.976 173.707 285.299C173.312 285.969 172.519 286.255 171.807 286.03L171.8 286.033ZM87.1747 253.38C86.385 253.13 85.8985 252.319 86.07 251.488C86.147 251.118 86.2291 250.75 86.3113 250.381C86.5148 249.503 87.3955 248.958 88.2741 249.162C89.1615 249.374 89.6972 250.246 89.4937 251.124C89.4129 251.47 89.3389 251.813 89.265 252.155C89.0823 253.04 88.2174 253.607 87.3322 253.424C87.2786 253.413 87.2198 253.4 87.1679 253.384L87.1747 253.38ZM175.677 277.584C175.677 277.584 175.651 277.576 175.641 277.573C174.785 277.279 174.33 276.352 174.623 275.497C174.733 275.166 174.845 274.83 174.952 274.492L174.982 274.398C175.254 273.536 176.171 273.06 177.033 273.333C177.895 273.605 178.372 274.522 178.099 275.384L178.069 275.477C177.954 275.841 177.841 276.2 177.717 276.555C177.429 277.395 176.524 277.852 175.677 277.584ZM89.9718 244.515C89.9198 244.499 89.8679 244.482 89.8175 244.461C88.9866 244.107 88.6046 243.146 88.9588 242.315C89.1085 241.968 89.2634 241.622 89.4183 241.277C89.7932 240.453 90.7683 240.098 91.5874 240.471C92.4066 240.845 92.7681 241.816 92.3932 242.641C92.2465 242.96 92.105 243.281 91.967 243.609C91.6345 244.389 90.765 244.772 89.9753 244.522L89.9718 244.515ZM177.805 268.433C177.067 268.2 176.58 267.463 176.676 266.671C176.719 266.319 176.76 265.972 176.796 265.623C176.886 264.725 177.692 264.072 178.59 264.161C179.487 264.251 180.141 265.057 180.051 265.955C180.012 266.331 179.968 266.706 179.922 267.086C179.811 267.982 178.993 268.615 178.097 268.503C177.999 268.489 177.902 268.47 177.808 268.44L177.805 268.433ZM94.4846 236.387C94.3287 236.338 94.1795 236.268 94.04 236.166C93.2996 235.652 93.1201 234.63 93.6342 233.889C93.8533 233.576 94.0708 233.267 94.2987 232.962C94.832 232.234 95.8548 232.071 96.5818 232.61C97.3104 233.143 97.4675 234.164 96.9343 234.893C96.7234 235.18 96.5193 235.464 96.3187 235.755C95.9006 236.355 95.1513 236.592 94.4862 236.382L94.4846 236.387ZM178.034 259.14C177.416 258.944 176.951 258.391 176.899 257.706C176.873 257.355 176.84 257.007 176.807 256.66C176.714 255.762 177.368 254.957 178.265 254.869C179.163 254.776 179.967 255.43 180.055 256.327C180.09 256.704 180.127 257.075 180.156 257.456C180.225 258.358 179.554 259.14 178.652 259.209C178.436 259.226 178.227 259.2 178.034 259.14ZM100.555 229.334C100.3 229.254 100.06 229.109 99.8639 228.899C99.2419 228.245 99.2724 227.209 99.9262 226.587C100.203 226.326 100.478 226.07 100.759 225.816C101.43 225.211 102.46 225.262 103.064 225.933C103.669 226.604 103.618 227.634 102.947 228.239C102.683 228.476 102.425 228.714 102.171 228.959C101.722 229.383 101.102 229.501 100.551 229.327L100.555 229.334ZM176.378 249.992C175.874 249.833 175.457 249.433 175.299 248.885C175.201 248.546 175.101 248.211 174.995 247.875C174.725 247.013 175.204 246.095 176.066 245.825C176.929 245.555 177.846 246.034 178.117 246.896C178.231 247.258 178.34 247.618 178.442 247.982C178.693 248.85 178.19 249.754 177.327 250.007C177.007 250.1 176.679 250.088 176.383 249.994L176.378 249.992ZM107.923 223.652C107.565 223.538 107.24 223.299 107.028 222.957C106.551 222.189 106.789 221.184 107.552 220.706C107.873 220.504 108.197 220.31 108.521 220.115C109.3 219.658 110.298 219.917 110.762 220.692C111.219 221.471 110.96 222.469 110.18 222.931C109.878 223.11 109.574 223.294 109.275 223.479C108.855 223.741 108.36 223.79 107.918 223.65L107.923 223.652ZM172.916 241.366C172.521 241.241 172.169 240.964 171.963 240.567C171.799 240.253 171.634 239.943 171.462 239.638C171.026 238.848 171.312 237.853 172.102 237.417C172.891 236.981 173.888 237.261 174.323 238.056C174.503 238.388 174.684 238.719 174.864 239.056C175.279 239.856 174.972 240.845 174.172 241.26C173.769 241.47 173.32 241.499 172.92 241.373L172.916 241.366ZM116.278 219.567C115.816 219.421 115.419 219.067 115.237 218.575C114.922 217.727 115.356 216.79 116.204 216.475C116.56 216.342 116.914 216.219 117.273 216.093C118.125 215.802 119.056 216.257 119.352 217.11C119.648 217.964 119.188 218.893 118.335 219.189C118.002 219.301 117.673 219.42 117.343 219.544C116.986 219.677 116.616 219.674 116.283 219.569L116.278 219.567ZM167.793 233.603C167.502 233.511 167.232 233.334 167.021 233.079C166.798 232.808 166.57 232.536 166.342 232.264C165.754 231.575 165.834 230.543 166.521 229.961C167.21 229.373 168.242 229.453 168.825 230.14C169.07 230.429 169.316 230.719 169.555 231.011C170.128 231.712 170.02 232.741 169.32 233.309C168.874 233.67 168.302 233.764 167.793 233.603ZM125.279 217.235C124.702 217.053 124.251 216.562 124.155 215.926C124.021 215.032 124.632 214.202 125.522 214.061C125.895 214.002 126.265 213.953 126.642 213.9C127.536 213.783 128.357 214.42 128.47 215.313C128.587 216.207 127.95 217.028 127.057 217.141C126.706 217.184 126.359 217.234 126.017 217.286C125.759 217.324 125.509 217.302 125.275 217.229L125.279 217.235ZM161.215 227.026C161.022 226.965 160.842 226.868 160.678 226.736C160.405 226.513 160.126 226.293 159.847 226.073C159.135 225.522 159.004 224.492 159.555 223.781C160.105 223.069 161.136 222.937 161.847 223.488C162.145 223.72 162.442 223.956 162.737 224.198C163.437 224.768 163.546 225.797 162.976 226.497C162.538 227.033 161.833 227.221 161.215 227.026ZM134.556 216.774C133.865 216.556 133.379 215.888 133.419 215.129C133.464 214.229 134.232 213.534 135.138 213.581C135.514 213.602 135.895 213.626 136.269 213.653C137.173 213.721 137.845 214.505 137.777 215.409C137.71 216.308 136.924 216.986 136.02 216.917C135.668 216.891 135.316 216.866 134.968 216.847C134.826 216.842 134.686 216.815 134.556 216.774ZM153.444 221.923C153.356 221.895 153.264 221.86 153.182 221.812C152.873 221.651 152.557 221.494 152.241 221.337C151.43 220.938 151.093 219.962 151.492 219.151C151.891 218.34 152.866 218.003 153.677 218.402C154.019 218.567 154.36 218.738 154.693 218.912C155.493 219.33 155.804 220.315 155.391 221.116C155.016 221.831 154.194 222.154 153.451 221.919L153.444 221.923ZM143.741 218.198C142.915 217.937 142.433 217.076 142.656 216.226C142.885 215.356 143.777 214.832 144.649 215.056C145.014 215.149 145.376 215.252 145.743 215.356C146.606 215.606 147.115 216.51 146.865 217.374C146.618 218.245 145.711 218.746 144.847 218.496C144.506 218.4 144.165 218.303 143.826 218.219C143.8 218.211 143.774 218.203 143.743 218.193L143.741 218.198Z" fill="#6AE5DF"/>
<path d="M123.066 244.515L144.341 251.241C144.787 251.383 145.287 251.049 145.46 250.504L148.633 240.466C148.806 239.921 148.583 239.359 148.142 239.219L126.867 232.493C126.42 232.352 125.92 232.685 125.748 233.231L122.574 243.268C122.402 243.814 122.624 244.375 123.066 244.515Z" fill="#F1F2F2"/>
<path d="M152.135 240.505L155.731 247.425C155.962 247.869 155.786 248.425 155.341 248.656L148.312 252.308C147.587 252.685 146.772 251.993 147.022 251.22L150.452 240.658C150.697 239.884 151.757 239.802 152.13 240.52L152.134 240.51L152.135 240.505Z" fill="#F1F2F2"/>
<path d="M132.617 249.477L122.813 246.378C122.199 246.184 121.544 246.524 121.35 247.138L118.251 256.942C118.056 257.556 118.397 258.211 119.011 258.405L128.814 261.505C129.429 261.699 130.084 261.358 130.278 260.744L133.377 250.941C133.572 250.327 133.231 249.672 132.617 249.477Z" fill="#F1F2F2"/>
<path d="M115.273 284.111C119.097 285.32 123.178 283.2 124.388 279.375C125.597 275.551 123.477 271.47 119.652 270.26C115.827 269.051 111.746 271.171 110.537 274.996C109.327 278.821 111.448 282.902 115.273 284.111Z" fill="#F1F2F2"/>
<path d="M124.157 285.96L127.272 276.109C127.429 275.611 127.935 275.313 128.455 275.403C131.712 275.965 134.972 274.041 135.995 270.804C137.018 267.567 135.457 264.119 132.469 262.706C131.997 262.482 131.749 261.947 131.907 261.448L135.021 251.598C135.204 251.021 135.835 250.723 136.397 250.935C145.766 254.503 150.856 264.85 147.794 274.534C144.732 284.218 134.621 289.754 124.902 287.292C124.315 287.141 123.975 286.536 124.157 285.96Z" fill="#F1F2F2"/>
</g>
<g clip-path="url(#clip5_34_4216)">
<path d="M47.0702 104.006C46.3444 105.201 47.384 106.69 48.756 106.417L57.9501 104.602L66.6711 103.08C68.779 102.714 70.0686 100.56 69.3965 98.5283L66.6192 90.1226L63.8781 81.1607C63.4691 79.8246 61.6668 79.6094 60.9568 80.8132L59.2381 83.7239L42.6602 73.7982C41.3982 73.0426 39.7645 73.4526 39.0089 74.7146L31.1649 87.8155C30.4093 89.0775 30.8193 90.7112 32.0814 91.4668L48.6573 101.391L47.069 104.008L47.0702 104.006Z" fill="#6666FF"/>
<path d="M66.3188 99.7773C66.2504 99.8915 66.1513 99.9097 66.1178 99.9164L57.3969 101.438C57.3729 101.442 57.3489 101.446 57.3269 101.452L51.6458 102.573C51.8904 101.955 51.9382 101.272 51.7758 100.618C51.5692 99.7886 51.042 99.0744 50.3076 98.6347L34.2042 88.9931L41.4811 76.8393L57.5865 86.4821C58.3209 86.9218 59.1994 87.0493 60.0284 86.8395C60.7756 86.6503 61.4265 86.1975 61.8651 85.5721L63.5444 91.063C63.5519 91.0862 63.5574 91.1083 63.5649 91.1315L66.3422 99.5372C66.3533 99.5679 66.384 99.6639 66.3145 99.78M69.0752 101.428C69.5774 100.589 69.7331 99.5427 69.3964 98.528L66.6192 90.1223L63.878 81.1605C63.4698 79.8275 61.677 79.61 60.9614 80.8051C60.9591 80.809 60.9579 80.811 60.9555 80.8149L59.2368 83.7257L42.659 73.7999C41.3969 73.0443 39.7633 73.4543 39.0076 74.7164L31.1637 87.8172C30.4081 89.0793 30.8181 90.7129 32.0801 91.4685L48.656 101.393L47.0677 104.01C47.0677 104.01 47.0642 104.016 47.0618 104.02C46.3475 105.213 47.3847 106.693 48.7524 106.423L57.9465 104.607L66.6674 103.086C67.722 102.902 68.5695 102.272 69.0717 101.434L69.0752 101.428Z" fill="#F1F2F2"/>
<path d="M69.0754 101.428C68.5732 102.267 67.7245 102.898 66.6711 103.081L57.9502 104.602L48.7561 106.418C47.3884 106.687 46.35 105.21 47.0655 104.015C47.0679 104.011 47.0691 104.009 47.0714 104.005L48.6597 101.388L32.0838 91.4631C30.8218 90.7075 30.4118 89.0739 31.1674 87.8118L39.009 74.7149C39.7646 73.4529 41.3982 73.0428 42.6603 73.7985L59.2382 83.7242L60.9569 80.8135C60.9569 80.8135 60.9604 80.8075 60.9627 80.8036C61.6771 79.6105 63.4711 79.826 63.8793 81.159L66.6205 90.1209L69.3978 98.5266C69.7332 99.5432 69.5787 100.587 69.0766 101.426M71.8239 103.074C72.8259 101.4 73.0507 99.3764 72.4382 97.5225L69.6728 89.1507L66.9434 80.2227C66.3888 78.4061 64.8106 77.0841 62.9241 76.8533C61.0376 76.6224 59.1903 77.5277 58.2142 79.158C58.2107 79.1639 58.2012 79.1796 58.1965 79.1875L58.1175 79.3194L44.3059 71.0499C41.5318 69.3889 37.9214 70.2951 36.2604 73.0693L28.4165 86.1701C26.7555 88.9442 27.6617 92.5546 30.4358 94.2156L44.2474 102.485C43.3418 104.096 43.4401 106.094 44.5072 107.613C45.5996 109.166 47.5102 109.932 49.3753 109.565L58.534 107.754L67.2195 106.239C69.1441 105.901 70.8219 104.747 71.8239 103.074Z" fill="#6666FF"/>
</g>
<g clip-path="url(#clip6_34_4216)">
<path d="M263.802 186.354L255.744 161.51C255.301 160.143 253.484 159.785 252.465 160.864L233.972 180.477L228.309 186.534L219.498 184.78L193.025 179.616C191.569 179.334 190.302 180.683 190.738 182.052L198.686 206.931L206.744 231.776C207.187 233.143 209.004 233.5 210.023 232.422L228.516 212.809L234.179 206.751L242.99 208.505L269.458 213.667C270.914 213.95 272.181 212.6 271.745 211.231L263.797 186.352L263.802 186.354Z" fill="#6AE5DF"/>
<path d="M253.319 160.322C254.284 160.017 255.406 160.475 255.743 161.506L263.8 186.351L271.748 211.23C272.081 212.271 271.426 213.304 270.449 213.612C270.142 213.709 269.808 213.733 269.461 213.666L242.993 208.504L234.183 206.75L228.52 212.808L210.026 232.42C209.779 232.683 209.482 232.861 209.171 232.959C208.206 233.264 207.085 232.806 206.747 231.775L198.69 206.93L190.742 182.051C190.41 181.01 191.065 179.977 192.041 179.669C192.348 179.572 192.682 179.548 193.029 179.615L219.497 184.777L228.308 186.531L233.971 180.473L252.464 160.861C252.711 160.598 253.008 160.42 253.319 160.322ZM252.14 156.584C251.124 156.904 250.204 157.483 249.475 158.255L230.982 177.867L226.918 182.213L220.424 180.921L193.934 175.754C192.915 175.557 191.848 175.616 190.857 175.929C189.332 176.41 188.028 177.475 187.276 178.85C186.52 180.238 186.363 181.818 186.833 183.296L194.781 208.175L202.844 233.037C203.823 236.053 207.188 237.695 210.347 236.698C211.363 236.378 212.282 235.8 213.011 235.027L231.505 215.415L235.569 211.069L242.064 212.365L268.549 217.529C269.568 217.727 270.631 217.668 271.626 217.354C273.147 216.875 274.455 215.809 275.207 214.433C275.967 213.044 276.125 211.468 275.65 209.988L267.702 185.109L259.639 160.247C258.66 157.23 255.295 155.588 252.136 156.585L252.14 156.584Z" fill="#6666FF"/>
<path d="M234.184 206.754L241.565 193.31L228.304 186.532L220.878 199.836L234.184 206.754Z" fill="#F1F2F2"/>
<path d="M210.025 203.216C210.329 204.181 210.393 205.046 210.219 205.808C210.046 206.57 209.668 207.22 209.082 207.758C208.499 208.296 207.731 208.715 206.78 209.015L204.097 209.861L201.446 201.458L204.349 200.543C205.274 200.251 206.113 200.156 206.865 200.261C207.618 200.365 208.259 200.663 208.801 201.157C209.339 201.653 209.748 202.339 210.025 203.216ZM208.077 203.911C207.886 203.306 207.638 202.839 207.328 202.506C207.022 202.172 206.652 201.966 206.222 201.89C205.792 201.814 205.308 201.863 204.764 202.035L203.791 202.341L205.509 207.789L206.296 207.541C207.199 207.257 207.795 206.815 208.083 206.212C208.373 205.614 208.368 204.846 208.074 203.913L208.077 203.911Z" fill="#6666FF"/>
<path d="M218.221 205.406L213.165 207.001L210.514 198.599L215.571 197.004L216.031 198.462L212.832 199.471L213.414 201.317L216.39 200.378L216.85 201.837L213.874 202.775L214.557 204.94L217.756 203.931L218.22 205.403L218.221 205.406Z" fill="#6666FF"/>
<path d="M221.629 196.607C221.278 196.718 220.981 196.885 220.736 197.104C220.492 197.324 220.314 197.587 220.195 197.898C220.075 198.209 220.019 198.553 220.027 198.935C220.035 199.317 220.11 199.732 220.251 200.179C220.436 200.767 220.683 201.243 220.987 201.608C221.291 201.974 221.652 202.213 222.072 202.319C222.491 202.426 222.961 202.4 223.484 202.235C223.868 202.114 224.228 201.955 224.559 201.754C224.889 201.554 225.213 201.332 225.53 201.086L226.012 202.614C225.69 202.881 225.348 203.109 224.988 203.295C224.629 203.481 224.216 203.65 223.748 203.798C222.812 204.093 221.988 204.157 221.272 203.99C220.556 203.824 219.951 203.461 219.454 202.903C218.956 202.345 218.575 201.634 218.306 200.781C218.105 200.145 218.014 199.536 218.032 198.945C218.051 198.355 218.178 197.815 218.419 197.316C218.66 196.817 219.008 196.381 219.464 196.002C219.923 195.623 220.497 195.327 221.184 195.11C221.62 194.973 222.073 194.88 222.551 194.829C223.026 194.779 223.494 194.785 223.955 194.843L223.794 196.474C223.456 196.435 223.105 196.419 222.745 196.425C222.381 196.432 222.011 196.495 221.635 196.613L221.629 196.607Z" fill="#6666FF"/>
<path d="M231.241 201.3L227.241 202.562L226.922 201.551L227.845 200.741L226.13 195.303L224.91 195.169L224.591 194.159L228.591 192.897L228.91 193.908L227.987 194.718L229.702 200.155L230.922 200.289L231.241 201.3Z" fill="#6666FF"/>
<path d="M237.187 196.864C237.342 197.357 237.351 197.831 237.215 198.278C237.078 198.724 236.799 199.128 236.383 199.478C235.967 199.828 235.414 200.114 234.727 200.331C234.423 200.427 234.12 200.499 233.816 200.553C233.511 200.607 233.216 200.639 232.924 200.646C232.633 200.653 232.352 200.642 232.08 200.608L231.557 198.947C232.027 198.987 232.513 199.011 233.005 199.013C233.497 199.02 233.965 198.949 234.408 198.809C234.711 198.714 234.944 198.598 235.101 198.46C235.26 198.325 235.365 198.173 235.407 198.014C235.453 197.853 235.444 197.686 235.39 197.515C235.323 197.302 235.19 197.148 234.993 197.045C234.792 196.943 234.546 196.866 234.25 196.818C233.953 196.769 233.62 196.72 233.245 196.677C233.01 196.647 232.752 196.606 232.473 196.551C232.195 196.497 231.917 196.407 231.637 196.284C231.361 196.16 231.108 195.982 230.883 195.753C230.657 195.521 230.484 195.214 230.362 194.83C230.203 194.326 230.19 193.861 230.318 193.429C230.447 192.996 230.705 192.615 231.095 192.284C231.482 191.954 231.978 191.694 232.585 191.502C233.046 191.357 233.498 191.272 233.943 191.243C234.388 191.215 234.869 191.224 235.379 191.271L235.213 192.85C234.761 192.819 234.361 192.811 234.016 192.827C233.667 192.841 233.328 192.902 232.992 193.008C232.761 193.081 232.575 193.178 232.433 193.3C232.29 193.422 232.197 193.559 232.149 193.712C232.101 193.866 232.108 194.029 232.162 194.2C232.224 194.396 232.339 194.544 232.502 194.643C232.67 194.74 232.894 194.815 233.179 194.864C233.464 194.912 233.818 194.966 234.242 195.021C234.755 195.082 235.207 195.174 235.594 195.294C235.978 195.415 236.305 195.596 236.57 195.84C236.836 196.083 237.041 196.426 237.178 196.863L237.187 196.864Z" fill="#6666FF"/>
<path d="M242.806 197.652L238.806 198.914L238.487 197.903L239.41 197.093L237.695 191.655L236.475 191.521L236.156 190.511L240.156 189.249L240.475 190.26L239.552 191.07L241.267 196.507L242.487 196.641L242.806 197.652Z" fill="#6666FF"/>
<path d="M250.911 190.463C251.116 191.113 251.218 191.731 251.216 192.312C251.215 192.893 251.103 193.432 250.885 193.924C250.666 194.416 250.327 194.845 249.865 195.214C249.402 195.583 248.814 195.884 248.093 196.111C247.373 196.338 246.727 196.431 246.132 196.392C245.536 196.353 245.01 196.2 244.548 195.922C244.087 195.645 243.686 195.268 243.352 194.793C243.017 194.318 242.745 193.75 242.537 193.089C242.262 192.218 242.173 191.412 242.271 190.677C242.368 189.939 242.667 189.295 243.176 188.743C243.682 188.191 244.415 187.764 245.377 187.46C246.338 187.157 247.17 187.091 247.9 187.253C248.631 187.414 249.246 187.774 249.747 188.327C250.247 188.881 250.632 189.593 250.907 190.464L250.911 190.463ZM244.527 192.477C244.71 193.057 244.945 193.536 245.229 193.912C245.512 194.288 245.856 194.537 246.256 194.657C246.655 194.777 247.107 194.757 247.616 194.597C248.124 194.437 248.531 194.185 248.782 193.86C249.037 193.534 249.17 193.138 249.185 192.664C249.198 192.195 249.116 191.667 248.933 191.087C248.656 190.209 248.269 189.57 247.775 189.176C247.28 188.778 246.638 188.708 245.852 188.956C245.337 189.118 244.949 189.367 244.692 189.699C244.434 190.03 244.299 190.43 244.278 190.898C244.257 191.366 244.343 191.893 244.528 192.48L244.527 192.477Z" fill="#6666FF"/>
<path d="M261.826 191.652L259.464 192.397L253.632 187.251L253.585 187.266C253.683 187.527 253.783 187.792 253.881 188.053C253.976 188.315 254.075 188.58 254.17 188.842C254.265 189.105 254.361 189.37 254.452 189.634L255.7 193.589L254.04 194.112L251.389 185.709L253.74 184.968L259.539 190.059L259.576 190.048C259.487 189.791 259.394 189.536 259.305 189.28C259.216 189.023 259.125 188.771 259.033 188.519C258.942 188.268 258.85 188.016 258.761 187.759L257.507 183.784L259.182 183.255L261.832 191.658L261.826 191.652Z" fill="#6666FF"/>
</g>
<g clip-path="url(#clip7_34_4216)">
<path d="M353.66 108.169C352.63 107.57 351.31 107.918 350.71 108.948C350.111 109.977 350.46 111.298 351.49 111.897L360.166 116.949C361.196 117.549 362.517 117.201 363.116 116.171C363.716 115.142 363.367 113.821 362.337 113.222L353.66 108.169Z" fill="#6666FF"/>
<path d="M346.219 114.309C351.425 112.935 354.531 107.6 353.157 102.394C351.782 97.1873 346.448 94.081 341.241 95.4555C336.035 96.8301 332.928 102.165 334.303 107.371C335.678 112.578 341.012 115.684 346.219 114.309Z" fill="#F1F2F2"/>
<path d="M336.748 100.817C338.99 96.9677 343.946 95.6594 347.795 97.9008C351.644 100.142 352.953 105.098 350.711 108.947C348.47 112.797 343.514 114.105 339.665 111.864C335.815 109.622 334.507 104.667 336.748 100.817ZM335.303 99.9756C332.594 104.628 334.17 110.597 338.823 113.308C343.475 116.017 349.445 114.441 352.155 109.788C354.864 105.135 353.288 99.1663 348.635 96.4558C343.983 93.7468 338.014 95.3227 335.303 99.9756Z" fill="#6AE5DF"/>
<path d="M335.303 99.9757C338.012 95.3231 343.981 93.7473 348.635 96.4559C353.288 99.165 354.864 105.134 352.155 109.788C349.446 114.441 343.477 116.016 338.823 113.308C334.17 110.599 332.594 104.63 335.303 99.9757ZM333.86 99.1352C330.691 104.577 332.541 111.583 337.983 114.753C343.424 117.921 350.43 116.072 353.6 110.629C356.769 105.188 354.919 98.1819 349.477 95.012C344.035 91.8435 337.03 93.6931 333.86 99.1352Z" fill="#6666FF"/>
</g>
<g clip-path="url(#clip8_34_4216)">
<path d="M26.8144 172.178C31.2357 190.158 49.3957 201.15 67.3758 196.729C85.356 192.307 96.3477 174.148 91.9264 156.167C87.5051 138.187 69.3451 127.195 51.3649 131.617C33.3847 136.038 22.3931 154.198 26.8144 172.178Z" fill="#F1F2F2"/>
<path d="M91.9265 156.167C96.3478 174.148 85.3562 192.307 67.376 196.729C49.3957 201.15 31.2358 190.159 26.8145 172.178C22.3932 154.198 33.3848 136.038 51.365 131.617C69.3453 127.196 87.5052 138.187 91.9265 156.167ZM95.7825 155.219C90.8455 135.142 70.4944 122.824 50.4168 127.761C30.3392 132.698 18.0214 153.049 22.9585 173.126C27.8955 193.204 48.2466 205.522 68.3242 200.585C88.4017 195.648 100.72 175.297 95.7825 155.219Z" fill="#6666FF"/>
<path d="M66.309 167.344L74.2199 154.95L80.718 144.772C81.2395 143.956 80.312 142.995 79.4771 143.478L69.0379 149.548L56.329 156.939C55.8122 157.24 55.7149 157.944 56.1261 158.376L60.4975 162.931L64.8688 167.485C65.2837 167.916 65.9888 167.847 66.3126 167.343L66.309 167.344ZM65.4782 161.343L63.884 159.681L62.2899 158.018C62.1395 157.862 62.2107 157.571 62.434 157.427L67.969 153.869L72.5138 150.948C72.8775 150.716 73.2145 151.065 72.9658 151.42L69.8593 155.84L66.0744 161.223C65.9198 161.443 65.6286 161.499 65.4746 161.344L65.4782 161.343Z" fill="#6666FF"/>
<path d="M57.7854 165.532L62.1568 170.087C62.5716 170.518 62.4707 171.222 61.9539 171.523L49.2451 178.915L38.8058 184.984C37.9718 185.471 37.0434 184.507 37.5649 183.691L44.0631 173.513L51.9739 161.119C52.2942 160.615 53.0029 160.545 53.4178 160.976L57.7891 165.531L57.7854 165.532Z" fill="#6AE5DF"/>
<path d="M95.7835 155.223L95.7826 155.22C95.52 154.152 94.4415 153.499 93.3737 153.762L88.9969 154.838C87.9291 155.1 87.2763 156.179 87.5389 157.247L87.5398 157.25C87.8024 158.318 88.8809 158.971 89.9487 158.708L94.3254 157.632C95.3933 157.37 96.046 156.291 95.7835 155.223Z" fill="#6666FF"/>
<path d="M31.2031 171.103L31.2022 171.099C30.9397 170.032 29.8612 169.379 28.7933 169.641L24.4166 170.718C23.3488 170.98 22.696 172.059 22.9586 173.127L22.9595 173.13C23.222 174.198 24.3005 174.851 25.3684 174.588L29.7451 173.512C30.8129 173.249 31.4657 172.171 31.2031 171.103Z" fill="#6666FF"/>
<path d="M53.902 133.596L52.8258 129.219C52.5632 128.151 51.4847 127.499 50.4169 127.761L50.4132 127.762C49.3454 128.025 48.6926 129.103 48.9552 130.171L50.0314 134.548C50.294 135.615 51.3725 136.268 52.4403 136.006L52.444 136.005C53.5118 135.742 54.1646 134.664 53.902 133.596Z" fill="#6666FF"/>
<path d="M69.7824 198.176L68.7062 193.799C68.4436 192.731 67.3651 192.079 66.2972 192.341L66.2936 192.342C65.2258 192.605 64.573 193.683 64.8356 194.751L65.9118 199.128C66.1744 200.196 67.2529 200.848 68.3207 200.586L68.3243 200.585C69.3922 200.322 70.045 199.244 69.7824 198.176Z" fill="#6666FF"/>
<path d="M78.7906 132.093L78.7873 132.092C77.8466 131.522 76.6224 131.823 76.053 132.764L73.7192 136.62C73.1498 137.56 73.4508 138.785 74.3916 139.354L74.3948 139.356C75.3355 139.925 76.5597 139.624 77.1291 138.684L79.4629 134.828C80.0323 133.887 79.7313 132.663 78.7906 132.093Z" fill="#6666FF"/>
<path d="M44.3492 188.989L44.3459 188.988C43.4052 188.418 42.181 188.719 41.6116 189.66L39.2778 193.516C38.7084 194.456 39.0094 195.681 39.9502 196.25L39.9534 196.252C40.8941 196.821 42.1183 196.52 42.6877 195.58L45.0215 191.724C45.5909 190.783 45.2899 189.559 44.3492 188.989Z" fill="#6666FF"/>
<path d="M33.8807 146.415L30.0249 144.081C29.0842 143.512 27.8599 143.813 27.2905 144.754L27.2886 144.757C26.7192 145.698 27.0202 146.922 27.961 147.491L31.8168 149.825C32.7575 150.394 33.9817 150.093 34.5511 149.153L34.5531 149.149C35.1225 148.209 34.8215 146.984 33.8807 146.415Z" fill="#6666FF"/>
<path d="M90.7794 180.852L86.9236 178.518C85.9828 177.949 84.7586 178.25 84.1892 179.191L84.1873 179.194C83.6179 180.135 83.9189 181.359 84.8597 181.928L88.7155 184.262C89.6562 184.831 90.8804 184.53 91.4498 183.59L91.4518 183.586C92.0212 182.646 91.7201 181.421 90.7794 180.852Z" fill="#6666FF"/>
</g>
<g clip-path="url(#clip9_34_4216)">
<path d="M139.549 171.548C137.346 172.323 134.852 172.256 132.58 171.167C128.042 168.991 126.126 163.546 128.3 159.004L133.448 148.267L108.47 157.056C104.992 158.28 101.117 157.287 98.6561 154.544C96.1951 151.8 95.6266 147.84 97.2234 144.516L113.438 110.696C115.614 106.158 121.059 104.242 125.601 106.416C130.139 108.592 132.055 114.037 129.881 118.579L123.181 132.554L148.159 123.765C151.637 122.541 155.512 123.534 157.973 126.277C160.434 129.021 161.002 132.981 159.406 136.305L144.743 166.887C143.654 169.159 141.751 170.773 139.549 171.548Z" fill="#F1F2F2"/>
<path d="M118.634 106.039C120.837 105.264 123.331 105.331 125.603 106.42C130.141 108.596 132.057 114.041 129.882 118.583L123.182 132.558L148.16 123.769C151.639 122.545 155.513 123.538 157.974 126.281C160.435 129.024 161.004 132.985 159.407 136.309L144.745 166.891C143.656 169.163 141.753 170.777 139.55 171.552C137.348 172.327 134.853 172.26 132.582 171.171C128.044 168.995 126.128 163.55 128.302 159.008L133.45 148.271L108.472 157.06C104.993 158.283 101.119 157.291 98.6576 154.547C96.1966 151.804 95.6281 147.844 97.2249 144.52L113.439 110.7C114.529 108.428 116.432 106.814 118.634 106.039ZM116.218 99.1725C112.088 100.626 108.771 103.602 106.878 107.551L90.6634 141.371C87.784 147.369 88.7965 154.448 93.2397 159.401C97.6829 164.355 104.609 166.131 110.887 163.922L120.29 160.614C119.302 167.513 122.823 174.561 129.431 177.729C133.38 179.622 137.829 179.865 141.96 178.412C146.09 176.959 149.406 173.983 151.3 170.034L165.962 139.452C168.84 133.449 167.827 126.37 163.384 121.417C158.941 116.464 152.015 114.687 145.737 116.896L137.182 119.906C139.818 112.162 136.298 103.473 128.745 99.852C124.796 97.9587 120.347 97.7153 116.217 99.1686L116.218 99.1725Z" fill="#6AE5DF"/>
<path d="M110.724 139.223C110.426 139.328 110.088 139.319 109.776 139.173C109.152 138.88 108.886 138.136 109.178 137.512L120.839 112.808C121.132 112.185 121.876 111.918 122.5 112.211C123.124 112.503 123.39 113.248 123.098 113.871L111.436 138.575C111.286 138.888 111.025 139.112 110.723 139.219L110.724 139.223Z" fill="#6AE5DF"/>
<path d="M135.735 168.058C135.437 168.163 135.099 168.154 134.787 168.008C134.163 167.716 133.897 166.971 134.189 166.347L145.85 141.644C146.143 141.02 146.887 140.754 147.511 141.046C148.135 141.339 148.401 142.083 148.109 142.707L136.447 167.41C136.297 167.724 136.036 167.948 135.734 168.054L135.735 168.058Z" fill="#6AE5DF"/>
<path d="M106.723 151.149L105.282 151.656L103.336 146.124L101.518 146.764L101.097 145.566L106.177 143.779L106.598 144.976L104.781 145.616L106.727 151.148L106.723 151.149Z" fill="#6666FF"/>
<path d="M109.217 142.713C109.806 142.506 110.323 142.408 110.763 142.417C111.204 142.429 111.571 142.543 111.865 142.765C112.16 142.988 112.381 143.316 112.533 143.748C112.64 144.051 112.679 144.337 112.654 144.606C112.63 144.875 112.555 145.126 112.431 145.351C112.308 145.579 112.147 145.786 111.953 145.973L114.909 148.269L113.26 148.849L110.852 146.793L110.051 147.075L110.96 149.658L109.519 150.165L107.151 143.436L109.216 142.709L109.217 142.713ZM109.584 143.842L108.991 144.051L109.664 145.963L110.256 145.754C110.641 145.619 110.908 145.436 111.061 145.206C111.214 144.976 111.225 144.681 111.099 144.324C111.028 144.123 110.926 143.97 110.798 143.869C110.664 143.766 110.5 143.714 110.299 143.705C110.097 143.697 109.862 143.744 109.584 143.842Z" fill="#6666FF"/>
<path d="M119.868 146.524L118.793 145.124L116.418 145.96L116.456 147.724L114.901 148.271L114.887 140.683L116.658 140.06L121.419 145.978L119.864 146.525L119.868 146.524ZM117.054 142.74C116.997 142.654 116.908 142.527 116.787 142.357C116.666 142.188 116.547 142.014 116.426 141.832C116.304 141.649 116.208 141.502 116.133 141.388C116.16 141.541 116.179 141.72 116.198 141.925C116.217 142.13 116.234 142.327 116.253 142.519C116.272 142.711 116.284 142.87 116.295 143.003L116.33 144.632L118.034 144.032L117.049 142.738L117.054 142.74Z" fill="#6666FF"/>
<path d="M126.588 140.255C126.86 141.028 126.941 141.723 126.836 142.338C126.726 142.955 126.458 143.486 126.022 143.926C125.587 144.37 125.007 144.716 124.277 144.973L122.224 145.695L119.856 138.966L122.078 138.184C122.789 137.934 123.437 137.847 124.023 137.919C124.609 137.991 125.122 138.22 125.56 138.613C125.997 139.002 126.339 139.548 126.588 140.255ZM125.1 140.84C124.93 140.357 124.718 139.982 124.466 139.717C124.214 139.453 123.919 139.292 123.583 139.238C123.246 139.185 122.869 139.229 122.457 139.374L121.711 139.637L123.246 143.999L123.85 143.786C124.541 143.543 124.987 143.179 125.189 142.688C125.393 142.202 125.361 141.582 125.098 140.836L125.1 140.84Z" fill="#6666FF"/>
<path d="M133.04 141.889L129.169 143.251L126.801 136.522L130.672 135.16L131.084 136.33L128.634 137.192L129.155 138.672L131.436 137.869L131.848 139.039L129.566 139.842L130.177 141.577L132.627 140.715L133.041 141.893L133.04 141.889Z" fill="#6666FF"/>
<path d="M141.786 135.021C141.97 135.543 142.073 136.037 142.093 136.506C142.112 136.976 142.048 137.409 141.895 137.811C141.743 138.209 141.492 138.562 141.15 138.868C140.807 139.173 140.356 139.421 139.802 139.615C139.249 139.81 138.753 139.892 138.288 139.875C137.825 139.852 137.409 139.734 137.042 139.519C136.675 139.304 136.349 139.004 136.07 138.625C135.791 138.247 135.561 137.794 135.375 137.264C135.129 136.565 135.03 135.92 135.081 135.325C135.127 134.73 135.34 134.205 135.714 133.752C136.088 133.298 136.643 132.944 137.377 132.685C138.112 132.427 138.758 132.358 139.334 132.478C139.91 132.597 140.4 132.875 140.81 133.313C141.22 133.751 141.544 134.321 141.789 135.016L141.786 135.021ZM136.894 136.743C137.057 137.206 137.259 137.59 137.491 137.887C137.728 138.183 138 138.379 138.314 138.471C138.629 138.563 138.982 138.536 139.37 138.4C139.759 138.263 140.065 138.054 140.25 137.79C140.434 137.522 140.523 137.2 140.518 136.822C140.513 136.444 140.426 136.021 140.263 135.557C140.016 134.854 139.691 134.346 139.295 134.036C138.895 133.727 138.395 133.673 137.791 133.886C137.394 134.025 137.104 134.229 136.918 134.502C136.73 134.771 136.637 135.095 136.642 135.473C136.643 135.852 136.729 136.271 136.894 136.743Z" fill="#6666FF"/>
<path d="M145.753 137.416L144.347 137.911L141.979 131.181L145.835 129.825L146.247 130.995L143.797 131.857L144.407 133.592L146.688 132.789L147.1 133.959L144.819 134.762L145.754 137.42L145.753 137.416Z" fill="#6666FF"/>
<path d="M150.924 135.597L149.518 136.091L147.15 129.362L151.006 128.005L151.417 129.175L148.967 130.037L149.578 131.773L151.859 130.97L152.271 132.14L149.99 132.943L150.925 135.601L150.924 135.597Z" fill="#6666FF"/>
</g>
<defs>
<clipPath id="clip0_34_4216">
<rect width="84.648" height="84.648" fill="white" transform="translate(225.307 229.834) rotate(-10.1491)"/>
</clipPath>
<clipPath id="clip1_34_4216">
<rect width="115.292" height="115.292" fill="white" transform="translate(338.828 165.326) rotate(21.6266)"/>
</clipPath>
<clipPath id="clip2_34_4216">
<rect width="55.6433" height="18.1898" fill="white" transform="translate(306.013 144.491) rotate(-17.5099)"/>
</clipPath>
<clipPath id="clip3_34_4216">
<rect width="55.8724" height="22.8161" fill="white" transform="translate(347.914 34.2583) rotate(-20.1625)"/>
</clipPath>
<clipPath id="clip4_34_4216">
<rect width="108.977" height="108.977" fill="white" transform="translate(97.1604 192.75) rotate(17.5452)"/>
</clipPath>
<clipPath id="clip5_34_4216">
<rect width="36.6754" height="45.9234" fill="white" transform="translate(81.2439 87.3403) rotate(120.91)"/>
</clipPath>
<clipPath id="clip6_34_4216">
<rect width="76.6779" height="63.8324" fill="white" transform="translate(185.079 177.736) rotate(-17.5062)"/>
</clipPath>
<clipPath id="clip7_34_4216">
<rect width="27.9112" height="27.9112" fill="white" transform="translate(329.777 96.7583) rotate(-14.7892)"/>
</clipPath>
<clipPath id="clip8_34_4216">
<rect width="74.9934" height="74.9934" fill="white" transform="translate(86.8289 118.807) rotate(76.1851)"/>
</clipPath>
<clipPath id="clip9_34_4216">
<rect width="81.2936" height="83.2914" fill="white" transform="translate(75.728 113.419) rotate(-19.3852)"/>
</clipPath>
</defs>
</svg>
