<svg width="1537" height="905" viewBox="0 0 1537 905" fill="none" xmlns="http://www.w3.org/2000/svg">
<g clip-path="url(#clip0_34_987)">
<rect width="1536.14" height="904.19" fill="white"/>
<g clip-path="url(#clip1_34_987)">
<path d="M1210.81 59.2319C1207.26 58.0007 1203.38 59.879 1202.15 63.4273C1200.92 66.9756 1202.8 70.8502 1206.35 72.0814L1236.26 82.4561C1239.81 83.6874 1243.68 81.809 1244.92 78.2607C1246.15 74.7125 1244.27 70.8379 1240.72 69.6066L1210.81 59.2319Z" fill="#6666FF"/>
<path d="M1191.51 82.7382C1206.78 75.3306 1213.16 56.942 1205.75 41.6659C1198.34 26.3898 1179.96 20.0111 1164.68 27.4186C1149.4 34.8261 1143.03 53.2148 1150.43 68.4909C1157.84 83.7669 1176.23 90.1457 1191.51 82.7382Z" fill="#F1F2F2"/>
<path d="M1154.03 46.7309C1158.63 33.4623 1173.17 26.4114 1186.44 31.014C1199.71 35.6167 1206.76 50.1574 1202.16 63.4259C1197.55 76.6945 1183.01 83.7454 1169.75 79.1428C1156.48 74.5401 1149.43 59.9994 1154.03 46.7309ZM1149.05 45.0028C1143.48 61.0397 1151.98 78.5535 1168.01 84.1205C1184.05 89.6834 1201.57 81.1908 1207.13 65.1519C1212.7 49.115 1204.2 31.6012 1188.16 26.0342C1172.13 20.4713 1154.61 28.9639 1149.05 45.0028Z" fill="#6AE5DF"/>
<path d="M1149.05 45.0028C1154.61 28.9659 1172.12 20.4733 1188.16 26.0343C1204.2 31.5972 1212.69 49.111 1207.13 65.152C1201.57 81.1889 1184.06 89.6815 1168.02 84.1205C1151.98 78.5576 1143.49 61.0438 1149.05 45.0028ZM1144.07 43.2768C1137.56 62.0338 1147.53 82.5898 1166.29 89.1003C1185.05 95.6068 1205.6 85.639 1212.11 66.8801C1218.62 48.1231 1208.65 27.5672 1189.89 21.0566C1171.14 14.5501 1150.58 24.5179 1144.07 43.2768Z" fill="#6666FF"/>
</g>
<g clip-path="url(#clip2_34_987)">
<path d="M1396.55 376.441C1448.42 367.156 1482.94 317.579 1473.65 265.709C1464.37 213.838 1414.79 179.316 1362.92 188.602C1311.05 197.887 1276.53 247.464 1285.81 299.334C1295.1 351.205 1344.67 385.727 1396.55 376.441Z" fill="#6AE5DF"/>
<path d="M1394.32 364.016C1349.39 372.059 1306.28 342.05 1298.24 297.11C1290.19 252.169 1320.21 209.071 1365.14 201.027C1410.08 192.984 1453.18 222.992 1461.23 267.933C1469.27 312.874 1439.26 355.971 1394.32 364.016ZM1369.56 225.719C1338.24 231.326 1317.32 261.368 1322.93 292.69C1328.54 324.012 1358.58 344.931 1389.9 339.324C1421.22 333.717 1442.14 303.675 1436.54 272.353C1430.93 241.031 1400.89 220.112 1369.56 225.719Z" fill="#F1F2F2"/>
<path d="M1364.05 268.861L1369.11 251.04C1370.44 246.373 1376.6 245.337 1379.37 249.329L1389.95 264.544L1408.47 263.856C1413.32 263.676 1416.2 269.218 1413.26 273.089L1402.06 287.849L1408.43 305.242C1410.1 309.799 1405.72 314.257 1401.13 312.655L1383.63 306.56L1369.05 318C1365.24 320.999 1359.65 318.21 1359.75 313.355L1360.14 294.83L1344.76 284.508C1340.72 281.798 1341.65 275.622 1346.3 274.219L1364.04 268.863L1364.05 268.861Z" fill="#6666FF"/>
<path d="M1318.54 233.613C1320.13 231.651 1321.57 230.453 1322.87 230.026C1324.17 229.6 1325.43 229.878 1326.65 230.861C1327.25 231.345 1327.69 231.878 1327.94 232.442C1328.2 233.017 1328.31 233.588 1328.28 234.175C1328.25 234.762 1328.11 235.311 1327.84 235.824L1327.94 235.903C1328.42 235.508 1328.94 235.201 1329.53 234.96C1330.12 234.729 1330.74 234.655 1331.41 234.759C1332.08 234.862 1332.79 235.21 1333.54 235.812C1334.41 236.509 1334.98 237.328 1335.26 238.258C1335.53 239.188 1335.52 240.178 1335.22 241.222C1334.91 242.265 1334.32 243.341 1333.44 244.438L1329.12 249.795L1314.8 238.246L1318.54 233.613ZM1324.41 238.077C1325.12 237.193 1325.44 236.457 1325.4 235.865C1325.35 235.272 1325.05 234.763 1324.53 234.342C1323.99 233.897 1323.42 233.775 1322.85 233.956C1322.27 234.137 1321.63 234.658 1320.94 235.518L1319.67 237.103L1323.02 239.808L1324.41 238.087L1324.41 238.077ZM1325.32 241.665L1329.17 244.765L1330.74 242.817C1331.47 241.911 1331.8 241.126 1331.72 240.481C1331.64 239.826 1331.31 239.275 1330.73 238.806C1330.37 238.512 1329.99 238.338 1329.59 238.265C1329.19 238.191 1328.75 238.27 1328.28 238.498C1327.82 238.727 1327.33 239.164 1326.81 239.809L1325.32 241.655L1325.32 241.665Z" fill="#6666FF"/>
<path d="M1348.09 223.631C1348.81 224.675 1349.24 225.781 1349.36 226.932C1349.48 228.093 1349.25 229.23 1348.66 230.362C1348.08 231.484 1347.08 232.546 1345.66 233.516C1343.66 234.902 1341.78 235.452 1340.02 235.146C1338.27 234.849 1336.81 233.861 1335.64 232.179L1328.9 222.434L1332.1 220.223L1338.5 229.477C1339.36 230.718 1340.23 231.417 1341.08 231.574C1341.94 231.73 1342.87 231.467 1343.87 230.764C1344.58 230.279 1345.07 229.756 1345.34 229.213C1345.61 228.67 1345.67 228.078 1345.52 227.425C1345.38 226.773 1345.03 226.059 1344.5 225.282L1338.1 216.046L1341.3 213.835L1348.08 223.624L1348.09 223.631Z" fill="#6666FF"/>
<path d="M1366.3 213.887C1366.94 215.904 1367.11 217.697 1366.78 219.277C1366.46 220.856 1365.73 222.2 1364.57 223.309C1363.42 224.416 1361.89 225.27 1360 225.881L1354.65 227.594L1349.04 210.075L1354.84 208.223C1356.69 207.63 1358.36 207.447 1359.87 207.681C1361.38 207.916 1362.68 208.545 1363.78 209.579C1364.87 210.614 1365.72 212.052 1366.3 213.887ZM1362.42 215.288C1362.02 214.032 1361.5 213.05 1360.87 212.349C1360.24 211.647 1359.5 211.218 1358.63 211.053C1357.77 210.888 1356.8 210.975 1355.71 211.323L1353.78 211.941L1357.42 223.299L1358.99 222.795C1360.79 222.221 1361.97 221.311 1362.52 220.069C1363.08 218.826 1363.05 217.231 1362.42 215.288Z" fill="#6666FF"/>
<path d="M1378.53 212.231L1385.82 212.109L1385.97 221.638C1385.01 221.984 1384.02 222.25 1382.98 222.465C1381.94 222.67 1380.77 222.783 1379.44 222.807C1377.63 222.832 1376.06 222.501 1374.78 221.801C1373.49 221.101 1372.5 220.057 1371.81 218.658C1371.12 217.259 1370.76 215.53 1370.74 213.471C1370.7 211.548 1371.05 209.876 1371.78 208.457C1372.5 207.038 1373.57 205.926 1374.98 205.131C1376.39 204.336 1378.13 203.918 1380.19 203.889C1381.16 203.869 1382.13 203.958 1383.07 204.148C1384.02 204.337 1384.89 204.598 1385.66 204.924L1384.42 208.064C1383.85 207.779 1383.21 207.555 1382.48 207.375C1381.76 207.194 1381 207.117 1380.2 207.133C1379.07 207.151 1378.09 207.423 1377.27 207.959C1376.44 208.485 1375.81 209.228 1375.38 210.168C1374.94 211.11 1374.73 212.223 1374.75 213.489C1374.77 214.687 1374.95 215.75 1375.29 216.677C1375.63 217.596 1376.16 218.316 1376.88 218.826C1377.59 219.339 1378.52 219.58 1379.65 219.571C1380.2 219.56 1380.67 219.525 1381.06 219.474C1381.44 219.415 1381.8 219.342 1382.13 219.283L1382.06 215.447L1378.58 215.507L1378.52 212.261L1378.53 212.231Z" fill="#6666FF"/>
<path d="M1399.5 225.633L1389.21 223.113L1393.58 205.251L1403.86 207.773L1403.1 210.876L1396.59 209.288L1395.63 213.211L1401.68 214.697L1400.92 217.799L1394.87 216.314L1393.74 220.916L1400.25 222.504L1399.48 225.636L1399.5 225.633Z" fill="#6666FF"/>
<path d="M1408.53 229.891L1405.01 228.116L1411.82 214.616L1407.38 212.378L1408.86 209.458L1421.26 215.709L1419.78 218.629L1415.34 216.391L1408.53 229.891Z" fill="#6666FF"/>
<path d="M1419 351.398L1411.17 334.101L1414.63 331.33L1422.61 337.316C1422.77 337.434 1423 337.616 1423.29 337.864C1423.59 338.111 1423.91 338.383 1424.27 338.668C1424.62 338.954 1424.95 339.234 1425.25 339.509C1425.57 339.783 1425.8 339.994 1425.96 340.149C1425.84 339.966 1425.67 339.686 1425.48 339.323C1425.29 338.96 1425.09 338.579 1424.88 338.19C1424.68 337.791 1424.48 337.418 1424.31 337.061C1424.14 336.704 1424.01 336.428 1423.92 336.239L1419.84 327.17L1423.3 324.399L1438.45 335.829L1435.45 338.228L1427.33 331.848C1427.1 331.658 1426.81 331.427 1426.48 331.157C1426.15 330.886 1425.81 330.589 1425.47 330.292C1425.11 329.987 1424.78 329.698 1424.45 329.409C1424.11 329.119 1423.84 328.867 1423.62 328.645C1423.8 328.924 1423.99 329.248 1424.2 329.617C1424.41 329.986 1424.62 330.376 1424.82 330.766C1425.03 331.165 1425.22 331.537 1425.4 331.884C1425.58 332.23 1425.72 332.515 1425.81 332.732L1430.15 342.451L1427.28 344.749L1418.75 338.376C1418.57 338.234 1418.33 338.034 1418.02 337.79C1417.71 337.545 1417.38 337.274 1417.04 336.977C1416.69 336.68 1416.36 336.391 1416.05 336.107C1415.74 335.824 1415.47 335.571 1415.24 335.35C1415.47 335.716 1415.73 336.164 1416.02 336.694C1416.31 337.224 1416.59 337.756 1416.86 338.308C1417.13 338.86 1417.36 339.314 1417.54 339.678L1421.99 348.992L1418.99 351.39L1419 351.398Z" fill="#6666FF"/>
<path d="M1399.45 339.242L1407.15 335.945L1408.02 337.98L1406.37 339.807L1411.06 350.745L1413.52 350.808L1414.39 352.843L1406.69 356.14L1405.83 354.105L1407.48 352.278L1402.79 341.341L1400.32 341.278L1399.45 339.242Z" fill="#6666FF"/>
<path d="M1387.77 347.314C1387.55 346.259 1387.59 345.281 1387.95 344.375C1388.29 343.47 1388.91 342.701 1389.8 342.056C1390.68 341.413 1391.84 340.935 1393.25 340.625C1393.87 340.484 1394.48 340.403 1395.1 340.352C1395.71 340.301 1396.31 340.3 1396.89 340.341C1397.47 340.383 1398.02 340.467 1398.56 340.594L1399.34 344.138C1398.41 343.956 1397.44 343.809 1396.46 343.704C1395.48 343.598 1394.53 343.642 1393.63 343.843C1393.01 343.982 1392.52 344.176 1392.19 344.42C1391.85 344.675 1391.62 344.958 1391.51 345.278C1391.39 345.6 1391.38 345.951 1391.46 346.314C1391.56 346.771 1391.8 347.116 1392.18 347.367C1392.57 347.619 1393.04 347.825 1393.62 347.992C1394.2 348.15 1394.87 348.322 1395.6 348.49C1396.07 348.601 1396.58 348.742 1397.12 348.907C1397.67 349.081 1398.21 349.322 1398.74 349.634C1399.28 349.946 1399.76 350.364 1400.17 350.891C1400.59 351.418 1400.88 352.092 1401.07 352.911C1401.31 353.983 1401.26 354.961 1400.93 355.834C1400.6 356.707 1400.03 357.45 1399.2 358.043C1398.38 358.646 1397.34 359.083 1396.11 359.363C1395.16 359.571 1394.25 359.657 1393.35 359.624C1392.45 359.591 1391.5 359.48 1390.49 359.283L1391.07 356.038C1391.96 356.189 1392.76 356.288 1393.46 356.328C1394.15 356.369 1394.84 356.313 1395.53 356.161C1396 356.058 1396.39 355.892 1396.69 355.671C1396.99 355.443 1397.21 355.182 1397.33 354.87C1397.45 354.558 1397.46 354.225 1397.38 353.853C1397.28 353.434 1397.08 353.102 1396.76 352.867C1396.45 352.633 1396.01 352.431 1395.45 352.27C1394.88 352.109 1394.18 351.933 1393.35 351.724C1392.33 351.49 1391.45 351.212 1390.7 350.88C1389.95 350.549 1389.33 350.108 1388.83 349.547C1388.34 348.985 1387.99 348.235 1387.78 347.303L1387.77 347.314Z" fill="#6666FF"/>
<path d="M1373.66 342.377L1384.25 342.459L1384.11 360.852L1373.52 360.77L1373.54 357.577L1380.24 357.629L1380.27 353.581L1374.04 353.534L1374.06 350.341L1380.29 350.389L1380.32 345.653L1373.63 345.601L1373.65 342.379L1373.66 342.377Z" fill="#6666FF"/>
<path d="M1370.93 341.974L1366.72 359.874L1362.89 358.971L1366.35 344.228L1359.11 342.52L1359.85 339.363L1370.93 341.974Z" fill="#6666FF"/>
<path d="M1348.66 345.893L1341.88 351.149L1338.03 349.269L1348.43 341.853L1351.58 335.424L1355.14 337.171L1352.05 343.493L1352.51 356.369L1348.67 354.489L1348.65 345.904L1348.66 345.893Z" fill="#6666FF"/>
</g>
<g clip-path="url(#clip3_34_987)">
<path d="M1445.14 400.423L1304.83 317.9C1298.16 313.973 1289.56 316.202 1285.63 322.879L1203.11 463.183C1199.18 469.86 1201.41 478.456 1208.09 482.383L1348.39 564.907C1355.07 568.834 1363.67 566.605 1367.59 559.928L1450.12 419.624C1454.04 412.947 1451.82 404.35 1445.14 400.423Z" fill="#6666FF"/>
<path d="M1343.76 548.698L1224.64 478.635C1224.2 478.374 1223.92 477.91 1223.89 477.395C1223.87 476.884 1224.1 476.391 1224.51 476.09C1225.64 475.273 1226.57 474.246 1227.27 473.045C1230.09 468.25 1228.48 462.067 1223.7 459.252C1222.97 458.827 1222.73 457.894 1223.16 457.162L1289.89 343.71C1290.31 342.986 1291.24 342.738 1291.98 343.168C1296.76 345.983 1302.95 344.378 1305.77 339.592C1306.19 338.868 1307.13 338.619 1307.86 339.05L1425.31 408.13C1426.03 408.556 1426.28 409.488 1425.85 410.22C1423.03 415.007 1424.64 421.198 1429.43 424.013C1430.15 424.439 1430.4 425.371 1429.97 426.103L1363.24 539.547C1362.82 540.271 1361.89 540.519 1361.15 540.089C1356.37 537.274 1350.18 538.879 1347.36 543.665C1346.65 544.866 1346.21 546.179 1346.04 547.562C1345.99 548.071 1345.67 548.516 1345.21 548.741C1344.75 548.971 1344.2 548.946 1343.76 548.685L1343.76 548.698ZM1228.01 477.085L1343.48 545C1343.77 544.003 1344.2 543.035 1344.74 542.122C1348.15 536.324 1355.34 534.111 1361.35 536.77L1426.62 425.793C1421.78 422.141 1420.09 415.576 1422.53 410.028L1307.56 342.404C1303.9 347.24 1297.34 348.935 1291.79 346.492L1226.52 457.46C1231.77 461.419 1233.32 468.787 1229.92 474.577C1229.38 475.489 1228.74 476.323 1228.01 477.077L1228.01 477.085Z" fill="#6AE5DF"/>
<path d="M1293.3 336.629C1295.77 338.085 1298.96 337.259 1300.42 334.783C1301.87 332.308 1301.05 329.121 1298.57 327.665C1296.1 326.209 1292.91 327.035 1291.45 329.51C1290 331.986 1290.82 335.173 1293.3 336.629Z" fill="#6AE5DF"/>
<path d="M1213.58 472.163C1216.06 473.619 1219.24 472.793 1220.7 470.317C1222.15 467.842 1221.33 464.655 1218.85 463.199C1216.38 461.743 1213.19 462.569 1211.73 465.045C1210.28 467.52 1211.1 470.707 1213.58 472.163Z" fill="#6AE5DF"/>
<path d="M1434.38 419.607C1436.85 421.063 1440.04 420.237 1441.49 417.761C1442.95 415.286 1442.12 412.099 1439.65 410.643C1437.17 409.187 1433.99 410.013 1432.53 412.489C1431.07 414.964 1431.9 418.151 1434.38 419.607Z" fill="#6AE5DF"/>
<path d="M1354.66 555.141C1357.13 556.597 1360.32 555.771 1361.78 553.295C1363.23 550.82 1362.41 547.633 1359.93 546.177C1357.45 544.721 1354.27 545.547 1352.81 548.023C1351.36 550.498 1352.18 553.685 1354.66 555.141Z" fill="#6AE5DF"/>
<path d="M1277.34 401.671L1289.01 381.818L1297.59 386.863L1295.84 389.832L1291.65 387.365L1288.71 392.365L1292.36 394.513L1290.56 397.572L1286.91 395.425L1281.72 404.249L1277.34 401.671Z" fill="white"/>
<path d="M1288.61 408.303L1300.29 388.45L1304.67 391.028L1292.99 410.881L1288.61 408.303Z" fill="white"/>
<path d="M1296.57 412.985L1308.25 393.132L1311.33 394.946L1309.78 406.897L1315.4 397.34L1319.03 399.473L1307.35 419.327L1304.39 417.585L1306.37 404.902L1300.32 415.191L1296.57 412.985Z" fill="white"/>
<path d="M1309.98 420.87L1325.41 403.222L1330.41 406.163L1322.43 428.193L1318.38 425.813L1320.19 421.232L1317.27 419.515L1314.12 423.308L1309.98 420.87ZM1319.21 417.124L1321.32 418.362L1324.82 409.996L1319.21 417.124Z" fill="white"/>
<path d="M1325.05 429.736L1336.73 409.883L1339.81 411.697L1338.26 423.648L1343.88 414.092L1347.51 416.225L1335.83 436.078L1332.87 434.337L1334.85 421.654L1328.8 431.942L1325.05 429.736Z" fill="white"/>
<path d="M1344.93 441.813C1343.42 440.928 1342.4 439.96 1341.84 438.891C1341.29 437.827 1341.13 436.7 1341.34 435.5C1341.56 434.3 1342.07 433.026 1342.86 431.685L1347.07 424.53C1347.87 423.157 1348.75 422.087 1349.69 421.305C1350.64 420.531 1351.7 420.129 1352.89 420.099C1354.08 420.069 1355.43 420.507 1356.94 421.392C1358.44 422.277 1359.41 423.169 1359.96 424.143C1360.49 425.112 1360.68 426.13 1360.52 427.196C1360.36 428.263 1359.94 429.36 1359.28 430.495L1358.26 432.213L1353.98 429.693L1355.15 427.711C1355.38 427.316 1355.58 426.937 1355.75 426.551C1355.92 426.165 1355.98 425.801 1355.92 425.446C1355.87 425.092 1355.6 424.778 1355.13 424.502C1354.66 424.227 1354.26 424.157 1353.89 424.273C1353.52 424.389 1353.21 424.611 1352.93 424.947C1352.66 425.283 1352.4 425.655 1352.16 426.067L1346.67 435.401C1346.41 435.845 1346.21 436.267 1346.06 436.681C1345.92 437.095 1345.9 437.47 1345.99 437.822C1346.08 438.175 1346.34 438.47 1346.77 438.722C1347.23 438.993 1347.61 439.066 1347.95 438.944C1348.29 438.822 1348.59 438.59 1348.86 438.241C1349.14 437.891 1349.38 437.527 1349.62 437.133L1350.84 435.052L1355.12 437.572L1354.11 439.291C1353.45 440.418 1352.69 441.333 1351.83 442.023C1350.97 442.712 1349.98 443.081 1348.85 443.102C1347.72 443.137 1346.41 442.71 1344.92 441.834L1344.93 441.813Z" fill="white"/>
<path d="M1353.84 446.667L1365.51 426.814L1369.9 429.392L1358.22 449.245L1353.84 446.667Z" fill="white"/>
<path d="M1360.85 450.793L1376.28 433.146L1381.28 436.087L1373.3 458.117L1369.26 455.737L1371.07 451.155L1368.15 449.438L1365 453.231L1360.85 450.793ZM1370.08 447.042L1372.18 448.28L1375.69 439.914L1370.08 447.042Z" fill="white"/>
<path d="M1375.92 459.655L1387.6 439.802L1391.98 442.38L1382.05 459.264L1386.6 461.944L1384.86 464.913L1375.91 459.65L1375.92 459.655Z" fill="white"/>
<path d="M1260.04 431.072L1271.72 411.227L1276.1 413.806L1266.17 430.69L1270.72 433.37L1268.98 436.339L1260.03 431.076L1260.04 431.072Z" fill="white"/>
<path d="M1271.54 437.835L1283.21 417.99L1287.6 420.568L1275.92 440.413L1271.54 437.835Z" fill="white"/>
<path d="M1281.29 443.571L1291.05 426.983L1288.06 425.223L1289.97 421.966L1300.34 428.061L1298.42 431.318L1295.45 429.571L1285.69 446.159L1281.29 443.567L1281.29 443.571Z" fill="white"/>
<path d="M1291.01 449.289L1302.69 429.444L1311.61 434.693L1309.85 437.678L1305.32 435.013L1302.43 439.939L1305.88 441.971L1304.09 445.005L1300.64 442.974L1297.15 448.903L1301.73 451.598L1299.99 454.567L1291.01 449.289Z" fill="white"/>
<path d="M1302.59 456.095L1314.26 436.25L1319.72 439.462C1321.06 440.251 1322.13 441.081 1322.94 441.953C1323.74 442.824 1324.2 443.801 1324.3 444.881C1324.41 445.962 1324.05 447.199 1323.23 448.589C1322.75 449.403 1322.25 450.096 1321.75 450.652C1321.25 451.208 1320.68 451.619 1320.05 451.88C1319.42 452.14 1318.7 452.232 1317.86 452.162L1314.93 463.369L1310.4 460.704L1313.46 450.523L1312.21 449.788L1306.97 458.687L1302.59 456.108L1302.59 456.095ZM1313.68 447.259L1314.91 447.979C1315.53 448.342 1316.07 448.521 1316.55 448.502C1317.03 448.483 1317.45 448.302 1317.84 447.973C1318.22 447.636 1318.58 447.173 1318.93 446.589C1319.42 445.742 1319.66 444.984 1319.62 444.331C1319.59 443.679 1319.16 443.107 1318.32 442.613L1316.9 441.776L1313.67 447.262L1313.68 447.259Z" fill="white"/>
<path d="M1316.95 464.541L1332.37 446.902L1337.37 449.843L1329.4 471.865L1325.35 469.485L1327.16 464.912L1324.24 463.195L1321.09 466.979L1316.95 464.541ZM1326.17 460.803L1328.28 462.042L1331.78 453.675L1326.17 460.803Z" fill="white"/>
<path d="M1337.21 476.858C1335.7 475.973 1334.68 475.005 1334.12 473.936C1333.58 472.872 1333.41 471.745 1333.63 470.545C1333.85 469.345 1334.35 468.071 1335.14 466.73L1339.35 459.575C1340.16 458.202 1341.03 457.132 1341.98 456.35C1342.92 455.576 1343.99 455.174 1345.18 455.144C1346.37 455.114 1347.71 455.552 1349.22 456.437C1350.72 457.322 1351.69 458.214 1352.24 459.188C1352.79 460.162 1352.96 461.174 1352.8 462.241C1352.64 463.308 1352.23 464.405 1351.56 465.54L1350.55 467.258L1346.26 464.738L1347.43 462.756C1347.66 462.361 1347.86 461.982 1348.03 461.596C1348.21 461.21 1348.26 460.846 1348.21 460.491C1348.15 460.137 1347.88 459.823 1347.41 459.547C1346.94 459.272 1346.54 459.202 1346.17 459.318C1345.81 459.434 1345.49 459.656 1345.21 459.992C1344.94 460.328 1344.69 460.7 1344.44 461.112L1338.95 470.446C1338.69 470.89 1338.49 471.312 1338.35 471.718C1338.21 472.123 1338.19 472.506 1338.28 472.859C1338.37 473.212 1338.63 473.507 1339.05 473.759C1339.51 474.03 1339.9 474.103 1340.24 473.981C1340.58 473.858 1340.88 473.627 1341.15 473.277C1341.42 472.928 1341.67 472.564 1341.9 472.169L1343.13 470.089L1347.41 472.609L1346.4 474.328C1345.74 475.454 1344.98 476.369 1344.12 477.059C1343.26 477.749 1342.27 478.118 1341.14 478.139C1340.01 478.16 1338.7 477.746 1337.21 476.871L1337.21 476.858Z" fill="white"/>
<path d="M1348.51 483.107L1353.28 474.998L1356.41 461.042L1360.55 463.479L1358.74 470.862L1364.13 465.584L1368.1 467.92L1357.5 477.479L1352.73 485.588L1348.52 483.112L1348.51 483.107Z" fill="white"/>
<path d="M1368.63 479.709L1373.28 474.286C1373.53 473.991 1374.01 474.272 1373.87 474.634L1371.39 481.334C1371.35 481.464 1371.37 481.611 1371.47 481.703L1375.1 485.286C1375.36 485.539 1375.11 485.975 1374.76 485.87L1369.86 484.442C1369.73 484.407 1369.59 484.444 1369.5 484.55L1364.85 489.972C1364.6 490.268 1364.12 489.987 1364.26 489.624L1366.74 482.924C1366.78 482.795 1366.76 482.648 1366.66 482.555L1363.03 478.972C1362.77 478.719 1363.03 478.283 1363.37 478.388L1368.27 479.817C1368.4 479.852 1368.54 479.814 1368.63 479.709Z" fill="white"/>
</g>
<g clip-path="url(#clip4_34_987)">
<path d="M1309.68 641.492L1197.29 677.034C1182.22 681.8 1173.85 697.885 1178.59 712.959C1183.33 728.034 1199.4 736.39 1214.47 731.623L1326.86 696.081C1341.93 691.315 1350.3 675.231 1345.56 660.156C1340.81 645.082 1324.75 636.726 1309.68 641.492Z" fill="#6666FF"/>
<path d="M1205.31 712.737L1198.79 714.799L1198.24 713.07L1199.73 711.717L1196.82 702.449L1194.82 702.199L1194.28 700.471L1200.8 698.409L1201.34 700.137L1199.85 701.49L1202.76 710.758L1204.76 711.008L1205.31 712.737Z" fill="#F1F2F2"/>
<path d="M1220.45 707.947L1216.6 709.164L1206.96 700.307L1206.87 700.333C1207.04 700.776 1207.21 701.228 1207.37 701.673C1207.53 702.119 1207.7 702.57 1207.85 703.016C1208.01 703.461 1208.17 703.915 1208.33 704.361L1210.45 711.099L1207.75 711.954L1203.24 697.635L1207.07 696.423L1216.67 705.185L1216.73 705.167C1216.57 704.729 1216.43 704.29 1216.27 703.861C1216.12 703.423 1215.96 702.995 1215.81 702.566C1215.66 702.137 1215.5 701.708 1215.35 701.271L1213.21 694.491L1215.94 693.627L1220.45 707.947Z" fill="#F1F2F2"/>
<path d="M1231.24 700.163C1231.51 701.006 1231.53 701.807 1231.32 702.563C1231.1 703.321 1230.66 703.993 1229.98 704.583C1229.31 705.174 1228.41 705.642 1227.29 705.995C1226.8 706.151 1226.3 706.271 1225.8 706.355C1225.31 706.438 1224.83 706.481 1224.35 706.493C1223.88 706.505 1223.42 706.476 1222.97 706.416L1222.08 703.585C1222.85 703.661 1223.64 703.715 1224.45 703.727C1225.25 703.748 1226.02 703.644 1226.74 703.414C1227.23 703.258 1227.61 703.065 1227.87 702.836C1228.13 702.607 1228.29 702.355 1228.36 702.085C1228.43 701.814 1228.42 701.535 1228.32 701.234C1228.21 700.875 1227.99 700.606 1227.67 700.432C1227.34 700.26 1226.94 700.121 1226.45 700.036C1225.96 699.951 1225.41 699.859 1224.8 699.778C1224.42 699.725 1224 699.646 1223.54 699.553C1223.08 699.458 1222.62 699.301 1222.16 699.078C1221.71 698.863 1221.29 698.555 1220.92 698.158C1220.55 697.762 1220.26 697.24 1220.05 696.58C1219.78 695.728 1219.75 694.93 1219.95 694.197C1220.15 693.463 1220.56 692.819 1221.2 692.269C1221.82 691.722 1222.63 691.283 1223.62 690.969C1224.38 690.731 1225.11 690.59 1225.84 690.552C1226.57 690.513 1227.35 690.534 1228.19 690.627L1227.95 693.301C1227.21 693.24 1226.55 693.219 1225.99 693.241C1225.43 693.254 1224.86 693.359 1224.32 693.531C1223.94 693.649 1223.65 693.808 1223.42 694.018C1223.19 694.219 1223.04 694.45 1222.97 694.712C1222.89 694.974 1222.9 695.245 1223 695.537C1223.1 695.871 1223.29 696.124 1223.57 696.294C1223.84 696.464 1224.21 696.595 1224.68 696.677C1225.14 696.759 1225.73 696.859 1226.42 696.961C1227.26 697.08 1228 697.241 1228.64 697.453C1229.27 697.665 1229.81 697.983 1230.25 698.394C1230.69 698.806 1231.02 699.398 1231.26 700.149L1231.24 700.163Z" fill="#F1F2F2"/>
<path d="M1234.99 687.605C1236.83 687.022 1238.31 686.976 1239.44 687.464C1240.57 687.952 1241.34 688.9 1241.78 690.303C1241.98 690.929 1242.08 691.56 1242.07 692.196C1242.06 692.831 1241.91 693.449 1241.62 694.045C1241.33 694.642 1240.87 695.183 1240.25 695.672C1239.62 696.155 1238.8 696.563 1237.77 696.888L1236.47 697.3L1238.06 702.376L1235 703.345L1230.49 689.026L1234.99 687.605ZM1235.67 690.142L1234.35 690.559L1235.68 694.767L1236.7 694.445C1237.26 694.268 1237.72 694.048 1238.08 693.777C1238.45 693.506 1238.69 693.172 1238.81 692.777C1238.92 692.383 1238.9 691.912 1238.73 691.378C1238.53 690.735 1238.18 690.305 1237.67 690.079C1237.17 689.852 1236.5 689.881 1235.67 690.142Z" fill="#F1F2F2"/>
<path d="M1252.91 697.682L1246.39 699.744L1245.84 698.016L1247.34 696.663L1244.42 687.395L1242.42 687.145L1241.88 685.417L1248.4 683.355L1248.94 685.083L1247.45 686.436L1250.37 695.704L1252.36 695.954L1252.91 697.682Z" fill="#F1F2F2"/>
<path d="M1255.14 681.232C1256.39 680.836 1257.48 680.665 1258.42 680.71C1259.34 680.766 1260.1 681.029 1260.71 681.518C1261.31 682.006 1261.75 682.711 1262.04 683.63C1262.24 684.273 1262.31 684.877 1262.24 685.441C1262.17 686.005 1261.99 686.529 1261.71 686.992C1261.44 687.465 1261.09 687.888 1260.66 688.272L1266.72 693.304L1263.22 694.413L1258.3 689.928L1256.59 690.466L1258.32 695.96L1255.26 696.929L1250.75 682.61L1255.14 681.221L1255.14 681.232ZM1255.83 683.639L1254.57 684.037L1255.85 688.112L1257.11 687.713C1257.93 687.454 1258.51 687.089 1258.84 686.616C1259.18 686.142 1259.22 685.522 1258.98 684.762C1258.85 684.336 1258.65 684.006 1258.38 683.786C1258.11 683.56 1257.77 683.439 1257.35 683.407C1256.92 683.376 1256.43 683.459 1255.83 683.647L1255.83 683.639Z" fill="#F1F2F2"/>
<path d="M1277.28 689.976L1275.11 686.951L1270.06 688.548L1270.02 692.27L1266.72 693.315L1267.22 677.345L1270.99 676.155L1280.59 688.927L1277.28 689.973L1277.28 689.976ZM1271.62 681.823C1271.5 681.638 1271.32 681.367 1271.08 681C1270.84 680.636 1270.6 680.262 1270.36 679.87C1270.12 679.487 1269.93 679.163 1269.78 678.917C1269.82 679.241 1269.85 679.618 1269.88 680.051C1269.9 680.483 1269.92 680.908 1269.95 681.304C1269.97 681.709 1269.99 682.052 1270 682.324L1269.95 685.755L1273.59 684.606L1271.61 681.817L1271.62 681.823Z" fill="#F1F2F2"/>
<path d="M1286.49 687.061L1283.43 688.03L1279.72 676.257L1275.85 677.482L1275.05 674.936L1285.86 671.517L1286.66 674.063L1282.79 675.288L1286.49 687.061Z" fill="#F1F2F2"/>
<path d="M1297.9 683.452L1291.38 685.514L1290.84 683.785L1292.33 682.432L1289.42 673.164L1287.42 672.914L1286.88 671.186L1293.4 669.124L1293.94 670.852L1292.45 672.206L1295.36 681.474L1297.36 681.724L1297.9 683.452Z" fill="#F1F2F2"/>
<path d="M1311.02 671.408C1311.37 672.518 1311.55 673.565 1311.56 674.551C1311.57 675.54 1311.4 676.449 1311.05 677.283C1310.7 678.111 1310.16 678.834 1309.41 679.454C1308.67 680.076 1307.71 680.563 1306.53 680.935C1305.35 681.307 1304.3 681.449 1303.33 681.378C1302.36 681.3 1301.49 681.023 1300.73 680.549C1299.96 680.074 1299.31 679.419 1298.75 678.604C1298.19 677.789 1297.74 676.821 1297.38 675.694C1296.91 674.208 1296.75 672.846 1296.9 671.588C1297.04 670.341 1297.52 669.252 1298.34 668.323C1299.16 667.394 1300.35 666.686 1301.91 666.193C1303.47 665.699 1304.83 665.598 1306.04 665.888C1307.24 666.178 1308.25 666.795 1309.08 667.744C1309.91 668.693 1310.56 669.911 1311.03 671.397L1311.02 671.408ZM1300.62 674.698C1300.93 675.683 1301.33 676.503 1301.79 677.145C1302.27 677.784 1302.83 678.222 1303.49 678.426C1304.15 678.641 1304.89 678.608 1305.72 678.347C1306.54 678.085 1307.2 677.666 1307.62 677.121C1308.02 676.571 1308.23 675.898 1308.25 675.104C1308.26 674.309 1308.11 673.412 1307.8 672.427C1307.33 670.932 1306.68 669.842 1305.86 669.157C1305.04 668.479 1304 668.333 1302.71 668.739C1301.87 669.006 1301.24 669.414 1300.83 669.976C1300.42 670.529 1300.2 671.204 1300.18 672.001C1300.15 672.799 1300.31 673.696 1300.62 674.698Z" fill="#F1F2F2"/>
<path d="M1328.9 673.649L1325.05 674.866L1315.41 666.009L1315.33 666.035C1315.49 666.478 1315.66 666.93 1315.82 667.375C1315.98 667.821 1316.15 668.272 1316.31 668.718C1316.47 669.163 1316.63 669.617 1316.79 670.063L1318.91 676.801L1316.2 677.656L1311.7 663.337L1315.53 662.125L1325.12 670.887L1325.18 670.869C1325.03 670.432 1324.88 669.992 1324.72 669.563C1324.57 669.126 1324.42 668.697 1324.26 668.268C1324.11 667.839 1323.96 667.41 1323.8 666.973L1321.67 660.193L1324.4 659.33L1328.9 673.649Z" fill="#F1F2F2"/>
</g>
<g clip-path="url(#clip5_34_987)">
<path d="M1528.04 83.0327L1373.38 44.7919C1368.91 43.6858 1364.38 46.4221 1363.28 50.9036L1350.01 104.569C1348.9 109.051 1351.63 113.581 1356.1 114.687L1510.75 152.928C1515.23 154.034 1519.75 151.298 1520.86 146.816L1534.13 93.1501C1535.24 88.6686 1532.51 84.1389 1528.04 83.0327Z" fill="#6AE5DF"/>
<path d="M1509.3 145.84L1360.68 109.091C1357.24 108.241 1355.14 104.747 1355.99 101.302L1367.04 56.5908C1367.9 53.1462 1371.39 51.0358 1374.82 51.8861L1523.45 88.6358C1526.89 89.486 1528.99 92.9795 1528.14 96.4242L1517.08 141.136C1516.23 144.58 1512.74 146.691 1509.3 145.84ZM1374.4 53.5998C1371.9 52.9822 1369.37 54.5118 1368.75 57.0138L1357.7 101.725C1357.08 104.227 1358.6 106.759 1361.1 107.377L1509.73 144.127C1512.22 144.744 1514.75 143.215 1515.37 140.713L1526.43 96.0012C1527.05 93.4991 1525.52 90.9671 1523.02 90.3495L1374.4 53.5998Z" fill="#6666FF"/>
<path d="M1386.32 70.7953L1375.16 68.0353C1374.97 67.9888 1374.78 68.1049 1374.73 68.2934L1374.17 70.5727C1374.12 70.7612 1374.24 70.9535 1374.43 71.0001L1378.49 72.0047L1372.65 95.6029C1372.61 95.7914 1372.72 95.9837 1372.91 96.0302L1375.26 96.6097C1375.44 96.6563 1375.64 96.5401 1375.68 96.3516L1381.52 72.7619L1385.58 73.7665C1385.77 73.8131 1385.96 73.6969 1386.01 73.5084L1386.57 71.2291C1386.62 71.0406 1386.5 70.8483 1386.31 70.8018L1386.32 70.7953Z" fill="#6666FF"/>
<path d="M1398.76 73.8344L1396.41 73.2549C1396.23 73.2084 1396.03 73.3246 1395.99 73.5131L1393.34 84.2411L1388.03 82.9298L1390.68 72.2018C1390.73 72.0133 1390.62 71.821 1390.43 71.7745L1388.08 71.195C1387.9 71.1484 1387.7 71.2646 1387.66 71.4531L1381.17 97.7076C1381.12 97.8961 1381.23 98.0885 1381.42 98.135L1383.77 98.7145C1383.95 98.761 1384.15 98.6448 1384.19 98.4563L1387.26 86.0403L1392.57 87.3516L1389.5 99.7676C1389.45 99.9561 1389.57 100.148 1389.75 100.195L1392.1 100.774C1392.29 100.821 1392.48 100.705 1392.52 100.516L1399.01 74.2703C1399.06 74.0818 1398.94 73.8895 1398.76 73.843L1398.76 73.8344Z" fill="#6666FF"/>
<path d="M1404.37 100.662L1397.69 99.0107L1400.14 89.0796L1406.28 90.596C1406.47 90.6425 1406.66 90.5264 1406.7 90.3378L1407.27 88.0586C1407.31 87.8701 1407.2 87.6778 1407.01 87.6312L1400.88 86.1148L1402.87 78.0431L1409.48 79.6779C1409.67 79.7245 1409.87 79.6083 1409.91 79.4198L1410.48 77.1405C1410.52 76.952 1410.41 76.7597 1410.22 76.7132L1400.92 74.4142C1400.73 74.3677 1400.54 74.4838 1400.49 74.6723L1394.01 100.893C1393.96 101.081 1394.08 101.273 1394.27 101.32L1403.63 103.636C1403.82 103.682 1404.01 103.566 1404.06 103.378L1404.62 101.098C1404.67 100.91 1404.55 100.718 1404.37 100.671L1404.37 100.662Z" fill="#6666FF"/>
<path d="M1427.37 80.9453L1418.14 78.6632C1417.95 78.6167 1417.76 78.7328 1417.71 78.9214L1411.22 105.176C1411.18 105.364 1411.29 105.557 1411.48 105.603L1413.82 106.183C1414.01 106.229 1414.2 106.113 1414.25 105.925L1417.36 93.3286L1423.46 94.8366C1423.65 94.8831 1423.84 94.7669 1423.89 94.5784L1424.45 92.2991C1424.5 92.1106 1424.38 91.9183 1424.2 91.8718L1418.1 90.3638L1420.09 82.2921L1426.64 83.91C1426.82 83.9566 1427.02 83.8404 1427.06 83.6519L1427.63 81.3726C1427.67 81.1841 1427.56 80.9918 1427.37 80.9453Z" fill="#6666FF"/>
<path d="M1432.05 82.102L1430.75 81.7805C1430.27 81.6625 1429.79 81.9544 1429.67 82.4323L1423.45 107.607C1423.33 108.085 1423.62 108.568 1424.1 108.686L1425.4 109.008C1425.87 109.126 1426.36 108.834 1426.47 108.356L1432.7 83.181C1432.82 82.7031 1432.53 82.22 1432.05 82.102Z" fill="#6666FF"/>
<path d="M1443.37 95.8856L1444.74 90.3673C1445.21 88.4565 1444.45 87.0503 1443.73 86.209C1442.91 85.2418 1441.66 84.4878 1440.39 84.1726L1435.63 82.9967C1435.44 82.9502 1435.25 83.0663 1435.2 83.2549L1428.72 109.475C1428.67 109.664 1428.79 109.856 1428.98 109.902L1431.32 110.482C1431.51 110.528 1431.7 110.412 1431.75 110.224L1434.53 98.9731L1435.94 99.3221C1436.36 99.4257 1436.78 99.5101 1437.19 99.5581L1436.32 111.409C1436.31 111.578 1436.42 111.734 1436.59 111.776L1439.07 112.39C1439.18 112.415 1439.28 112.387 1439.37 112.327C1439.46 112.266 1439.51 112.17 1439.51 112.061L1440.16 99.3009C1441.81 98.81 1442.95 97.5993 1443.37 95.877L1443.37 95.8856ZM1437.59 86.617L1439.2 87.0167C1441.21 87.5138 1442.14 88.1425 1441.62 90.2161L1440.57 94.4919C1440.13 96.2742 1438.92 96.9028 1436.88 96.3995L1435.27 95.9998L1437.59 86.617Z" fill="#6666FF"/>
<path d="M1450.15 99.6524C1448.51 95.7293 1447.96 94.301 1448.29 92.9386C1449.13 89.5711 1450.63 89.4874 1451.85 89.7899C1452.8 90.0246 1453.95 90.7554 1453.06 94.3714L1452.73 95.7167C1452.68 95.9052 1452.79 96.0975 1452.98 96.144L1455.33 96.7235C1455.51 96.77 1455.71 96.6539 1455.75 96.4654L1456.17 94.7773C1457.66 88.7707 1454.16 87.2142 1452.58 86.8251C1448.99 85.9368 1446.35 87.7942 1445.33 91.9157C1444.7 94.4606 1445.54 96.6779 1447.35 101.052L1447.95 102.482C1449.6 106.39 1449.95 107.695 1449.67 108.801C1449.14 110.951 1448.07 111.851 1446.49 111.46C1445.3 111.166 1444.19 110.418 1445.01 107.102L1445.44 105.345C1445.49 105.157 1445.37 104.965 1445.19 104.918L1442.84 104.339C1442.65 104.292 1442.46 104.408 1442.42 104.597L1441.87 106.807C1440.72 111.435 1443.13 113.784 1445.76 114.433C1449.14 115.271 1451.73 113.465 1452.69 109.592C1453.28 107.21 1452.46 105.235 1450.67 100.927L1450.14 99.6588L1450.15 99.6524Z" fill="#6666FF"/>
<path d="M1469.31 91.3149L1458.14 88.5548C1457.96 88.5083 1457.76 88.6245 1457.72 88.813L1457.15 91.0922C1457.11 91.2808 1457.22 91.4731 1457.41 91.5196L1461.47 92.5242L1455.64 116.122C1455.59 116.311 1455.71 116.503 1455.9 116.55L1458.24 117.129C1458.43 117.176 1458.62 117.06 1458.67 116.871L1464.5 93.2815L1468.56 94.2861C1468.75 94.3326 1468.94 94.2164 1468.99 94.0279L1469.55 91.7487C1469.6 91.5601 1469.48 91.3678 1469.3 91.3213L1469.31 91.3149Z" fill="#6666FF"/>
<path d="M1486.18 95.4877L1476.95 93.2057C1476.77 93.1592 1476.57 93.2753 1476.53 93.4638L1470.04 119.718C1469.99 119.907 1470.1 120.099 1470.29 120.146L1472.64 120.725C1472.82 120.772 1473.02 120.656 1473.06 120.467L1476.18 107.871L1482.28 109.379C1482.46 109.426 1482.66 109.309 1482.7 109.121L1483.27 106.842C1483.31 106.653 1483.2 106.461 1483.01 106.414L1476.91 104.906L1478.91 96.8346L1485.45 98.4525C1485.64 98.499 1485.83 98.3829 1485.88 98.1944L1486.44 95.9151C1486.49 95.7266 1486.37 95.5343 1486.18 95.4877Z" fill="#6666FF"/>
<path d="M1490.86 96.6445L1489.56 96.323C1489.08 96.205 1488.6 96.4968 1488.48 96.9748L1482.26 122.15C1482.14 122.628 1482.43 123.111 1482.91 123.229L1484.21 123.55C1484.69 123.668 1485.17 123.376 1485.29 122.898L1491.51 97.7235C1491.63 97.2455 1491.34 96.7624 1490.86 96.6445Z" fill="#6666FF"/>
<path d="M1505.05 100.153L1502.67 99.5654C1502.5 99.5231 1502.33 99.6156 1502.26 99.7807L1494.03 120.331L1496.26 98.2981C1496.28 98.1204 1496.16 97.9559 1495.99 97.9136L1493.62 97.3256C1493.51 97.3002 1493.41 97.3198 1493.32 97.38C1493.23 97.4402 1493.18 97.5367 1493.17 97.6437L1490.82 124.886C1490.81 125.055 1490.92 125.219 1491.09 125.261L1494.37 126.072C1494.54 126.114 1494.71 126.03 1494.78 125.865L1505.29 100.666C1505.29 100.666 1505.31 100.617 1505.32 100.591C1505.36 100.403 1505.25 100.211 1505.06 100.164L1505.05 100.153Z" fill="#6666FF"/>
<path d="M1509.7 126.708L1503.02 125.057L1505.48 115.125L1511.61 116.642C1511.8 116.688 1511.99 116.572 1512.04 116.384L1512.6 114.104C1512.65 113.916 1512.53 113.724 1512.35 113.677L1506.21 112.161L1508.21 104.089L1514.82 105.724C1515.01 105.77 1515.2 105.654 1515.25 105.466L1515.81 103.186C1515.86 102.998 1515.74 102.806 1515.55 102.759L1506.26 100.46C1506.07 100.414 1505.88 100.53 1505.83 100.718L1499.35 126.938C1499.3 127.127 1499.41 127.319 1499.6 127.366L1508.97 129.682C1509.16 129.728 1509.35 129.612 1509.4 129.424L1509.96 127.144C1510.01 126.956 1509.89 126.763 1509.7 126.717L1509.7 126.708Z" fill="#6666FF"/>
</g>
<g clip-path="url(#clip6_34_987)">
<path d="M486.145 848.658C543.076 817.989 564.367 746.975 533.698 690.043C503.029 633.112 432.015 611.822 375.084 642.49C318.152 673.159 296.862 744.173 327.531 801.105C358.199 858.036 429.213 879.326 486.145 848.658Z" fill="#6666FF"/>
<path d="M474.704 837.863C474.704 837.863 474.601 837.919 474.55 837.947C473.822 838.299 473.072 838.636 472.333 838.968C470.566 839.76 468.488 838.964 467.695 837.197C466.903 835.429 467.704 833.362 469.466 832.559C470.154 832.255 470.846 831.935 471.533 831.605C473.278 830.771 475.38 831.514 476.214 833.259C477.02 834.953 476.343 836.98 474.714 837.858L474.704 837.863ZM489.896 828.908C488.36 829.735 486.42 829.318 485.38 827.856C484.253 826.282 484.61 824.082 486.184 822.955C486.799 822.517 487.419 822.063 488.013 821.61C489.554 820.447 491.769 820.757 492.932 822.298C494.101 823.85 493.785 826.055 492.244 827.218C491.599 827.698 490.943 828.185 490.282 828.66C490.159 828.753 490.025 828.825 489.891 828.898L489.896 828.908ZM455.898 844.603C455.64 844.741 455.366 844.849 455.069 844.916C454.284 845.113 453.483 845.305 452.697 845.476C450.809 845.895 448.928 844.7 448.509 842.811C448.084 840.912 449.285 839.041 451.174 838.622C451.913 838.464 452.651 838.279 453.384 838.11C455.261 837.644 457.172 838.796 457.638 840.673C458.027 842.259 457.269 843.864 455.898 844.603ZM504.874 815.679C503.586 816.373 501.957 816.213 500.825 815.174C499.396 813.855 499.308 811.642 500.626 810.214C501.139 809.658 501.645 809.093 502.152 808.527C503.433 807.079 505.655 806.933 507.104 808.214C508.562 809.49 508.698 811.717 507.417 813.166C506.88 813.774 506.338 814.372 505.785 814.976C505.516 815.267 505.204 815.501 504.864 815.685L504.874 815.679ZM436.107 847.391C435.653 847.635 435.134 847.782 434.574 847.804C433.752 847.834 432.941 847.859 432.119 847.863C430.176 847.886 428.583 846.336 428.561 844.393C428.538 842.451 430.087 840.858 432.03 840.835C432.784 840.828 433.543 840.805 434.302 840.782C436.244 840.707 437.872 842.224 437.941 844.155C437.994 845.536 437.235 846.769 436.091 847.386L436.107 847.391ZM516.866 799.697C515.814 800.263 514.495 800.282 513.39 799.614C511.725 798.622 511.188 796.465 512.19 794.794C512.584 794.143 512.962 793.487 513.34 792.831C514.295 791.147 516.451 790.557 518.125 791.517C519.815 792.482 520.399 794.628 519.439 796.302C519.037 797.011 518.628 797.71 518.214 798.398C517.881 798.964 517.407 799.392 516.871 799.681L516.866 799.697ZM416.15 846.118C415.49 846.474 414.704 846.618 413.903 846.49C413.103 846.363 412.302 846.209 411.507 846.066C409.6 845.71 408.354 843.867 408.71 841.96C409.066 840.053 410.908 838.807 412.816 839.163C413.559 839.308 414.307 839.437 415.065 839.561C416.982 839.885 418.273 841.689 417.949 843.606C417.763 844.717 417.068 845.624 416.15 846.118ZM525.384 781.636C524.538 782.091 523.52 782.2 522.545 781.848C520.718 781.196 519.761 779.198 520.407 777.36C520.663 776.651 520.904 775.936 521.138 775.211C521.742 773.37 523.728 772.366 525.564 772.96C527.406 773.564 528.42 775.544 527.816 777.386C527.567 778.158 527.302 778.926 527.027 779.699C526.728 780.552 526.131 781.22 525.388 781.62L525.384 781.636ZM396.874 840.875C396.008 841.341 394.948 841.447 393.946 841.069C393.188 840.773 392.43 840.476 391.682 840.174C389.889 839.438 389.025 837.389 389.771 835.591C390.508 833.798 392.556 832.934 394.355 833.68C395.055 833.968 395.766 834.25 396.471 834.522C398.284 835.221 399.189 837.247 398.49 839.06C398.174 839.882 397.591 840.502 396.869 840.891L396.874 840.875ZM530.13 762.228C529.491 762.572 528.747 762.72 527.984 762.613C526.058 762.347 524.715 760.57 524.987 758.654C525.09 757.907 525.187 757.15 525.274 756.398C525.498 754.469 527.243 753.09 529.167 753.304C531.096 753.528 532.475 755.272 532.261 757.196C532.165 758.006 532.069 758.816 531.958 759.621C531.794 760.773 531.095 761.722 530.146 762.232L530.13 762.228ZM379.034 831.879C377.951 832.462 376.579 832.457 375.478 831.746C374.794 831.317 374.115 830.871 373.441 830.41C371.831 829.322 371.403 827.145 372.491 825.535C373.579 823.925 375.755 823.497 377.366 824.585C377.991 825.006 378.627 825.421 379.258 825.826C380.898 826.871 381.373 829.036 380.328 830.676C379.998 831.2 379.549 831.601 379.034 831.879ZM530.863 742.256C530.43 742.489 529.947 742.63 529.424 742.672C527.484 742.799 525.816 741.331 525.699 739.385C525.649 738.627 525.59 737.875 525.525 737.112C525.351 735.184 526.786 733.479 528.714 733.305C530.642 733.131 532.357 734.562 532.521 736.495C532.587 737.31 532.654 738.125 532.705 738.936C532.79 740.353 532.038 741.623 530.863 742.256ZM363.374 819.474C362.065 820.179 360.383 819.995 359.26 818.897C358.677 818.334 358.098 817.754 357.531 817.169C356.173 815.785 356.2 813.563 357.584 812.206C358.977 810.843 361.189 810.876 362.546 812.259C363.076 812.798 363.616 813.332 364.151 813.855C365.544 815.206 365.57 817.427 364.218 818.82C363.959 819.079 363.678 819.297 363.368 819.464L363.374 819.474ZM527.553 722.533C527.326 722.655 527.072 722.752 526.818 722.823C524.942 723.341 523.018 722.237 522.505 720.371C522.299 719.644 522.094 718.917 521.873 718.185C521.313 716.332 522.359 714.372 524.222 713.807C526.075 713.248 528.041 714.304 528.6 716.157C528.833 716.936 529.056 717.72 529.274 718.494C529.716 720.104 528.97 721.756 527.558 722.517L527.553 722.533ZM350.549 804.159C348.982 805.003 347.003 804.539 345.978 803.031C345.522 802.358 345.077 801.68 344.632 801.002C343.582 799.374 344.061 797.201 345.689 796.15C347.344 795.099 349.491 795.579 350.541 797.207C350.954 797.85 351.371 798.476 351.788 799.102C352.88 800.709 352.459 802.891 350.852 803.982C350.755 804.048 350.647 804.119 350.544 804.175L350.549 804.159ZM520.327 703.909C520.327 703.909 520.275 703.937 520.255 703.948C518.521 704.829 516.41 704.144 515.529 702.411C515.184 701.745 514.834 701.07 514.473 700.4L514.373 700.214C513.451 698.503 514.088 696.377 515.799 695.456C517.511 694.534 519.636 695.171 520.558 696.882L520.658 697.068C521.046 697.789 521.43 698.501 521.792 699.223C522.656 700.926 522.007 703.004 520.327 703.909ZM341.065 786.578C340.962 786.634 340.859 786.69 340.75 786.735C338.96 787.486 336.907 786.637 336.156 784.847C335.845 784.097 335.544 783.342 335.243 782.586C334.533 780.774 335.446 778.74 337.247 778.035C339.049 777.331 341.088 778.227 341.798 780.039C342.071 780.743 342.354 781.442 342.653 782.145C343.359 783.826 342.648 785.739 341.081 786.583L341.065 786.578ZM509.4 686.933C507.936 687.722 506.071 687.37 504.993 686.036C504.514 685.443 504.04 684.86 503.556 684.283C502.306 682.801 502.506 680.579 503.987 679.329C505.468 678.079 507.69 678.279 508.94 679.76C509.462 680.383 509.974 681.012 510.491 681.651C511.705 683.164 511.458 685.372 509.944 686.587C509.776 686.718 509.601 686.838 509.416 686.938L509.4 686.933ZM335.285 767.455C334.976 767.621 334.644 767.747 334.28 767.81C332.379 768.183 330.533 766.929 330.161 765.028C330.005 764.221 329.855 763.424 329.726 762.616C329.4 760.703 330.681 758.883 332.599 758.568C334.512 758.242 336.322 759.528 336.647 761.441C336.775 762.197 336.908 762.937 337.056 763.681C337.354 765.223 336.599 766.734 335.279 767.445L335.285 767.455ZM495.412 672.67C494.185 673.331 492.637 673.221 491.502 672.276C490.922 671.791 490.336 671.321 489.751 670.852C488.227 669.652 487.965 667.438 489.171 665.924C490.372 664.4 492.585 664.138 494.099 665.344C494.733 665.854 495.361 666.354 495.99 666.879C497.484 668.123 497.688 670.327 496.444 671.821C496.146 672.181 495.793 672.465 495.412 672.67ZM333.494 747.539C332.989 747.811 332.407 747.965 331.788 747.953C329.849 747.933 328.297 746.335 328.316 744.396C328.328 743.579 328.346 742.771 328.373 741.959C328.445 740.018 330.065 738.507 332.005 738.579C333.946 738.651 335.457 740.271 335.385 742.211C335.356 742.972 335.337 743.727 335.334 744.486C335.317 745.812 334.571 746.946 333.478 747.534L333.494 747.539ZM478.827 661.535C477.827 662.074 476.587 662.117 475.506 661.542C474.835 661.185 474.169 660.839 473.494 660.498C471.759 659.624 471.061 657.513 471.935 655.778C472.81 654.044 474.921 653.345 476.655 654.22C477.384 654.585 478.103 654.956 478.816 655.343C480.531 656.255 481.172 658.383 480.271 660.092C479.934 660.726 479.425 661.213 478.837 661.529L478.827 661.535ZM335.759 727.672C335.048 728.056 334.193 728.197 333.349 728.013C331.451 727.6 330.257 725.729 330.66 723.836C330.83 723.04 331.015 722.248 331.201 721.457C331.662 719.572 333.555 718.42 335.444 718.865C337.328 719.326 338.481 721.219 338.025 723.114C337.848 723.847 337.677 724.591 337.516 725.33C337.291 726.368 336.625 727.206 335.749 727.678L335.759 727.672ZM460.344 653.963C459.561 654.385 458.606 654.513 457.686 654.237C456.956 654.019 456.232 653.81 455.503 653.618C453.633 653.109 452.527 651.178 453.036 649.308C453.544 647.438 455.47 646.321 457.345 646.84C458.127 647.057 458.909 647.274 459.697 647.502C461.552 648.058 462.618 650.011 462.061 651.867C461.781 652.803 461.154 653.54 460.36 653.967L460.344 653.963ZM341.964 708.676C341.047 709.17 339.907 709.252 338.877 708.796C337.098 708.012 336.302 705.941 337.086 704.162C337.414 703.413 337.753 702.685 338.097 701.941C338.924 700.193 341.017 699.437 342.777 700.259C344.536 701.08 345.281 703.179 344.459 704.938C344.134 705.618 343.825 706.304 343.522 706.999C343.193 707.748 342.634 708.315 341.975 708.67L341.964 708.676ZM440.706 650.244C440.128 650.555 439.452 650.707 438.743 650.65C437.992 650.589 437.231 650.534 436.469 650.478C434.527 650.354 433.057 648.686 433.186 646.754C433.311 644.812 434.979 643.341 436.911 643.471C437.724 643.525 438.538 643.579 439.347 643.648C441.285 643.814 442.71 645.521 442.538 647.449C442.429 648.678 441.716 649.7 440.706 650.244ZM351.839 691.307C350.695 691.923 349.264 691.883 348.139 691.079C346.559 689.949 346.194 687.765 347.309 686.18C347.775 685.516 348.254 684.873 348.736 684.214C349.894 682.659 352.106 682.346 353.65 683.509C355.204 684.666 355.518 686.878 354.355 688.422C353.897 689.028 353.454 689.639 353.022 690.244C352.696 690.699 352.287 691.052 351.823 691.302L351.839 691.307ZM420.718 650.545C420.337 650.75 419.917 650.883 419.468 650.939C418.716 651.025 417.959 651.126 417.203 651.228C415.289 651.501 413.503 650.162 413.23 648.248C412.957 646.333 414.296 644.548 416.21 644.275C417.014 644.161 417.823 644.058 418.637 643.965C420.563 643.739 422.313 645.111 422.539 647.037C422.71 648.514 421.945 649.884 420.718 650.545ZM365.013 676.31C363.642 677.048 361.885 676.798 360.775 675.601C359.453 674.185 359.532 671.961 360.958 670.634C361.555 670.087 362.161 669.534 362.763 668.997C364.222 667.706 366.437 667.842 367.728 669.301C369.014 670.75 368.883 672.975 367.424 674.267C366.858 674.771 366.292 675.276 365.741 675.785C365.523 675.996 365.271 676.171 365.013 676.31ZM401.221 654.89C401.046 654.984 400.855 655.074 400.657 655.127C399.947 655.364 399.231 655.616 398.516 655.868C396.687 656.521 394.678 655.582 394.025 653.753C393.372 651.923 394.311 649.914 396.14 649.261C396.907 648.981 397.68 648.711 398.447 648.457C400.289 647.851 402.273 648.844 402.889 650.68C403.432 652.329 402.7 654.08 401.226 654.874L401.221 654.89ZM380.955 664.278C379.316 665.161 377.267 664.615 376.29 663C375.292 661.344 375.818 659.185 377.469 658.176C378.158 657.751 378.858 657.348 379.568 656.938C381.247 655.981 383.402 656.549 384.359 658.228C385.333 659.911 384.749 662.061 383.07 663.019C382.411 663.4 381.752 663.782 381.115 664.178C381.063 664.206 381.011 664.234 380.95 664.267L380.955 664.278Z" fill="#6AE5DF"/>
<path d="M390.593 735.547L432.806 712.807C433.692 712.329 433.926 711.06 433.343 709.977L422.614 690.061C422.031 688.979 420.832 688.481 419.956 688.953L377.743 711.693C376.857 712.171 376.623 713.44 377.206 714.523L387.935 734.438C388.518 735.521 389.717 736.019 390.593 735.547Z" fill="#F1F2F2"/>
<path d="M427.916 684.719L443.967 689.531C444.998 689.84 445.593 690.943 445.284 691.974L440.395 708.28C439.891 709.961 437.603 710.182 436.786 708.641L425.634 687.544C424.806 686.008 426.267 684.25 427.932 684.749L427.921 684.729L427.916 684.719Z" fill="#F1F2F2"/>
<path d="M412.541 728.245L393.089 738.724C391.871 739.38 391.415 740.9 392.072 742.118L402.55 761.57C403.207 762.788 404.726 763.244 405.945 762.588L425.397 752.109C426.615 751.453 427.07 749.933 426.414 748.715L415.936 729.263C415.279 728.044 413.76 727.589 412.541 728.245Z" fill="#F1F2F2"/>
<path d="M439.989 806.824C447.578 802.735 450.416 793.269 446.327 785.68C442.239 778.091 432.773 775.253 425.184 779.341C417.595 783.43 414.757 792.896 418.845 800.485C422.933 808.074 432.4 810.912 439.989 806.824Z" fill="#F1F2F2"/>
<path d="M456.137 795.89L445.608 776.346C445.075 775.356 445.373 774.132 446.29 773.464C452.03 769.282 453.942 761.376 450.483 754.954C447.023 748.531 439.369 745.779 432.719 748.271C431.667 748.664 430.47 748.245 429.937 747.255L419.409 727.711C418.792 726.567 419.278 725.148 420.445 724.599C439.97 715.49 463.542 723.128 473.893 742.343C484.244 761.557 477.648 785.433 459.306 796.737C458.195 797.415 456.753 797.034 456.137 795.89Z" fill="#F1F2F2"/>
</g>
<g clip-path="url(#clip7_34_987)">
<path d="M71.0356 389.613C68.8933 393.138 71.9616 397.533 76.0114 396.729L103.148 391.369L128.889 386.878C135.111 385.795 138.917 379.437 136.934 373.441L128.737 348.631L120.647 322.179C119.44 318.235 114.12 317.6 112.025 321.153L106.952 329.745L58.0216 300.449C54.2967 298.219 49.4748 299.429 47.2444 303.154L24.0916 341.824C21.8612 345.549 23.0713 350.371 26.7962 352.601L75.7203 381.894L71.0321 389.619L71.0356 389.613Z" fill="#6666FF"/>
<path d="M127.85 377.129C127.648 377.466 127.355 377.519 127.257 377.539L101.516 382.03C101.445 382.043 101.374 382.056 101.309 382.072L84.5412 385.383C85.2632 383.557 85.4042 381.542 84.9251 379.613C84.3153 377.163 82.7592 375.055 80.5917 373.757L33.0622 345.3L54.5414 309.426L102.077 337.887C104.244 339.184 106.837 339.561 109.284 338.941C111.49 338.383 113.411 337.046 114.705 335.2L119.662 351.407C119.684 351.476 119.7 351.541 119.722 351.61L127.919 376.42C127.951 376.511 128.042 376.794 127.837 377.137M135.985 382C137.468 379.524 137.927 376.436 136.934 373.441L128.737 348.631L120.647 322.179C119.442 318.244 114.151 317.602 112.038 321.13C112.032 321.141 112.028 321.147 112.021 321.159L106.948 329.751L58.0181 300.455C54.2932 298.224 49.4713 299.435 47.2409 303.16L24.0881 341.829C21.8577 345.555 23.0678 350.377 26.7927 352.607L75.7168 381.899L71.0286 389.624C71.0286 389.624 71.0182 389.641 71.0112 389.653C68.9026 393.175 71.9639 397.542 76.0009 396.746L103.138 391.386L128.878 386.895C131.991 386.35 134.493 384.493 135.975 382.017L135.985 382Z" fill="#F1F2F2"/>
<path d="M135.985 382C134.503 384.476 131.998 386.339 128.889 386.878L103.148 391.369L76.0114 396.729C71.9744 397.525 68.9096 393.164 71.0217 389.636C71.0287 389.624 71.0321 389.619 71.0391 389.607L75.7273 381.882L26.8032 352.59C23.0783 350.359 21.8682 345.538 24.0985 341.812L47.2444 303.154C49.4748 299.429 54.2967 298.219 58.0216 300.449L106.952 329.745L112.025 321.153C112.025 321.153 112.035 321.136 112.042 321.124C114.151 317.603 119.446 318.239 120.65 322.173L128.741 348.625L136.937 373.436C137.927 376.436 137.471 379.519 135.989 381.994M144.098 386.857C147.055 381.917 147.719 375.944 145.911 370.472L137.75 345.761L129.694 319.409C128.058 314.048 123.399 310.145 117.831 309.464C112.263 308.783 106.811 311.455 103.93 316.267C103.919 316.285 103.891 316.331 103.877 316.354L103.644 316.744L62.8791 292.336C54.6912 287.434 44.0347 290.109 39.1321 298.297L15.9792 336.967C11.0765 345.155 13.7509 355.812 21.9388 360.714L62.704 385.122C60.0308 389.877 60.3208 395.774 63.4705 400.257C66.6946 404.84 72.3339 407.103 77.8389 406.018L104.871 400.674L130.507 396.199C136.188 395.203 141.14 391.797 144.098 386.857Z" fill="#6666FF"/>
</g>
<g clip-path="url(#clip8_34_987)">
<path d="M192.518 258.221C200.51 290.721 233.334 310.588 265.833 302.597C298.333 294.605 318.2 261.781 310.208 229.282C302.217 196.782 269.393 176.915 236.893 184.906C204.394 192.898 184.527 225.722 192.518 258.221Z" fill="#F1F2F2"/>
<path d="M310.208 229.282C318.2 261.781 298.333 294.605 265.833 302.597C233.334 310.588 200.51 290.721 192.518 258.222C184.527 225.722 204.394 192.898 236.893 184.907C269.393 176.915 302.217 196.782 310.208 229.282ZM317.178 227.568C308.254 191.277 271.47 169.013 235.18 177.937C198.889 186.86 176.625 223.645 185.548 259.935C194.472 296.226 231.257 318.49 267.547 309.566C303.837 300.643 326.102 263.858 317.178 227.568Z" fill="#6666FF"/>
<path d="M263.905 249.483L278.204 227.08L289.949 208.684C290.892 207.209 289.215 205.472 287.706 206.346L268.837 217.316L245.866 230.677C244.932 231.22 244.756 232.492 245.499 233.272L253.401 241.506L261.302 249.739C262.052 250.518 263.326 250.393 263.911 249.481L263.905 249.483ZM262.403 238.636L259.522 235.631L256.64 232.627C256.368 232.345 256.497 231.817 256.901 231.558L266.905 225.126L275.12 219.847C275.778 219.427 276.387 220.059 275.937 220.7L270.322 228.69L263.481 238.42C263.201 238.816 262.675 238.918 262.397 238.637L262.403 238.636Z" fill="#6666FF"/>
<path d="M248.499 246.208L256.4 254.441C257.15 255.22 256.967 256.493 256.033 257.037L233.062 270.397L214.193 281.368C212.685 282.248 211.007 280.504 211.95 279.03L223.695 260.633L237.994 238.231C238.573 237.321 239.854 237.194 240.604 237.973L248.505 246.206L248.499 246.208Z" fill="#6AE5DF"/>
<path d="M317.18 227.575L317.178 227.568C316.704 225.638 314.754 224.458 312.824 224.933L304.913 226.878C302.983 227.353 301.803 229.302 302.278 231.232L302.279 231.239C302.754 233.169 304.703 234.349 306.633 233.874L314.544 231.929C316.475 231.454 317.654 229.505 317.18 227.575Z" fill="#6666FF"/>
<path d="M200.451 256.278L200.449 256.271C199.974 254.341 198.025 253.161 196.095 253.636L188.184 255.581C186.254 256.056 185.074 258.005 185.548 259.935L185.55 259.942C186.025 261.872 187.974 263.052 189.904 262.577L197.815 260.632C199.745 260.157 200.925 258.208 200.451 256.278Z" fill="#6666FF"/>
<path d="M241.479 188.483L239.534 180.572C239.059 178.642 237.11 177.462 235.18 177.937L235.173 177.938C233.243 178.413 232.063 180.362 232.538 182.292L234.483 190.203C234.957 192.133 236.907 193.313 238.837 192.839L238.844 192.837C240.774 192.362 241.954 190.413 241.479 188.483Z" fill="#6666FF"/>
<path d="M270.183 305.212L268.237 297.301C267.763 295.371 265.813 294.191 263.883 294.666L263.877 294.668C261.946 295.142 260.767 297.092 261.241 299.022L263.186 306.933C263.661 308.863 265.61 310.043 267.541 309.568L267.547 309.566C269.477 309.092 270.657 307.142 270.183 305.212Z" fill="#6666FF"/>
<path d="M286.465 185.767L286.459 185.764C284.759 184.735 282.546 185.279 281.517 186.979L277.298 193.949C276.269 195.649 276.813 197.862 278.514 198.891L278.519 198.894C280.22 199.924 282.433 199.38 283.462 197.679L287.68 190.71C288.709 189.009 288.165 186.797 286.465 185.767Z" fill="#6666FF"/>
<path d="M224.212 288.607L224.206 288.604C222.506 287.575 220.293 288.119 219.264 289.819L215.045 296.788C214.016 298.489 214.56 300.702 216.261 301.731L216.266 301.734C217.967 302.764 220.18 302.219 221.209 300.519L225.427 293.55C226.456 291.849 225.912 289.636 224.212 288.607Z" fill="#6666FF"/>
<path d="M205.29 211.654L198.321 207.436C196.621 206.407 194.408 206.951 193.379 208.651L193.375 208.657C192.346 210.357 192.89 212.57 194.59 213.599L201.56 217.818C203.26 218.847 205.473 218.303 206.502 216.602L206.506 216.596C207.535 214.896 206.991 212.683 205.29 211.654Z" fill="#6666FF"/>
<path d="M308.135 273.899L301.166 269.681C299.465 268.652 297.252 269.196 296.223 270.896L296.22 270.902C295.19 272.602 295.735 274.815 297.435 275.844L304.404 280.063C306.105 281.092 308.318 280.548 309.347 278.847L309.35 278.842C310.379 277.141 309.835 274.928 308.135 273.899Z" fill="#6666FF"/>
</g>
<g clip-path="url(#clip9_34_987)">
<path d="M186.337 213.287C181.045 215.149 175.053 214.989 169.595 212.372C158.692 207.144 154.088 194.06 159.311 183.147L171.678 157.348L111.669 178.464C103.311 181.404 94.0023 179.019 88.0895 172.427C82.1766 165.836 80.8104 156.319 84.6467 148.333L123.6 67.0737C128.827 56.1702 141.91 51.5668 152.822 56.7915C163.725 62.0194 168.329 75.1038 163.105 86.0166L147.009 119.594L207.019 98.4787C215.376 95.5381 224.685 97.9238 230.598 104.515C236.511 111.107 237.877 120.623 234.041 128.61L198.817 202.09C196.2 207.548 191.628 211.425 186.337 213.287Z" fill="#F1F2F2"/>
<path d="M136.083 55.8858C141.375 54.0239 147.367 54.184 152.825 56.8011C163.728 62.029 168.332 75.1134 163.109 86.0262L147.013 119.604L207.022 98.4883C215.38 95.5477 224.689 97.9334 230.601 104.525C236.514 111.116 237.881 120.633 234.044 128.619L198.82 202.099C196.204 207.557 191.632 211.435 186.34 213.297C181.048 215.159 175.056 214.999 169.598 212.382C158.695 207.154 154.091 194.069 159.315 183.156L171.682 157.358L111.672 178.473C103.315 181.414 94.0056 179.028 88.0928 172.437C82.1799 165.845 80.8137 156.329 84.65 148.342L123.603 67.0832C126.22 61.6252 130.792 57.7478 136.083 55.8858ZM130.278 39.3865C120.355 42.8781 112.387 50.0283 107.839 59.5162L68.8853 140.775C61.968 155.189 64.4012 172.196 75.0765 184.099C85.7519 196.001 102.392 200.27 117.474 194.963L140.065 187.014C137.694 203.592 146.153 220.525 162.029 228.138C171.517 232.687 182.206 233.272 192.13 229.781C202.053 226.289 210.02 219.139 214.569 209.651L249.793 136.171C256.707 121.748 254.274 104.74 243.598 92.8381C232.923 80.936 216.283 76.6664 201.201 81.9735L180.647 89.2055C186.979 70.5981 178.52 49.7211 160.375 41.0201C150.887 36.4708 140.197 35.8855 130.274 39.3771L130.278 39.3865Z" fill="#6AE5DF"/>
<path d="M117.082 135.616C116.366 135.868 115.552 135.847 114.803 135.496C113.305 134.793 112.665 133.004 113.368 131.506L141.382 72.1501C142.084 70.6519 143.873 70.0119 145.371 70.7145C146.869 71.4172 147.51 73.2062 146.807 74.7044L118.793 134.06C118.432 134.813 117.805 135.351 117.079 135.607L117.082 135.616Z" fill="#6AE5DF"/>
<path d="M177.175 204.903C176.458 205.155 175.645 205.134 174.896 204.782C173.398 204.08 172.757 202.291 173.46 200.792L201.474 141.437C202.177 139.939 203.966 139.298 205.464 140.001C206.962 140.704 207.602 142.493 206.899 143.991L178.885 203.347C178.524 204.099 177.898 204.638 177.171 204.893L177.175 204.903Z" fill="#6AE5DF"/>
<path d="M107.47 164.272L104.008 165.49L99.3313 152.198L94.9641 153.735L93.9517 150.858L106.157 146.563L107.17 149.44L102.802 150.977L107.479 164.269L107.47 164.272Z" fill="#6666FF"/>
<path d="M113.462 144.004C114.877 143.506 116.119 143.27 117.175 143.291C118.235 143.321 119.116 143.594 119.824 144.129C120.531 144.665 121.063 145.453 121.428 146.491C121.684 147.217 121.778 147.905 121.719 148.551C121.66 149.198 121.48 149.801 121.182 150.341C120.888 150.89 120.501 151.386 120.034 151.837L127.137 157.352L123.175 158.746L117.388 153.807L115.464 154.484L117.648 160.691L114.186 161.909L108.497 145.74L113.458 143.994L113.462 144.004ZM114.342 146.716L112.917 147.217L114.534 151.811L115.958 151.31C116.883 150.985 117.524 150.547 117.891 149.994C118.258 149.44 118.284 148.732 117.982 147.873C117.813 147.392 117.566 147.023 117.259 146.781C116.938 146.534 116.544 146.407 116.06 146.387C115.576 146.366 115.011 146.48 114.342 146.716Z" fill="#6666FF"/>
<path d="M139.05 153.161L136.467 149.797L130.761 151.805L130.853 156.045L127.118 157.359L127.084 139.126L131.338 137.629L142.776 151.85L139.041 153.164L139.05 153.161ZM132.289 144.069C132.153 143.862 131.939 143.556 131.648 143.149C131.357 142.743 131.071 142.324 130.779 141.886C130.487 141.448 130.257 141.095 130.075 140.819C130.142 141.188 130.187 141.618 130.233 142.11C130.279 142.603 130.318 143.077 130.364 143.538C130.41 143.999 130.438 144.381 130.466 144.7L130.55 148.614L134.643 147.174L132.277 144.063L132.289 144.069Z" fill="#6666FF"/>
<path d="M155.195 138.098C155.849 139.956 156.044 141.626 155.79 143.104C155.527 144.585 154.884 145.861 153.836 146.919C152.791 147.986 151.398 148.816 149.643 149.433L144.71 151.169L139.021 135L144.359 133.121C146.067 132.521 147.625 132.311 149.032 132.484C150.44 132.657 151.673 133.209 152.726 134.153C153.775 135.088 154.597 136.399 155.195 138.098ZM151.619 139.504C151.211 138.344 150.702 137.441 150.097 136.806C149.492 136.171 148.784 135.784 147.975 135.655C147.167 135.526 146.261 135.633 145.27 135.981L143.478 136.612L147.166 147.093L148.618 146.582C150.279 145.997 151.349 145.123 151.835 143.944C152.325 142.775 152.246 141.287 151.616 139.495L151.619 139.504Z" fill="#6666FF"/>
<path d="M170.696 142.026L161.396 145.298L155.707 129.129L165.007 125.856L165.996 128.668L160.11 130.739L161.362 134.295L166.842 132.367L167.831 135.178L162.351 137.106L163.818 141.276L169.704 139.205L170.7 142.035L170.696 142.026Z" fill="#6666FF"/>
<path d="M191.709 125.525C192.151 126.779 192.398 127.965 192.445 129.093C192.493 130.221 192.339 131.261 191.969 132.229C191.606 133.184 191.003 134.032 190.18 134.767C189.358 135.501 188.273 136.095 186.943 136.563C185.613 137.031 184.421 137.228 183.304 137.186C182.193 137.132 181.192 136.848 180.311 136.331C179.429 135.814 178.646 135.094 177.976 134.184C177.306 133.275 176.754 132.187 176.305 130.913C175.715 129.234 175.477 127.685 175.599 126.253C175.711 124.825 176.221 123.564 177.12 122.474C178.019 121.384 179.352 120.533 181.116 119.912C182.88 119.291 184.433 119.127 185.817 119.414C187.201 119.701 188.379 120.368 189.364 121.42C190.349 122.473 191.128 123.842 191.715 125.512L191.709 125.525ZM179.956 129.66C180.348 130.773 180.831 131.695 181.39 132.41C181.959 133.122 182.612 133.592 183.368 133.813C184.125 134.035 184.971 133.97 185.905 133.642C186.839 133.313 187.574 132.811 188.019 132.177C188.46 131.534 188.675 130.759 188.663 129.851C188.651 128.944 188.441 127.926 188.05 126.813C187.455 125.124 186.676 123.903 185.724 123.157C184.763 122.414 183.562 122.285 182.11 122.796C181.157 123.131 180.46 123.62 180.012 124.276C179.561 124.922 179.337 125.701 179.349 126.609C179.352 127.519 179.558 128.528 179.956 129.66Z" fill="#6666FF"/>
<path d="M201.239 131.278L197.862 132.466L192.173 116.297L201.436 113.038L202.425 115.849L196.539 117.92L198.006 122.09L203.486 120.162L204.475 122.973L198.995 124.901L201.242 131.288L201.239 131.278Z" fill="#6666FF"/>
<path d="M213.662 126.907L210.285 128.095L204.595 111.926L213.858 108.667L214.847 111.478L208.961 113.549L210.429 117.719L215.909 115.791L216.898 118.602L211.418 120.53L213.665 126.917L213.662 126.907Z" fill="#6666FF"/>
</g>
<g clip-path="url(#clip10_34_987)">
<path d="M269.254 547.957L252.884 487.965C251.983 484.663 247.702 483.609 245.158 486.06L198.971 530.625L184.822 544.395L164.066 539.234L101.686 523.976C98.2552 523.14 95.0905 526.206 95.9735 529.513L112.079 589.575L128.448 649.567C129.349 652.869 133.631 653.923 136.174 651.472L182.361 606.907L196.51 593.137L217.267 598.298L279.635 613.55C283.066 614.386 286.231 611.319 285.348 608.013L269.243 547.951L269.254 547.957Z" fill="#6AE5DF"/>
<path d="M247.25 484.866C249.58 484.251 252.195 485.465 252.882 487.956L269.252 547.949L285.357 608.011C286.03 610.524 284.356 612.907 282 613.53C281.258 613.726 280.461 613.747 279.644 613.547L217.276 598.296L196.519 593.134L182.37 606.904L136.183 651.469C135.567 652.066 134.839 652.457 134.089 652.655C131.759 653.27 129.144 652.056 128.457 649.565L112.087 589.572L95.9822 529.51C95.3089 526.997 96.9828 524.614 99.3392 523.991C100.081 523.795 100.877 523.774 101.695 523.974L164.063 539.225L184.82 544.387L198.969 530.617L245.156 486.052C245.772 485.455 246.5 485.064 247.25 484.866ZM244.866 475.844C242.413 476.492 240.162 477.764 238.341 479.518L192.154 524.083L181.999 533.962L166.7 530.158L104.281 514.893C101.879 514.308 99.3359 514.33 96.9442 514.962C93.264 515.935 90.0424 518.321 88.099 521.507C86.1446 524.723 85.5937 528.463 86.5458 532.03L102.651 592.093L119.032 652.127C121.023 659.412 128.839 663.694 136.464 661.68C138.917 661.032 141.168 659.76 142.99 658.005L189.176 613.44L199.331 603.561L214.632 607.374L277.04 622.633C279.442 623.217 281.977 623.198 284.377 622.563C288.048 621.593 291.279 619.205 293.222 616.019C295.185 612.8 295.739 609.069 294.776 605.495L278.67 545.433L262.289 485.398C260.299 478.114 252.483 473.831 244.857 475.846L244.866 475.844Z" fill="#6666FF"/>
<path d="M196.521 593.143L215.588 562.001L184.811 544.389L165.654 575.194L196.521 593.143Z" fill="#F1F2F2"/>
<path d="M139.463 582.015C140.078 584.344 140.132 586.407 139.634 588.2C139.135 589.993 138.163 591.496 136.709 592.711C135.264 593.923 133.389 594.834 131.095 595.44L124.617 597.152L119.258 576.87L126.266 575.018C128.498 574.428 130.503 574.296 132.281 574.63C134.059 574.964 135.549 575.744 136.782 576.98C138.007 578.219 138.903 579.896 139.463 582.015ZM134.753 583.449C134.367 581.989 133.83 580.848 133.13 580.022C132.439 579.193 131.581 578.661 130.567 578.433C129.553 578.204 128.398 578.265 127.083 578.613L124.736 579.233L128.21 592.383L130.107 591.882C132.287 591.306 133.755 590.322 134.509 588.922C135.265 587.53 135.339 585.705 134.744 583.451L134.753 583.449Z" fill="#6666FF"/>
<path d="M158.71 588.144L146.504 591.369L141.145 571.086L153.351 567.862L154.281 571.381L146.558 573.422L147.736 577.878L154.92 575.98L155.85 579.5L148.666 581.398L150.046 586.622L157.768 584.582L158.707 588.135L158.71 588.144Z" fill="#6666FF"/>
<path d="M167.803 567.601C166.955 567.825 166.23 568.188 165.624 568.682C165.018 569.176 164.565 569.784 164.247 570.509C163.929 571.234 163.756 572.047 163.732 572.956C163.708 573.866 163.839 574.861 164.124 575.941C164.499 577.359 165.032 578.518 165.714 579.422C166.397 580.325 167.228 580.936 168.214 581.235C169.199 581.535 170.321 581.527 171.583 581.194C172.51 580.949 173.383 580.61 174.192 580.17C175.001 579.731 175.797 579.241 176.577 578.692L177.552 582.38C176.756 582.978 175.916 583.48 175.041 583.883C174.165 584.286 173.164 584.641 172.034 584.939C169.775 585.536 167.808 585.595 166.124 585.119C164.441 584.643 163.043 583.712 161.922 582.329C160.801 580.945 159.975 579.213 159.431 577.154C159.025 575.618 158.876 574.158 158.987 572.756C159.098 571.355 159.461 570.085 160.09 568.926C160.718 567.766 161.596 566.767 162.722 565.918C163.857 565.068 165.255 564.427 166.914 563.989C167.965 563.712 169.053 563.542 170.196 563.474C171.331 563.409 172.444 563.476 173.533 563.667L172.967 567.528C172.167 567.396 171.335 567.318 170.478 567.292C169.612 567.267 168.725 567.375 167.816 567.616L167.803 567.601Z" fill="#6666FF"/>
<path d="M190.137 579.841L180.482 582.392L179.837 579.952L182.122 578.13L178.654 565.005L175.767 564.549L175.123 562.109L184.778 559.558L185.422 561.998L183.137 563.82L186.605 576.945L189.492 577.401L190.137 579.841Z" fill="#6666FF"/>
<path d="M204.775 569.959C205.09 571.149 205.058 572.278 204.683 573.325C204.308 574.372 203.599 575.299 202.57 576.086C201.541 576.873 200.194 577.49 198.535 577.929C197.802 578.122 197.074 578.261 196.344 578.354C195.613 578.448 194.907 578.49 194.213 578.475C193.52 578.459 192.853 578.401 192.21 578.291L191.151 574.281C192.266 574.429 193.419 574.54 194.587 574.602C195.758 574.672 196.879 574.556 197.947 574.274C198.679 574.08 199.246 573.831 199.636 573.52C200.028 573.218 200.295 572.868 200.413 572.494C200.54 572.117 200.539 571.72 200.43 571.306C200.293 570.791 199.994 570.41 199.537 570.143C199.07 569.878 198.496 569.668 197.795 569.519C197.095 569.37 196.309 569.217 195.421 569.072C194.866 568.975 194.256 568.847 193.6 568.686C192.944 568.525 192.294 568.282 191.642 567.957C190.999 567.631 190.417 567.179 189.908 566.61C189.396 566.032 189.019 565.282 188.774 564.354C188.452 563.139 188.472 562.032 188.827 561.017C189.182 560.002 189.837 559.125 190.802 558.382C191.759 557.642 192.969 557.078 194.434 556.691C195.546 556.397 196.63 556.247 197.692 556.228C198.754 556.209 199.898 556.286 201.104 556.455L200.533 560.191C199.462 560.067 198.51 560.003 197.689 560.003C196.856 559.997 196.044 560.103 195.232 560.318C194.676 560.465 194.222 560.675 193.869 560.949C193.517 561.223 193.279 561.538 193.148 561.898C193.016 562.258 193.015 562.647 193.124 563.06C193.249 563.533 193.506 563.898 193.884 564.15C194.271 564.4 194.797 564.605 195.469 564.752C196.14 564.9 196.978 565.067 197.978 565.245C199.193 565.448 200.256 565.718 201.164 566.047C202.064 566.378 202.82 566.846 203.424 567.454C204.029 568.062 204.477 568.9 204.756 569.956L204.775 569.959Z" fill="#6666FF"/>
<path d="M218.051 572.465L208.396 575.016L207.752 572.577L210.037 570.754L206.569 557.629L203.682 557.173L203.038 554.734L212.693 552.183L213.337 554.622L211.052 556.445L214.52 569.57L217.407 570.026L218.051 572.465Z" fill="#6666FF"/>
<path d="M238.134 556.279C238.548 557.849 238.722 559.329 238.653 560.711C238.584 562.092 238.258 563.361 237.683 564.506C237.107 565.652 236.253 566.636 235.112 567.461C233.97 568.287 232.537 568.936 230.798 569.395C229.06 569.855 227.512 570.002 226.101 569.842C224.69 569.682 223.454 569.259 222.388 568.547C221.322 567.836 220.412 566.893 219.67 565.726C218.927 564.559 218.345 563.178 217.923 561.582C217.368 559.481 217.246 557.554 217.562 555.818C217.875 554.074 218.659 552.575 219.932 551.318C221.196 550.063 222.989 549.129 225.31 548.516C227.631 547.902 229.616 547.838 231.334 548.305C233.053 548.772 234.478 549.696 235.605 551.069C236.733 552.441 237.569 554.179 238.125 556.281L238.134 556.279ZM222.724 560.35C223.095 561.751 223.601 562.918 224.233 563.843C224.864 564.769 225.654 565.4 226.591 565.73C227.528 566.061 228.606 566.065 229.833 565.741C231.059 565.417 232.056 564.864 232.69 564.119C233.332 563.371 233.692 562.446 233.782 561.32C233.865 560.206 233.729 558.941 233.359 557.54C232.799 555.422 231.952 553.858 230.821 552.865C229.688 551.865 228.17 551.624 226.273 552.126C225.029 552.454 224.078 553.003 223.429 553.762C222.78 554.52 222.414 555.457 222.311 556.568C222.207 557.678 222.352 558.941 222.727 560.358L222.724 560.35Z" fill="#6666FF"/>
<path d="M263.961 560.335L258.26 561.842L244.968 548.947L244.853 548.977C245.058 549.609 245.265 550.25 245.47 550.882C245.665 551.517 245.872 552.157 246.068 552.792C246.264 553.426 246.463 554.069 246.65 554.706L249.172 564.252L245.165 565.31L239.806 545.028L245.481 543.529L258.7 556.29L258.788 556.266C258.606 555.646 258.414 555.029 258.231 554.409C258.049 553.789 257.859 553.18 257.67 552.571C257.481 551.961 257.292 551.352 257.109 550.732L254.573 541.136L258.615 540.068L263.974 560.35L263.961 560.335Z" fill="#6666FF"/>
</g>
</g>
<defs>
<clipPath id="clip0_34_987">
<rect width="1536.14" height="904.19" fill="white"/>
</clipPath>
<clipPath id="clip1_34_987">
<rect width="88" height="88" fill="white" transform="translate(1130 38.396) rotate(-25.8692)"/>
</clipPath>
<clipPath id="clip2_34_987">
<rect width="190.825" height="190.825" fill="white" transform="translate(1269 205.415) rotate(-10.1491)"/>
</clipPath>
<clipPath id="clip3_34_987">
<rect width="190.825" height="190.825" fill="white" transform="translate(1292.74 310.789) rotate(30.463)"/>
</clipPath>
<clipPath id="clip4_34_987">
<rect width="175.117" height="57.2291" fill="white" transform="matrix(0.953456 -0.301531 0.300211 0.953873 1170 685.665)"/>
</clipPath>
<clipPath id="clip5_34_987">
<rect width="176" height="72" fill="white" transform="translate(1365.28 42.7891) rotate(13.8887)"/>
</clipPath>
<clipPath id="clip6_34_987">
<rect width="234.178" height="234.178" fill="white" transform="translate(272 698.021) rotate(-28.3111)"/>
</clipPath>
<clipPath id="clip7_34_987">
<rect width="108.254" height="135.544" fill="white" transform="translate(171.903 340.417) rotate(120.91)"/>
</clipPath>
<clipPath id="clip8_34_987">
<rect width="135.551" height="135.551" fill="white" transform="translate(300.994 161.753) rotate(76.1851)"/>
</clipPath>
<clipPath id="clip9_34_987">
<rect width="195.309" height="200.13" fill="white" transform="translate(33 73.6152) rotate(-19.3852)"/>
</clipPath>
<clipPath id="clip10_34_987">
<rect width="182.564" height="151.98" fill="white" transform="translate(83 518.61) rotate(-14.8)"/>
</clipPath>
</defs>
</svg>
