<svg width="1537" height="619" viewBox="0 0 1537 619" fill="none" xmlns="http://www.w3.org/2000/svg">
<rect width="1536" height="619" transform="translate(0.0700684)" fill="white"/>
<g clip-path="url(#clip0_34_4238)">
<path d="M1094.72 522.116C1148.8 512.436 1184.79 460.75 1175.11 406.672C1165.43 352.595 1113.74 316.604 1059.67 326.285C1005.59 335.965 969.598 387.651 979.278 441.728C988.959 495.806 1040.64 531.796 1094.72 522.116Z" fill="#6AE5DF"/>
<path d="M1092.4 509.162C1045.56 517.547 1000.62 486.262 992.232 439.41C983.845 392.557 1015.14 347.625 1061.98 339.239C1108.83 330.854 1153.77 362.139 1162.15 408.991C1170.54 455.844 1139.26 500.775 1092.4 509.162ZM1066.59 364.981C1033.94 370.827 1012.13 402.147 1017.97 434.801C1023.82 467.456 1055.14 489.265 1087.79 483.42C1120.45 477.574 1142.26 446.254 1136.41 413.599C1130.57 380.945 1099.25 359.136 1066.59 364.981Z" fill="#F1F2F2"/>
<path d="M1060.84 409.959L1066.12 391.379C1067.51 386.513 1073.93 385.434 1076.82 389.596L1087.84 405.458L1107.15 404.741C1112.21 404.553 1115.21 410.331 1112.15 414.366L1100.47 429.755L1107.11 447.887C1108.85 452.639 1104.29 457.286 1099.5 455.616L1081.26 449.262L1066.06 461.188C1062.08 464.315 1056.26 461.407 1056.36 456.346L1056.76 437.033L1040.73 426.271C1036.53 423.446 1037.5 417.008 1042.34 415.545L1060.83 409.96L1060.84 409.959Z" fill="#6666FF"/>
<path d="M1013.4 373.211C1015.05 371.166 1016.56 369.917 1017.91 369.472C1019.27 369.027 1020.58 369.317 1021.86 370.342C1022.48 370.846 1022.94 371.402 1023.2 371.991C1023.47 372.589 1023.59 373.185 1023.56 373.797C1023.52 374.409 1023.37 374.981 1023.1 375.516L1023.2 375.598C1023.69 375.187 1024.24 374.866 1024.85 374.615C1025.47 374.374 1026.12 374.298 1026.82 374.405C1027.51 374.513 1028.26 374.876 1029.04 375.504C1029.94 376.231 1030.54 377.084 1030.83 378.053C1031.11 379.023 1031.1 380.055 1030.78 381.143C1030.46 382.231 1029.84 383.353 1028.93 384.497L1024.43 390.082L1009.5 378.041L1013.4 373.211ZM1019.51 377.865C1020.26 376.944 1020.6 376.176 1020.55 375.558C1020.5 374.941 1020.19 374.41 1019.65 373.971C1019.08 373.507 1018.49 373.38 1017.89 373.569C1017.28 373.758 1016.62 374.3 1015.9 375.197L1014.57 376.85L1018.07 379.67L1019.52 377.875L1019.51 377.865ZM1020.47 381.605L1024.48 384.838L1026.12 382.807C1026.88 381.862 1027.22 381.044 1027.14 380.371C1027.06 379.688 1026.71 379.113 1026.11 378.625C1025.73 378.319 1025.33 378.137 1024.92 378.061C1024.5 377.984 1024.04 378.066 1023.55 378.304C1023.07 378.542 1022.56 378.998 1022.02 379.67L1020.47 381.596L1020.47 381.605Z" fill="#6666FF"/>
<path d="M1044.2 362.804C1044.95 363.893 1045.4 365.045 1045.53 366.246C1045.65 367.456 1045.41 368.642 1044.8 369.821C1044.19 370.992 1043.15 372.098 1041.67 373.11C1039.59 374.555 1037.63 375.128 1035.79 374.81C1033.97 374.499 1032.44 373.469 1031.23 371.716L1024.19 361.556L1027.53 359.251L1034.21 368.899C1035.11 370.193 1036.01 370.921 1036.89 371.086C1037.79 371.248 1038.76 370.973 1039.81 370.241C1040.54 369.735 1041.05 369.189 1041.33 368.623C1041.62 368.057 1041.68 367.44 1041.53 366.76C1041.37 366.08 1041.02 365.335 1040.46 364.526L1033.79 354.896L1037.13 352.591L1044.19 362.796L1044.2 362.804Z" fill="#6666FF"/>
<path d="M1063.19 352.645C1063.86 354.748 1064.03 356.617 1063.69 358.265C1063.36 359.911 1062.59 361.312 1061.38 362.468C1060.19 363.622 1058.6 364.513 1056.62 365.15L1051.05 366.935L1045.2 348.671L1051.24 346.741C1053.17 346.122 1054.92 345.931 1056.49 346.176C1058.06 346.42 1059.42 347.076 1060.56 348.155C1061.7 349.233 1062.59 350.732 1063.19 352.645ZM1059.15 354.107C1058.73 352.797 1058.19 351.773 1057.53 351.042C1056.87 350.31 1056.1 349.863 1055.2 349.691C1054.3 349.518 1053.28 349.609 1052.15 349.973L1050.14 350.617L1053.93 362.457L1055.57 361.932C1057.44 361.334 1058.68 360.386 1059.25 359.09C1059.83 357.794 1059.8 356.132 1059.15 354.107Z" fill="#6666FF"/>
<path d="M1075.94 350.919L1083.54 350.792L1083.7 360.727C1082.7 361.087 1081.66 361.364 1080.58 361.588C1079.49 361.802 1078.27 361.92 1076.89 361.945C1075 361.971 1073.37 361.626 1072.03 360.896C1070.68 360.166 1069.65 359.078 1068.93 357.62C1068.22 356.161 1067.84 354.359 1067.81 352.212C1067.78 350.207 1068.14 348.464 1068.9 346.985C1069.65 345.506 1070.77 344.346 1072.24 343.517C1073.71 342.688 1075.52 342.253 1077.67 342.222C1078.68 342.202 1079.69 342.294 1080.68 342.492C1081.66 342.689 1082.57 342.961 1083.38 343.302L1082.08 346.575C1081.48 346.278 1080.82 346.044 1080.06 345.857C1079.3 345.668 1078.51 345.587 1077.69 345.604C1076.51 345.623 1075.49 345.907 1074.63 346.465C1073.76 347.013 1073.1 347.788 1072.65 348.768C1072.19 349.75 1071.98 350.911 1072 352.23C1072.02 353.479 1072.21 354.588 1072.56 355.555C1072.92 356.512 1073.47 357.263 1074.22 357.795C1074.96 358.329 1075.93 358.581 1077.11 358.572C1077.68 358.56 1078.17 358.523 1078.57 358.471C1078.98 358.409 1079.35 358.332 1079.69 358.271L1079.62 354.271L1075.99 354.334L1075.93 350.95L1075.94 350.919Z" fill="#6666FF"/>
<path d="M1097.8 364.892L1087.07 362.264L1091.63 343.643L1102.35 346.272L1101.56 349.506L1094.77 347.851L1093.77 351.942L1100.08 353.49L1099.28 356.724L1092.97 355.176L1091.8 359.974L1098.58 361.629L1097.78 364.895L1097.8 364.892Z" fill="#6666FF"/>
<path d="M1107.22 369.33L1103.55 367.48L1110.65 353.406L1106.02 351.072L1107.56 348.028L1120.49 354.545L1118.95 357.589L1114.32 355.256L1107.22 369.33Z" fill="#6666FF"/>
<path d="M1118.13 496.007L1109.97 477.974L1113.58 475.085L1121.9 481.326C1122.06 481.449 1122.3 481.639 1122.61 481.897C1122.92 482.155 1123.25 482.438 1123.63 482.735C1123.99 483.033 1124.34 483.325 1124.65 483.612C1124.98 483.898 1125.22 484.117 1125.39 484.279C1125.26 484.089 1125.09 483.797 1124.89 483.418C1124.69 483.039 1124.48 482.643 1124.27 482.237C1124.05 481.82 1123.85 481.432 1123.67 481.06C1123.49 480.687 1123.35 480.399 1123.26 480.203L1119.01 470.749L1122.61 467.86L1138.41 479.776L1135.28 482.276L1126.82 475.625C1126.57 475.427 1126.28 475.187 1125.93 474.905C1125.59 474.622 1125.23 474.313 1124.87 474.003C1124.5 473.685 1124.16 473.384 1123.81 473.082C1123.46 472.78 1123.18 472.517 1122.95 472.286C1123.13 472.577 1123.33 472.914 1123.55 473.299C1123.77 473.684 1123.99 474.091 1124.2 474.497C1124.42 474.913 1124.62 475.301 1124.81 475.662C1124.99 476.023 1125.14 476.321 1125.23 476.547L1129.76 486.68L1126.76 489.075L1117.87 482.431C1117.68 482.283 1117.44 482.075 1117.11 481.82C1116.79 481.564 1116.44 481.282 1116.09 480.972C1115.73 480.663 1115.38 480.361 1115.05 480.066C1114.73 479.77 1114.45 479.507 1114.22 479.276C1114.46 479.657 1114.72 480.125 1115.02 480.678C1115.32 481.23 1115.61 481.784 1115.9 482.36C1116.18 482.935 1116.42 483.408 1116.61 483.789L1121.25 493.498L1118.12 495.999L1118.13 496.007Z" fill="#6666FF"/>
<path d="M1097.75 483.335L1105.78 479.897L1106.68 482.019L1104.96 483.924L1109.85 495.326L1112.42 495.392L1113.33 497.514L1105.3 500.951L1104.4 498.829L1106.12 496.925L1101.23 485.522L1098.66 485.456L1097.75 483.335Z" fill="#6666FF"/>
<path d="M1085.58 491.749C1085.34 490.65 1085.39 489.63 1085.76 488.685C1086.11 487.742 1086.76 486.94 1087.69 486.268C1088.61 485.598 1089.81 485.099 1091.28 484.776C1091.93 484.629 1092.57 484.545 1093.21 484.491C1093.85 484.438 1094.47 484.437 1095.08 484.48C1095.68 484.524 1096.26 484.612 1096.82 484.744L1097.64 488.438C1096.66 488.249 1095.65 488.096 1094.63 487.985C1093.61 487.875 1092.62 487.921 1091.68 488.13C1091.04 488.275 1090.53 488.478 1090.18 488.732C1089.82 488.998 1089.58 489.294 1089.47 489.627C1089.35 489.962 1089.33 490.329 1089.42 490.707C1089.53 491.183 1089.77 491.543 1090.17 491.805C1090.58 492.067 1091.07 492.282 1091.68 492.456C1092.28 492.621 1092.97 492.8 1093.74 492.976C1094.22 493.091 1094.76 493.239 1095.32 493.41C1095.89 493.591 1096.46 493.843 1097.01 494.168C1097.57 494.494 1098.07 494.929 1098.5 495.478C1098.93 496.028 1099.24 496.73 1099.44 497.585C1099.69 498.702 1099.64 499.722 1099.29 500.632C1098.95 501.542 1098.35 502.316 1097.49 502.935C1096.64 503.563 1095.55 504.02 1094.26 504.311C1093.28 504.528 1092.33 504.618 1091.39 504.583C1090.46 504.548 1089.46 504.433 1088.41 504.228L1089.01 500.845C1089.94 501.002 1090.78 501.105 1091.5 501.147C1092.23 501.189 1092.95 501.132 1093.67 500.973C1094.15 500.865 1094.55 500.692 1094.88 500.462C1095.19 500.225 1095.41 499.952 1095.54 499.627C1095.66 499.302 1095.68 498.955 1095.59 498.567C1095.49 498.13 1095.28 497.784 1094.95 497.539C1094.62 497.294 1094.16 497.084 1093.58 496.916C1092.99 496.748 1092.26 496.566 1091.39 496.347C1090.33 496.103 1089.41 495.813 1088.63 495.468C1087.85 495.122 1087.2 494.662 1086.68 494.078C1086.17 493.492 1085.8 492.71 1085.59 491.738L1085.58 491.749Z" fill="#6666FF"/>
<path d="M1070.86 486.602L1081.9 486.687L1081.76 505.863L1070.72 505.778L1070.74 502.449L1077.72 502.503L1077.75 498.283L1071.26 498.233L1071.28 494.905L1077.77 494.955L1077.81 490.017L1070.83 489.963L1070.85 486.604L1070.86 486.602Z" fill="#6666FF"/>
<path d="M1068.02 486.182L1063.63 504.844L1059.63 503.902L1063.24 488.532L1055.69 486.751L1056.47 483.46L1068.02 486.182Z" fill="#6666FF"/>
<path d="M1044.8 490.268L1037.73 495.748L1033.72 493.787L1044.56 486.056L1047.85 479.354L1051.56 481.175L1048.33 487.766L1048.82 501.19L1044.81 499.23L1044.79 490.279L1044.8 490.268Z" fill="#6666FF"/>
</g>
<g clip-path="url(#clip1_34_4238)">
<path d="M1461.93 284.731L1247.06 199.545C1236.84 195.491 1225.26 200.494 1221.21 210.719L1136.03 425.582C1131.97 435.807 1136.97 447.382 1147.2 451.436L1362.06 536.622C1372.29 540.676 1383.86 535.673 1387.92 525.448L1473.1 310.585C1477.16 300.36 1472.15 288.785 1461.93 284.731Z" fill="#6666FF"/>
<path d="M1352.02 514.89L1169.6 442.567C1168.92 442.298 1168.43 441.708 1168.28 440.991C1168.13 440.28 1168.36 439.537 1168.87 439.025C1170.28 437.632 1171.35 435.988 1172.08 434.149C1174.99 426.807 1171.38 418.483 1164.05 415.576C1162.95 415.137 1162.39 413.883 1162.84 412.762L1231.72 239.021C1232.16 237.912 1233.41 237.36 1234.53 237.804C1241.86 240.71 1250.2 237.107 1253.11 229.777C1253.55 228.669 1254.8 228.117 1255.92 228.561L1435.78 299.871C1436.89 300.31 1437.44 301.564 1437 302.685C1434.09 310.015 1437.7 318.351 1445.03 321.257C1446.14 321.697 1446.69 322.951 1446.24 324.071L1377.37 497.801C1376.93 498.909 1375.67 499.461 1374.55 499.017C1367.22 496.111 1358.89 499.714 1355.98 507.044C1355.25 508.883 1354.92 510.821 1354.98 512.798C1355.01 513.525 1354.66 514.218 1354.06 514.635C1353.47 515.057 1352.7 515.142 1352.02 514.873L1352.02 514.89ZM1173.99 439.658L1350.82 509.764C1351.02 508.299 1351.41 506.849 1351.96 505.451C1355.48 496.572 1365.09 491.898 1374.1 494.319L1441.48 324.368C1433.89 320.298 1430.08 311.456 1432.3 303.139L1256.23 233.333C1252.16 240.916 1243.32 244.726 1235 242.508L1167.63 412.446C1175.85 416.856 1179.64 426.855 1176.12 435.722C1175.57 437.12 1174.86 438.428 1174 439.646L1173.99 439.658Z" fill="#6AE5DF"/>
<path d="M1234.96 228.341C1238.75 229.844 1243.05 227.989 1244.55 224.198C1246.05 220.407 1244.2 216.116 1240.41 214.613C1236.62 213.11 1232.32 214.965 1230.82 218.756C1229.32 222.547 1231.17 226.838 1234.96 228.341Z" fill="#6AE5DF"/>
<path d="M1152.67 435.899C1156.46 437.402 1160.76 435.547 1162.26 431.756C1163.76 427.966 1161.91 423.674 1158.12 422.171C1154.33 420.668 1150.03 422.523 1148.53 426.314C1147.03 430.105 1148.88 434.396 1152.67 435.899Z" fill="#6AE5DF"/>
<path d="M1451.01 313.996C1454.8 315.499 1459.09 313.645 1460.6 309.854C1462.1 306.063 1460.24 301.771 1456.45 300.268C1452.66 298.765 1448.37 300.62 1446.87 304.411C1445.36 308.202 1447.22 312.493 1451.01 313.996Z" fill="#6AE5DF"/>
<path d="M1368.72 521.554C1372.51 523.057 1376.8 521.203 1378.31 517.412C1379.81 513.621 1377.95 509.329 1374.16 507.826C1370.37 506.323 1366.08 508.178 1364.58 511.969C1363.08 515.76 1364.93 520.051 1368.72 521.554Z" fill="#6AE5DF"/>
<path d="M1226.75 323.083L1238.81 292.68L1251.94 297.888L1250.14 302.434L1243.72 299.888L1240.68 307.545L1246.27 309.762L1244.42 314.447L1238.82 312.23L1233.47 325.744L1226.75 323.083Z" fill="white"/>
<path d="M1244.02 329.929L1256.07 299.525L1262.79 302.187L1250.73 332.59L1244.02 329.929Z" fill="white"/>
<path d="M1256.21 334.762L1268.27 304.359L1272.99 306.231L1273.42 323.338L1279.22 308.703L1284.78 310.905L1272.72 341.308L1268.19 339.511L1268.2 321.283L1261.96 337.039L1256.21 334.762Z" fill="white"/>
<path d="M1276.74 342.901L1294.54 314.775L1302.2 317.811L1295.81 350.461L1289.61 348.004L1291.15 341.182L1286.68 339.409L1283.09 345.418L1276.74 342.901ZM1288.88 335.631L1292.1 336.909L1295.19 324.406L1288.88 335.631Z" fill="white"/>
<path d="M1299.83 352.054L1311.88 321.651L1316.6 323.523L1317.04 340.63L1322.84 325.995L1328.39 328.197L1316.34 358.6L1311.8 356.803L1311.82 338.575L1305.57 354.331L1299.83 352.054Z" fill="white"/>
<path d="M1330.35 364.664C1328.04 363.75 1326.39 362.615 1325.38 361.237C1324.38 359.864 1323.9 358.318 1323.94 356.587C1323.99 354.856 1324.42 352.958 1325.23 350.905L1329.58 339.948C1330.41 337.845 1331.4 336.153 1332.56 334.849C1333.72 333.558 1335.12 332.761 1336.79 332.459C1338.45 332.157 1340.44 332.478 1342.74 333.392C1345.05 334.305 1346.6 335.345 1347.58 336.592C1348.55 337.835 1349.03 339.222 1349.04 340.754C1349.04 342.286 1348.7 343.915 1348.01 345.653L1346.97 348.285L1340.41 345.684L1341.61 342.648C1341.85 342.044 1342.05 341.467 1342.21 340.888C1342.36 340.309 1342.37 339.786 1342.21 339.301C1342.05 338.815 1341.6 338.434 1340.89 338.15C1340.17 337.865 1339.59 337.854 1339.1 338.097C1338.61 338.34 1338.21 338.721 1337.9 339.253C1337.59 339.785 1337.31 340.362 1337.06 340.992L1331.4 355.287C1331.13 355.967 1330.93 356.604 1330.82 357.216C1330.71 357.827 1330.76 358.358 1330.97 358.833C1331.17 359.308 1331.6 359.666 1332.25 359.926C1332.96 360.205 1333.52 360.224 1333.97 359.978C1334.41 359.733 1334.79 359.342 1335.09 358.792C1335.4 358.243 1335.67 357.679 1335.91 357.074L1337.17 353.888L1343.73 356.489L1342.69 359.122C1342 360.847 1341.14 362.296 1340.08 363.452C1339.03 364.607 1337.71 365.341 1336.13 365.617C1334.56 365.912 1332.63 365.598 1330.35 364.694L1330.35 364.664Z" fill="white"/>
<path d="M1343.91 369.531L1355.96 339.127L1362.68 341.789L1350.62 372.192L1343.91 369.531Z" fill="white"/>
<path d="M1354.65 373.79L1372.45 345.664L1380.11 348.7L1373.72 381.35L1367.52 378.893L1369.06 372.07L1364.59 370.298L1361 376.307L1354.65 373.79ZM1366.78 366.515L1370 367.793L1373.09 355.29L1366.78 366.515Z" fill="white"/>
<path d="M1377.72 382.938L1389.78 352.534L1396.49 355.196L1386.24 381.052L1393.22 383.819L1391.42 388.365L1377.71 382.933L1377.72 382.938Z" fill="white"/>
<path d="M1208.9 368.109L1220.95 337.718L1227.66 340.379L1217.41 366.236L1224.39 369.002L1222.59 373.549L1208.89 368.116L1208.9 368.109Z" fill="white"/>
<path d="M1226.51 375.089L1238.56 344.699L1245.27 347.36L1233.22 377.751L1226.51 375.089Z" fill="white"/>
<path d="M1241.45 381.011L1251.52 355.608L1246.93 353.791L1248.91 348.803L1264.78 355.095L1262.8 360.082L1258.26 358.28L1248.19 383.683L1241.43 381.006L1241.45 381.011Z" fill="white"/>
<path d="M1256.33 386.913L1268.38 356.522L1282.05 361.94L1280.24 366.512L1273.3 363.761L1270.3 371.305L1275.59 373.402L1273.75 378.049L1268.46 375.952L1264.86 385.033L1271.88 387.814L1270.07 392.361L1256.33 386.913Z" fill="white"/>
<path d="M1274.05 393.939L1286.1 363.548L1294.47 366.864C1296.52 367.678 1298.2 368.609 1299.52 369.656C1300.84 370.704 1301.69 371.974 1302.08 373.467C1302.46 374.961 1302.23 376.775 1301.38 378.904C1300.89 380.151 1300.34 381.232 1299.76 382.122C1299.17 383.011 1298.47 383.71 1297.64 384.214C1296.82 384.717 1295.81 385.004 1294.63 385.088L1292.97 401.452L1286.03 398.7L1288.09 383.75L1286.18 382.991L1280.77 396.618L1274.06 393.957L1274.05 393.939ZM1287.7 379.119L1289.57 379.863C1290.52 380.238 1291.33 380.369 1291.99 380.238C1292.65 380.108 1293.21 379.762 1293.68 379.217C1294.15 378.659 1294.55 377.931 1294.91 377.037C1295.42 375.739 1295.59 374.624 1295.39 373.717C1295.2 372.809 1294.47 372.099 1293.19 371.59L1291.01 370.726L1287.68 379.127L1287.7 379.119Z" fill="white"/>
<path d="M1296.04 402.657L1313.84 374.544L1321.49 377.579L1315.11 410.217L1308.92 407.76L1310.45 400.95L1305.98 399.178L1302.39 405.174L1296.04 402.657ZM1308.18 395.4L1311.4 396.678L1314.49 384.175L1308.18 395.4Z" fill="white"/>
<path d="M1327.16 415.519C1324.86 414.605 1323.21 413.47 1322.2 412.092C1321.2 410.719 1320.71 409.173 1320.76 407.442C1320.8 405.711 1321.24 403.813 1322.05 401.76L1326.39 390.803C1327.23 388.7 1328.22 387.008 1329.38 385.704C1330.53 384.413 1331.94 383.616 1333.61 383.314C1335.27 383.012 1337.26 383.333 1339.56 384.247C1341.87 385.16 1343.42 386.2 1344.4 387.447C1345.38 388.695 1345.85 390.077 1345.85 391.609C1345.86 393.141 1345.52 394.77 1344.83 396.508L1343.78 399.14L1337.22 396.539L1338.43 393.503C1338.67 392.899 1338.87 392.322 1339.02 391.743C1339.18 391.164 1339.18 390.641 1339.03 390.155C1338.87 389.67 1338.42 389.289 1337.7 389.005C1336.99 388.72 1336.41 388.709 1335.92 388.952C1335.43 389.195 1335.03 389.576 1334.72 390.108C1334.4 390.64 1334.13 391.217 1333.88 391.847L1328.21 406.142C1327.94 406.822 1327.75 407.459 1327.64 408.058C1327.54 408.657 1327.58 409.2 1327.79 409.675C1327.99 410.15 1328.42 410.508 1329.07 410.768C1329.78 411.048 1330.34 411.066 1330.79 410.821C1331.24 410.575 1331.61 410.184 1331.91 409.635C1332.22 409.085 1332.49 408.521 1332.73 407.917L1333.99 404.73L1340.55 407.332L1339.51 409.964C1338.82 411.689 1337.96 413.139 1336.9 414.294C1335.85 415.45 1334.54 416.183 1332.95 416.46C1331.37 416.736 1329.45 416.44 1327.17 415.536L1327.16 415.519Z" fill="white"/>
<path d="M1344.38 421.822L1349.31 409.404L1350.65 389.139L1357 391.656L1356.07 402.409L1362.48 393.828L1368.56 396.24L1355.77 411.965L1350.84 424.383L1344.4 421.827L1344.38 421.822Z" fill="white"/>
<path d="M1371.87 412.665L1377.21 404.042C1377.5 403.574 1378.23 403.863 1378.12 404.402L1376.1 414.343C1376.07 414.534 1376.14 414.736 1376.3 414.843L1382.17 419.08C1382.59 419.378 1382.32 420.045 1381.81 419.974L1374.63 419.037C1374.44 419.018 1374.24 419.101 1374.15 419.268L1368.81 427.891C1368.52 428.36 1367.79 428.07 1367.9 427.531L1369.92 417.59C1369.95 417.399 1369.88 417.198 1369.72 417.09L1363.85 412.853C1363.43 412.555 1363.7 411.888 1364.21 411.959L1371.39 412.896C1371.58 412.915 1371.78 412.832 1371.87 412.665Z" fill="white"/>
</g>
<g clip-path="url(#clip2_34_4238)">
<path d="M801.157 284.486L683.752 321.526C668.007 326.493 659.269 343.284 664.237 359.03C669.204 374.775 685.996 383.512 701.741 378.545L819.146 341.505C834.892 336.537 843.629 319.746 838.661 304.001C833.694 288.255 816.903 279.518 801.157 284.486Z" fill="#6666FF"/>
<path d="M692.151 358.815L685.339 360.964L684.77 359.158L686.328 357.746L683.274 348.066L681.187 347.803L680.618 345.998L687.429 343.849L687.999 345.654L686.44 347.067L689.494 356.747L691.581 357.009L692.151 358.815Z" fill="#F1F2F2"/>
<path d="M707.971 353.824L703.95 355.092L693.867 345.836L693.78 345.863C693.955 346.326 694.132 346.798 694.298 347.263C694.464 347.728 694.642 348.2 694.808 348.665C694.974 349.131 695.142 349.605 695.308 350.07L697.529 357.108L694.703 358L689.984 343.043L693.988 341.78L704.02 350.937L704.081 350.918C703.918 350.461 703.764 350.002 703.603 349.554C703.44 349.097 703.279 348.649 703.119 348.201C702.958 347.753 702.798 347.305 702.635 346.848L700.4 339.766L703.252 338.867L707.971 353.824Z" fill="#F1F2F2"/>
<path d="M719.246 345.702C719.524 346.583 719.548 347.419 719.327 348.208C719.097 349 718.638 349.701 717.931 350.317C717.224 350.933 716.285 351.421 715.116 351.79C714.601 351.952 714.084 352.077 713.565 352.164C713.046 352.251 712.542 352.295 712.047 352.307C711.553 352.32 711.073 352.289 710.603 352.226L709.67 349.27C710.481 349.349 711.305 349.406 712.143 349.42C712.985 349.442 713.785 349.333 714.543 349.094C715.058 348.932 715.455 348.73 715.724 348.491C715.994 348.253 716.161 347.989 716.235 347.707C716.309 347.425 716.293 347.132 716.194 346.818C716.076 346.443 715.843 346.162 715.508 345.98C715.163 345.801 714.743 345.655 714.236 345.566C713.728 345.477 713.151 345.381 712.511 345.295C712.11 345.24 711.671 345.157 711.19 345.06C710.717 344.96 710.234 344.796 709.758 344.563C709.284 344.338 708.847 344.016 708.457 343.602C708.067 343.187 707.761 342.642 707.544 341.953C707.263 341.063 707.23 340.23 707.439 339.464C707.648 338.698 708.079 338.025 708.741 337.451C709.396 336.881 710.239 336.423 711.277 336.095C712.062 335.848 712.83 335.701 713.595 335.661C714.359 335.622 715.171 335.643 716.046 335.741L715.796 338.534C715.027 338.47 714.339 338.447 713.752 338.469C713.162 338.483 712.573 338.592 712.006 338.771C711.613 338.895 711.301 339.06 711.063 339.279C710.823 339.489 710.669 339.73 710.592 340.003C710.515 340.277 710.528 340.561 710.624 340.866C710.734 341.215 710.932 341.478 711.219 341.656C711.505 341.834 711.893 341.971 712.381 342.057C712.868 342.143 713.477 342.248 714.201 342.355C715.084 342.479 715.856 342.648 716.521 342.87C717.185 343.092 717.741 343.425 718.203 343.854C718.664 344.284 719.013 344.903 719.261 345.688L719.246 345.702Z" fill="#F1F2F2"/>
<path d="M723.145 332.591C725.073 331.983 726.621 331.936 727.798 332.446C728.976 332.957 729.787 333.948 730.249 335.413C730.456 336.067 730.558 336.725 730.547 337.39C730.545 338.053 730.384 338.698 730.082 339.321C729.78 339.943 729.297 340.508 728.652 341.018C727.996 341.523 727.133 341.948 726.06 342.287L724.7 342.716L726.373 348.018L723.172 349.028L718.453 334.071L723.145 332.591ZM723.866 335.24L722.488 335.675L723.875 340.071L724.939 339.735C725.523 339.551 726.007 339.321 726.388 339.038C726.768 338.755 727.023 338.406 727.142 337.995C727.261 337.583 727.24 337.091 727.064 336.533C726.853 335.861 726.481 335.413 725.955 335.176C725.43 334.939 724.73 334.968 723.866 335.24Z" fill="#F1F2F2"/>
<path d="M741.879 343.126L735.068 345.275L734.498 343.47L736.057 342.058L733.003 332.377L730.916 332.115L730.346 330.31L737.158 328.161L737.727 329.966L736.169 331.378L739.223 341.059L741.31 341.321L741.879 343.126Z" fill="#F1F2F2"/>
<path d="M744.198 325.949C745.507 325.536 746.649 325.358 747.623 325.406C748.591 325.465 749.388 325.741 750.018 326.251C750.649 326.762 751.112 327.498 751.415 328.457C751.626 329.129 751.691 329.76 751.618 330.349C751.545 330.938 751.363 331.485 751.074 331.969C750.789 332.462 750.42 332.904 749.971 333.305L756.31 338.564L752.647 339.72L747.505 335.032L745.726 335.593L747.536 341.332L744.336 342.342L739.617 327.385L744.204 325.938L744.198 325.949ZM744.924 328.463L743.607 328.878L744.95 333.134L746.267 332.718C747.122 332.449 747.721 332.068 748.073 331.573C748.425 331.079 748.47 330.432 748.22 329.638C748.079 329.193 747.865 328.848 747.591 328.618C747.306 328.382 746.949 328.255 746.507 328.222C746.065 328.189 745.546 328.276 744.927 328.471L744.924 328.463Z" fill="#F1F2F2"/>
<path d="M767.336 335.095L765.073 331.935L759.797 333.599L759.758 337.486L756.304 338.576L756.825 321.898L760.758 320.658L770.799 334.003L767.345 335.092L767.336 335.095ZM761.417 326.577C761.299 326.384 761.104 326.101 760.859 325.718C760.604 325.338 760.356 324.946 760.103 324.537C759.852 324.137 759.649 323.798 759.491 323.541C759.54 323.88 759.569 324.274 759.596 324.726C759.624 325.177 759.648 325.62 759.673 326.034C759.701 326.457 759.719 326.816 759.731 327.099L759.682 330.682L763.476 329.485L761.406 326.571L761.417 326.577Z" fill="#F1F2F2"/>
<path d="M776.965 332.057L773.764 333.067L769.884 320.77L765.838 322.047L764.999 319.387L776.293 315.824L777.132 318.484L773.085 319.76L776.965 332.057Z" fill="#F1F2F2"/>
<path d="M788.886 328.296L782.075 330.445L781.506 328.639L783.064 327.227L780.01 317.546L777.923 317.284L777.354 315.479L784.165 313.33L784.734 315.135L783.176 316.548L786.23 326.228L788.317 326.49L788.886 328.296Z" fill="#F1F2F2"/>
<path d="M802.585 315.727C802.951 316.887 803.133 317.981 803.151 319.011C803.16 320.043 802.98 320.992 802.622 321.862C802.252 322.727 801.684 323.481 800.91 324.128C800.128 324.778 799.127 325.285 797.898 325.673C796.668 326.061 795.564 326.208 794.553 326.134C793.539 326.051 792.632 325.762 791.833 325.266C791.034 324.77 790.348 324.085 789.764 323.234C789.179 322.383 788.706 321.372 788.335 320.194C787.845 318.642 787.674 317.219 787.825 315.905C787.971 314.603 788.475 313.466 789.33 312.497C790.184 311.527 791.428 310.789 793.059 310.275C794.69 309.76 796.114 309.656 797.37 309.96C798.627 310.264 799.683 310.908 800.552 311.9C801.421 312.891 802.101 314.163 802.591 315.716L802.585 315.727ZM791.718 319.156C792.043 320.185 792.457 321.042 792.946 321.712C793.445 322.379 794.03 322.837 794.721 323.051C795.406 323.276 796.181 323.242 797.045 322.97C797.908 322.697 798.595 322.26 799.029 321.692C799.452 321.117 799.672 320.415 799.688 319.585C799.704 318.755 799.543 317.818 799.218 316.789C798.726 315.228 798.05 314.089 797.191 313.373C796.335 312.665 795.241 312.511 793.898 312.935C793.017 313.213 792.365 313.639 791.936 314.225C791.505 314.802 791.277 315.507 791.252 316.34C791.227 317.172 791.388 318.109 791.718 319.156Z" fill="#F1F2F2"/>
<path d="M821.268 318.08L817.248 319.348L807.164 310.092L807.077 310.12C807.252 310.583 807.429 311.054 807.596 311.519C807.762 311.985 807.939 312.456 808.105 312.922C808.271 313.387 808.44 313.861 808.606 314.327L810.826 321.365L808.001 322.256L803.282 307.299L807.285 306.036L817.318 315.193L817.379 315.174C817.216 314.717 817.061 314.258 816.901 313.81C816.737 313.353 816.577 312.905 816.416 312.457C816.256 312.009 816.095 311.561 815.932 311.104L813.698 304.023L816.55 303.123L821.268 318.08Z" fill="#F1F2F2"/>
</g>
<g clip-path="url(#clip3_34_4238)">
<path d="M1457.29 48.0011L1301.24 105.301C1296.73 106.958 1294.41 111.961 1296.07 116.475L1315.92 170.529C1317.58 175.043 1322.58 177.358 1327.09 175.701L1483.14 118.401C1487.66 116.744 1489.97 111.741 1488.32 107.227L1468.47 53.1733C1466.81 48.6593 1461.81 46.3437 1457.29 48.0011Z" fill="#6AE5DF"/>
<path d="M1477.75 113.133L1327.79 168.199C1324.32 169.473 1320.46 167.687 1319.18 164.217L1302.65 119.182C1301.37 115.713 1303.16 111.854 1306.63 110.58L1456.6 55.515C1460.07 54.241 1463.92 56.027 1465.2 59.4965L1481.73 104.531C1483.01 108.001 1481.22 111.859 1477.75 113.133ZM1307.26 112.307C1304.74 113.232 1303.45 116.028 1304.37 118.549L1320.91 163.583C1321.84 166.104 1324.63 167.398 1327.15 166.473L1477.12 111.407C1479.64 110.482 1480.93 107.685 1480.01 105.165L1463.47 60.1303C1462.55 57.6102 1459.75 56.3158 1457.23 57.2411L1307.26 112.307Z" fill="#6666FF"/>
<path d="M1327.61 120.184L1316.35 124.32C1316.16 124.389 1316.06 124.602 1316.13 124.792L1316.97 127.087C1317.04 127.277 1317.25 127.375 1317.44 127.306L1321.54 125.8L1330.27 149.569C1330.34 149.759 1330.55 149.857 1330.74 149.788L1333.11 148.919C1333.3 148.85 1333.39 148.637 1333.32 148.447L1324.6 124.687L1328.7 123.182C1328.89 123.112 1328.99 122.9 1328.92 122.71L1328.08 120.414C1328.01 120.224 1327.79 120.126 1327.6 120.196L1327.61 120.184Z" fill="#6666FF"/>
<path d="M1340.14 115.545L1337.77 116.413C1337.58 116.483 1337.48 116.695 1337.55 116.885L1341.52 127.691L1336.17 129.655L1332.2 118.85C1332.13 118.66 1331.92 118.562 1331.73 118.631L1329.37 119.5C1329.18 119.569 1329.08 119.782 1329.15 119.972L1338.86 146.416C1338.93 146.606 1339.14 146.704 1339.33 146.635L1341.69 145.766C1341.88 145.696 1341.98 145.484 1341.91 145.294L1337.32 132.788L1342.67 130.824L1347.26 143.329C1347.33 143.519 1347.55 143.618 1347.74 143.548L1350.1 142.68C1350.29 142.61 1350.39 142.397 1350.32 142.208L1340.61 115.772C1340.54 115.582 1340.33 115.484 1340.14 115.553L1340.14 115.545Z" fill="#6666FF"/>
<path d="M1360.65 135.418L1353.91 137.893L1350.23 127.89L1356.42 125.618C1356.61 125.548 1356.71 125.336 1356.64 125.146L1355.8 122.85C1355.73 122.661 1355.51 122.562 1355.32 122.632L1349.14 124.904L1346.15 116.774L1352.82 114.324C1353.01 114.255 1353.11 114.042 1353.04 113.852L1352.2 111.557C1352.13 111.367 1351.92 111.268 1351.73 111.338L1342.34 114.783C1342.15 114.853 1342.06 115.065 1342.13 115.255L1351.82 141.665C1351.89 141.855 1352.11 141.953 1352.3 141.883L1361.75 138.413C1361.94 138.343 1362.03 138.131 1361.96 137.941L1361.12 135.645C1361.05 135.455 1360.84 135.357 1360.65 135.427L1360.65 135.418Z" fill="#6666FF"/>
<path d="M1369.03 104.975L1359.71 108.395C1359.52 108.464 1359.43 108.677 1359.5 108.867L1369.21 135.311C1369.28 135.501 1369.49 135.599 1369.68 135.53L1372.04 134.661C1372.23 134.592 1372.33 134.379 1372.26 134.189L1367.6 121.502L1373.76 119.243C1373.95 119.173 1374.04 118.961 1373.98 118.771L1373.13 116.475C1373.06 116.285 1372.85 116.187 1372.66 116.256L1366.51 118.516L1363.52 110.386L1370.12 107.962C1370.31 107.892 1370.41 107.679 1370.34 107.49L1369.5 105.194C1369.43 105.004 1369.22 104.906 1369.03 104.975Z" fill="#6666FF"/>
<path d="M1373.75 103.242L1372.44 103.724C1371.95 103.901 1371.71 104.434 1371.88 104.916L1381.2 130.273C1381.37 130.754 1381.91 131.001 1382.39 130.824L1383.7 130.342C1384.18 130.166 1384.43 129.632 1384.25 129.151L1374.94 103.794C1374.76 103.312 1374.23 103.065 1373.75 103.242Z" fill="#6666FF"/>
<path d="M1391.58 108.525L1389.54 102.967C1388.84 101.042 1387.36 100.272 1386.25 99.9653C1384.97 99.6111 1383.45 99.6889 1382.17 100.161L1377.37 101.923C1377.18 101.993 1377.08 102.205 1377.15 102.395L1386.85 128.805C1386.92 128.995 1387.13 129.093 1387.32 129.023L1389.68 128.155C1389.87 128.085 1389.97 127.873 1389.9 127.683L1385.74 116.351L1387.16 115.828C1387.59 115.673 1388 115.503 1388.38 115.303L1394.55 126.036C1394.63 126.191 1394.82 126.258 1395 126.194L1397.5 125.275C1397.6 125.237 1397.68 125.151 1397.72 125.048C1397.76 124.945 1397.75 124.831 1397.68 124.737L1390.8 113.348C1391.94 111.958 1392.22 110.251 1391.58 108.516L1391.58 108.525ZM1381.17 103.906L1382.8 103.307C1384.83 102.562 1386 102.564 1386.76 104.653L1388.35 108.96C1389 110.755 1388.33 112.003 1386.27 112.757L1384.64 113.356L1381.17 103.906Z" fill="#6666FF"/>
<path d="M1399.64 107.819C1395.94 105.389 1394.62 104.48 1394.12 103.108C1392.87 99.7158 1394.12 98.7677 1395.36 98.3146C1396.32 97.9628 1397.74 97.9199 1399.08 101.562L1399.57 102.917C1399.64 103.107 1399.86 103.205 1400.05 103.135L1402.41 102.267C1402.6 102.197 1402.7 101.985 1402.63 101.795L1402 100.095C1399.78 94.0448 1395.85 94.7452 1394.26 95.3284C1390.64 96.6594 1389.44 99.802 1390.96 103.953C1391.9 106.517 1393.93 107.939 1398.04 110.66L1399.39 111.544C1403.1 113.954 1404.16 114.876 1404.57 115.99C1405.37 118.156 1404.97 119.555 1403.37 120.142C1402.17 120.582 1400.77 120.586 1399.55 117.246L1398.9 115.477C1398.83 115.287 1398.61 115.189 1398.42 115.259L1396.06 116.127C1395.87 116.197 1395.77 116.409 1395.84 116.599L1396.66 118.826C1398.37 123.486 1401.82 124.109 1404.47 123.136C1407.89 121.881 1409.07 118.812 1407.64 114.911C1406.76 112.511 1404.9 111.285 1400.83 108.615L1399.63 107.831L1399.64 107.819Z" fill="#6666FF"/>
<path d="M1411.34 89.4378L1400.08 93.5734C1399.89 93.6432 1399.79 93.8555 1399.86 94.0454L1400.7 96.3412C1400.77 96.5311 1400.99 96.6294 1401.18 96.5596L1405.28 95.0543L1414 118.823C1414.07 119.013 1414.29 119.111 1414.48 119.042L1416.84 118.173C1417.03 118.104 1417.13 117.891 1417.06 117.701L1408.33 93.9411L1412.43 92.4358C1412.62 92.3661 1412.72 92.1537 1412.65 91.9638L1411.81 89.6681C1411.74 89.4782 1411.53 89.3799 1411.34 89.4496L1411.34 89.4378Z" fill="#6666FF"/>
<path d="M1428.37 83.1853L1419.06 86.6047C1418.87 86.6744 1418.77 86.8868 1418.84 87.0767L1428.55 113.521C1428.62 113.711 1428.83 113.809 1429.02 113.739L1431.39 112.871C1431.58 112.801 1431.68 112.589 1431.61 112.399L1426.95 99.7121L1433.1 97.4526C1433.29 97.3829 1433.39 97.1705 1433.32 96.9806L1432.48 94.6848C1432.41 94.495 1432.19 94.3966 1432 94.4664L1425.85 96.7259L1422.87 88.5958L1429.47 86.1715C1429.66 86.1018 1429.76 85.8894 1429.69 85.6995L1428.84 83.4037C1428.77 83.2139 1428.56 83.1156 1428.37 83.1853Z" fill="#6666FF"/>
<path d="M1433.09 81.4516L1431.78 81.9333C1431.3 82.1101 1431.05 82.6437 1431.23 83.1251L1440.54 108.482C1440.72 108.963 1441.25 109.21 1441.73 109.034L1443.04 108.552C1443.52 108.375 1443.77 107.842 1443.6 107.36L1434.28 82.0033C1434.11 81.5218 1433.57 81.2749 1433.09 81.4516Z" fill="#6666FF"/>
<path d="M1447.41 76.1944L1445.01 77.0754C1444.84 77.1388 1444.74 77.3221 1444.78 77.5042L1449.65 100.042L1438.73 79.7257C1438.64 79.5626 1438.44 79.487 1438.27 79.5504L1435.87 80.4314C1435.77 80.4694 1435.69 80.5474 1435.65 80.6505C1435.61 80.7535 1435.62 80.8666 1435.68 80.9638L1449.54 105.843C1449.63 105.997 1449.82 106.073 1449.99 106.01L1453.3 104.796C1453.47 104.733 1453.57 104.558 1453.54 104.376L1447.91 76.4991C1447.91 76.4991 1447.9 76.4442 1447.89 76.4183C1447.83 76.2284 1447.61 76.1301 1447.42 76.1998L1447.41 76.1944Z" fill="#6666FF"/>
<path d="M1466.93 96.3914L1460.19 98.8664L1456.52 88.8635L1462.71 86.5913C1462.9 86.5216 1463 86.3092 1462.93 86.1193L1462.08 83.8235C1462.01 83.6337 1461.8 83.5353 1461.61 83.6051L1455.42 85.8773L1452.44 77.7472L1459.11 75.2975C1459.3 75.2278 1459.4 75.0154 1459.33 74.8255L1458.48 72.5298C1458.41 72.3399 1458.2 72.2416 1458.01 72.3113L1448.63 75.7561C1448.44 75.8258 1448.34 76.0382 1448.41 76.228L1458.11 102.638C1458.18 102.828 1458.39 102.926 1458.58 102.856L1468.03 99.3862C1468.22 99.3165 1468.32 99.1041 1468.25 98.9143L1467.41 96.6185C1467.34 96.4286 1467.13 96.3303 1466.94 96.4L1466.93 96.3914Z" fill="#6666FF"/>
</g>
<g clip-path="url(#clip4_34_4238)">
<path d="M501.629 537.687C565.91 558.011 634.496 522.376 654.82 458.094C675.143 393.813 639.509 325.227 575.227 304.903C510.946 284.58 442.36 320.214 422.036 384.496C401.712 448.777 437.347 517.363 501.629 537.687Z" fill="#6666FF"/>
<path d="M501.397 521.29C501.397 521.29 501.281 521.254 501.223 521.235C500.431 520.946 499.634 520.631 498.849 520.318C496.973 519.572 496.06 517.439 496.807 515.563C497.554 513.687 499.682 512.785 501.562 513.52C502.289 513.814 503.031 514.1 503.776 514.374C505.667 515.074 506.638 517.186 505.938 519.077C505.256 520.91 503.248 521.875 501.409 521.294L501.397 521.29ZM519.128 526.154C517.393 525.605 516.297 523.85 516.635 522.011C516.994 520.025 518.9 518.694 520.886 519.053C521.66 519.196 522.45 519.33 523.22 519.446C525.209 519.755 526.586 521.637 526.277 523.626C525.964 525.627 524.086 526.992 522.097 526.683C521.269 526.549 520.429 526.411 519.593 526.262C519.434 526.238 519.283 526.19 519.131 526.142L519.128 526.154ZM482.7 512.114C482.409 512.022 482.129 511.895 481.864 511.722C481.147 511.278 480.422 510.818 479.723 510.354C478.038 509.245 477.567 506.971 478.676 505.285C479.788 503.589 482.059 503.129 483.744 504.238C484.399 504.675 485.074 505.093 485.733 505.52C487.444 506.585 487.97 508.851 486.904 510.563C485.999 512.005 484.248 512.604 482.7 512.114ZM539.9 527.754C538.445 527.294 537.382 525.959 537.338 524.357C537.287 522.331 538.878 520.658 540.905 520.607C541.692 520.587 542.483 520.556 543.274 520.524C545.287 520.431 547.01 521.987 547.103 524.001C547.208 526.019 545.64 527.738 543.627 527.831C542.782 527.871 541.94 527.899 541.088 527.924C540.675 527.935 540.272 527.871 539.888 527.75L539.9 527.754ZM466.244 499.332C465.732 499.17 465.245 498.888 464.822 498.486C464.203 497.893 463.595 497.304 462.995 496.692C461.568 495.255 461.57 492.938 463.007 491.511C464.445 490.083 466.761 490.086 468.189 491.523C468.742 492.082 469.31 492.633 469.878 493.184C471.344 494.582 471.392 496.901 469.997 498.355C469.002 499.398 467.528 499.726 466.236 499.317L466.244 499.332ZM560.564 525.12C559.376 524.745 558.404 523.772 558.102 522.46C557.635 520.494 558.859 518.526 560.836 518.062C561.61 517.884 562.375 517.691 563.14 517.498C565.093 516.989 567.1 518.174 567.597 520.123C568.103 522.088 566.922 524.083 564.972 524.581C564.149 524.794 563.33 524.996 562.514 525.186C561.849 525.347 561.184 525.304 560.579 525.112L560.564 525.12ZM452.706 483.478C451.961 483.243 451.282 482.759 450.796 482.068C450.311 481.377 449.844 480.666 449.374 479.967C448.255 478.281 448.729 476.012 450.414 474.893C452.1 473.774 454.369 474.249 455.488 475.934C455.919 476.595 456.366 477.248 456.824 477.905C457.973 479.574 457.561 481.851 455.891 483C454.925 483.668 453.742 483.806 452.706 483.478ZM580.26 518.378C579.306 518.077 578.485 517.395 578.041 516.409C577.201 514.569 578.002 512.402 579.846 511.552C580.562 511.228 581.271 510.888 581.984 510.538C583.8 509.652 585.993 510.41 586.882 512.214C587.768 514.031 587.022 516.227 585.206 517.113C584.447 517.487 583.68 517.847 582.902 518.202C582.047 518.598 581.114 518.635 580.276 518.371L580.26 518.378ZM442.632 465.25C441.654 464.941 440.806 464.225 440.361 463.201C440.032 462.418 439.704 461.636 439.387 460.857C438.635 458.981 439.54 456.847 441.428 456.1C443.305 455.349 445.438 456.254 446.186 458.142C446.479 458.874 446.784 459.611 447.092 460.336C447.885 462.2 447.027 464.348 445.163 465.141C444.319 465.502 443.432 465.516 442.617 465.258L442.632 465.25ZM598.226 507.838C597.505 507.61 596.853 507.16 596.38 506.511C595.181 504.878 595.535 502.583 597.165 501.395C597.799 500.93 598.436 500.453 599.062 499.972C600.668 498.739 602.966 499.043 604.203 500.637C605.436 502.244 605.132 504.542 603.538 505.779C602.862 506.295 602.187 506.811 601.504 507.312C600.523 508.026 599.305 508.192 598.234 507.853L598.226 507.838ZM436.409 445.372C435.187 444.985 434.194 443.954 433.926 442.615C433.751 441.792 433.592 440.96 433.447 440.121C433.092 438.127 434.41 436.226 436.404 435.871C438.398 435.515 440.299 436.833 440.654 438.828C440.794 439.601 440.945 440.379 441.1 441.145C441.509 443.13 440.234 445.057 438.248 445.467C437.617 445.6 436.991 445.556 436.409 445.372ZM613.7 493.884C613.211 493.73 612.755 493.47 612.344 493.11C610.84 491.751 610.727 489.437 612.098 487.937C612.629 487.349 613.149 486.758 613.672 486.156C614.988 484.626 617.306 484.462 618.836 485.778C620.366 487.094 620.541 489.416 619.213 490.942C618.652 491.584 618.09 492.226 617.521 492.852C616.523 493.945 615.026 494.304 613.7 493.884ZM434.319 424.649C432.841 424.182 431.757 422.789 431.763 421.152C431.761 420.307 431.775 419.454 431.8 418.604C431.85 416.584 433.532 414.99 435.552 415.04C437.583 415.093 439.165 416.771 439.115 418.791C439.097 419.579 439.09 420.371 439.086 421.151C439.087 423.174 437.445 424.805 435.422 424.806C435.039 424.8 434.672 424.748 434.323 424.637L434.319 424.649ZM626.052 477.088C625.796 477.007 625.539 476.887 625.301 476.748C623.552 475.721 622.98 473.479 624.003 471.742C624.398 471.06 624.793 470.378 625.18 469.681C626.16 467.917 628.385 467.276 630.161 468.26C631.925 469.24 632.562 471.477 631.582 473.242C631.169 473.981 630.744 474.718 630.323 475.442C629.439 476.942 627.661 477.584 626.067 477.08L626.052 477.088ZM436.464 403.934C434.695 403.375 433.605 401.558 433.989 399.695C434.162 398.866 434.346 398.041 434.53 397.216C434.986 395.247 436.959 394.028 438.927 394.484C440.915 394.958 442.115 396.913 441.659 398.881C441.478 399.656 441.313 400.423 441.147 401.19C440.738 403.173 438.8 404.442 436.817 404.033C436.697 404.008 436.565 403.979 436.449 403.942L436.464 403.934ZM634.738 458.159C634.738 458.159 634.679 458.141 634.656 458.133C632.739 457.476 631.718 455.399 632.376 453.482C632.623 452.741 632.874 451.988 633.113 451.231L633.179 451.022C633.79 449.09 635.843 448.023 637.775 448.634C639.707 449.245 640.773 451.298 640.162 453.23L640.096 453.439C639.839 454.254 639.585 455.057 639.308 455.853C638.661 457.735 636.635 458.759 634.738 458.159ZM442.73 384.074C442.614 384.037 442.498 384 442.385 383.952C440.523 383.159 439.668 381.006 440.461 379.144C440.796 378.367 441.143 377.593 441.49 376.82C442.33 374.973 444.515 374.178 446.35 375.015C448.185 375.851 448.995 378.027 448.155 379.874C447.826 380.59 447.509 381.309 447.2 382.043C446.455 383.792 444.508 384.649 442.738 384.089L442.73 384.074ZM639.504 437.658C637.851 437.136 636.76 435.485 636.975 433.709C637.071 432.92 637.163 432.143 637.244 431.362C637.444 429.351 639.252 427.887 641.262 428.087C643.273 428.288 644.737 430.095 644.537 432.106C644.449 432.949 644.351 433.788 644.248 434.639C643.997 436.646 642.166 438.065 640.159 437.814C639.938 437.783 639.721 437.74 639.512 437.673L639.504 437.658ZM452.841 365.864C452.491 365.754 452.157 365.597 451.845 365.37C450.186 364.219 449.784 361.928 450.935 360.269C451.426 359.566 451.914 358.876 452.424 358.192C453.619 356.56 455.91 356.196 457.539 357.402C459.171 358.597 459.523 360.885 458.329 362.517C457.856 363.161 457.399 363.798 456.95 364.449C456.013 365.792 454.334 366.324 452.844 365.853L452.841 365.864ZM640.018 416.837C638.633 416.399 637.591 415.161 637.474 413.626C637.416 412.839 637.342 412.061 637.268 411.282C637.059 409.27 638.525 407.467 640.534 407.27C642.546 407.061 644.348 408.527 644.545 410.536C644.624 411.38 644.707 412.213 644.77 413.065C644.925 415.086 643.423 416.838 641.403 416.993C640.917 417.032 640.449 416.973 640.018 416.837ZM466.44 350.064C465.869 349.884 465.331 349.56 464.892 349.088C463.498 347.623 463.567 345.302 465.031 343.909C465.652 343.324 466.268 342.751 466.896 342.181C468.4 340.826 470.707 340.94 472.062 342.444C473.417 343.948 473.303 346.255 471.799 347.61C471.209 348.141 470.63 348.675 470.059 349.224C469.055 350.174 467.665 350.439 466.432 350.049L466.44 350.064ZM636.306 396.344C635.177 395.988 634.245 395.091 633.89 393.865C633.669 393.104 633.445 392.355 633.21 391.601C632.604 389.669 633.677 387.614 635.609 387.009C637.542 386.403 639.597 387.476 640.202 389.408C640.458 390.219 640.702 391.026 640.931 391.841C641.494 393.785 640.367 395.81 638.434 396.377C637.715 396.585 636.981 396.558 636.318 396.348L636.306 396.344ZM482.947 337.334C482.144 337.08 481.418 336.543 480.942 335.778C479.873 334.057 480.406 331.806 482.115 330.733C482.834 330.282 483.56 329.846 484.287 329.41C486.032 328.387 488.268 328.966 489.307 330.703C490.33 332.447 489.751 334.684 488.003 335.719C487.326 336.119 486.645 336.531 485.976 336.947C485.035 337.533 483.925 337.643 482.935 337.33L482.947 337.334ZM628.551 377.019C627.667 376.739 626.877 376.118 626.416 375.23C626.049 374.525 625.68 373.832 625.294 373.147C624.317 371.378 624.958 369.149 626.727 368.171C628.495 367.194 630.729 367.823 631.702 369.604C632.108 370.346 632.513 371.089 632.914 371.843C633.846 373.636 633.158 375.851 631.366 376.782C630.462 377.252 629.455 377.317 628.559 377.034L628.551 377.019ZM501.664 328.183C500.628 327.855 499.74 327.062 499.333 325.96C498.628 324.06 499.599 321.96 501.499 321.255C502.297 320.957 503.088 320.682 503.895 320.4C505.803 319.748 507.888 320.766 508.551 322.678C509.214 324.591 508.185 326.672 506.272 327.335C505.527 327.586 504.79 327.852 504.049 328.13C503.251 328.428 502.421 328.422 501.676 328.186L501.664 328.183ZM617.074 359.627C616.422 359.421 615.817 359.025 615.345 358.453C614.845 357.847 614.334 357.237 613.823 356.628C612.505 355.084 612.686 352.773 614.225 351.467C615.768 350.15 618.08 350.33 619.385 351.87C619.936 352.517 620.486 353.165 621.022 353.821C622.305 355.392 622.062 357.696 620.495 358.968C619.497 359.779 618.214 359.988 617.074 359.627ZM521.829 322.959C520.537 322.55 519.527 321.45 519.312 320.025C519.011 318.022 520.38 316.163 522.375 315.847C523.21 315.714 524.039 315.605 524.882 315.487C526.886 315.224 528.726 316.651 528.977 318.651C529.24 320.655 527.813 322.495 525.813 322.746C525.027 322.843 524.249 322.956 523.483 323.072C522.905 323.158 522.344 323.109 521.821 322.943L521.829 322.959ZM602.336 344.892C601.906 344.756 601.501 344.538 601.133 344.243C600.523 343.743 599.898 343.25 599.273 342.758C597.678 341.524 597.384 339.216 598.618 337.622C599.851 336.028 602.159 335.733 603.754 336.967C604.422 337.486 605.086 338.016 605.747 338.558C607.315 339.834 607.56 342.139 606.283 343.707C605.302 344.908 603.721 345.33 602.336 344.892ZM542.614 321.926C541.066 321.436 539.977 319.94 540.067 318.24C540.167 316.223 541.887 314.667 543.916 314.771C544.758 314.82 545.612 314.872 546.451 314.932C548.476 315.086 549.982 316.842 549.828 318.868C549.678 320.882 547.918 322.399 545.893 322.245C545.104 322.188 544.316 322.131 543.535 322.089C543.219 322.078 542.905 322.018 542.614 321.926ZM584.929 333.46C584.731 333.398 584.525 333.32 584.342 333.211C583.649 332.851 582.941 332.499 582.233 332.147C580.416 331.253 579.66 329.068 580.554 327.251C581.449 325.434 583.634 324.678 585.451 325.573C586.217 325.943 586.98 326.325 587.727 326.715C589.517 327.652 590.216 329.857 589.29 331.652C588.45 333.255 586.608 333.979 584.944 333.453L584.929 333.46ZM563.191 325.115C561.34 324.53 560.26 322.601 560.759 320.698C561.273 318.748 563.271 317.574 565.224 318.077C566.042 318.284 566.852 318.515 567.674 318.749C569.61 319.31 570.749 321.334 570.188 323.269C569.636 325.22 567.603 326.344 565.668 325.783C564.904 325.568 564.14 325.352 563.381 325.163C563.322 325.144 563.264 325.126 563.194 325.104L563.191 325.115Z" fill="#6AE5DF"/>
<path d="M516.871 384.073L564.533 399.143C565.534 399.459 566.654 398.712 567.04 397.49L574.15 375.003C574.536 373.781 574.038 372.522 573.049 372.21L525.386 357.14C524.385 356.824 523.266 357.571 522.879 358.793L515.77 381.28C515.383 382.502 515.882 383.761 516.871 384.073Z" fill="#F1F2F2"/>
<path d="M581.996 375.089L590.051 390.592C590.568 391.588 590.175 392.833 589.179 393.351L573.431 401.533C571.807 402.377 569.98 400.826 570.54 399.095L578.226 375.434C578.774 373.699 581.149 373.516 581.985 375.124L581.992 375.101L581.996 375.089Z" fill="#F1F2F2"/>
<path d="M538.269 395.191L516.306 388.247C514.931 387.813 513.463 388.575 513.028 389.951L506.084 411.914C505.649 413.29 506.412 414.757 507.787 415.192L529.75 422.136C531.126 422.571 532.594 421.809 533.029 420.433L539.973 398.47C540.408 397.094 539.645 395.626 538.269 395.191Z" fill="#F1F2F2"/>
<path d="M499.412 472.781C507.981 475.49 517.123 470.74 519.833 462.171C522.542 453.603 517.792 444.46 509.223 441.751C500.654 439.042 491.512 443.792 488.803 452.361C486.093 460.929 490.844 470.072 499.412 472.781Z" fill="#F1F2F2"/>
<path d="M519.317 476.923L526.294 454.855C526.647 453.738 527.779 453.072 528.945 453.274C536.242 454.531 543.545 450.221 545.837 442.97C548.13 435.719 544.632 427.994 537.938 424.828C536.881 424.327 536.325 423.127 536.679 422.01L543.656 399.942C544.064 398.65 545.478 397.983 546.737 398.458C567.728 406.451 579.129 429.632 572.27 451.327C565.411 473.022 542.759 485.423 520.984 479.909C519.67 479.57 518.908 478.215 519.317 476.923Z" fill="#F1F2F2"/>
</g>
<g clip-path="url(#clip5_34_4238)">
<path d="M125.519 281.578C123.133 285.504 126.55 290.398 131.06 289.503L161.281 283.534L189.947 278.534C196.875 277.328 201.114 270.248 198.905 263.571L189.776 235.942L180.766 206.484C179.422 202.093 173.498 201.385 171.164 205.342L165.514 214.91L111.023 182.284C106.875 179.8 101.505 181.148 99.0213 185.296L73.2383 228.358C70.7546 232.507 72.1023 237.877 76.2507 240.36L130.736 272.982L125.515 281.585L125.519 281.578Z" fill="#6666FF"/>
<path d="M188.789 267.678C188.565 268.053 188.239 268.113 188.129 268.135L159.463 273.135C159.384 273.15 159.305 273.164 159.233 273.182L140.559 276.868C141.363 274.835 141.52 272.591 140.987 270.442C140.307 267.715 138.574 265.367 136.161 263.922L83.2289 232.23L107.148 192.28L160.086 223.976C162.5 225.422 165.388 225.841 168.113 225.151C170.569 224.529 172.708 223.041 174.15 220.985L179.67 239.034C179.695 239.11 179.713 239.183 179.737 239.259L188.866 266.888C188.903 266.989 189.004 267.305 188.775 267.687M197.85 273.102C199.5 270.345 200.012 266.906 198.905 263.571L189.777 235.942L180.766 206.484C179.425 202.103 173.532 201.388 171.18 205.316C171.172 205.329 171.168 205.335 171.16 205.348L165.511 214.916L111.02 182.29C106.871 179.806 101.501 181.154 99.0177 185.303L73.2347 228.365C70.751 232.513 72.0987 237.883 76.2471 240.367L130.732 272.989L125.511 281.591C125.511 281.591 125.5 281.61 125.492 281.623C123.144 285.545 126.553 290.409 131.049 289.522L161.27 283.554L189.935 278.553C193.402 277.947 196.187 275.879 197.838 273.122L197.85 273.102Z" fill="#F1F2F2"/>
<path d="M197.85 273.102C196.199 275.859 193.409 277.934 189.947 278.533L161.281 283.534L131.06 289.502C126.565 290.389 123.151 285.532 125.503 281.604C125.511 281.591 125.515 281.584 125.523 281.571L130.744 272.969L76.2588 240.347C72.1104 237.863 70.7627 232.494 73.2464 228.345L99.0216 185.296C101.505 181.148 106.875 179.8 111.024 182.284L165.515 214.909L171.164 205.342C171.164 205.342 171.176 205.322 171.184 205.309C173.532 201.388 179.429 202.096 180.77 206.478L189.781 235.935L198.909 263.565C200.012 266.906 199.504 270.339 197.854 273.096M206.884 278.511C210.178 273.01 210.917 266.358 208.903 260.264L199.813 232.746L190.842 203.4C189.019 197.429 183.831 193.083 177.63 192.325C171.429 191.566 165.357 194.542 162.149 199.9C162.138 199.92 162.107 199.971 162.091 199.997L161.831 200.431L116.433 173.249C107.314 167.789 95.4468 170.768 89.9872 179.887L64.2043 222.949C58.7447 232.068 61.7232 243.935 70.8418 249.395L116.24 276.576C113.264 281.871 113.587 288.439 117.094 293.431C120.685 298.535 126.965 301.056 133.096 299.847L163.2 293.897L191.75 288.914C198.076 287.805 203.591 284.012 206.884 278.511Z" fill="#6666FF"/>
</g>
<g clip-path="url(#clip6_34_4238)">
<path d="M1009.92 399.349L983.431 317.686C981.974 313.191 976 312.017 972.652 315.563L911.866 380.029L893.251 399.94L864.291 394.175L777.274 377.201C772.488 376.272 768.324 380.707 769.757 385.208L795.882 466.985L822.366 548.648C823.824 553.143 829.797 554.317 833.145 550.771L893.932 486.305L912.546 466.393L941.506 472.159L1028.51 489.125C1033.29 490.054 1037.46 485.62 1036.02 481.118L1009.9 399.341L1009.92 399.349Z" fill="#6AE5DF"/>
<path d="M975.46 313.78C978.633 312.779 982.318 314.283 983.427 317.674L1009.91 399.337L1036.04 481.114C1037.13 484.536 1034.98 487.932 1031.77 488.944C1030.76 489.262 1029.66 489.343 1028.52 489.121L941.518 472.155L912.558 466.39L893.944 486.302L833.157 550.768C832.345 551.63 831.367 552.217 830.346 552.539C827.173 553.54 823.488 552.036 822.378 548.645L795.894 466.982L769.769 385.205C768.677 381.783 770.83 378.387 774.039 377.375C775.048 377.057 776.146 376.976 777.286 377.197L864.287 394.164L893.247 399.929L911.862 380.017L972.649 315.551C973.46 314.689 974.438 314.102 975.46 313.78ZM971.584 301.493C968.243 302.547 965.222 304.448 962.825 306.986L902.038 371.452L888.678 385.738L867.332 381.489L780.26 364.507C776.911 363.857 773.405 364.053 770.148 365.08C765.136 366.661 760.849 370.162 758.377 374.682C755.891 379.245 755.375 384.437 756.921 389.295L783.045 471.072L809.548 552.793C812.768 562.709 823.826 568.105 834.209 564.83C837.551 563.776 840.572 561.875 842.969 559.337L903.756 494.871L917.115 480.585L938.465 484.846L1025.52 501.82C1028.87 502.469 1032.36 502.277 1035.63 501.246C1040.63 499.669 1044.93 496.165 1047.4 491.644C1049.9 487.078 1050.42 481.897 1048.86 477.031L1022.74 395.254L996.234 313.534C993.014 303.618 981.956 298.222 971.572 301.497L971.584 301.493Z" fill="#6666FF"/>
<path d="M912.562 466.401L936.826 422.213L893.235 399.933L868.826 443.661L912.562 466.401Z" fill="#F1F2F2"/>
<path d="M833.152 454.775C834.153 457.947 834.362 460.788 833.791 463.293C833.22 465.798 831.978 467.934 830.052 469.704C828.138 471.471 825.613 472.849 822.488 473.834L813.666 476.617L804.954 448.997L814.497 445.987C817.538 445.028 820.293 444.715 822.767 445.059C825.241 445.403 827.347 446.382 829.128 448.007C830.897 449.635 832.242 451.89 833.152 454.775ZM826.75 457.059C826.123 455.071 825.308 453.533 824.289 452.439C823.282 451.342 822.064 450.664 820.651 450.415C819.238 450.166 817.649 450.325 815.859 450.89L812.662 451.899L818.31 469.806L820.894 468.991C823.863 468.055 825.823 466.603 826.771 464.623C827.722 462.654 827.706 460.132 826.738 457.063L826.75 457.059Z" fill="#6666FF"/>
<path d="M860.093 461.973L843.472 467.215L834.76 439.595L851.381 434.353L852.893 439.146L842.377 442.462L844.291 448.531L854.074 445.446L855.586 450.239L845.803 453.324L848.047 460.439L858.563 457.122L860.089 461.961L860.093 461.973Z" fill="#6666FF"/>
<path d="M871.294 433.051C870.14 433.415 869.163 433.963 868.36 434.684C867.557 435.405 866.971 436.272 866.58 437.293C866.188 438.314 866.004 439.446 866.03 440.702C866.056 441.957 866.301 443.321 866.765 444.792C867.374 446.723 868.184 448.287 869.184 449.488C870.184 450.689 871.371 451.478 872.75 451.826C874.128 452.175 875.674 452.092 877.393 451.55C878.655 451.152 879.837 450.627 880.924 449.968C882.011 449.309 883.077 448.581 884.117 447.773L885.701 452.796C884.643 453.673 883.518 454.42 882.337 455.033C881.156 455.645 879.798 456.2 878.259 456.685C875.183 457.656 872.474 457.865 870.121 457.319C867.768 456.772 865.78 455.579 864.144 453.744C862.509 451.91 861.257 449.575 860.372 446.77C859.712 444.678 859.411 442.676 859.473 440.735C859.535 438.795 859.953 437.02 860.744 435.38C861.535 433.741 862.681 432.305 864.178 431.062C865.688 429.815 867.574 428.841 869.834 428.128C871.264 427.677 872.753 427.372 874.326 427.204C875.886 427.041 877.425 427.061 878.939 427.253L878.41 432.614C877.299 432.484 876.146 432.431 874.963 432.45C873.768 432.473 872.551 432.68 871.313 433.07L871.294 433.051Z" fill="#6666FF"/>
<path d="M902.89 448.474L889.742 452.621L888.695 449.299L891.726 446.637L886.089 428.764L882.078 428.323L881.03 425.001L894.178 420.854L895.226 424.176L892.194 426.838L897.832 444.711L901.843 445.152L902.89 448.474Z" fill="#6666FF"/>
<path d="M922.433 433.893C922.944 435.514 922.973 437.072 922.525 438.54C922.076 440.009 921.16 441.334 919.792 442.486C918.424 443.637 916.606 444.577 914.347 445.29C913.349 445.605 912.354 445.843 911.353 446.02C910.351 446.196 909.38 446.301 908.423 446.324C907.466 446.348 906.542 446.311 905.649 446.201L903.927 440.741C905.474 440.872 907.071 440.95 908.686 440.959C910.305 440.979 911.843 440.747 913.298 440.288C914.295 439.973 915.061 439.593 915.578 439.139C916.099 438.697 916.444 438.196 916.582 437.672C916.733 437.144 916.706 436.597 916.528 436.034C916.307 435.333 915.869 434.826 915.221 434.487C914.56 434.152 913.754 433.901 912.779 433.741C911.803 433.581 910.709 433.421 909.475 433.279C908.704 433.181 907.855 433.045 906.94 432.866C906.024 432.687 905.112 432.393 904.192 431.988C903.283 431.58 902.452 430.996 901.712 430.243C900.969 429.479 900.4 428.471 900.001 427.206C899.479 425.551 899.433 424.024 899.857 422.601C900.28 421.179 901.127 419.926 902.41 418.839C903.68 417.756 905.313 416.9 907.308 416.27C908.822 415.793 910.307 415.514 911.77 415.419C913.233 415.324 914.816 415.356 916.49 415.51L915.946 420.699C914.461 420.598 913.144 420.571 912.011 420.625C910.863 420.672 909.75 420.871 908.644 421.22C907.887 421.459 907.274 421.778 906.806 422.179C906.338 422.579 906.031 423.03 905.873 423.535C905.715 424.039 905.738 424.575 905.916 425.138C906.119 425.782 906.497 426.269 907.035 426.593C907.585 426.912 908.324 427.159 909.26 427.319C910.196 427.479 911.361 427.655 912.753 427.835C914.441 428.035 915.924 428.338 917.198 428.733C918.46 429.131 919.534 429.727 920.407 430.526C921.28 431.325 921.952 432.452 922.406 433.889L922.433 433.893Z" fill="#6666FF"/>
<path d="M940.904 436.484L927.756 440.631L926.708 437.309L929.74 434.647L924.103 416.773L920.092 416.333L919.044 413.011L932.192 408.864L933.24 412.185L930.208 414.848L935.846 432.721L939.856 433.162L940.904 436.484Z" fill="#6666FF"/>
<path d="M967.543 412.853C968.217 414.991 968.553 417.02 968.548 418.93C968.543 420.84 968.176 422.611 967.457 424.228C966.738 425.845 965.625 427.258 964.104 428.471C962.584 429.683 960.65 430.672 958.282 431.419C955.915 432.166 953.79 432.469 951.834 432.341C949.877 432.212 948.146 431.71 946.63 430.798C945.113 429.886 943.797 428.646 942.697 427.084C941.596 425.523 940.704 423.656 940.018 421.484C939.116 418.622 938.822 415.972 939.144 413.558C939.462 411.132 940.446 409.015 942.119 407.198C943.781 405.385 946.192 403.98 949.353 402.983C952.513 401.986 955.246 401.769 957.647 402.3C960.048 402.832 962.072 404.013 963.716 405.833C965.361 407.652 966.628 409.995 967.531 412.857L967.543 412.853ZM946.559 419.472C947.161 421.38 947.935 422.955 948.867 424.19C949.798 425.426 950.928 426.245 952.242 426.639C953.556 427.033 955.042 426.969 956.712 426.442C958.383 425.915 959.721 425.089 960.547 424.02C961.384 422.947 961.82 421.647 961.87 420.089C961.912 418.546 961.643 416.812 961.041 414.904C960.131 412.019 958.86 409.917 957.236 408.622C955.608 407.316 953.5 407.084 950.916 407.899C949.222 408.433 947.947 409.252 947.101 410.341C946.255 411.429 945.811 412.744 945.741 414.283C945.672 415.821 945.953 417.552 946.562 419.483L946.559 419.472Z" fill="#6666FF"/>
<path d="M1003.42 416.764L995.66 419.212L976.489 402.297L976.333 402.346C976.656 403.205 976.984 404.074 977.307 404.933C977.619 405.795 977.946 406.665 978.258 407.527C978.569 408.389 978.884 409.263 979.184 410.129L983.284 423.128L977.828 424.85L969.116 397.229L976.844 394.792L995.905 411.527L996.025 411.489C995.733 410.646 995.428 409.807 995.136 408.964C994.844 408.121 994.543 407.294 994.242 406.466C993.942 405.638 993.641 404.811 993.349 403.968L989.226 390.899L994.731 389.163L1003.44 416.783L1003.42 416.764Z" fill="#6666FF"/>
</g>
<g clip-path="url(#clip7_34_4238)">
<path d="M1447.82 222.707C1444.44 220.736 1440.1 221.881 1438.13 225.265C1436.16 228.649 1437.3 232.989 1440.69 234.96L1469.21 251.567C1472.59 253.538 1476.94 252.392 1478.91 249.009C1480.88 245.625 1479.73 241.284 1476.34 239.313L1447.82 222.707Z" fill="#6666FF"/>
<path d="M1423.36 242.889C1440.48 238.371 1450.69 220.835 1446.17 203.722C1441.65 186.609 1424.12 176.398 1407 180.916C1389.89 185.435 1379.68 202.97 1384.2 220.083C1388.72 237.197 1406.25 247.407 1423.36 242.889Z" fill="#F1F2F2"/>
<path d="M1392.24 198.541C1399.6 185.888 1415.89 181.587 1428.55 188.955C1441.2 196.322 1445.5 212.611 1438.13 225.265C1430.76 237.918 1414.47 242.218 1401.82 234.851C1389.17 227.483 1384.87 211.194 1392.24 198.541ZM1387.48 195.775C1378.58 211.068 1383.76 230.688 1399.05 239.597C1414.35 248.501 1433.97 243.322 1442.88 228.027C1451.78 212.734 1446.6 193.114 1431.31 184.205C1416.01 175.301 1396.39 180.48 1387.48 195.775Z" fill="#6AE5DF"/>
<path d="M1387.48 195.774C1396.39 180.481 1416.01 175.301 1431.31 184.205C1446.6 193.109 1451.78 212.729 1442.88 228.027C1433.97 243.32 1414.35 248.5 1399.05 239.596C1383.76 230.692 1378.58 211.072 1387.48 195.774ZM1382.74 193.011C1372.32 210.898 1378.4 233.926 1396.29 244.346C1414.18 254.761 1437.21 248.681 1447.63 230.793C1458.04 212.906 1451.96 189.878 1434.07 179.459C1416.19 169.044 1393.16 175.123 1382.74 193.011Z" fill="#6666FF"/>
</g>
<g clip-path="url(#clip8_34_4238)">
<path d="M114.985 448.699C126.06 493.737 171.548 521.269 216.586 510.194C261.624 499.12 289.157 453.631 278.082 408.594C267.007 363.556 221.519 336.023 176.481 347.098C131.443 358.173 103.911 403.661 114.985 448.699Z" fill="#F1F2F2"/>
<path d="M278.082 408.594C289.157 453.632 261.624 499.12 216.586 510.195C171.548 521.269 126.06 493.737 114.985 448.699C103.911 403.661 131.443 358.173 176.481 347.098C221.519 336.023 267.007 363.556 278.082 408.594ZM287.741 406.219C275.374 355.927 224.398 325.073 174.106 337.439C123.814 349.806 92.96 400.783 105.327 451.074C117.693 501.366 168.67 532.22 218.961 519.853C269.253 507.487 300.107 456.51 287.741 406.219Z" fill="#6666FF"/>
<path d="M213.914 436.588L233.729 405.543L250.006 380.049C251.313 378.006 248.989 375.598 246.898 376.809L220.749 392.011L188.915 410.527C187.621 411.281 187.377 413.043 188.407 414.124L199.357 425.534L210.306 436.944C211.345 438.023 213.112 437.85 213.923 436.586L213.914 436.588ZM211.833 421.557L207.84 417.393L203.846 413.23C203.47 412.839 203.648 412.108 204.207 411.748L218.072 402.835L229.456 395.519C230.367 394.937 231.211 395.813 230.588 396.701L222.807 407.774L213.326 421.257C212.939 421.807 212.209 421.948 211.824 421.559L211.833 421.557Z" fill="#6666FF"/>
<path d="M192.564 432.05L203.513 443.46C204.552 444.539 204.3 446.303 203.005 447.057L171.171 465.572L145.022 480.775C142.933 481.995 140.608 479.578 141.914 477.535L158.191 452.041L178.007 420.995C178.809 419.734 180.584 419.559 181.623 420.638L192.573 432.048L192.564 432.05Z" fill="#6AE5DF"/>
<path d="M287.743 406.228L287.74 406.219C287.083 403.544 284.381 401.909 281.706 402.566L270.743 405.262C268.069 405.92 266.433 408.621 267.091 411.296L267.093 411.305C267.751 413.98 270.453 415.615 273.127 414.958L284.091 412.262C286.765 411.604 288.4 408.902 287.743 406.228Z" fill="#6666FF"/>
<path d="M125.978 446.006L125.976 445.996C125.318 443.322 122.617 441.687 119.942 442.344L108.979 445.04C106.304 445.698 104.669 448.399 105.327 451.074L105.329 451.083C105.987 453.758 108.688 455.393 111.363 454.735L122.326 452.04C125.001 451.382 126.636 448.68 125.978 446.006Z" fill="#6666FF"/>
<path d="M182.836 352.055L180.14 341.092C179.482 338.417 176.781 336.782 174.106 337.439L174.097 337.442C171.422 338.099 169.787 340.801 170.445 343.476L173.14 354.439C173.798 357.114 176.5 358.749 179.174 358.091L179.184 358.089C181.858 357.431 183.493 354.729 182.836 352.055Z" fill="#6666FF"/>
<path d="M222.613 513.819L219.917 502.856C219.26 500.182 216.558 498.546 213.883 499.204L213.874 499.206C211.2 499.864 209.564 502.566 210.222 505.24L212.918 516.203C213.576 518.878 216.277 520.513 218.952 519.856L218.961 519.853C221.636 519.196 223.271 516.494 222.613 513.819Z" fill="#6666FF"/>
<path d="M245.178 348.291L245.17 348.287C242.813 346.86 239.747 347.614 238.32 349.971L232.474 359.629C231.048 361.986 231.802 365.052 234.159 366.478L234.167 366.483C236.523 367.909 239.59 367.155 241.016 364.799L246.862 355.141C248.288 352.784 247.534 349.718 245.178 348.291Z" fill="#6666FF"/>
<path d="M158.907 490.808L158.899 490.803C156.542 489.377 153.476 490.131 152.049 492.487L146.204 502.146C144.777 504.502 145.531 507.569 147.888 508.995L147.896 509C150.252 510.426 153.319 509.672 154.745 507.316L160.591 497.657C162.017 495.301 161.263 492.234 158.907 490.808Z" fill="#6666FF"/>
<path d="M132.685 384.166L123.027 378.32C120.67 376.894 117.604 377.648 116.178 380.004L116.173 380.012C114.746 382.368 115.5 385.435 117.857 386.861L127.515 392.707C129.872 394.133 132.938 393.379 134.364 391.023L134.369 391.015C135.795 388.658 135.041 385.592 132.685 384.166Z" fill="#6666FF"/>
<path d="M275.208 470.425L265.55 464.579C263.194 463.153 260.127 463.907 258.701 466.263L258.696 466.271C257.27 468.628 258.024 471.694 260.38 473.12L270.039 478.966C272.395 480.393 275.461 479.639 276.888 477.282L276.893 477.274C278.319 474.918 277.565 471.851 275.208 470.425Z" fill="#6666FF"/>
</g>
<g clip-path="url(#clip9_34_4238)">
<path d="M361.612 499.008C356.094 500.949 349.847 500.782 344.157 498.054C332.79 492.604 327.99 478.964 333.436 467.587L346.331 440.692L283.765 462.707C275.051 465.773 265.346 463.286 259.181 456.415C253.017 449.543 251.593 439.622 255.593 431.296L296.208 346.582C301.658 335.215 315.298 330.416 326.675 335.862C338.042 341.312 342.841 354.952 337.395 366.329L320.612 401.334L383.179 379.319C391.892 376.253 401.597 378.74 407.762 385.611C413.926 392.483 415.35 402.404 411.35 410.73L374.623 487.334C371.895 493.024 367.129 497.066 361.612 499.008Z" fill="#F1F2F2"/>
<path d="M309.223 334.918C314.74 332.977 320.988 333.144 326.678 335.872C338.045 341.321 342.845 354.962 337.399 366.339L320.616 401.344L383.182 379.329C391.895 376.263 401.601 378.75 407.765 385.621C413.93 392.492 415.354 402.413 411.354 410.739L374.627 487.344C371.899 493.034 367.132 497.076 361.615 499.017C356.098 500.959 349.85 500.792 344.16 498.064C332.793 492.614 327.993 478.974 333.44 467.597L346.334 440.702L283.768 462.717C275.055 465.782 265.349 463.296 259.185 456.424C253.021 449.553 251.596 439.632 255.596 431.306L296.212 346.592C298.94 340.902 303.706 336.859 309.223 334.918ZM303.171 317.718C292.825 321.358 284.518 328.813 279.776 338.704L239.161 423.418C231.948 438.444 234.484 456.175 245.614 468.582C256.744 480.99 274.092 485.44 289.817 479.907L313.37 471.619C310.897 488.902 319.717 506.554 336.268 514.49C346.16 519.232 357.305 519.842 367.65 516.202C377.996 512.561 386.304 505.107 391.046 495.216L427.773 418.611C434.982 403.575 432.446 385.845 421.316 373.437C410.186 361.03 392.838 356.579 377.113 362.112L355.684 369.652C362.287 350.254 353.468 328.49 334.55 319.42C324.658 314.677 313.514 314.068 303.168 317.708L303.171 317.718Z" fill="#6AE5DF"/>
<path d="M289.411 418.038C288.663 418.301 287.815 418.278 287.034 417.912C285.473 417.18 284.805 415.315 285.538 413.753L314.747 351.873C315.48 350.312 317.345 349.644 318.907 350.377C320.468 351.109 321.136 352.974 320.403 354.536L291.194 416.416C290.818 417.2 290.164 417.761 289.407 418.028L289.411 418.038Z" fill="#6AE5DF"/>
<path d="M352.059 490.267C351.312 490.53 350.464 490.507 349.683 490.141C348.121 489.409 347.454 487.544 348.187 485.982L377.396 424.102C378.129 422.541 379.994 421.873 381.556 422.606C383.117 423.338 383.785 425.203 383.052 426.765L353.843 488.645C353.467 489.429 352.813 489.99 352.056 490.257L352.059 490.267Z" fill="#6AE5DF"/>
<path d="M279.388 447.912L275.779 449.182L270.903 435.325L266.35 436.927L265.294 433.928L278.02 429.45L279.075 432.45L274.522 434.052L279.398 447.908L279.388 447.912Z" fill="#6666FF"/>
<path d="M285.635 426.782C287.11 426.263 288.405 426.017 289.507 426.039C290.612 426.07 291.53 426.354 292.268 426.913C293.006 427.471 293.56 428.293 293.941 429.374C294.207 430.132 294.305 430.849 294.244 431.522C294.182 432.196 293.995 432.826 293.684 433.388C293.377 433.96 292.974 434.478 292.487 434.948L299.892 440.697L295.762 442.151L289.728 437.002L287.722 437.707L289.999 444.178L286.39 445.448L280.459 428.592L285.632 426.772L285.635 426.782ZM286.552 429.609L285.067 430.131L286.753 434.921L288.238 434.398C289.201 434.059 289.87 433.603 290.253 433.026C290.635 432.449 290.663 431.71 290.348 430.815C290.171 430.314 289.914 429.929 289.594 429.677C289.26 429.419 288.849 429.287 288.344 429.266C287.839 429.245 287.251 429.363 286.552 429.609Z" fill="#6666FF"/>
<path d="M312.313 436.327L309.621 432.82L303.671 434.914L303.767 439.334L299.873 440.704L299.838 421.696L304.273 420.136L316.198 434.96L312.303 436.33L312.313 436.327ZM305.265 426.849C305.123 426.634 304.9 426.314 304.596 425.89C304.292 425.467 303.995 425.03 303.691 424.573C303.386 424.117 303.146 423.748 302.957 423.461C303.026 423.846 303.073 424.293 303.121 424.807C303.169 425.321 303.21 425.815 303.257 426.295C303.305 426.776 303.335 427.174 303.363 427.507L303.451 431.587L307.719 430.086L305.251 426.842L305.265 426.849Z" fill="#6666FF"/>
<path d="M329.146 420.623C329.827 422.56 330.031 424.301 329.766 425.842C329.492 427.387 328.822 428.717 327.729 429.82C326.639 430.932 325.186 431.797 323.357 432.441L318.214 434.251L312.283 417.395L317.849 415.436C319.629 414.81 321.254 414.591 322.721 414.772C324.188 414.952 325.474 415.527 326.572 416.511C327.666 417.486 328.523 418.853 329.146 420.623ZM325.418 422.09C324.992 420.88 324.462 419.939 323.831 419.277C323.2 418.615 322.462 418.212 321.619 418.077C320.776 417.943 319.831 418.054 318.799 418.417L316.93 419.075L320.775 430.001L322.289 429.468C324.02 428.859 325.136 427.947 325.643 426.718C326.154 425.5 326.072 423.948 325.414 422.08L325.418 422.09Z" fill="#6666FF"/>
<path d="M345.307 424.717L335.611 428.129L329.68 411.273L339.376 407.861L340.408 410.792L334.271 412.951L335.575 416.658L341.289 414.648L342.32 417.579L336.607 419.589L338.136 423.936L344.273 421.777L345.311 424.727L345.307 424.717Z" fill="#6666FF"/>
<path d="M367.216 407.515C367.676 408.823 367.934 410.058 367.983 411.235C368.033 412.411 367.873 413.495 367.487 414.504C367.108 415.499 366.48 416.383 365.622 417.149C364.764 417.915 363.633 418.534 362.247 419.022C360.86 419.51 359.617 419.715 358.452 419.672C357.294 419.615 356.251 419.319 355.332 418.781C354.413 418.242 353.596 417.491 352.897 416.543C352.199 415.595 351.623 414.46 351.156 413.133C350.54 411.382 350.292 409.767 350.419 408.275C350.536 406.786 351.068 405.471 352.006 404.335C352.943 403.198 354.333 402.311 356.172 401.664C358.011 401.017 359.631 400.845 361.073 401.144C362.516 401.443 363.744 402.139 364.771 403.236C365.798 404.333 366.61 405.761 367.222 407.502L367.216 407.515ZM354.962 411.826C355.371 412.987 355.875 413.948 356.457 414.693C357.05 415.435 357.731 415.925 358.519 416.156C359.308 416.387 360.191 416.32 361.164 415.977C362.138 415.634 362.904 415.111 363.368 414.45C363.828 413.78 364.052 412.971 364.04 412.025C364.027 411.079 363.809 410.018 363.4 408.857C362.781 407.097 361.968 405.825 360.976 405.046C359.974 404.272 358.722 404.138 357.208 404.67C356.215 405.02 355.488 405.53 355.021 406.214C354.551 406.887 354.317 407.699 354.329 408.645C354.332 409.595 354.547 410.646 354.962 411.826Z" fill="#6666FF"/>
<path d="M377.151 413.512L373.631 414.751L367.699 397.895L377.357 394.497L378.388 397.428L372.251 399.587L373.781 403.934L379.495 401.923L380.526 404.854L374.812 406.864L377.155 413.522L377.151 413.512Z" fill="#6666FF"/>
<path d="M390.103 408.955L386.582 410.194L380.651 393.338L390.309 389.94L391.34 392.87L385.203 395.03L386.733 399.377L392.447 397.366L393.478 400.297L387.764 402.307L390.107 408.965L390.103 408.955Z" fill="#6666FF"/>
</g>
<defs>
<clipPath id="clip0_34_4238">
<rect width="198.944" height="198.944" fill="white" transform="translate(961.75 343.813) rotate(-10.1491)"/>
</clipPath>
<clipPath id="clip1_34_4238">
<rect width="270.966" height="270.966" fill="white" transform="translate(1228.55 192.205) rotate(21.6266)"/>
</clipPath>
<clipPath id="clip2_34_4238">
<rect width="182.899" height="59.7897" fill="white" transform="translate(655.242 330.52) rotate(-17.5099)"/>
</clipPath>
<clipPath id="clip3_34_4238">
<rect width="183.652" height="74.9962" fill="white" transform="translate(1293.07 108.302) rotate(-20.1625)"/>
</clipPath>
<clipPath id="clip4_34_4238">
<rect width="244.141" height="244.141" fill="white" transform="translate(458.835 268.104) rotate(17.5452)"/>
</clipPath>
<clipPath id="clip5_34_4238">
<rect width="120.552" height="150.95" fill="white" transform="translate(237.848 226.796) rotate(120.91)"/>
</clipPath>
<clipPath id="clip6_34_4238">
<rect width="252.04" height="209.816" fill="white" transform="translate(751.156 371.02) rotate(-17.5062)"/>
</clipPath>
<clipPath id="clip7_34_4238">
<rect width="91.7439" height="91.7439" fill="white" transform="translate(1369.32 185.199) rotate(-14.7892)"/>
</clipPath>
<clipPath id="clip8_34_4238">
<rect width="187.848" height="187.848" fill="white" transform="translate(265.313 315.012) rotate(76.1851)"/>
</clipPath>
<clipPath id="clip9_34_4238">
<rect width="203.629" height="208.633" fill="white" transform="translate(201.749 353.405) rotate(-19.3852)"/>
</clipPath>
</defs>
</svg>
