<svg width="200" height="175" viewBox="0 0 200 175" fill="none" xmlns="http://www.w3.org/2000/svg">
<g clip-path="url(#clip0_16_676)">
<path d="M189.06 87L188.51 15.77C188.48 11.85 184.24 9.43001 180.86 11.4L119.47 47.24L100.63 58.35L80.09 46.56L18.29 11.41C14.89 9.48001 10.68 11.95 10.69 15.87L10.94 87.1L11.49 158.33C11.52 162.25 15.76 164.67 19.14 162.7L80.53 126.86L99.37 115.75L119.91 127.54L181.7 162.68C185.1 164.61 189.31 162.14 189.3 158.22L189.05 86.99L189.06 87Z" fill="#6AE5DF"/>
<path d="M183.41 10.69C186.05 10.69 188.48 12.8 188.51 15.76L189.06 86.99L189.31 158.22C189.32 161.2 186.88 163.35 184.21 163.35C183.37 163.35 182.52 163.14 181.71 162.68L119.92 127.54L99.38 115.75L80.54 126.86L19.15 162.7C18.33 163.18 17.45 163.4 16.6 163.4C13.96 163.4 11.53 161.29 11.5 158.33L10.95 87.1L10.7 15.87C10.69 12.89 13.13 10.74 15.8 10.74C16.64 10.74 17.49 10.95 18.3 11.41L80.09 46.55L100.63 58.34L119.47 47.23L180.86 11.39C181.68 10.91 182.56 10.69 183.41 10.69ZM183.41 0C180.63 0 177.89 0.75 175.47 2.16L114.08 38L100.56 45.97L85.42 37.28L23.58 2.11C21.2 0.76 18.5 0.04 15.79 0.04C11.62 0.04 7.54005 1.74 4.59005 4.7C1.62005 7.69 -0.00995426 11.67 4.57402e-05 15.9L0.250046 87.13L0.800046 158.41C0.870046 167.06 7.95005 174.09 16.59 174.09C19.37 174.09 22.11 173.34 24.53 171.93L85.92 136.09L99.44 128.12L114.58 136.82L176.41 171.98C178.79 173.33 181.48 174.05 184.2 174.05C188.36 174.05 192.45 172.35 195.4 169.39C198.38 166.4 200.01 162.43 199.99 158.19L199.74 86.96L199.19 15.68C199.12 7.03 192.04 0 183.4 0L183.41 0Z" fill="#6666FF"/>
<path d="M99.38 115.76L128.29 86.85L100.62 58.34L71.71 86.85L99.38 115.76Z" fill="#F1F2F2"/>
<path d="M42.0601 86.74C42.0601 89.5 41.5401 91.8 40.5101 93.64C39.4801 95.48 38.0301 96.86 36.1501 97.78C34.2801 98.7 32.0401 99.16 29.4401 99.16H22.1001V75.13H30.0401C32.5701 75.13 34.7301 75.57 36.5201 76.46C38.3101 77.35 39.6701 78.65 40.6301 80.38C41.5801 82.11 42.0601 84.23 42.0601 86.74ZM36.6701 86.95C36.6701 85.22 36.4201 83.8 35.9101 82.68C35.4101 81.56 34.6501 80.72 33.6401 80.17C32.6301 79.62 31.3901 79.35 29.9001 79.35H27.2401V94.93H29.3901C31.8601 94.93 33.6901 94.27 34.8801 92.94C36.0701 91.62 36.6601 89.62 36.6601 86.95H36.6701Z" fill="#6666FF"/>
<path d="M60.7301 99.16H46.9001V75.13H60.7301V79.3H51.9801V84.58H60.1201V88.75H51.9801V94.94H60.7301V99.15V99.16Z" fill="#6666FF"/>
<path d="M76.1101 79.0701C75.1501 79.0701 74.2801 79.2601 73.5001 79.6301C72.7201 80.0001 72.0701 80.5401 71.5301 81.2501C70.9901 81.9601 70.5801 82.8101 70.3001 83.8101C70.0201 84.8101 69.8801 85.9501 69.8801 87.2301C69.8801 88.9101 70.1201 90.3501 70.5901 91.5501C71.0601 92.7501 71.7701 93.6701 72.7301 94.2901C73.6901 94.9101 74.8801 95.2301 76.3101 95.2301C77.3601 95.2301 78.3801 95.1101 79.3601 94.8601C80.3401 94.6101 81.3201 94.3001 82.3001 93.9201V98.2901C81.2901 98.7201 80.2601 99.0301 79.2201 99.2201C78.1801 99.4101 77.0201 99.5101 75.7401 99.5101C73.1801 99.5101 71.0801 99.0001 69.4301 97.9801C67.7801 96.9601 66.5601 95.5201 65.7601 93.6601C64.9601 91.8001 64.5701 89.6401 64.5701 87.2001C64.5701 85.3801 64.8201 83.7201 65.3301 82.2001C65.8401 80.6801 66.5801 79.3801 67.5701 78.2801C68.5601 77.1801 69.7701 76.3301 71.2001 75.7201C72.6401 75.1101 74.3001 74.8101 76.1801 74.8101C77.3701 74.8101 78.5701 74.9401 79.8001 75.2001C81.0201 75.4601 82.1801 75.8601 83.2801 76.3901L81.6001 80.5001C80.7901 80.1201 79.9301 79.7901 79.0301 79.5101C78.1201 79.2301 77.1501 79.0901 76.1201 79.0901L76.1101 79.0701Z" fill="#6666FF"/>
<path d="M96.3401 99.16H85.4001V96.27L88.3301 94.92V79.37L85.4001 78.02V75.13H96.3401V78.02L93.4101 79.37V94.92L96.3401 96.27V99.16Z" fill="#6666FF"/>
<path d="M114.61 92.5C114.61 93.91 114.26 95.15 113.57 96.2C112.88 97.25 111.87 98.07 110.56 98.64C109.25 99.21 107.65 99.5 105.77 99.5C104.94 99.5 104.13 99.44 103.33 99.33C102.53 99.22 101.77 99.06 101.04 98.84C100.31 98.62 99.6202 98.36 98.9702 98.05V93.3C100.11 93.79 101.3 94.25 102.52 94.66C103.74 95.08 104.96 95.28 106.17 95.28C107 95.28 107.67 95.17 108.17 94.94C108.67 94.72 109.05 94.41 109.28 94.03C109.52 93.65 109.63 93.21 109.63 92.72C109.63 92.11 109.42 91.6 109.01 91.17C108.59 90.74 108.04 90.34 107.34 89.97C106.64 89.6 105.85 89.2 104.95 88.78C104.39 88.51 103.78 88.19 103.13 87.82C102.48 87.45 101.86 86.99 101.26 86.44C100.67 85.89 100.18 85.22 99.8002 84.44C99.4202 83.65 99.2302 82.71 99.2302 81.61C99.2302 80.17 99.5602 78.95 100.22 77.93C100.88 76.91 101.82 76.13 103.05 75.59C104.27 75.05 105.71 74.78 107.37 74.78C108.63 74.78 109.82 74.93 110.95 75.22C112.08 75.51 113.27 75.93 114.5 76.47L112.85 80.44C111.75 79.99 110.76 79.64 109.89 79.4C109.01 79.15 108.12 79.03 107.2 79.03C106.57 79.03 106.03 79.13 105.58 79.33C105.13 79.53 104.79 79.81 104.55 80.17C104.31 80.53 104.2 80.96 104.2 81.45C104.2 82.01 104.37 82.49 104.7 82.88C105.04 83.27 105.54 83.65 106.21 84.01C106.88 84.37 107.72 84.8 108.73 85.29C109.96 85.87 111.01 86.48 111.88 87.11C112.74 87.74 113.41 88.48 113.88 89.33C114.35 90.18 114.59 91.24 114.59 92.49L114.61 92.5Z" fill="#6666FF"/>
<path d="M127.97 99.16H117.03V96.27L119.96 94.92V79.37L117.03 78.02V75.13H127.97V78.02L125.04 79.37V94.92L127.97 96.27V99.16Z" fill="#6666FF"/>
<path d="M153.77 87.11C153.77 88.97 153.54 90.66 153.08 92.17C152.62 93.68 151.92 94.99 150.99 96.09C150.06 97.19 148.88 98.03 147.44 98.61C146 99.19 144.3 99.49 142.33 99.49C140.36 99.49 138.68 99.2 137.23 98.61C135.78 98.02 134.59 97.19 133.66 96.09C132.73 94.99 132.03 93.68 131.57 92.17C131.11 90.66 130.88 88.96 130.88 87.07C130.88 84.58 131.29 82.41 132.11 80.58C132.93 78.74 134.18 77.31 135.88 76.29C137.57 75.27 139.73 74.76 142.36 74.76C144.99 74.76 147.11 75.27 148.8 76.29C150.49 77.31 151.74 78.75 152.55 80.6C153.36 82.45 153.76 84.62 153.76 87.11H153.77ZM136.31 87.11C136.31 88.77 136.52 90.21 136.93 91.42C137.34 92.63 138 93.56 138.9 94.2C139.8 94.84 140.94 95.16 142.33 95.16C143.72 95.16 144.93 94.84 145.81 94.2C146.7 93.56 147.34 92.64 147.75 91.42C148.15 90.21 148.36 88.77 148.36 87.11C148.36 84.6 147.9 82.62 146.98 81.19C146.06 79.75 144.52 79.04 142.37 79.04C140.96 79.04 139.8 79.37 138.9 80.02C138 80.67 137.35 81.6 136.93 82.8C136.51 84 136.31 85.44 136.31 87.12V87.11Z" fill="#6666FF"/>
<path d="M179.99 99.16H173.53L163.06 80.99H162.93C162.97 81.75 163.01 82.52 163.05 83.28C163.08 84.04 163.12 84.81 163.15 85.57C163.18 86.33 163.21 87.1 163.23 87.86V99.17H158.69V75.14H165.12L175.55 93.14H175.65C175.63 92.4 175.6 91.66 175.58 90.92C175.56 90.18 175.53 89.45 175.5 88.72C175.47 87.99 175.44 87.26 175.42 86.52V75.15H180V99.18L179.99 99.16Z" fill="#6666FF"/>
</g>
<defs>
<clipPath id="clip0_16_676">
<rect width="200" height="174.09" fill="white"/>
</clipPath>
</defs>
</svg>
