<svg width="200" height="82" viewBox="0 0 200 82" fill="none" xmlns="http://www.w3.org/2000/svg">
<g clip-path="url(#clip0_16_678)">
<path d="M190.28 0H9.47C4.23986 0 0 4.23986 0 9.47V72.1C0 77.3301 4.23986 81.57 9.47 81.57H190.28C195.51 81.57 199.75 77.3301 199.75 72.1V9.47C199.75 4.23986 195.51 0 190.28 0Z" fill="#6AE5DF"/>
<path d="M186.75 74.17H12.99C8.96995 74.17 5.69995 70.9 5.69995 66.88V14.7C5.69995 10.68 8.96995 7.41003 12.99 7.41003H186.75C190.77 7.41003 194.04 10.68 194.04 14.7V66.88C194.04 70.9 190.77 74.17 186.75 74.17ZM12.99 9.41003C10.07 9.41003 7.69995 11.78 7.69995 14.7V66.88C7.69995 69.8 10.07 72.17 12.99 72.17H186.75C189.67 72.17 192.04 69.8 192.04 66.88V14.7C192.04 11.78 189.67 9.41003 186.75 9.41003H12.99Z" fill="#6666FF"/>
<path d="M30.81 25.08H17.76C17.54 25.08 17.36 25.26 17.36 25.48V28.14C17.36 28.36 17.54 28.54 17.76 28.54H22.51V56.08C22.51 56.3 22.69 56.48 22.91 56.48H25.65C25.87 56.48 26.05 56.3 26.05 56.08V28.55H30.8C31.02 28.55 31.2 28.37 31.2 28.15V25.49C31.2 25.27 31.02 25.09 30.8 25.09L30.81 25.08Z" fill="#6666FF"/>
<path d="M45.34 25.0399H42.6C42.38 25.0399 42.2 25.2199 42.2 25.4399V37.9599H36V25.4399C36 25.2199 35.82 25.0399 35.6 25.0399H32.86C32.64 25.0399 32.46 25.2199 32.46 25.4399V56.0799C32.46 56.2999 32.64 56.4799 32.86 56.4799H35.6C35.82 56.4799 36 56.2999 36 56.0799V41.5899H42.2V56.0799C42.2 56.2999 42.38 56.4799 42.6 56.4799H45.34C45.56 56.4799 45.74 56.2999 45.74 56.0799V25.4499C45.74 25.2299 45.56 25.0499 45.34 25.0499V25.0399Z" fill="#6666FF"/>
<path d="M58.83 53.02H51.02V41.43H58.19C58.41 41.43 58.59 41.25 58.59 41.03V38.37C58.59 38.15 58.41 37.97 58.19 37.97H51.02V28.55H58.75C58.97 28.55 59.15 28.37 59.15 28.15V25.49C59.15 25.27 58.97 25.09 58.75 25.09H47.88C47.66 25.09 47.48 25.27 47.48 25.49V56.09C47.48 56.31 47.66 56.49 47.88 56.49H58.83C59.05 56.49 59.23 56.31 59.23 56.09V53.43C59.23 53.21 59.05 53.03 58.83 53.03V53.02Z" fill="#6666FF"/>
<path d="M78.8 25.08H68.01C67.79 25.08 67.61 25.26 67.61 25.48V56.12C67.61 56.34 67.79 56.52 68.01 56.52H70.75C70.97 56.52 71.15 56.34 71.15 56.12V41.42H78.28C78.5 41.42 78.68 41.24 78.68 41.02V38.36C78.68 38.14 78.5 37.96 78.28 37.96H71.15V28.54H78.8C79.02 28.54 79.2 28.36 79.2 28.14V25.48C79.2 25.26 79.02 25.08 78.8 25.08Z" fill="#6666FF"/>
<path d="M84.27 25.08H82.75C82.1922 25.08 81.74 25.5321 81.74 26.09V55.47C81.74 56.0278 82.1922 56.48 82.75 56.48H84.27C84.8278 56.48 85.28 56.0278 85.28 55.47V26.09C85.28 25.5321 84.8278 25.08 84.27 25.08Z" fill="#6666FF"/>
<path d="M100.5 37.16V30.72C100.5 28.49 99.2799 27.15 98.2599 26.42C97.0899 25.58 95.5099 25.09 94.0199 25.09H88.4599C88.2399 25.09 88.0599 25.27 88.0599 25.49V56.09C88.0599 56.31 88.2399 56.49 88.4599 56.49H91.1999C91.4199 56.49 91.5999 56.31 91.5999 56.09V42.96H93.2499C93.7399 42.96 94.2199 42.94 94.6899 42.88L96.9599 56.15C96.9899 56.34 97.1599 56.48 97.3599 56.48H100.26C100.38 56.48 100.49 56.42 100.57 56.33C100.65 56.24 100.68 56.12 100.65 56L97.8899 41.79C99.5799 40.8 100.5 39.16 100.5 37.15V37.16ZM91.5999 28.54H93.4899C95.8399 28.54 97.0299 28.98 97.0299 31.4V36.39C97.0299 38.47 95.8699 39.49 93.4899 39.49H91.5999V28.54Z" fill="#6666FF"/>
<path d="M108.99 39.4599C106.12 35.5899 105.12 34.1699 105.12 32.5799C105.12 28.6499 106.75 28.1499 108.18 28.1499C109.29 28.1499 110.76 28.6399 110.76 32.8599V34.4299C110.76 34.6499 110.94 34.8299 111.16 34.8299H113.9C114.12 34.8299 114.3 34.6499 114.3 34.4299V32.4599C114.3 25.4499 110.02 24.6899 108.18 24.6899C103.98 24.6899 101.58 27.4499 101.58 32.2599C101.58 35.2299 103.11 37.4399 106.29 41.7599L107.34 43.1699C110.22 47.0199 110.96 48.3599 110.96 49.6499C110.96 52.1599 110.03 53.4399 108.18 53.4399C106.79 53.4399 105.36 52.9199 105.36 49.0499V46.9999C105.36 46.7799 105.18 46.5999 104.96 46.5999H102.22C102 46.5999 101.82 46.7799 101.82 46.9999V49.5799C101.82 54.9799 105.11 56.9099 108.18 56.9099C112.14 56.9099 114.5 54.2199 114.5 49.6999C114.5 46.9199 113.06 44.9699 109.91 40.7199L108.98 39.4699L108.99 39.4599Z" fill="#6666FF"/>
<path d="M127.83 25.08H114.78C114.56 25.08 114.38 25.26 114.38 25.48V28.14C114.38 28.36 114.56 28.54 114.78 28.54H119.53V56.08C119.53 56.3 119.71 56.48 119.93 56.48H122.67C122.89 56.48 123.07 56.3 123.07 56.08V28.55H127.82C128.04 28.55 128.22 28.37 128.22 28.15V25.49C128.22 25.27 128.04 25.09 127.82 25.09L127.83 25.08Z" fill="#6666FF"/>
<path d="M147.56 25.08H136.77C136.55 25.08 136.37 25.26 136.37 25.48V56.12C136.37 56.34 136.55 56.52 136.77 56.52H139.51C139.73 56.52 139.91 56.34 139.91 56.12V41.42H147.04C147.26 41.42 147.44 41.24 147.44 41.02V38.36C147.44 38.14 147.26 37.96 147.04 37.96H139.91V28.54H147.56C147.78 28.54 147.96 28.36 147.96 28.14V25.48C147.96 25.26 147.78 25.08 147.56 25.08Z" fill="#6666FF"/>
<path d="M153.03 25.08H151.51C150.952 25.08 150.5 25.5321 150.5 26.09V55.47C150.5 56.0278 150.952 56.48 151.51 56.48H153.03C153.588 56.48 154.04 56.0278 154.04 55.47V26.09C154.04 25.5321 153.588 25.08 153.03 25.08Z" fill="#6666FF"/>
<path d="M169.62 25.08H166.84C166.64 25.08 166.47 25.23 166.44 25.43L162.97 50.27L159.43 25.43C159.4 25.23 159.23 25.08 159.03 25.08H156.25C156.13 25.08 156.02 25.13 155.94 25.22C155.86 25.31 155.83 25.43 155.85 25.55L160.68 56.15C160.71 56.34 160.88 56.49 161.08 56.49H164.91C165.11 56.49 165.28 56.35 165.31 56.15L170.02 25.58C170.02 25.58 170.03 25.52 170.03 25.49C170.03 25.27 169.85 25.09 169.63 25.09L169.62 25.08Z" fill="#6666FF"/>
<path d="M181.98 53.02H174.17V41.43H181.34C181.56 41.43 181.74 41.25 181.74 41.03V38.37C181.74 38.15 181.56 37.97 181.34 37.97H174.17V28.55H181.9C182.12 28.55 182.3 28.37 182.3 28.15V25.49C182.3 25.27 182.12 25.09 181.9 25.09H171.03C170.81 25.09 170.63 25.27 170.63 25.49V56.09C170.63 56.31 170.81 56.49 171.03 56.49H181.98C182.2 56.49 182.38 56.31 182.38 56.09V53.43C182.38 53.21 182.2 53.03 181.98 53.03V53.02Z" fill="#6666FF"/>
</g>
<defs>
<clipPath id="clip0_16_678">
<rect width="199.75" height="81.57" fill="white"/>
</clipPath>
</defs>
</svg>
