<svg width="195" height="195" viewBox="0 0 195 195" fill="none" xmlns="http://www.w3.org/2000/svg">
<g clip-path="url(#clip0_16_671)">
<path d="M140.941 119.643C135.056 113.758 125.516 113.756 119.633 119.639C113.749 125.522 113.751 135.063 119.636 140.948L169.225 190.537C175.111 196.422 184.651 196.424 190.534 190.541C196.417 184.658 196.416 175.117 190.531 169.232L140.941 119.643Z" fill="#6666FF"/>
<path d="M79.7399 147.84C117.35 147.84 147.84 117.35 147.84 79.7399C147.84 42.1293 117.35 11.6399 79.7399 11.6399C42.1293 11.6399 11.6399 42.1293 11.6399 79.7399C11.6399 117.35 42.1293 147.84 79.7399 147.84Z" fill="#F1F2F2"/>
<path d="M39.84 39.84C61.84 17.84 97.64 17.84 119.64 39.84C141.64 61.84 141.64 97.64 119.64 119.64C97.64 141.64 61.84 141.64 39.84 119.64C17.84 97.64 17.84 61.84 39.84 39.84ZM31.58 31.58C4.98995 58.17 4.98995 101.29 31.58 127.89C58.17 154.48 101.29 154.48 127.89 127.89C154.48 101.3 154.48 58.18 127.89 31.58C101.3 4.98995 58.18 4.98995 31.58 31.58Z" fill="#6AE5DF"/>
<path d="M31.5799 31.58C58.1699 4.99001 101.29 4.99001 127.89 31.58C154.48 58.17 154.48 101.29 127.89 127.89C101.3 154.48 58.1799 154.48 31.5799 127.89C4.98988 101.3 4.98988 58.18 31.5799 31.58ZM23.3299 23.33C-7.77012 54.43 -7.77012 105.04 23.3299 136.15C54.4299 167.25 105.04 167.25 136.15 136.15C167.25 105.05 167.25 54.44 136.15 23.33C105.05 -7.76999 54.4399 -7.76999 23.3299 23.33Z" fill="#6666FF"/>
</g>
<defs>
<clipPath id="clip0_16_671">
<rect width="194.95" height="194.95" fill="white"/>
</clipPath>
</defs>
</svg>
