<svg width="459" height="517" viewBox="0 0 459 517" fill="none" xmlns="http://www.w3.org/2000/svg">
<g clip-path="url(#clip0_34_983)">
<rect width="459.01" height="516.09" fill="white"/>
<g clip-path="url(#clip1_34_983)">
<path d="M31.4817 276.95C30.7434 278.165 31.8009 279.679 33.1965 279.402L42.5489 277.555L51.4199 276.008C53.5641 275.634 54.8759 273.443 54.1923 271.377L51.3672 262.827L48.5788 253.711C48.1628 252.352 46.3295 252.133 45.6073 253.357L43.859 256.318L26.9958 246.221C25.712 245.453 24.0503 245.87 23.2816 247.154L15.3027 260.48C14.5341 261.764 14.9512 263.426 16.2349 264.194L33.0961 274.29L31.4805 276.952L31.4817 276.95Z" fill="#6666FF"/>
<path d="M51.0616 272.648C50.9921 272.764 50.8912 272.783 50.8572 272.79L41.9862 274.337C41.9618 274.342 41.9373 274.346 41.9149 274.352L36.1361 275.492C36.3849 274.863 36.4335 274.169 36.2683 273.504C36.0582 272.66 35.5218 271.933 34.7748 271.486L18.3943 261.678L25.7965 249.315L42.179 259.124C42.926 259.571 43.8197 259.701 44.663 259.488C45.423 259.295 46.0851 258.835 46.5313 258.199L48.2395 263.784C48.2471 263.808 48.2527 263.83 48.2604 263.854L51.0854 272.404C51.0967 272.435 51.128 272.533 51.0572 272.651M53.8655 274.327C54.3763 273.474 54.5346 272.41 54.1922 271.377L51.3671 262.827L48.5788 253.711C48.1636 252.355 46.3399 252.134 45.612 253.349C45.6096 253.353 45.6084 253.355 45.606 253.359L43.8577 256.32L26.9946 246.224C25.7108 245.455 24.049 245.872 23.2804 247.156L15.3015 260.482C14.5328 261.766 14.9499 263.428 16.2337 264.196L33.0949 274.292L31.4792 276.954C31.4792 276.954 31.4756 276.96 31.4732 276.964C30.7465 278.178 31.8016 279.683 33.1929 279.408L42.5452 277.561L51.4162 276.014C52.489 275.826 53.3511 275.186 53.8619 274.333L53.8655 274.327Z" fill="#F1F2F2"/>
<path d="M53.8655 274.327C53.3546 275.18 52.4913 275.822 51.4198 276.008L42.5488 277.555L33.1965 279.402C31.8052 279.677 30.7489 278.174 31.4768 276.958C31.4792 276.954 31.4804 276.952 31.4828 276.948L33.0984 274.286L16.2372 264.19C14.9535 263.422 14.5364 261.76 15.305 260.476L23.2816 247.154C24.0502 245.87 25.712 245.453 26.9957 246.222L43.8589 256.318L45.6072 253.357C45.6072 253.357 45.6108 253.351 45.6132 253.347C46.3399 252.134 48.1648 252.353 48.58 253.709L51.3683 262.825L54.1934 271.375C54.5346 272.409 54.3775 273.472 53.8667 274.325M56.6613 276.001C57.6806 274.298 57.9092 272.24 57.2862 270.354L54.4731 261.838L51.6968 252.756C51.1326 250.909 49.5273 249.564 47.6083 249.329C45.6893 249.094 43.8102 250.015 42.8174 251.673C42.8138 251.679 42.8042 251.695 42.7994 251.703L42.719 251.838L28.6697 243.426C25.8478 241.736 22.1753 242.658 20.4857 245.48L12.5068 258.806C10.8172 261.628 11.739 265.301 14.5609 266.99L28.6102 275.402C27.689 277.041 27.7889 279.073 28.8745 280.618C29.9856 282.198 31.9292 282.978 33.8264 282.603L43.1427 280.762L51.9777 279.22C53.9353 278.877 55.6421 277.703 56.6613 276.001Z" fill="#6666FF"/>
</g>
<g clip-path="url(#clip2_34_983)">
<path d="M420.422 421.441L343.032 375.922C339.349 373.756 334.607 374.986 332.441 378.668L286.922 456.058C284.756 459.741 285.986 464.483 289.668 466.649L367.058 512.168C370.741 514.334 375.483 513.105 377.649 509.422L423.168 432.032C425.334 428.349 424.105 423.607 420.422 421.441Z" fill="#6666FF"/>
<path d="M364.502 503.228L298.797 464.582C298.552 464.438 298.398 464.182 298.382 463.898C298.37 463.616 298.5 463.344 298.726 463.178C299.351 462.728 299.861 462.161 300.251 461.499C301.806 458.854 300.918 455.443 298.278 453.891C297.879 453.656 297.742 453.142 297.979 452.738L334.786 390.159C335.021 389.76 335.535 389.623 335.939 389.86C338.579 391.413 341.994 390.527 343.547 387.887C343.782 387.488 344.296 387.351 344.7 387.588L409.483 425.692C409.883 425.927 410.02 426.441 409.782 426.845C408.229 429.485 409.115 432.9 411.755 434.453C412.154 434.688 412.291 435.202 412.054 435.606L375.249 498.18C375.014 498.579 374.5 498.717 374.097 498.479C371.456 496.926 368.041 497.812 366.489 500.452C366.099 501.114 365.856 501.838 365.762 502.601C365.731 502.882 365.556 503.127 365.3 503.251C365.048 503.378 364.745 503.365 364.5 503.22L364.502 503.228ZM300.656 463.727L364.346 501.188C364.511 500.638 364.745 500.104 365.041 499.601C366.923 496.403 370.889 495.182 374.202 496.649L410.207 435.435C407.539 433.42 406.604 429.799 407.952 426.739L344.534 389.438C342.519 392.106 338.898 393.041 335.838 391.693L299.836 452.902C302.728 455.086 303.586 459.15 301.708 462.343C301.412 462.847 301.062 463.307 300.658 463.723L300.656 463.727Z" fill="#6AE5DF"/>
<path d="M336.668 386.253C338.034 387.056 339.792 386.601 340.595 385.235C341.398 383.87 340.942 382.112 339.577 381.309C338.211 380.506 336.453 380.961 335.65 382.327C334.847 383.692 335.303 385.45 336.668 386.253Z" fill="#6AE5DF"/>
<path d="M292.697 461.012C294.062 461.815 295.82 461.359 296.624 459.994C297.427 458.628 296.971 456.871 295.605 456.067C294.24 455.264 292.482 455.72 291.679 457.086C290.876 458.451 291.332 460.209 292.697 461.012Z" fill="#6AE5DF"/>
<path d="M414.485 432.023C415.85 432.826 417.608 432.37 418.411 431.005C419.214 429.639 418.759 427.881 417.393 427.078C416.028 426.275 414.27 426.731 413.467 428.096C412.664 429.462 413.119 431.22 414.485 432.023Z" fill="#6AE5DF"/>
<path d="M370.514 506.782C371.879 507.585 373.637 507.129 374.44 505.764C375.243 504.398 374.787 502.641 373.422 501.837C372.057 501.034 370.299 501.49 369.496 502.856C368.692 504.221 369.148 505.979 370.514 506.782Z" fill="#6AE5DF"/>
<path d="M327.864 422.129L334.305 411.178L339.036 413.961L338.073 415.599L335.759 414.238L334.137 416.996L336.151 418.181L335.159 419.868L333.145 418.684L330.282 423.551L327.864 422.129Z" fill="white"/>
<path d="M334.083 425.787L340.524 414.836L342.942 416.259L336.501 427.209L334.083 425.787Z" fill="white"/>
<path d="M338.474 428.37L344.915 417.419L346.616 418.42L345.761 425.012L348.862 419.741L350.862 420.917L344.421 431.868L342.788 430.908L343.881 423.912L340.543 429.587L338.474 428.37Z" fill="white"/>
<path d="M345.868 432.719L354.378 422.985L357.136 424.607L352.736 436.759L350.505 435.446L351.502 432.919L349.892 431.972L348.155 434.064L345.868 432.719ZM350.961 430.653L352.122 431.336L354.055 426.721L350.961 430.653Z" fill="white"/>
<path d="M354.184 437.61L360.625 426.659L362.326 427.66L361.471 434.252L364.571 428.98L366.572 430.157L360.131 441.108L358.498 440.147L359.59 433.152L356.252 438.827L354.184 437.61Z" fill="white"/>
<path d="M365.145 444.271C364.315 443.783 363.75 443.249 363.443 442.659C363.141 442.073 363.049 441.451 363.17 440.789C363.29 440.127 363.569 439.424 364.004 438.685L366.326 434.738C366.771 433.981 367.252 433.391 367.775 432.959C368.295 432.532 368.883 432.31 369.54 432.294C370.197 432.277 370.94 432.519 371.77 433.007C372.6 433.495 373.135 433.987 373.436 434.524C373.732 435.059 373.836 435.62 373.746 436.209C373.656 436.797 373.429 437.402 373.061 438.028L372.503 438.976L370.14 437.586L370.783 436.493C370.911 436.275 371.022 436.065 371.116 435.852C371.211 435.64 371.244 435.439 371.212 435.243C371.181 435.048 371.032 434.875 370.773 434.723C370.515 434.571 370.293 434.532 370.091 434.596C369.888 434.66 369.713 434.783 369.561 434.968C369.409 435.153 369.27 435.359 369.136 435.585L366.108 440.734C365.964 440.979 365.851 441.212 365.772 441.44C365.693 441.668 365.681 441.875 365.732 442.07C365.782 442.264 365.924 442.427 366.16 442.566C366.414 442.715 366.629 442.756 366.815 442.689C367.001 442.621 367.168 442.493 367.318 442.3C367.468 442.108 367.604 441.907 367.732 441.689L368.407 440.542L370.771 441.932L370.213 442.88C369.847 443.501 369.428 444.006 368.954 444.387C368.48 444.767 367.933 444.97 367.31 444.982C366.688 445.001 365.966 444.766 365.144 444.283L365.145 444.271Z" fill="white"/>
<path d="M370.061 446.948L376.502 435.998L378.92 437.42L372.479 448.37L370.061 446.948Z" fill="white"/>
<path d="M373.93 449.224L382.44 439.49L385.198 441.112L380.798 453.264L378.567 451.951L379.564 449.424L377.954 448.477L376.217 450.569L373.93 449.224ZM379.018 447.155L380.18 447.838L382.112 443.223L379.018 447.155Z" fill="white"/>
<path d="M382.241 454.113L388.682 443.162L391.1 444.584L385.622 453.897L388.135 455.375L387.172 457.013L382.236 454.11L382.241 454.113Z" fill="white"/>
<path d="M318.325 438.346L324.763 427.4L327.181 428.822L321.703 438.135L324.217 439.614L323.253 441.251L318.318 438.348L318.325 438.346Z" fill="white"/>
<path d="M324.667 442.077L331.105 431.13L333.523 432.553L327.085 443.499L324.667 442.077Z" fill="white"/>
<path d="M330.047 445.241L335.429 436.091L333.777 435.12L334.834 433.324L340.55 436.686L339.493 438.482L337.856 437.519L332.474 446.669L330.042 445.238L330.047 445.241Z" fill="white"/>
<path d="M335.409 448.395L341.847 437.449L346.769 440.344L345.801 441.99L343.301 440.52L341.703 443.237L343.608 444.358L342.624 446.032L340.718 444.911L338.795 448.182L341.321 449.668L340.358 451.306L335.409 448.395Z" fill="white"/>
<path d="M341.791 452.149L348.23 441.203L351.242 442.974C351.981 443.409 352.573 443.867 353.017 444.348C353.46 444.829 353.712 445.367 353.77 445.963C353.828 446.559 353.629 447.242 353.178 448.008C352.914 448.457 352.64 448.84 352.362 449.146C352.084 449.453 351.773 449.68 351.426 449.823C351.079 449.967 350.677 450.018 350.217 449.979L348.602 456.161L346.103 454.691L347.788 449.075L347.098 448.67L344.211 453.578L341.793 452.156L341.791 452.149ZM347.913 447.275L348.589 447.672C348.929 447.872 349.231 447.971 349.494 447.96C349.756 447.95 349.992 447.85 350.202 447.669C350.416 447.483 350.615 447.227 350.804 446.905C351.079 446.438 351.209 446.02 351.189 445.66C351.168 445.3 350.933 444.984 350.47 444.712L349.685 444.251L347.906 447.276L347.913 447.275Z" fill="white"/>
<path d="M349.712 456.808L358.219 447.078L360.977 448.7L356.58 460.847L354.348 459.534L355.343 457.012L353.733 456.065L351.998 458.152L349.712 456.808ZM354.802 454.746L355.963 455.429L357.896 450.814L354.802 454.746Z" fill="white"/>
<path d="M360.889 463.601C360.059 463.113 359.494 462.579 359.187 461.99C358.885 461.403 358.793 460.781 358.913 460.119C359.034 459.458 359.313 458.755 359.748 458.015L362.069 454.069C362.515 453.311 362.996 452.721 363.519 452.29C364.038 451.863 364.627 451.641 365.284 451.624C365.941 451.608 366.684 451.849 367.514 452.338C368.344 452.826 368.879 453.318 369.18 453.855C369.481 454.392 369.579 454.951 369.49 455.539C369.4 456.128 369.173 456.732 368.804 457.358L368.247 458.307L365.883 456.916L366.526 455.823C366.654 455.605 366.765 455.396 366.86 455.183C366.955 454.97 366.987 454.769 366.956 454.574C366.924 454.378 366.776 454.205 366.517 454.053C366.259 453.901 366.037 453.863 365.835 453.927C365.632 453.991 365.456 454.113 365.304 454.299C365.153 454.484 365.014 454.689 364.88 454.916L361.852 460.065C361.708 460.31 361.595 460.543 361.519 460.766C361.442 460.99 361.428 461.201 361.478 461.396C361.528 461.59 361.671 461.753 361.907 461.892C362.161 462.041 362.375 462.082 362.561 462.015C362.747 461.947 362.914 461.819 363.064 461.627C363.214 461.434 363.35 461.233 363.478 461.015L364.153 459.868L366.517 461.258L365.959 462.206C365.594 462.827 365.175 463.332 364.701 463.713C364.227 464.093 363.68 464.296 363.056 464.308C362.432 464.32 361.712 464.092 360.891 463.609L360.889 463.601Z" fill="white"/>
<path d="M367.122 467.048L369.753 462.575L371.479 454.877L373.765 456.222L372.768 460.294L375.738 457.382L377.929 458.671L372.08 463.944L369.45 468.417L367.127 467.051L367.122 467.048Z" fill="white"/>
<path d="M378.22 465.174L380.785 462.182C380.924 462.02 381.187 462.174 381.112 462.375L379.744 466.07C379.72 466.142 379.734 466.223 379.789 466.274L381.79 468.25C381.933 468.39 381.792 468.63 381.6 468.572L378.901 467.784C378.827 467.765 378.747 467.786 378.701 467.844L376.136 470.835C375.997 470.998 375.734 470.843 375.809 470.643L377.177 466.947C377.2 466.876 377.187 466.795 377.132 466.744L375.131 464.767C374.987 464.628 375.129 464.387 375.321 464.445L378.02 465.233C378.094 465.252 378.173 465.232 378.22 465.174Z" fill="white"/>
</g>
<g clip-path="url(#clip3_34_983)">
<path d="M417.091 61.8816L363.745 48.6909C362.202 48.3093 360.641 49.2509 360.26 50.794L355.691 69.2724C355.309 70.8155 356.251 72.3757 357.794 72.7573L411.14 85.9479C412.683 86.3295 414.243 85.3879 414.625 83.8448L419.194 65.3665C419.576 63.8234 418.634 62.2631 417.091 61.8816Z" fill="#6AE5DF"/>
<path d="M410.638 83.5071L359.372 70.8307C358.186 70.5375 357.46 69.3341 357.753 68.1481L361.56 52.7529C361.853 51.5668 363.057 50.8406 364.243 51.1339L415.509 63.8102C416.695 64.1035 417.421 65.3069 417.128 66.4929L413.321 81.8881C413.028 83.0741 411.824 83.8004 410.638 83.5071ZM364.097 51.724C363.235 51.5109 362.363 52.0373 362.15 52.8988L358.343 68.294C358.13 69.1555 358.657 70.0276 359.518 70.2406L410.784 82.917C411.646 83.13 412.518 82.6037 412.731 81.7422L416.538 66.347C416.751 65.4855 416.224 64.6134 415.363 64.4003L364.097 51.724Z" fill="#6666FF"/>
<path d="M368.211 57.6472L364.361 56.6952C364.296 56.6791 364.23 56.7191 364.213 56.784L364.019 57.5688C364.003 57.6337 364.043 57.7 364.108 57.716L365.51 58.0626L363.501 66.188C363.485 66.2529 363.525 66.3191 363.589 66.3352L364.398 66.535C364.463 66.5511 364.529 66.5111 364.545 66.4462L366.553 58.3238L367.955 58.6703C368.02 58.6863 368.086 58.6464 368.102 58.5815L368.296 57.7967C368.312 57.7317 368.272 57.6655 368.207 57.6495L368.211 57.6472Z" fill="#6666FF"/>
<path d="M372.501 58.6955L371.692 58.4956C371.627 58.4796 371.561 58.5195 371.545 58.5844L370.632 62.2783L368.803 61.826L369.716 58.1321C369.732 58.0672 369.692 58.001 369.627 57.9849L368.819 57.785C368.754 57.769 368.688 57.809 368.672 57.8739L366.436 66.9139C366.42 66.9788 366.46 67.045 366.525 67.0611L367.333 67.261C367.398 67.277 367.465 67.2371 367.481 67.1721L368.538 62.897L370.367 63.3493L369.31 67.6245C369.294 67.6894 369.334 67.7556 369.399 67.7717L370.207 67.9715C370.272 67.9876 370.338 67.9476 370.354 67.8827L372.589 58.8456C372.605 58.7807 372.565 58.7145 372.5 58.6984L372.501 58.6955Z" fill="#6666FF"/>
<path d="M374.44 67.9347L372.136 67.3649L372.981 63.9454L375.096 64.4685C375.161 64.4845 375.228 64.4446 375.244 64.3797L375.438 63.5948C375.454 63.5299 375.414 63.4637 375.349 63.4477L373.233 62.9246L373.921 60.1453L376.201 60.7092C376.266 60.7253 376.332 60.6853 376.349 60.6204L376.543 59.8356C376.559 59.7707 376.519 59.7044 376.454 59.6884L373.247 58.8954C373.182 58.8793 373.116 58.9193 373.099 58.9842L370.867 68.0124C370.851 68.0774 370.891 68.1436 370.956 68.1596L374.187 68.9585C374.252 68.9745 374.318 68.9346 374.334 68.8696L374.528 68.0848C374.544 68.0199 374.504 67.9537 374.439 67.9376L374.44 67.9347Z" fill="#6666FF"/>
<path d="M382.37 61.1479L379.187 60.3607C379.122 60.3447 379.055 60.3847 379.039 60.4496L376.804 69.4896C376.788 69.5545 376.828 69.6207 376.893 69.6368L377.701 69.8367C377.766 69.8527 377.833 69.8127 377.849 69.7478L378.921 65.4107L381.025 65.9309C381.09 65.947 381.156 65.907 381.172 65.8421L381.366 65.0573C381.382 64.9924 381.342 64.9261 381.277 64.9101L379.173 64.3899L379.861 61.6106L382.118 62.1687C382.183 62.1848 382.249 62.1448 382.265 62.0799L382.459 61.2951C382.475 61.2302 382.435 61.1639 382.37 61.1479Z" fill="#6666FF"/>
<path d="M383.984 61.5474L383.536 61.4365C383.371 61.3958 383.205 61.4962 383.164 61.6608L381.02 70.329C380.98 70.4936 381.08 70.66 381.245 70.7007L381.693 70.8116C381.858 70.8523 382.024 70.7519 382.065 70.5873L384.208 61.919C384.249 61.7545 384.149 61.5881 383.984 61.5474Z" fill="#6666FF"/>
<path d="M387.891 66.2953L388.361 64.3953C388.524 63.7373 388.261 63.253 388.014 62.9632C387.73 62.63 387.299 62.3702 386.86 62.2615L385.219 61.8558C385.154 61.8398 385.088 61.8798 385.072 61.9447L382.84 70.9729C382.824 71.0378 382.864 71.104 382.929 71.1201L383.737 71.32C383.802 71.336 383.868 71.2961 383.884 71.2311L384.842 67.3573L385.329 67.4776C385.473 67.5134 385.617 67.5425 385.76 67.5591L385.461 71.6399C385.456 71.6981 385.496 71.7518 385.555 71.7664L386.411 71.978C386.446 71.9867 386.483 71.9771 386.513 71.9563C386.543 71.9356 386.561 71.9024 386.561 71.8648L386.783 67.471C387.354 67.3022 387.745 66.8854 387.892 66.2924L387.891 66.2953ZM385.894 63.1028L386.452 63.2407C387.145 63.4121 387.464 63.6288 387.287 64.3428L386.923 65.815C386.772 66.4287 386.355 66.645 385.653 66.4714L385.095 66.3335L385.894 63.1028Z" fill="#6666FF"/>
<path d="M390.228 67.5931C389.664 66.242 389.472 65.7501 389.588 65.2809C389.875 64.1214 390.392 64.0928 390.814 64.1972C391.142 64.2781 391.54 64.5299 391.232 65.775L391.117 66.2382C391.101 66.3031 391.141 66.3694 391.206 66.3854L392.015 66.5853C392.079 66.6014 392.146 66.5614 392.162 66.4965L392.305 65.9152C392.817 63.847 391.61 63.3106 391.067 63.1763C389.827 62.8699 388.918 63.5091 388.567 64.9283C388.35 65.8045 388.641 66.5682 389.264 68.0748L389.471 68.5674C390.039 69.9134 390.16 70.3627 390.066 70.7433C389.883 71.4839 389.515 71.7937 388.969 71.6587C388.559 71.5573 388.175 71.2996 388.457 70.1578L388.607 69.5529C388.623 69.488 388.583 69.4218 388.518 69.4057L387.71 69.2058C387.645 69.1898 387.579 69.2298 387.563 69.2947L387.374 70.0559C386.98 71.6491 387.81 72.4585 388.716 72.6825C389.884 72.9714 390.777 72.3499 391.107 71.0163C391.31 70.1961 391.027 69.5157 390.408 68.032L390.224 67.5954L390.228 67.5931Z" fill="#6666FF"/>
<path d="M396.836 64.7249L392.985 63.7728C392.921 63.7568 392.854 63.7968 392.838 63.8617L392.644 64.6465C392.628 64.7114 392.668 64.7776 392.733 64.7937L394.134 65.1402L392.125 73.2656C392.109 73.3305 392.149 73.3967 392.214 73.4128L393.023 73.6127C393.087 73.6287 393.154 73.5888 393.17 73.5238L395.178 65.4014L396.58 65.7479C396.645 65.764 396.711 65.724 396.727 65.6591L396.921 64.8743C396.937 64.8094 396.897 64.7431 396.832 64.7271L396.836 64.7249Z" fill="#6666FF"/>
<path d="M402.657 66.1645L399.473 65.3773C399.409 65.3613 399.342 65.4013 399.326 65.4662L397.091 74.5062C397.075 74.5711 397.115 74.6373 397.18 74.6534L397.988 74.8533C398.053 74.8693 398.119 74.8293 398.135 74.7644L399.208 70.4273L401.311 70.9475C401.376 70.9636 401.443 70.9236 401.459 70.8587L401.653 70.0739C401.669 70.009 401.629 69.9427 401.564 69.9267L399.46 69.4065L400.147 66.6272L402.405 67.1853C402.469 67.2014 402.536 67.1614 402.552 67.0965L402.746 66.3117C402.762 66.2468 402.722 66.1805 402.657 66.1645Z" fill="#6666FF"/>
<path d="M404.271 66.5635L403.822 66.4526C403.658 66.4119 403.491 66.5123 403.451 66.6769L401.307 75.3452C401.267 75.5097 401.367 75.6761 401.532 75.7168L401.98 75.8277C402.145 75.8684 402.311 75.768 402.352 75.6034L404.495 66.9352C404.536 66.7706 404.435 66.6042 404.271 66.5635Z" fill="#6666FF"/>
<path d="M409.166 67.7736L408.345 67.5707C408.286 67.5562 408.225 67.588 408.202 67.6448L405.366 74.7205L406.134 67.1334C406.139 67.0722 406.1 67.0156 406.041 67.001L405.221 66.7982C405.185 66.7894 405.149 66.7961 405.119 66.8169C405.089 66.8376 405.071 66.8708 405.069 66.9077L404.261 76.2882C404.256 76.3465 404.295 76.4031 404.354 76.4177L405.484 76.6971C405.543 76.7117 405.604 76.6828 405.627 76.626L409.247 67.9503C409.247 67.9503 409.254 67.9333 409.257 67.9244C409.273 67.8595 409.233 67.7933 409.168 67.7772L409.166 67.7736Z" fill="#6666FF"/>
<path d="M410.774 76.9191L408.47 76.3493L409.315 72.9298L411.431 73.4529C411.496 73.4689 411.562 73.4289 411.578 73.364L411.772 72.5792C411.788 72.5143 411.748 72.4481 411.683 72.432L409.568 71.909L410.255 69.1297L412.536 69.6936C412.6 69.7097 412.667 69.6697 412.683 69.6048L412.877 68.82C412.893 68.7551 412.853 68.6888 412.788 68.6728L409.581 67.8798C409.516 67.8637 409.45 67.9037 409.434 67.9686L407.201 76.9968C407.185 77.0617 407.225 77.128 407.29 77.144L410.521 77.9429C410.586 77.9589 410.652 77.9189 410.668 77.854L410.862 77.0692C410.878 77.0043 410.838 76.9381 410.773 76.922L410.774 76.9191Z" fill="#6666FF"/>
</g>
<g clip-path="url(#clip4_34_983)">
<path d="M294.849 42.4132C293.626 41.9889 292.291 42.6362 291.866 43.8591C291.442 45.0819 292.09 46.4172 293.313 46.8416L303.621 50.417C304.844 50.8413 306.179 50.194 306.603 48.9711C307.028 47.7483 306.38 46.413 305.157 45.9887L294.849 42.4132Z" fill="#6666FF"/>
<path d="M288.197 50.5137C293.461 47.9609 295.659 41.6236 293.107 36.359C290.554 31.0944 284.216 28.8961 278.952 31.4489C273.687 34.0018 271.489 40.3391 274.042 45.6037C276.595 50.8683 282.932 53.0666 288.197 50.5137Z" fill="#F1F2F2"/>
<path d="M275.281 38.1047C276.867 33.532 281.878 31.102 286.451 32.6882C291.024 34.2744 293.454 39.2856 291.867 43.8583C290.281 48.4311 285.27 50.861 280.697 49.2748C276.125 47.6886 273.695 42.6774 275.281 38.1047ZM273.564 37.5092C271.647 43.0359 274.574 49.0717 280.101 50.9903C285.628 52.9074 291.664 49.9806 293.582 44.4532C295.499 38.9264 292.573 32.8906 287.045 30.972C281.518 29.0549 275.483 31.9817 273.564 37.5092Z" fill="#6AE5DF"/>
<path d="M273.564 37.5095C275.481 31.9827 281.517 29.0559 287.045 30.9724C292.572 32.8895 295.499 38.9253 293.582 44.4535C291.665 49.9803 285.629 52.9071 280.101 50.9906C274.574 49.0734 271.647 43.0377 273.564 37.5095ZM271.849 36.9147C269.607 43.3789 273.042 50.4631 279.507 52.7068C285.971 54.9491 293.055 51.5139 295.299 45.049C297.541 38.5848 294.106 31.5006 287.641 29.2569C281.177 27.0146 274.093 30.4498 271.849 36.9147Z" fill="#6666FF"/>
</g>
<g clip-path="url(#clip5_34_983)">
<path d="M196.801 491.189C216.421 480.619 223.758 456.146 213.189 436.526C202.62 416.905 178.146 409.568 158.526 420.137C138.905 430.707 131.568 455.18 142.138 474.801C152.707 494.421 177.18 501.758 196.801 491.189Z" fill="#6666FF"/>
<path d="M192.858 487.469C192.858 487.469 192.822 487.488 192.805 487.498C192.554 487.619 192.295 487.735 192.041 487.85C191.432 488.123 190.715 487.848 190.442 487.239C190.169 486.63 190.445 485.918 191.053 485.641C191.29 485.536 191.528 485.426 191.765 485.312C192.366 485.025 193.091 485.281 193.378 485.882C193.656 486.466 193.423 487.165 192.861 487.467L192.858 487.469ZM198.093 484.383C197.564 484.668 196.895 484.524 196.537 484.02C196.148 483.478 196.272 482.719 196.814 482.331C197.026 482.18 197.24 482.024 197.444 481.868C197.976 481.467 198.739 481.574 199.14 482.105C199.542 482.64 199.434 483.399 198.903 483.8C198.68 483.966 198.454 484.133 198.226 484.297C198.184 484.329 198.138 484.354 198.092 484.379L198.093 484.383ZM186.377 489.792C186.288 489.839 186.193 489.877 186.091 489.9C185.821 489.967 185.544 490.034 185.274 490.092C184.623 490.237 183.975 489.825 183.83 489.174C183.684 488.52 184.098 487.875 184.748 487.731C185.003 487.676 185.258 487.612 185.51 487.554C186.157 487.393 186.816 487.79 186.976 488.437C187.11 488.984 186.849 489.537 186.377 489.792ZM203.255 479.824C202.811 480.063 202.25 480.008 201.86 479.65C201.367 479.195 201.337 478.432 201.791 477.94C201.968 477.749 202.143 477.554 202.317 477.359C202.759 476.86 203.524 476.809 204.024 477.251C204.526 477.691 204.573 478.458 204.132 478.957C203.947 479.167 203.76 479.373 203.569 479.581C203.477 479.682 203.369 479.762 203.252 479.826L203.255 479.824ZM179.556 490.752C179.4 490.837 179.221 490.887 179.028 490.895C178.745 490.905 178.465 490.914 178.182 490.915C177.512 490.923 176.963 490.389 176.955 489.719C176.948 489.05 177.482 488.501 178.151 488.493C178.411 488.491 178.673 488.483 178.934 488.475C179.603 488.449 180.164 488.972 180.188 489.637C180.206 490.113 179.945 490.538 179.551 490.751L179.556 490.752ZM207.388 474.316C207.026 474.511 206.571 474.517 206.19 474.287C205.616 473.945 205.431 473.202 205.777 472.626C205.912 472.402 206.043 472.176 206.173 471.95C206.502 471.369 207.245 471.166 207.822 471.497C208.404 471.829 208.606 472.569 208.275 473.146C208.136 473.39 207.995 473.631 207.853 473.868C207.738 474.063 207.574 474.211 207.39 474.31L207.388 474.316ZM172.678 490.314C172.451 490.436 172.18 490.486 171.904 490.442C171.628 490.398 171.352 490.345 171.078 490.296C170.421 490.173 169.992 489.538 170.114 488.881C170.237 488.224 170.872 487.794 171.529 487.917C171.785 487.967 172.043 488.011 172.304 488.054C172.965 488.166 173.41 488.788 173.298 489.448C173.234 489.831 172.995 490.144 172.678 490.314ZM210.323 468.091C210.032 468.248 209.681 468.286 209.345 468.164C208.716 467.94 208.386 467.251 208.609 466.618C208.697 466.373 208.779 466.127 208.86 465.877C209.068 465.243 209.753 464.897 210.386 465.101C211.02 465.309 211.37 465.992 211.162 466.627C211.076 466.893 210.985 467.158 210.89 467.424C210.787 467.718 210.581 467.948 210.325 468.086L210.323 468.091ZM166.035 488.507C165.737 488.668 165.371 488.704 165.026 488.574C164.765 488.472 164.504 488.369 164.246 488.265C163.628 488.012 163.33 487.306 163.587 486.686C163.841 486.068 164.547 485.77 165.167 486.027C165.408 486.127 165.653 486.224 165.896 486.318C166.521 486.558 166.833 487.257 166.592 487.881C166.483 488.165 166.282 488.378 166.034 488.512L166.035 488.507ZM211.959 461.403C211.739 461.521 211.482 461.573 211.22 461.535C210.556 461.444 210.093 460.831 210.187 460.171C210.222 459.914 210.256 459.653 210.286 459.394C210.363 458.729 210.964 458.254 211.627 458.327C212.292 458.405 212.767 459.006 212.694 459.669C212.661 459.948 212.628 460.227 212.589 460.504C212.533 460.901 212.292 461.228 211.965 461.404L211.959 461.403ZM159.887 485.407C159.514 485.608 159.041 485.606 158.661 485.361C158.426 485.213 158.192 485.059 157.96 484.9C157.405 484.525 157.257 483.775 157.632 483.22C158.007 482.665 158.757 482.518 159.312 482.893C159.528 483.038 159.747 483.181 159.964 483.321C160.529 483.681 160.693 484.427 160.333 484.992C160.219 485.173 160.065 485.311 159.887 485.407ZM212.212 454.52C212.062 454.6 211.896 454.649 211.716 454.663C211.047 454.707 210.472 454.201 210.432 453.531C210.415 453.269 210.395 453.01 210.372 452.747C210.312 452.083 210.807 451.495 211.471 451.435C212.136 451.375 212.727 451.868 212.783 452.534C212.806 452.815 212.829 453.096 212.847 453.376C212.876 453.864 212.617 454.302 212.212 454.52ZM154.49 481.131C154.039 481.375 153.459 481.311 153.072 480.933C152.871 480.739 152.672 480.539 152.476 480.337C152.009 479.86 152.018 479.094 152.495 478.627C152.975 478.157 153.737 478.168 154.205 478.645C154.387 478.831 154.574 479.015 154.758 479.195C155.238 479.661 155.247 480.426 154.781 480.906C154.692 480.995 154.595 481.071 154.488 481.128L154.49 481.131ZM211.071 447.723C210.993 447.765 210.905 447.798 210.818 447.823C210.171 448.001 209.508 447.621 209.331 446.978C209.261 446.727 209.19 446.477 209.113 446.224C208.921 445.586 209.281 444.91 209.923 444.716C210.562 444.523 211.239 444.887 211.432 445.525C211.512 445.794 211.589 446.064 211.664 446.331C211.816 446.886 211.559 447.455 211.073 447.717L211.071 447.723ZM150.07 475.853C149.53 476.144 148.848 475.985 148.495 475.465C148.338 475.233 148.185 474.999 148.031 474.766C147.669 474.204 147.834 473.455 148.395 473.093C148.966 472.731 149.706 472.896 150.068 473.458C150.21 473.679 150.353 473.895 150.497 474.111C150.873 474.664 150.728 475.416 150.175 475.793C150.141 475.815 150.104 475.84 150.069 475.859L150.07 475.853ZM208.581 441.304C208.581 441.304 208.563 441.314 208.556 441.318C207.958 441.621 207.231 441.385 206.927 440.788C206.808 440.559 206.688 440.326 206.563 440.095L206.529 440.031C206.211 439.441 206.431 438.709 207.02 438.391C207.61 438.073 208.343 438.293 208.66 438.883L208.695 438.947C208.829 439.195 208.961 439.44 209.086 439.689C209.383 440.276 209.16 440.993 208.581 441.304ZM146.802 469.795C146.766 469.814 146.731 469.833 146.693 469.849C146.076 470.108 145.369 469.815 145.11 469.198C145.003 468.94 144.899 468.679 144.795 468.419C144.551 467.794 144.865 467.093 145.486 466.85C146.107 466.608 146.81 466.917 147.054 467.541C147.148 467.784 147.246 468.024 147.349 468.267C147.593 468.846 147.347 469.505 146.807 469.796L146.802 469.795ZM204.815 435.454C204.31 435.726 203.668 435.605 203.296 435.145C203.131 434.94 202.968 434.739 202.801 434.541C202.37 434.03 202.439 433.264 202.949 432.833C203.46 432.403 204.226 432.471 204.657 432.982C204.836 433.197 205.013 433.413 205.191 433.634C205.609 434.155 205.524 434.916 205.003 435.335C204.944 435.38 204.884 435.421 204.82 435.456L204.815 435.454ZM144.81 463.204C144.703 463.262 144.589 463.305 144.463 463.327C143.808 463.455 143.172 463.023 143.044 462.368C142.99 462.09 142.939 461.815 142.894 461.537C142.782 460.877 143.223 460.25 143.884 460.141C144.543 460.029 145.167 460.472 145.279 461.132C145.323 461.392 145.369 461.647 145.42 461.904C145.523 462.435 145.263 462.956 144.808 463.201L144.81 463.204ZM199.994 430.539C199.572 430.766 199.038 430.728 198.647 430.403C198.447 430.235 198.245 430.074 198.043 429.912C197.518 429.498 197.428 428.735 197.844 428.214C198.257 427.688 199.02 427.598 199.542 428.014C199.76 428.19 199.977 428.362 200.194 428.543C200.708 428.971 200.779 429.731 200.35 430.246C200.247 430.37 200.126 430.468 199.994 430.539ZM144.193 456.341C144.018 456.434 143.818 456.487 143.605 456.483C142.937 456.476 142.402 455.926 142.408 455.258C142.412 454.976 142.418 454.698 142.428 454.417C142.453 453.749 143.011 453.228 143.68 453.253C144.348 453.277 144.869 453.836 144.844 454.504C144.834 454.767 144.828 455.027 144.827 455.289C144.821 455.745 144.564 456.136 144.187 456.339L144.193 456.341ZM194.279 426.701C193.934 426.887 193.507 426.902 193.134 426.703C192.903 426.58 192.674 426.461 192.441 426.344C191.843 426.042 191.602 425.315 191.904 424.717C192.205 424.119 192.932 423.879 193.53 424.18C193.781 424.306 194.029 424.434 194.275 424.567C194.866 424.881 195.087 425.615 194.776 426.204C194.66 426.422 194.485 426.59 194.282 426.699L194.279 426.701ZM144.973 449.494C144.728 449.626 144.434 449.675 144.143 449.611C143.488 449.469 143.077 448.824 143.216 448.172C143.274 447.897 143.338 447.625 143.402 447.352C143.561 446.702 144.213 446.305 144.864 446.459C145.514 446.618 145.911 447.27 145.754 447.923C145.693 448.176 145.634 448.432 145.579 448.687C145.501 449.045 145.272 449.333 144.97 449.496L144.973 449.494ZM187.909 424.091C187.639 424.237 187.31 424.281 186.993 424.186C186.741 424.111 186.492 424.039 186.241 423.972C185.596 423.797 185.215 423.132 185.39 422.487C185.566 421.843 186.229 421.458 186.875 421.637C187.145 421.712 187.414 421.786 187.686 421.865C188.325 422.057 188.692 422.73 188.501 423.369C188.404 423.692 188.188 423.946 187.914 424.093L187.909 424.091ZM147.112 442.947C146.796 443.118 146.403 443.146 146.048 442.989C145.435 442.718 145.16 442.005 145.43 441.392C145.543 441.134 145.66 440.883 145.779 440.626C146.064 440.024 146.785 439.763 147.392 440.046C147.998 440.329 148.255 441.053 147.972 441.659C147.86 441.893 147.753 442.13 147.648 442.369C147.535 442.627 147.343 442.823 147.115 442.945L147.112 442.947ZM181.141 422.81C180.942 422.917 180.709 422.969 180.465 422.95C180.206 422.929 179.943 422.91 179.681 422.891C179.012 422.848 178.505 422.273 178.55 421.607C178.592 420.938 179.167 420.431 179.833 420.476C180.113 420.494 180.394 420.513 180.673 420.537C181.341 420.594 181.832 421.182 181.772 421.846C181.735 422.27 181.489 422.622 181.141 422.81ZM150.515 436.961C150.121 437.174 149.627 437.16 149.24 436.883C148.695 436.493 148.569 435.741 148.953 435.194C149.114 434.966 149.279 434.744 149.446 434.517C149.845 433.981 150.607 433.873 151.139 434.274C151.675 434.673 151.783 435.435 151.382 435.967C151.224 436.176 151.072 436.386 150.923 436.595C150.81 436.752 150.669 436.874 150.509 436.96L150.515 436.961ZM174.253 422.913C174.121 422.984 173.976 423.03 173.822 423.049C173.563 423.079 173.302 423.114 173.041 423.149C172.381 423.243 171.766 422.782 171.672 422.122C171.578 421.462 172.039 420.847 172.699 420.753C172.976 420.714 173.255 420.678 173.535 420.646C174.199 420.568 174.802 421.041 174.88 421.704C174.939 422.214 174.675 422.686 174.253 422.913ZM155.055 431.793C154.583 432.047 153.977 431.961 153.594 431.549C153.139 431.061 153.166 430.294 153.658 429.837C153.863 429.648 154.072 429.458 154.28 429.273C154.782 428.828 155.546 428.875 155.991 429.378C156.434 429.877 156.389 430.644 155.886 431.089C155.691 431.263 155.496 431.436 155.306 431.612C155.231 431.685 155.144 431.745 155.055 431.793ZM167.533 424.411C167.473 424.443 167.407 424.474 167.339 424.493C167.094 424.574 166.848 424.661 166.601 424.748C165.971 424.973 165.278 424.649 165.053 424.019C164.828 423.388 165.152 422.696 165.782 422.471C166.047 422.375 166.313 422.282 166.577 422.194C167.212 421.985 167.896 422.327 168.108 422.96C168.295 423.528 168.043 424.132 167.535 424.405L167.533 424.411ZM160.549 427.646C159.984 427.95 159.278 427.763 158.941 427.206C158.597 426.635 158.779 425.891 159.348 425.543C159.585 425.397 159.826 425.258 160.071 425.117C160.65 424.787 161.392 424.983 161.722 425.561C162.058 426.141 161.856 426.882 161.278 427.212C161.051 427.344 160.824 427.475 160.604 427.612C160.586 427.622 160.569 427.631 160.547 427.643L160.549 427.646Z" fill="#6AE5DF"/>
<path d="M163.871 452.207L178.418 444.37C178.724 444.206 178.805 443.768 178.604 443.395L174.906 436.532C174.705 436.159 174.292 435.987 173.99 436.15L159.442 443.987C159.137 444.151 159.056 444.589 159.257 444.962L162.954 451.825C163.155 452.198 163.569 452.37 163.871 452.207Z" fill="#F1F2F2"/>
<path d="M176.733 434.691L182.265 436.349C182.621 436.456 182.825 436.836 182.719 437.191L181.034 442.81C180.86 443.39 180.072 443.466 179.79 442.935L175.947 435.664C175.662 435.135 176.165 434.529 176.739 434.701L176.735 434.694L176.733 434.691Z" fill="#F1F2F2"/>
<path d="M171.435 449.691L164.731 453.302C164.311 453.529 164.154 454.052 164.38 454.472L167.991 461.176C168.218 461.596 168.741 461.753 169.161 461.527L175.865 457.915C176.285 457.689 176.442 457.165 176.216 456.746L172.604 450.042C172.378 449.622 171.855 449.465 171.435 449.691Z" fill="#F1F2F2"/>
<path d="M180.894 476.772C183.509 475.363 184.487 472.1 183.079 469.485C181.67 466.87 178.407 465.892 175.792 467.301C173.177 468.709 172.199 471.972 173.607 474.587C175.016 477.203 178.279 478.181 180.894 476.772Z" fill="#F1F2F2"/>
<path d="M186.459 473.004L182.831 466.268C182.647 465.927 182.75 465.505 183.066 465.275C185.044 463.833 185.703 461.109 184.511 458.896C183.318 456.682 180.681 455.734 178.389 456.592C178.026 456.728 177.614 456.584 177.43 456.243L173.802 449.507C173.589 449.113 173.757 448.624 174.159 448.434C180.888 445.295 189.011 447.927 192.579 454.549C196.146 461.171 193.873 469.4 187.551 473.295C187.168 473.529 186.672 473.398 186.459 473.004Z" fill="#F1F2F2"/>
</g>
<g clip-path="url(#clip6_34_983)">
<path d="M119.969 424.337L118.482 402.957C118.4 401.781 117.024 401.136 115.999 401.793L97.3845 413.74L91.6739 417.44L85.0069 414.296L64.9534 404.933C63.8502 404.419 62.5739 405.242 62.6494 406.419L64.0424 427.804L65.5297 449.183C65.6114 450.36 66.9874 451.005 68.0124 450.348L86.627 438.401L92.3376 434.701L99.0046 437.845L119.055 447.205C120.158 447.719 121.434 446.896 121.359 445.719L119.966 424.334L119.969 424.337Z" fill="#6AE5DF"/>
<path d="M116.787 401.53C117.616 401.479 118.418 402.066 118.482 402.954L119.969 424.334L121.362 445.719C121.42 446.613 120.694 447.306 119.855 447.358C119.592 447.374 119.321 447.327 119.058 447.205L99.0078 437.845L92.3408 434.701L86.6302 438.401L68.0156 450.348C67.767 450.508 67.4948 450.591 67.2279 450.607C66.3989 450.658 65.597 450.071 65.5329 449.183L64.0457 427.804L62.6526 406.419C62.5945 405.524 63.321 404.831 64.1593 404.78C64.4231 404.763 64.6938 404.81 64.9567 404.933L85.0068 414.293L91.6738 417.437L97.3844 413.737L115.999 401.79C116.248 401.63 116.52 401.547 116.787 401.53ZM116.589 398.32C115.717 398.374 114.87 398.652 114.136 399.122L95.5216 411.069L91.4235 413.723L86.5093 411.406L66.4429 402.038C65.6707 401.679 64.8096 401.514 63.9587 401.567C62.6494 401.647 61.3996 402.236 60.528 403.182C59.6506 404.137 59.2122 405.364 59.2935 406.634L60.6865 428.019L62.1747 449.414C62.3563 452.01 64.7091 453.984 67.422 453.817C68.2949 453.764 69.1414 453.486 69.8752 453.016L88.4898 441.068L92.5879 438.414L97.5024 440.735L117.565 450.1C118.338 450.459 119.196 450.624 120.05 450.571C121.356 450.491 122.609 449.901 123.48 448.956C124.361 448 124.799 446.777 124.715 445.504L123.322 424.119L121.834 402.724C121.652 400.128 119.299 398.154 116.586 398.32L116.589 398.32Z" fill="#6666FF"/>
<path d="M92.3409 434.704L100.885 425.464L91.6706 417.437L83.1192 426.556L92.3409 434.704Z" fill="#F1F2F2"/>
<path d="M73.8072 427.095C73.8582 427.924 73.7374 428.625 73.4479 429.197C73.1584 429.77 72.7286 430.212 72.1553 430.525C71.5851 430.837 70.8903 431.018 70.0739 431.069L67.7692 431.21L67.3257 423.994L69.8188 423.841C70.6132 423.792 71.2995 423.883 71.878 424.115C72.4565 424.348 72.9075 424.712 73.2409 425.213C73.5711 425.714 73.7609 426.342 73.8072 427.095ZM72.1187 427.262C72.0868 426.743 71.9821 426.321 71.8013 425.995C71.6236 425.668 71.3695 425.431 71.0422 425.285C70.7149 425.139 70.3206 425.082 69.8527 425.111L69.0175 425.162L69.305 429.841L69.9801 429.799C70.7557 429.752 71.3181 429.518 71.6672 429.096C72.0165 428.676 72.1648 428.064 72.1156 427.263L72.1187 427.262Z" fill="#6666FF"/>
<path d="M79.8988 430.464L75.5563 430.731L75.1128 423.515L79.4553 423.248L79.5323 424.5L76.7848 424.669L76.8823 426.255L79.4382 426.098L79.5151 427.35L76.9592 427.507L77.0735 429.366L79.8209 429.197L79.8986 430.461L79.8988 430.464Z" fill="#6666FF"/>
<path d="M84.3571 424.135C84.0557 424.153 83.786 424.227 83.5479 424.353C83.3099 424.479 83.1157 424.654 82.9593 424.878C82.8028 425.101 82.6898 425.365 82.6203 425.67C82.5508 425.976 82.5279 426.321 82.5515 426.705C82.5825 427.21 82.6845 427.638 82.8542 427.989C83.0239 428.34 83.2638 428.603 83.5767 428.77C83.8896 428.938 84.2691 429.011 84.7182 428.984C85.0479 428.963 85.3659 428.908 85.669 428.814C85.9721 428.72 86.2741 428.608 86.5748 428.475L86.6555 429.787C86.3463 429.936 86.0286 430.048 85.7055 430.126C85.3825 430.203 85.0201 430.255 84.6182 430.28C83.8143 430.329 83.1456 430.217 82.6086 429.942C82.0717 429.668 81.6621 429.259 81.3766 428.716C81.091 428.173 80.9287 427.531 80.8837 426.799C80.8501 426.252 80.898 425.749 81.03 425.283C81.1621 424.816 81.3705 424.412 81.661 424.062C81.9516 423.713 82.3158 423.434 82.7536 423.223C83.1945 423.012 83.7102 422.89 84.3005 422.854C84.6741 422.831 85.0533 422.847 85.4443 422.901C85.8322 422.956 86.2038 423.054 86.559 423.192L86.1073 424.458C85.846 424.36 85.5699 424.277 85.2821 424.21C84.9912 424.144 84.6841 424.121 84.3606 424.141L84.3571 424.135Z" fill="#6666FF"/>
<path d="M91.08 429.777L87.6449 429.989L87.5916 429.121L88.4866 428.659L88.1997 423.989L87.2548 423.64L87.2014 422.772L90.6365 422.561L90.6898 423.429L89.7948 423.891L90.0817 428.561L91.0266 428.91L91.08 429.777Z" fill="#6666FF"/>
<path d="M96.6937 427.425C96.7197 427.848 96.6327 428.227 96.4354 428.556C96.2381 428.884 95.9361 429.15 95.5353 429.347C95.1345 429.543 94.6375 429.661 94.0472 429.697C93.7866 429.713 93.5311 429.711 93.2779 429.693C93.0247 429.676 92.7831 429.642 92.5498 429.59C92.3165 429.538 92.0951 429.474 91.8853 429.393L91.7976 427.967C92.1646 428.092 92.5467 428.207 92.9374 428.307C93.3282 428.409 93.715 428.446 94.0949 428.422C94.3555 428.406 94.5638 428.36 94.7166 428.282C94.8695 428.206 94.9831 428.106 95.0483 427.987C95.1167 427.868 95.1431 427.734 95.1341 427.587C95.1228 427.404 95.0475 427.255 94.9108 427.133C94.771 427.012 94.5909 426.903 94.3643 426.805C94.1376 426.708 93.8822 426.603 93.5919 426.494C93.411 426.424 93.2136 426.339 93.0027 426.241C92.7918 426.142 92.5886 426.016 92.39 425.863C92.1946 425.709 92.0284 425.517 91.8947 425.29C91.7608 425.06 91.6838 424.782 91.6635 424.451C91.6369 424.019 91.718 423.646 91.9064 423.327C92.0948 423.008 92.3756 422.756 92.7519 422.57C93.125 422.384 93.5721 422.275 94.0934 422.243C94.489 422.219 94.8654 422.241 95.2256 422.306C95.5857 422.372 95.9671 422.475 96.3633 422.613L95.9185 423.837C95.5648 423.723 95.2475 423.637 94.9699 423.582C94.6889 423.524 94.4073 423.505 94.1184 423.523C93.9206 423.535 93.7529 423.575 93.6153 423.644C93.4777 423.713 93.3761 423.803 93.3074 423.916C93.2387 424.029 93.212 424.16 93.2211 424.307C93.2314 424.475 93.2937 424.616 93.4045 424.727C93.5184 424.838 93.6824 424.942 93.8995 425.037C94.1165 425.132 94.3882 425.245 94.7143 425.373C95.1113 425.523 95.4522 425.686 95.737 425.859C96.0187 426.031 96.2427 426.241 96.406 426.487C96.5692 426.733 96.6641 427.047 96.6872 427.422L96.6937 427.425Z" fill="#6666FF"/>
<path d="M101.012 429.167L97.5765 429.378L97.5232 428.51L98.4183 428.048L98.1313 423.379L97.1864 423.03L97.1331 422.162L100.568 421.951L100.621 422.819L99.7264 423.281L100.013 427.95L100.958 428.299L101.012 429.167Z" fill="#6666FF"/>
<path d="M108.89 425.051C108.925 425.609 108.884 426.121 108.767 426.583C108.65 427.046 108.455 427.453 108.183 427.801C107.911 428.149 107.556 428.424 107.115 428.626C106.674 428.828 106.145 428.951 105.527 428.989C104.908 429.027 104.375 428.972 103.909 428.823C103.443 428.674 103.054 428.448 102.742 428.135C102.429 427.823 102.185 427.443 102.013 426.998C101.841 426.554 101.737 426.048 101.702 425.48C101.656 424.733 101.745 424.073 101.969 423.508C102.192 422.939 102.558 422.486 103.073 422.147C103.585 421.808 104.254 421.613 105.08 421.562C105.906 421.511 106.581 421.624 107.13 421.897C107.68 422.171 108.099 422.579 108.387 423.119C108.676 423.659 108.841 424.303 108.887 425.051L108.89 425.051ZM103.408 425.388C103.439 425.886 103.531 426.314 103.682 426.67C103.833 427.025 104.058 427.292 104.352 427.467C104.646 427.641 105.01 427.716 105.447 427.689C105.883 427.662 106.257 427.542 106.522 427.333C106.789 427.124 106.973 426.835 107.08 426.461C107.183 426.09 107.222 425.654 107.192 425.155C107.145 424.401 106.964 423.816 106.649 423.404C106.334 422.989 105.837 422.806 105.162 422.847C104.719 422.874 104.361 422.996 104.09 423.208C103.82 423.421 103.633 423.713 103.523 424.081C103.413 424.45 103.377 424.886 103.408 425.391L103.408 425.388Z" fill="#6666FF"/>
<path d="M117.345 428.163L115.317 428.288L111.694 423.034L111.653 423.036C111.68 423.264 111.707 423.494 111.733 423.722C111.757 423.949 111.784 424.18 111.807 424.407C111.83 424.635 111.854 424.866 111.874 425.093L112.083 428.49L110.658 428.577L110.214 421.361L112.233 421.237L115.84 426.441L115.872 426.439C115.852 426.218 115.829 425.996 115.809 425.774C115.789 425.552 115.766 425.334 115.743 425.115C115.72 424.896 115.697 424.678 115.677 424.456L115.467 421.041L116.905 420.953L117.349 428.169L117.345 428.163Z" fill="#6666FF"/>
</g>
<g clip-path="url(#clip7_34_983)">
<path d="M377.193 14.9752L338.416 27.2266C333.216 28.8697 330.328 34.4186 331.967 39.6204C333.606 44.8222 339.15 47.7071 344.351 46.0641L383.127 33.8126C388.328 32.1696 391.215 26.6207 389.576 21.4189C387.938 16.2171 382.393 13.3322 377.193 14.9752Z" fill="#6666FF"/>
<path d="M341.186 39.5459L338.936 40.2567L338.748 39.6603L339.263 39.1935L338.255 35.9953L337.566 35.9089L337.378 35.3125L339.628 34.6017L339.816 35.1981L339.301 35.6649L340.309 38.8631L340.998 38.9495L341.186 39.5459Z" fill="#F1F2F2"/>
<path d="M346.411 37.8954L345.083 38.3149L341.754 35.2578L341.725 35.2669C341.783 35.4198 341.841 35.5755 341.896 35.7293C341.951 35.8831 342.009 36.0388 342.064 36.1926C342.119 36.3463 342.175 36.503 342.229 36.6567L342.962 38.9819L342.029 39.2767L340.472 34.3354L341.794 33.9177L345.106 36.9421L345.127 36.9357C345.073 36.7848 345.022 36.633 344.969 36.485C344.915 36.3342 344.862 36.1861 344.809 36.0381C344.756 35.8901 344.703 35.7421 344.649 35.5913L343.912 33.2517L344.854 32.9541L346.411 37.8954Z" fill="#F1F2F2"/>
<path d="M350.135 35.2107C350.227 35.5017 350.235 35.778 350.162 36.0387C350.086 36.3003 349.934 36.532 349.7 36.7357C349.467 36.9394 349.156 37.1007 348.77 37.2227C348.6 37.2764 348.43 37.3176 348.258 37.3465C348.087 37.3753 347.92 37.3899 347.757 37.394C347.594 37.3981 347.435 37.3879 347.28 37.3673L346.972 36.3906C347.24 36.4168 347.512 36.4354 347.789 36.4398C348.067 36.4471 348.331 36.4111 348.582 36.3319C348.752 36.2782 348.883 36.2115 348.972 36.1326C349.061 36.0538 349.116 35.9667 349.14 35.8735C349.165 35.7802 349.16 35.6836 349.127 35.5799C349.088 35.456 349.011 35.363 348.9 35.303C348.787 35.2438 348.648 35.1958 348.481 35.1664C348.313 35.137 348.122 35.1053 347.911 35.0771C347.778 35.0588 347.634 35.0316 347.475 34.9995C347.319 34.9664 347.159 34.9123 347.002 34.8353C346.845 34.7611 346.701 34.6547 346.572 34.5179C346.444 34.3811 346.343 34.2008 346.271 33.9732C346.178 33.6793 346.168 33.4039 346.237 33.1508C346.306 32.8977 346.448 32.6754 346.667 32.4858C346.883 32.2972 347.162 32.1458 347.504 32.0375C347.764 31.9556 348.018 31.9071 348.27 31.8939C348.522 31.8806 348.791 31.8878 349.079 31.92L348.996 32.8428C348.743 32.8216 348.515 32.8142 348.321 32.8216C348.127 32.8262 347.932 32.8623 347.745 32.9214C347.615 32.9624 347.512 33.0172 347.434 33.0895C347.354 33.159 347.303 33.2384 347.278 33.3288C347.252 33.4192 347.257 33.5129 347.288 33.6137C347.325 33.729 347.39 33.816 347.485 33.8749C347.579 33.9337 347.707 33.9787 347.868 34.0071C348.029 34.0354 348.23 34.0701 348.469 34.1055C348.761 34.1464 349.016 34.202 349.235 34.2752C349.455 34.3485 349.638 34.4584 349.791 34.6003C349.943 34.7423 350.058 34.9467 350.14 35.206L350.135 35.2107Z" fill="#F1F2F2"/>
<path d="M351.424 30.8781C352.061 30.6769 352.572 30.6611 352.961 30.8297C353.35 30.9983 353.618 31.3256 353.77 31.8096C353.838 32.0257 353.872 32.2432 353.868 32.4629C353.868 32.6817 353.814 32.8949 353.715 33.1007C353.615 33.3065 353.455 33.4932 353.242 33.6619C353.025 33.8285 352.74 33.9693 352.386 34.0812L351.937 34.2232L352.489 35.975L351.431 36.309L349.875 31.3677L351.424 30.8781ZM351.662 31.7533L351.207 31.8971L351.665 33.3493L352.016 33.2382C352.209 33.1773 352.369 33.1014 352.494 33.0079C352.62 32.9143 352.704 32.799 352.744 32.663C352.783 32.527 352.776 32.3644 352.718 32.18C352.648 31.9582 352.526 31.81 352.352 31.7318C352.179 31.6535 351.947 31.6632 351.662 31.7533Z" fill="#F1F2F2"/>
<path d="M357.61 34.3569L355.36 35.0677L355.172 34.4713L355.687 34.0045L354.68 30.8063L353.991 30.7199L353.803 30.1235L356.052 29.4128L356.24 30.0092L355.725 30.476L356.733 33.6741L357.422 33.7605L357.61 34.3569Z" fill="#F1F2F2"/>
<path d="M358.378 28.6813C358.81 28.5448 359.187 28.4858 359.509 28.5014C359.829 28.5208 360.092 28.6119 360.3 28.7805C360.508 28.9492 360.661 29.1924 360.761 29.5093C360.831 29.7312 360.852 29.9398 360.828 30.1344C360.804 30.329 360.743 30.5096 360.648 30.6696C360.554 30.8325 360.432 30.9786 360.284 31.111L362.376 32.848L361.166 33.2302L359.469 31.682L358.881 31.8677L359.479 33.7635L358.421 34.0975L356.865 29.1562L358.38 28.6776L358.378 28.6813ZM358.617 29.5117L358.182 29.6492L358.625 31.0552L359.06 30.9178C359.343 30.8286 359.54 30.7027 359.657 30.5392C359.773 30.3757 359.788 30.1619 359.706 29.8997C359.659 29.7528 359.589 29.6389 359.498 29.5629C359.404 29.485 359.286 29.443 359.14 29.4321C358.994 29.4212 358.823 29.45 358.618 29.5146L358.617 29.5117Z" fill="#F1F2F2"/>
<path d="M366.018 31.7004L365.271 30.6565L363.528 31.2071L363.515 32.4912L362.374 32.8516L362.548 27.3414L363.847 26.9309L367.162 31.3391L366.021 31.6994L366.018 31.7004ZM364.064 28.8867C364.025 28.823 363.961 28.7293 363.88 28.6028C363.796 28.4773 363.714 28.3479 363.63 28.2128C363.548 28.0806 363.481 27.9687 363.429 27.8837C363.445 27.9958 363.454 28.1259 363.463 28.2751C363.472 28.4244 363.48 28.5707 363.488 28.7075C363.498 28.8471 363.503 28.9657 363.508 29.0595L363.491 30.2432L364.744 29.8473L364.061 28.8847L364.064 28.8867Z" fill="#F1F2F2"/>
<path d="M369.198 30.6958L368.141 31.0298L366.861 26.9672L365.525 27.3895L365.248 26.5107L368.978 25.3322L369.255 26.211L367.918 26.6332L369.198 30.6958Z" fill="#F1F2F2"/>
<path d="M373.136 29.4517L370.886 30.1624L370.698 29.566L371.213 29.0992L370.205 25.9011L369.516 25.8147L369.328 25.2183L371.578 24.5075L371.766 25.1039L371.251 25.5707L372.259 28.7689L372.948 28.8553L373.136 29.4517Z" fill="#F1F2F2"/>
<path d="M377.661 25.2973C377.782 25.6805 377.842 26.0417 377.847 26.382C377.85 26.7232 377.791 27.0367 377.672 27.3243C377.55 27.61 377.363 27.8594 377.107 28.0732C376.848 28.2879 376.518 28.4557 376.112 28.584C375.706 28.7123 375.341 28.761 375.007 28.7366C374.672 28.7094 374.373 28.6139 374.109 28.4501C373.845 28.2863 373.619 28.0601 373.426 27.779C373.233 27.4978 373.077 27.1637 372.954 26.7748C372.793 26.2619 372.737 25.7918 372.787 25.3578C372.835 24.9276 373.001 24.5518 373.284 24.2313C373.566 23.9109 373.977 23.667 374.516 23.4968C375.054 23.3267 375.525 23.292 375.94 23.3923C376.354 23.4925 376.703 23.7054 376.99 24.0329C377.277 24.3604 377.501 24.7806 377.663 25.2935L377.661 25.2973ZM374.072 26.4312C374.179 26.7712 374.316 27.0543 374.477 27.2757C374.642 27.4962 374.835 27.6474 375.063 27.7179C375.289 27.7922 375.545 27.7809 375.83 27.6908C376.116 27.6007 376.343 27.4562 376.486 27.2683C376.626 27.0784 376.698 26.8464 376.704 26.5722C376.709 26.2981 376.656 25.9885 376.549 25.6486C376.387 25.1328 376.163 24.7566 375.88 24.5199C375.597 24.2861 375.236 24.2355 374.792 24.3756C374.502 24.4675 374.286 24.6084 374.144 24.8021C374.002 24.9929 373.926 25.2258 373.918 25.5009C373.91 25.776 373.963 26.0855 374.072 26.4312Z" fill="#F1F2F2"/>
<path d="M383.831 26.0727L382.503 26.4922L379.174 23.4351L379.145 23.4442C379.203 23.597 379.261 23.7528 379.316 23.9065C379.371 24.0603 379.43 24.216 379.484 24.3698C379.539 24.5236 379.595 24.6802 379.65 24.834L380.382 27.1591L379.449 27.454L377.892 22.5127L379.214 22.095L382.527 25.1193L382.547 25.113C382.493 24.9621 382.442 24.8103 382.389 24.6623C382.335 24.5114 382.282 24.3634 382.229 24.2154C382.176 24.0674 382.123 23.9194 382.069 23.7685L381.332 21.4289L382.274 21.1314L383.831 26.0727Z" fill="#F1F2F2"/>
</g>
<g clip-path="url(#clip8_34_983)">
<path d="M419.141 242.873C441.16 238.931 455.814 217.887 451.872 195.869C447.931 173.85 426.886 159.196 404.868 163.138C382.849 167.079 368.195 188.124 372.137 210.142C376.078 232.16 397.123 246.815 419.141 242.873Z" fill="#6AE5DF"/>
<path d="M418.197 237.598C399.124 241.013 380.826 228.274 377.411 209.198C373.996 190.121 386.739 171.826 405.812 168.412C424.885 164.998 443.183 177.736 446.598 196.813C450.013 215.889 437.274 234.183 418.197 237.598ZM407.688 178.893C394.392 181.273 385.512 194.026 387.893 207.321C390.273 220.617 403.025 229.497 416.321 227.117C429.617 224.737 438.497 211.985 436.117 198.689C433.736 185.393 420.984 176.513 407.688 178.893Z" fill="#F1F2F2"/>
<path d="M405.346 197.207L407.497 189.642C408.06 187.66 410.677 187.221 411.852 188.915L416.341 195.374L424.201 195.082C426.261 195.005 427.485 197.358 426.236 199.001L421.482 205.267L424.186 212.65C424.894 214.584 423.036 216.476 421.087 215.797L413.658 213.209L407.471 218.065C405.852 219.339 403.48 218.154 403.522 216.094L403.686 208.23L397.158 203.848C395.446 202.698 395.841 200.077 397.812 199.481L405.342 197.207L405.346 197.207Z" fill="#6666FF"/>
<path d="M386.028 182.244C386.702 181.412 387.315 180.903 387.867 180.722C388.418 180.541 388.954 180.659 389.473 181.076C389.728 181.282 389.912 181.508 390.021 181.748C390.131 181.991 390.178 182.234 390.165 182.483C390.152 182.732 390.091 182.965 389.978 183.183L390.021 183.217C390.221 183.049 390.445 182.919 390.694 182.816C390.944 182.718 391.21 182.687 391.493 182.731C391.777 182.775 392.079 182.922 392.396 183.178C392.766 183.474 393.009 183.821 393.125 184.216C393.241 184.611 393.238 185.031 393.108 185.474C392.977 185.917 392.725 186.374 392.352 186.84L390.521 189.114L384.443 184.211L386.028 182.244ZM388.52 184.14C388.823 183.764 388.96 183.452 388.94 183.2C388.919 182.949 388.794 182.733 388.573 182.554C388.342 182.365 388.102 182.313 387.857 182.39C387.611 182.467 387.342 182.688 387.05 183.053L386.508 183.726L387.931 184.874L388.52 184.144L388.52 184.14ZM388.907 185.662L390.542 186.979L391.209 186.152C391.518 185.767 391.656 185.434 391.623 185.16C391.59 184.882 391.45 184.648 391.204 184.449C391.05 184.324 390.889 184.25 390.719 184.219C390.548 184.188 390.361 184.221 390.164 184.318C389.968 184.415 389.758 184.601 389.54 184.874L388.907 185.658L388.907 185.662Z" fill="#6666FF"/>
<path d="M398.572 178.007C398.878 178.45 399.061 178.919 399.111 179.408C399.162 179.901 399.063 180.384 398.816 180.864C398.568 181.341 398.143 181.791 397.542 182.203C396.692 182.791 395.895 183.025 395.147 182.895C394.405 182.769 393.783 182.349 393.289 181.636L390.425 177.499L391.783 176.56L394.503 180.488C394.869 181.015 395.234 181.312 395.596 181.379C395.962 181.445 396.357 181.333 396.781 181.035C397.082 180.829 397.289 180.607 397.404 180.376C397.519 180.146 397.544 179.895 397.482 179.618C397.42 179.341 397.275 179.037 397.048 178.708L394.334 174.787L395.692 173.849L398.567 178.004L398.572 178.007Z" fill="#6666FF"/>
<path d="M406.304 173.871C406.576 174.727 406.647 175.488 406.508 176.159C406.372 176.829 406.059 177.399 405.567 177.87C405.079 178.34 404.432 178.703 403.627 178.962L401.359 179.689L398.978 172.252L401.438 171.466C402.224 171.215 402.934 171.137 403.573 171.236C404.212 171.336 404.766 171.603 405.232 172.042C405.697 172.482 406.057 173.092 406.304 173.871ZM404.657 174.466C404.488 173.932 404.265 173.516 403.998 173.218C403.731 172.92 403.414 172.738 403.048 172.668C402.681 172.598 402.268 172.634 401.809 172.783L400.988 173.045L402.534 177.866L403.199 177.652C403.962 177.409 404.465 177.022 404.7 176.495C404.934 175.967 404.924 175.29 404.657 174.466Z" fill="#6666FF"/>
<path d="M411.494 173.168L414.587 173.116L414.653 177.161C414.247 177.308 413.823 177.421 413.382 177.512C412.941 177.599 412.444 177.647 411.882 177.657C411.11 177.668 410.447 177.527 409.9 177.23C409.354 176.933 408.933 176.49 408.641 175.896C408.35 175.303 408.198 174.569 408.185 173.694C408.171 172.878 408.32 172.169 408.627 171.566C408.935 170.964 409.389 170.492 409.987 170.154C410.585 169.817 411.323 169.64 412.197 169.627C412.611 169.619 413.021 169.656 413.422 169.737C413.824 169.817 414.193 169.928 414.522 170.067L413.996 171.399C413.752 171.278 413.48 171.183 413.17 171.107C412.864 171.03 412.541 170.997 412.205 171.004C411.725 171.012 411.31 171.127 410.959 171.355C410.608 171.578 410.34 171.893 410.156 172.292C409.969 172.692 409.88 173.165 409.89 173.702C409.899 174.211 409.976 174.662 410.12 175.056C410.264 175.445 410.487 175.751 410.794 175.968C411.096 176.185 411.489 176.288 411.969 176.284C412.203 176.279 412.402 176.264 412.567 176.243C412.731 176.218 412.882 176.186 413.021 176.162L412.993 174.533L411.516 174.559L411.492 173.181L411.494 173.168Z" fill="#6666FF"/>
<path d="M420.395 178.857L416.028 177.787L417.884 170.205L422.248 171.276L421.924 172.593L419.162 171.919L418.752 173.584L421.321 174.215L420.998 175.532L418.428 174.901L417.951 176.855L420.713 177.529L420.388 178.858L420.395 178.857Z" fill="#6666FF"/>
<path d="M424.229 180.664L422.736 179.911L425.627 174.18L423.742 173.23L424.367 171.991L429.632 174.644L429.006 175.884L427.12 174.934L424.229 180.664Z" fill="#6666FF"/>
<path d="M428.673 232.243L425.35 224.9L426.819 223.724L430.207 226.265C430.274 226.315 430.37 226.392 430.496 226.498C430.621 226.603 430.757 226.718 430.911 226.839C431.06 226.96 431.2 227.079 431.328 227.196C431.46 227.312 431.559 227.402 431.628 227.467C431.577 227.39 431.506 227.271 431.425 227.117C431.344 226.963 431.258 226.801 431.17 226.636C431.083 226.466 431.001 226.308 430.928 226.157C430.856 226.005 430.798 225.888 430.763 225.808L429.029 221.958L430.497 220.782L436.928 225.634L435.654 226.652L432.211 223.944C432.11 223.863 431.99 223.765 431.85 223.651C431.71 223.536 431.564 223.41 431.418 223.284C431.267 223.154 431.126 223.031 430.985 222.909C430.843 222.786 430.729 222.678 430.634 222.584C430.709 222.703 430.791 222.84 430.881 222.997C430.971 223.154 431.058 223.319 431.145 223.485C431.233 223.654 431.315 223.812 431.391 223.959C431.466 224.106 431.525 224.227 431.562 224.319L433.408 228.445L432.187 229.42L428.568 226.715C428.491 226.655 428.39 226.57 428.256 226.466C428.126 226.362 427.986 226.247 427.84 226.121C427.694 225.995 427.553 225.872 427.42 225.752C427.288 225.632 427.174 225.525 427.079 225.43C427.177 225.586 427.285 225.776 427.407 226.001C427.53 226.226 427.648 226.452 427.764 226.686C427.88 226.92 427.977 227.113 428.054 227.268L429.942 231.221L428.668 232.239L428.673 232.243Z" fill="#6666FF"/>
<path d="M420.376 227.083L423.643 225.683L424.012 226.547L423.311 227.323L425.303 231.965L426.348 231.992L426.717 232.856L423.45 234.256L423.081 233.392L423.781 232.616L421.79 227.973L420.744 227.947L420.376 227.083Z" fill="#6666FF"/>
<path d="M415.418 230.509C415.321 230.061 415.342 229.646 415.491 229.261C415.636 228.877 415.899 228.551 416.278 228.277C416.653 228.004 417.143 227.801 417.741 227.67C418.006 227.61 418.267 227.575 418.526 227.554C418.786 227.532 419.041 227.532 419.287 227.549C419.533 227.567 419.769 227.603 419.997 227.657L420.328 229.161C419.932 229.084 419.521 229.021 419.106 228.976C418.691 228.931 418.287 228.95 417.903 229.035C417.642 229.094 417.434 229.177 417.292 229.28C417.147 229.389 417.05 229.509 417.004 229.645C416.954 229.781 416.948 229.93 416.984 230.085C417.027 230.278 417.127 230.425 417.29 230.532C417.453 230.638 417.654 230.726 417.901 230.797C418.148 230.864 418.428 230.937 418.742 231.008C418.939 231.055 419.156 231.115 419.386 231.185C419.618 231.259 419.85 231.361 420.075 231.494C420.3 231.626 420.505 231.804 420.681 232.027C420.857 232.251 420.982 232.537 421.061 232.885C421.163 233.34 421.142 233.755 421.003 234.126C420.864 234.496 420.62 234.811 420.27 235.063C419.921 235.319 419.481 235.505 418.955 235.624C418.555 235.712 418.166 235.748 417.785 235.734C417.404 235.72 417.001 235.673 416.57 235.59L416.818 234.212C417.195 234.276 417.536 234.318 417.831 234.335C418.126 234.352 418.418 234.329 418.711 234.264C418.909 234.221 419.074 234.15 419.205 234.057C419.332 233.96 419.423 233.849 419.473 233.716C419.524 233.584 419.531 233.443 419.495 233.285C419.455 233.107 419.368 232.966 419.235 232.866C419.102 232.767 418.913 232.681 418.675 232.613C418.436 232.544 418.139 232.47 417.786 232.381C417.352 232.282 416.977 232.164 416.66 232.023C416.343 231.882 416.079 231.695 415.868 231.457C415.66 231.218 415.509 230.9 415.421 230.504L415.418 230.509Z" fill="#6666FF"/>
<path d="M409.426 228.413L413.922 228.448L413.863 236.256L409.368 236.221L409.376 234.866L412.219 234.888L412.232 233.169L409.587 233.149L409.595 231.794L412.241 231.814L412.255 229.804L409.412 229.782L409.422 228.414L409.426 228.413Z" fill="#6666FF"/>
<path d="M408.268 228.242L406.481 235.841L404.853 235.458L406.325 229.199L403.249 228.474L403.565 227.134L408.268 228.242Z" fill="#6666FF"/>
<path d="M398.815 229.906L395.935 232.137L394.303 231.339L398.718 228.191L400.056 225.462L401.567 226.204L400.254 228.887L400.45 234.353L398.818 233.555L398.812 229.911L398.815 229.906Z" fill="#6666FF"/>
</g>
<g clip-path="url(#clip9_34_983)">
<path d="M11.0179 45.9062C14.8208 61.3715 30.4408 70.8258 45.9061 67.0229C61.3714 63.22 70.8256 47.6 67.0227 32.1347C63.2198 16.6694 47.5999 7.21518 32.1346 11.0181C16.6693 14.821 7.21501 30.4409 11.0179 45.9062Z" fill="#F1F2F2"/>
<path d="M67.0228 32.1347C70.8257 47.6 61.3715 63.2199 45.9062 67.0228C30.4408 70.8257 14.8209 61.3715 11.018 45.9062C7.21509 30.4408 16.6693 14.8209 32.1347 11.018C47.6 7.2151 63.2199 16.6693 67.0228 32.1347ZM70.3395 31.3191C66.093 14.0497 48.5884 3.45481 31.3191 7.70132C14.0497 11.9478 3.45481 29.4524 7.70131 46.7217C11.9478 63.9911 29.4524 74.586 46.7217 70.3395C63.9911 66.093 74.586 48.5884 70.3395 31.3191Z" fill="#6666FF"/>
<path d="M44.9885 41.7477L51.7928 31.0871L57.3821 22.3328C57.8307 21.6313 57.0329 20.8045 56.3147 21.2203L47.3356 26.4406L36.4044 32.7986C35.9599 33.0574 35.8762 33.6625 36.2299 34.0339L39.9898 37.9517L43.7497 41.8696C44.1065 42.2402 44.713 42.1807 44.9916 41.7469L44.9885 41.7477ZM44.2739 36.5861L42.9027 35.1563L41.5315 33.7266C41.4021 33.5923 41.4633 33.3415 41.6555 33.2178L46.4162 30.1574L50.3254 27.6451C50.6383 27.4452 50.9281 27.746 50.7141 28.051L48.0422 31.8533L44.7867 36.4832C44.6537 36.672 44.4032 36.7203 44.2708 36.5868L44.2739 36.5861Z" fill="#6666FF"/>
<path d="M37.6572 40.1891L41.4171 44.107C41.774 44.4776 41.6871 45.0835 41.2426 45.3423L30.3114 51.7003L21.3323 56.9206C20.6149 57.3395 19.8163 56.5095 20.2649 55.8081L25.8542 47.0538L32.6585 36.3932C32.934 35.9601 33.5436 35.8999 33.9004 36.2705L37.6603 40.1884L37.6572 40.1891Z" fill="#6AE5DF"/>
<path d="M70.3404 31.3224L70.3396 31.3193C70.1138 30.4008 69.1861 29.8393 68.2676 30.0652L64.5031 30.9909C63.5846 31.2167 63.0231 32.1444 63.249 33.0629L63.2497 33.066C63.4756 33.9845 64.4032 34.546 65.3217 34.3201L69.0863 33.3944C70.0047 33.1686 70.5662 32.2409 70.3404 31.3224Z" fill="#6666FF"/>
<path d="M14.7928 44.9811L14.792 44.978C14.5661 44.0595 13.6385 43.498 12.72 43.7239L8.95546 44.6496C8.03698 44.8754 7.4755 45.8031 7.70135 46.7216L7.70212 46.7247C7.92797 47.6432 8.85563 48.2046 9.77411 47.9788L13.5387 47.0531C14.4571 46.8272 15.0186 45.8996 14.7928 44.9811Z" fill="#6666FF"/>
<path d="M34.3168 12.7201L33.3911 8.95552C33.1653 8.03705 32.2376 7.47557 31.3191 7.70142L31.316 7.70219C30.3975 7.92804 29.836 8.8557 30.0619 9.77417L30.9876 13.5387C31.2135 14.4572 32.1411 15.0187 33.0596 14.7928L33.0627 14.7921C33.9812 14.5662 34.5427 13.6386 34.3168 12.7201Z" fill="#6666FF"/>
<path d="M47.9758 68.2674L47.0501 64.5029C46.8242 63.5844 45.8965 63.0229 44.9781 63.2488L44.9749 63.2496C44.0565 63.4754 43.495 64.4031 43.7208 65.3215L44.6465 69.0861C44.8724 70.0046 45.8 70.566 46.7185 70.3402L46.7216 70.3394C47.6401 70.1136 48.2016 69.1859 47.9758 68.2674Z" fill="#6666FF"/>
<path d="M55.724 11.428L55.7212 11.4263C54.9121 10.9366 53.8591 11.1955 53.3693 12.0047L51.3619 15.3212C50.8722 16.1303 51.1311 17.1833 51.9403 17.6731L51.943 17.6747C52.7522 18.1645 53.8052 17.9056 54.2949 17.0964L56.3023 13.7799C56.7921 12.9707 56.5331 11.9178 55.724 11.428Z" fill="#6666FF"/>
<path d="M26.1 60.3655L26.0972 60.3638C25.288 59.8741 24.2351 60.133 23.7453 60.9422L21.7379 64.2587C21.2482 65.0678 21.5071 66.1208 22.3162 66.6106L22.319 66.6122C23.1282 67.102 24.1811 66.8431 24.6709 66.0339L26.6783 62.7174C27.168 61.9082 26.9091 60.8553 26.1 60.3655Z" fill="#6666FF"/>
<path d="M17.0958 23.7462L13.7793 21.7388C12.9702 21.2491 11.9172 21.508 11.4274 22.3172L11.4258 22.3199C10.936 23.1291 11.1949 24.1821 12.0041 24.6718L15.3206 26.6792C16.1298 27.169 17.1827 26.91 17.6725 26.1009L17.6742 26.0981C18.1639 25.2889 17.905 24.236 17.0958 23.7462Z" fill="#6666FF"/>
<path d="M66.0363 53.3663L62.7198 51.359C61.9106 50.8692 60.8576 51.1281 60.3679 51.9373L60.3662 51.94C59.8764 52.7492 60.1354 53.8022 60.9445 54.2919L64.261 56.2993C65.0702 56.7891 66.1232 56.5301 66.6129 55.721L66.6146 55.7182C67.1043 54.9091 66.8454 53.8561 66.0363 53.3663Z" fill="#6666FF"/>
</g>
<g clip-path="url(#clip10_34_983)">
<path d="M238.845 470.474C237.021 471.115 234.956 471.06 233.075 470.158C229.317 468.357 227.731 463.848 229.531 460.087L233.794 451.197L213.112 458.474C210.231 459.487 207.023 458.665 204.985 456.394C202.947 454.122 202.477 450.843 203.799 448.091L217.225 420.087C219.026 416.329 223.535 414.743 227.296 416.543C231.054 418.345 232.64 422.854 230.84 426.615L225.292 438.186L245.974 430.909C248.855 429.895 252.063 430.717 254.101 432.989C256.139 435.26 256.609 438.54 255.287 441.292L243.146 466.615C242.245 468.496 240.669 469.832 238.845 470.474Z" fill="#F1F2F2"/>
<path d="M221.527 416.231C223.351 415.589 225.416 415.645 227.297 416.546C231.055 418.348 232.641 422.857 230.841 426.618L225.293 438.189L245.975 430.912C248.856 429.898 252.064 430.72 254.102 432.992C256.14 435.263 256.61 438.543 255.288 441.295L243.147 466.618C242.246 468.499 240.67 469.835 238.846 470.477C237.022 471.119 234.957 471.063 233.076 470.162C229.319 468.36 227.732 463.851 229.532 460.09L233.795 451.2L213.113 458.477C210.232 459.491 207.024 458.668 204.986 456.397C202.948 454.126 202.478 450.846 203.8 448.094L217.226 420.09C218.128 418.209 219.703 416.873 221.527 416.231ZM219.527 410.545C216.107 411.749 213.36 414.213 211.793 417.483L198.367 445.486C195.983 450.453 196.821 456.314 200.5 460.416C204.179 464.518 209.914 465.989 215.112 464.16L222.898 461.42C222.08 467.133 224.996 472.968 230.467 475.591C233.737 477.159 237.421 477.361 240.841 476.157C244.261 474.954 247.007 472.49 248.575 469.22L260.716 443.897C263.099 438.927 262.26 433.066 258.581 428.964C254.902 424.863 249.167 423.392 243.969 425.221L236.886 427.713C239.068 421.301 236.153 414.106 229.899 411.108C226.63 409.54 222.945 409.339 219.525 410.542L219.527 410.545Z" fill="#6AE5DF"/>
<path d="M214.978 443.708C214.731 443.795 214.451 443.787 214.192 443.666C213.676 443.424 213.456 442.808 213.698 442.291L223.353 421.836C223.595 421.32 224.212 421.099 224.728 421.341C225.245 421.584 225.465 422.2 225.223 422.716L215.567 443.172C215.443 443.431 215.227 443.616 214.977 443.705L214.978 443.708Z" fill="#6AE5DF"/>
<path d="M235.687 467.584C235.44 467.671 235.16 467.664 234.902 467.543C234.386 467.301 234.165 466.684 234.407 466.168L244.063 445.713C244.305 445.196 244.921 444.976 245.438 445.218C245.954 445.46 246.175 446.077 245.933 446.593L236.277 467.048C236.153 467.307 235.937 467.493 235.686 467.581L235.687 467.584Z" fill="#6AE5DF"/>
<path d="M211.665 453.583L210.472 454.003L208.86 449.422L207.355 449.952L207.006 448.96L211.213 447.48L211.561 448.472L210.056 449.001L211.668 453.582L211.665 453.583Z" fill="#6666FF"/>
<path d="M213.73 446.598C214.218 446.427 214.646 446.346 215.01 446.353C215.375 446.363 215.679 446.457 215.923 446.642C216.166 446.826 216.35 447.098 216.476 447.455C216.564 447.706 216.596 447.943 216.576 448.165C216.555 448.388 216.493 448.596 216.391 448.782C216.289 448.971 216.156 449.142 215.995 449.298L218.443 451.198L217.078 451.679L215.083 449.977L214.42 450.21L215.172 452.349L213.979 452.769L212.019 447.197L213.729 446.595L213.73 446.598ZM214.033 447.533L213.542 447.706L214.099 449.289L214.59 449.116C214.909 449.004 215.13 448.853 215.256 448.662C215.383 448.472 215.392 448.228 215.288 447.932C215.229 447.766 215.145 447.639 215.038 447.555C214.928 447.47 214.792 447.427 214.625 447.419C214.458 447.412 214.264 447.452 214.033 447.533Z" fill="#6666FF"/>
<path d="M222.549 449.753L221.659 448.594L219.692 449.286L219.724 450.747L218.436 451.2L218.425 444.917L219.891 444.401L223.833 449.301L222.546 449.754L222.549 449.753ZM220.219 446.62C220.172 446.549 220.098 446.443 219.998 446.303C219.897 446.163 219.799 446.019 219.698 445.868C219.598 445.717 219.518 445.595 219.456 445.5C219.479 445.627 219.494 445.775 219.51 445.945C219.526 446.115 219.54 446.278 219.555 446.437C219.571 446.596 219.581 446.728 219.59 446.838L219.619 448.187L221.03 447.69L220.214 446.618L220.219 446.62Z" fill="#6666FF"/>
<path d="M228.113 444.562C228.338 445.203 228.406 445.778 228.318 446.288C228.227 446.798 228.006 447.238 227.644 447.602C227.284 447.97 226.804 448.256 226.199 448.469L224.499 449.067L222.539 443.495L224.379 442.848C224.967 442.641 225.504 442.569 225.989 442.628C226.474 442.688 226.899 442.878 227.262 443.203C227.624 443.525 227.907 443.977 228.113 444.562ZM226.881 445.047C226.74 444.647 226.565 444.336 226.356 444.117C226.148 443.898 225.903 443.765 225.625 443.721C225.346 443.676 225.034 443.713 224.692 443.833L224.075 444.051L225.346 447.662L225.846 447.486C226.418 447.285 226.787 446.983 226.955 446.577C227.124 446.174 227.097 445.662 226.879 445.044L226.881 445.047Z" fill="#6666FF"/>
<path d="M233.456 445.916L230.25 447.044L228.29 441.472L231.495 440.344L231.836 441.313L229.807 442.026L230.238 443.252L232.127 442.587L232.468 443.556L230.579 444.221L231.085 445.658L233.114 444.944L233.457 445.919L233.456 445.916Z" fill="#6666FF"/>
<path d="M240.698 440.229C240.85 440.662 240.935 441.07 240.951 441.459C240.968 441.848 240.915 442.206 240.787 442.539C240.662 442.869 240.454 443.161 240.171 443.414C239.887 443.667 239.513 443.872 239.055 444.033C238.597 444.194 238.186 444.262 237.801 444.248C237.418 444.229 237.073 444.131 236.769 443.953C236.465 443.775 236.195 443.527 235.965 443.214C235.734 442.9 235.543 442.525 235.389 442.086C235.185 441.508 235.103 440.974 235.145 440.48C235.184 439.988 235.36 439.554 235.67 439.178C235.98 438.802 236.439 438.509 237.047 438.295C237.655 438.081 238.19 438.024 238.667 438.123C239.144 438.222 239.55 438.452 239.89 438.815C240.229 439.178 240.497 439.649 240.7 440.225L240.698 440.229ZM236.647 441.654C236.782 442.038 236.949 442.356 237.141 442.602C237.337 442.847 237.562 443.009 237.823 443.086C238.084 443.162 238.375 443.14 238.697 443.026C239.019 442.913 239.272 442.74 239.426 442.522C239.578 442.3 239.652 442.033 239.648 441.72C239.644 441.407 239.571 441.057 239.436 440.673C239.232 440.091 238.963 439.67 238.635 439.413C238.304 439.157 237.89 439.113 237.389 439.289C237.061 439.404 236.821 439.573 236.666 439.799C236.511 440.022 236.434 440.29 236.438 440.603C236.439 440.917 236.51 441.264 236.647 441.654Z" fill="#6666FF"/>
<path d="M243.982 442.212L242.818 442.621L240.857 437.049L244.05 435.926L244.391 436.895L242.362 437.609L242.868 439.045L244.756 438.381L245.097 439.35L243.209 440.014L243.983 442.215L243.982 442.212Z" fill="#6666FF"/>
<path d="M248.263 440.706L247.1 441.115L245.139 435.543L248.331 434.42L248.672 435.388L246.644 436.102L247.149 437.539L249.038 436.875L249.379 437.843L247.49 438.508L248.264 440.709L248.263 440.706Z" fill="#6666FF"/>
</g>
</g>
<defs>
<clipPath id="clip0_34_983">
<rect width="459.01" height="516.09" fill="white"/>
</clipPath>
<clipPath id="clip1_34_983">
<rect width="37.3066" height="46.7138" fill="white" transform="translate(66.2434 259.997) rotate(120.91)"/>
</clipPath>
<clipPath id="clip2_34_983">
<rect width="105.257" height="105.257" fill="white" transform="translate(336.363 372) rotate(30.463)"/>
</clipPath>
<clipPath id="clip3_34_983">
<rect width="60.7091" height="24.7912" fill="white" transform="translate(360.951 48) rotate(13.8887)"/>
</clipPath>
<clipPath id="clip4_34_983">
<rect width="30.3274" height="30.3274" fill="white" transform="translate(267 35.2324) rotate(-25.8692)"/>
</clipPath>
<clipPath id="clip5_34_983">
<rect width="80.7049" height="80.7049" fill="white" transform="translate(123 439.275) rotate(-28.3111)"/>
</clipPath>
<clipPath id="clip6_34_983">
<rect width="62.9171" height="52.3768" fill="white" transform="translate(59 401.859) rotate(-3.51679)"/>
</clipPath>
<clipPath id="clip7_34_983">
<rect width="60.4162" height="19.7501" fill="white" transform="matrix(0.95354 -0.301268 0.300473 0.95379 329 30.2017)"/>
</clipPath>
<clipPath id="clip8_34_983">
<rect width="81.0029" height="81.0029" fill="white" transform="translate(365 170.274) rotate(-10.1491)"/>
</clipPath>
<clipPath id="clip9_34_983">
<rect width="64.5041" height="64.5041" fill="white" transform="translate(62.6382) rotate(76.1851)"/>
</clipPath>
<clipPath id="clip10_34_983">
<rect width="67.3128" height="68.967" fill="white" transform="translate(186 422.342) rotate(-19.3852)"/>
</clipPath>
</defs>
</svg>
